<svg width="20" height="21" viewBox="0 0 20 21" fill="none" xmlns="http://www.w3.org/2000/svg">
<path d="M2.50002 3H17.5C17.721 3 17.933 3.0878 18.0893 3.24408C18.2456 3.40036 18.3334 3.61232 18.3334 3.83333V17.1667C18.3334 17.3877 18.2456 17.5996 18.0893 17.7559C17.933 17.9122 17.721 18 17.5 18H2.50002C2.27901 18 2.06704 17.9122 1.91076 17.7559C1.75448 17.5996 1.66669 17.3877 1.66669 17.1667V3.83333C1.66669 3.61232 1.75448 3.40036 1.91076 3.24408C2.06704 3.0878 2.27901 3 2.50002 3V3ZM16.6667 6.53167L10.06 12.4483L3.33335 6.51333V16.3333H16.6667V6.53167ZM3.75919 4.66667L10.0509 10.2183L16.2517 4.66667H3.75919Z" fill="#76746D"/>
</svg>
