<svg width="20" height="21" viewBox="0 0 20 21" fill="none" xmlns="http://www.w3.org/2000/svg">
<path d="M10.7641 11.3333C10.5519 12.5667 9.8849 13.6757 8.89491 14.4414C7.90492 15.207 6.66386 15.5737 5.41672 15.4691C4.16958 15.3644 3.00698 14.796 2.15844 13.8761C1.3099 12.9562 0.837082 11.7515 0.833315 10.5C0.832171 9.24551 1.30264 8.03642 2.15138 7.11263C3.00012 6.18884 4.16511 5.61785 5.41521 5.51295C6.66531 5.40805 7.90917 5.77691 8.89999 6.54633C9.89082 7.31576 10.5562 8.42953 10.7641 9.66667H19.1666V11.3333H17.5V14.6667H15.8333V11.3333H14.1666V14.6667H12.5V11.3333H10.7641ZM5.83331 13.8333C6.71737 13.8333 7.56522 13.4821 8.19034 12.857C8.81546 12.2319 9.16665 11.3841 9.16665 10.5C9.16665 9.61595 8.81546 8.7681 8.19034 8.14298C7.56522 7.51786 6.71737 7.16667 5.83331 7.16667C4.94926 7.16667 4.10141 7.51786 3.47629 8.14298C2.85117 8.7681 2.49998 9.61595 2.49998 10.5C2.49998 11.3841 2.85117 12.2319 3.47629 12.857C4.10141 13.4821 4.94926 13.8333 5.83331 13.8333V13.8333Z" fill="#76746D"/>
</svg>
