<svg width="21" height="21" viewBox="0 0 21 21" fill="none" xmlns="http://www.w3.org/2000/svg">
<g clip-path="url(#clip0_982_644)">
<path d="M17.5282 11.535V17.1667H18.3616V18.8333H1.69491V17.1667H2.52824V11.535C2.01522 11.1926 1.59467 10.7288 1.30392 10.1848C1.01318 9.64081 0.861232 9.03346 0.861573 8.41666C0.861573 7.72749 1.04824 7.06332 1.38907 6.49749L3.64907 2.58332C3.72221 2.45664 3.82741 2.35145 3.95408 2.27831C4.08076 2.20517 4.22446 2.16666 4.37074 2.16666H15.6866C15.8329 2.16666 15.9765 2.20517 16.1032 2.27831C16.2299 2.35145 16.3351 2.45664 16.4082 2.58332L18.6599 6.48499C19.157 7.31072 19.3168 8.29627 19.1061 9.23677C18.8953 10.1773 18.3302 11.0004 17.5282 11.535V11.535ZM15.8616 12.1433C15.2886 12.2076 14.7085 12.1388 14.1665 11.9422C13.6245 11.7456 13.1351 11.4266 12.7366 11.01C12.3867 11.3759 11.9664 11.6671 11.5009 11.866C11.0354 12.065 10.5345 12.1675 10.0282 12.1675C9.52214 12.1677 9.02124 12.0655 8.55576 11.8668C8.09028 11.6681 7.66987 11.3772 7.31991 11.0117C6.92126 11.4281 6.43188 11.747 5.88987 11.9434C5.34785 12.1398 4.76781 12.2085 4.19491 12.1442V17.1667H15.8616V12.1442V12.1433ZM4.85241 3.83332L2.82491 7.34416C2.62789 7.83094 2.62197 8.37418 2.80835 8.86514C2.99472 9.3561 3.35964 9.75857 3.83006 9.99198C4.30048 10.2254 4.84169 10.2726 5.34539 10.124C5.84909 9.97545 6.2781 9.64216 6.54657 9.19082C6.82574 8.49332 7.81324 8.49332 8.09324 9.19082C8.24765 9.57784 8.51457 9.90966 8.85951 10.1434C9.20445 10.3772 9.61156 10.5021 10.0282 10.5021C10.4449 10.5021 10.852 10.3772 11.197 10.1434C11.5419 9.90966 11.8088 9.57784 11.9632 9.19082C12.2424 8.49332 13.2299 8.49332 13.5099 9.19082C13.6181 9.45703 13.7801 9.69799 13.9859 9.89855C14.1916 10.0991 14.4366 10.255 14.7055 10.3563C14.9744 10.4576 15.2613 10.5022 15.5483 10.4872C15.8352 10.4723 16.116 10.3982 16.3729 10.2695C16.6298 10.1408 16.8574 9.96043 17.0412 9.7396C17.225 9.51877 17.3612 9.26229 17.4411 8.9863C17.5211 8.71031 17.5431 8.42076 17.5057 8.13587C17.4683 7.85097 17.3725 7.57688 17.2241 7.33082L15.2032 3.83332H4.85324H4.85241Z" fill="#76746D"/>
</g>
<defs>
<clipPath id="clip0_982_644">
<rect width="20" height="20" fill="white" transform="translate(0.0283203 0.5)"/>
</clipPath>
</defs>
</svg>
