<svg width="985" height="810" viewBox="0 0 985 810" fill="none" xmlns="http://www.w3.org/2000/svg">
<mask id="mask0_920_404" style="mask-type:alpha" maskUnits="userSpaceOnUse" x="0" y="0" width="985" height="810">
<rect width="985" height="810" fill="#D9D9D9"/>
</mask>
<g mask="url(#mask0_920_404)">
<path opacity="0.23" d="M900.339 191.241C840.813 138.775 672.7 175.444 511.637 140.763C400.251 116.778 346.811 36.5018 249.281 1.17212C126.55 -43.2868 -4.19617e-05 -24.8809 -4.19617e-05 -24.8809V810H900.339C900.339 810 1052.83 325.651 900.339 191.241Z" fill="#EFE2AE"/>
<path opacity="0.23" d="M451.737 809.437H900.879C988.122 809.437 1013.07 507.901 949.228 352.96C949.228 352.96 988.065 205.491 735.905 190.857C649.412 185.99 479.243 200.426 394.069 131.5C308.896 62.5739 150.027 11.8685 0.307592 81.6627V452.023V809.437C0.307592 809.437 85.299 809.437 132.196 809.437C132.196 809.437 451.737 806.06 451.737 809.437Z" fill="#D6BA45"/>
<path fill-rule="evenodd" clip-rule="evenodd" d="M601.788 304.953C602.071 305.293 602.024 305.798 601.684 306.08C571.773 330.956 534.261 340.464 500.977 342.539C467.702 344.614 438.545 339.266 425.258 334.319L425.229 334.308L425.537 333.569C425.229 334.308 425.229 334.308 425.229 334.308L425.22 334.304L425.191 334.292L425.073 334.243C424.968 334.201 424.811 334.137 424.604 334.054C424.191 333.888 423.58 333.646 422.791 333.343C421.212 332.737 418.92 331.886 416.073 330.91C410.378 328.956 402.468 326.5 393.607 324.491C384.743 322.482 374.946 320.924 365.471 320.756C355.99 320.588 346.887 321.813 339.373 325.324C324.066 332.522 315.032 347.106 315.894 360.926C316.751 374.653 327.412 387.967 352.226 392.578C364.631 394.882 379.44 394.253 395.515 391.967C411.583 389.682 428.86 385.751 446.187 381.485C451.628 380.145 457.076 378.772 462.494 377.406C491.52 370.089 519.669 362.993 541.171 362.495C573 361.769 602.406 365.921 622.245 382.261C622.586 382.542 622.635 383.047 622.354 383.388C622.073 383.73 621.568 383.779 621.227 383.497C601.86 367.547 572.97 363.371 541.208 364.097C519.904 364.589 491.975 371.628 462.936 378.947C457.507 380.315 452.04 381.693 446.57 383.04C429.234 387.308 411.892 391.256 395.741 393.553C379.596 395.849 364.588 396.503 351.934 394.152C326.631 389.451 315.212 375.698 314.296 361.026C313.386 346.449 322.887 331.306 338.692 323.875C346.51 320.221 355.887 318.984 365.5 319.155C375.12 319.325 385.032 320.905 393.961 322.929C402.893 324.954 410.86 327.428 416.593 329.395C419.46 330.378 421.77 331.236 423.365 331.848C424.162 332.154 424.781 332.399 425.201 332.567C425.411 332.652 425.571 332.717 425.679 332.761L425.802 332.812L425.83 332.823C438.879 337.677 467.796 343.003 500.877 340.941C533.96 338.878 571.101 329.433 600.66 304.849C601 304.566 601.505 304.612 601.788 304.953Z" fill="white"/>
<path d="M572.302 370.536C572.302 353.109 617.657 353.643 630.32 347.578C642.983 341.513 654.578 314.092 679.434 314.092C704.29 314.092 708.56 334.124 719.579 336.772C730.597 339.42 753.275 333.078 762.778 347.578C772.28 362.079 807.621 357.872 807.621 370.536C807.621 383.2 737.986 390.567 696.325 390.567C654.663 390.567 572.302 390.055 572.302 370.536Z" fill="white"/>
<path d="M147.553 296.836C147.553 285.367 177.449 285.731 185.734 281.737C194.019 277.743 201.685 259.698 218 259.698C234.314 259.698 237.218 272.874 244.414 274.647C251.611 276.419 266.58 272.212 272.815 281.758C279.05 291.304 302.326 288.528 302.326 296.857C302.326 305.186 256.522 310.033 229.104 310.033C201.685 310.033 147.553 309.67 147.553 296.836Z" fill="white"/>
<path d="M608.817 291.113L594.339 273.773L641.104 272L608.817 291.113Z" fill="white"/>
<path d="M608.817 291.113L608.881 305.422L616.034 301.044L641.104 272L608.817 291.113Z" fill="#FFCD05"/>
<path d="M610.824 294.167L621.074 314.284L641.104 272L610.824 294.167Z" fill="white"/>
<g clip-path="url(#clip0_920_404)">
<path opacity="0.42" d="M745.99 526.112H693.145C692.829 523.889 692.475 521.668 692.082 519.451H708.422C711.699 519.451 714.842 518.15 717.159 515.833C719.476 513.517 720.778 510.375 720.778 507.099V507.099C720.778 503.824 719.476 500.682 717.159 498.366C714.842 496.049 711.699 494.748 708.422 494.748H686.231C658.821 402.933 573.703 335.997 472.943 335.997C372.183 335.997 287.065 402.933 259.655 494.748H235.855C232.578 494.748 229.435 496.049 227.118 498.366C224.801 500.682 223.499 503.824 223.499 507.099V507.099C223.499 510.375 224.801 513.517 227.118 515.833C229.435 518.15 232.578 519.451 235.855 519.451H253.801C253.408 521.658 253.051 523.879 252.73 526.112H219.192C212.638 526.112 206.352 528.714 201.718 533.347C197.084 537.98 194.48 544.263 194.48 550.815V550.815C194.48 554.059 195.119 557.271 196.361 560.268C197.603 563.265 199.423 565.988 201.718 568.282C204.013 570.576 206.737 572.396 209.735 573.637C212.733 574.879 215.947 575.517 219.192 575.517H251.026C251.197 577.749 251.4 579.97 251.635 582.181H232.042C228.765 582.181 225.622 583.483 223.305 585.799C220.988 588.115 219.686 591.257 219.686 594.533C219.686 597.809 220.988 600.95 223.305 603.267C225.622 605.583 228.765 606.884 232.042 606.884H255.675C277.789 706.463 366.661 780.927 472.934 780.927C579.207 780.927 668.08 706.463 690.194 606.884H704.609C707.886 606.884 711.029 605.583 713.346 603.267C715.663 600.95 716.965 597.809 716.965 594.533V594.533C716.965 591.257 715.663 588.115 713.346 585.799C711.029 583.483 707.886 582.181 704.609 582.181H694.233C694.464 579.97 694.667 577.749 694.842 575.517H745.99C752.544 575.517 758.83 572.915 763.464 568.282C768.098 563.649 770.702 557.366 770.702 550.815V550.815C770.702 547.571 770.063 544.358 768.821 541.361C767.579 538.364 765.759 535.641 763.464 533.347C761.169 531.053 758.445 529.234 755.447 527.992C752.449 526.751 749.235 526.112 745.99 526.112V526.112Z" fill="white"/>
<g style="mix-blend-mode:multiply">
<path d="M811.874 810.141L131.944 811.994C99.53 812.353 106.546 797.828 121.997 792.647L122.036 792.544L810.641 789.914L812.968 791.05C825.445 795.89 829.343 807.509 811.874 810.141Z" fill="#FBD000"/>
</g>
<path d="M803.551 801.137H129.949C126.65 801.138 123.448 800.022 120.864 797.972C118.28 795.921 116.466 793.056 115.719 789.844C114.322 783.795 114.598 762.847 115.834 756.842C116.51 753.635 118.18 750.723 120.606 748.52L197.254 678.552C199.921 676.116 203.403 674.764 207.015 674.761L719.554 674.273C725.954 674.263 732.144 676.56 736.988 680.743L818.093 750.896C819.915 752.483 821.036 754.726 821.211 757.136C821.697 763.527 820.441 784.486 818.37 790.485C817.318 793.583 815.325 796.275 812.668 798.185C810.011 800.095 806.824 801.127 803.551 801.137V801.137Z" fill="white"/>
<path d="M114.981 765.867C114.587 774.422 114.754 785.68 115.719 789.85C116.466 793.062 118.28 795.927 120.864 797.978C123.448 800.028 126.65 801.144 129.949 801.143H803.551C806.82 801.132 810.005 800.101 812.66 798.194C815.315 796.287 817.308 793.599 818.361 790.506C819.832 786.271 820.876 774.625 821.2 765.873L114.981 765.867Z" fill="#F4DBD6"/>
<path d="M773.026 756.048L163.796 755.051L239.759 674.382L697.154 673.885L773.026 756.048Z" fill="#FBD000"/>
<mask id="mask1_920_404" style="mask-type:alpha" maskUnits="userSpaceOnUse" x="163" y="673" width="611" height="84">
<path d="M773.026 756.048L163.796 755.051L239.759 674.382L697.154 673.885L773.026 756.048Z" fill="#FBD000"/>
</mask>
<g mask="url(#mask1_920_404)">
<path d="M763.621 685.404C723.867 685.251 684.075 685.11 644.315 685.904C632.52 676.368 620.763 666.787 609.044 657.16C604.705 653.593 598.706 652.996 594.45 657.16C590.76 660.766 590.157 668.218 594.45 671.747C600.56 676.77 606.708 681.746 612.839 686.745C588.36 687.58 563.898 688.865 539.468 690.833C524.72 692.009 510.008 693.479 495.293 694.87C522.397 678.794 549.574 662.833 576.822 646.988C588.295 640.318 577.925 622.482 566.404 629.173C527.077 652.017 487.906 675.127 448.893 698.502L448.266 698.54C421.369 684.852 394.751 670.632 368.411 655.881C356.811 649.382 346.394 667.194 357.994 673.694C373.645 682.463 389.399 691.036 405.256 699.411C376.463 699.296 236.111 702.622 195.642 703.96C190.082 704.146 183.936 721.711 189.555 721.711C240.332 721.711 284.34 719.553 341.422 719.323C356.844 726.211 370.315 731.148 384.745 737.286C365.103 749.245 345.49 761.269 325.907 773.358C314.633 780.333 324.986 798.187 336.324 791.173C373.904 767.929 411.636 744.934 449.52 722.188C496.719 745.826 544.705 767.819 593.476 788.168C598.656 790.332 604.776 785.833 606.17 780.963C607.865 775.043 604.081 770.411 598.962 768.276C576.927 759.081 555.052 749.518 533.334 739.588C551.718 728.454 561.047 720.864 578.804 711.651C578.99 711.557 591.393 710.151 591.578 710.057C608.921 709.198 620.047 707.066 637.407 706.669C668.074 731.372 698.984 755.78 730.139 779.895C734.581 783.327 740.389 784.142 744.734 779.895C748.326 776.366 749.147 768.72 744.734 765.306C719.486 745.802 694.409 726.082 669.5 706.145C700.867 705.801 732.239 705.922 763.609 706.043C776.903 706.09 776.921 685.457 763.621 685.404ZM392.685 732.457C381.094 727.557 371.662 724.864 357.435 719.547C376.557 719.841 395.244 720.111 413.072 720.061C406.268 724.181 399.481 728.34 392.685 732.457ZM526.062 736.256C512.041 729.787 498.089 723.18 484.208 716.435C498.982 715.153 554.081 711.662 567.64 710.848C556.002 719.156 529.101 734.136 526.062 736.262V736.256Z" fill="#6D6E71"/>
<path d="M252.633 708.254C252.318 707.113 251.191 706.601 250.094 706.813C243.996 707.998 237.801 708.61 231.589 708.642C228.941 708.66 228.941 712.786 231.589 712.759C238.17 712.711 244.733 712.049 251.191 710.783C252.285 710.58 252.912 709.272 252.633 708.254Z" fill="white"/>
<path d="M294.82 706.592C294.499 705.416 293.387 704.978 292.281 705.151C287.103 705.958 281.858 706.242 276.624 706.001C275.509 705.954 274.564 706.984 274.564 708.06C274.574 708.603 274.793 709.121 275.178 709.505C275.562 709.89 276.08 710.109 276.624 710.118C282.233 710.35 287.851 710.016 293.393 709.122C294.481 708.957 295.093 707.581 294.82 706.592Z" fill="white"/>
<path d="M352.481 707.542L334.217 708.636C333.675 708.648 333.158 708.869 332.775 709.253C332.391 709.636 332.17 710.153 332.158 710.695C332.158 711.759 333.103 712.824 334.217 712.753L352.481 711.657C353.023 711.644 353.539 711.423 353.923 711.04C354.306 710.656 354.527 710.14 354.54 709.598C354.546 708.539 353.602 707.475 352.481 707.542Z" fill="white"/>
<path d="M411.928 689.259C407.358 687.811 402.972 685.837 398.857 683.378C398.623 683.241 398.365 683.152 398.096 683.115C397.828 683.078 397.555 683.094 397.292 683.163C397.03 683.232 396.784 683.351 396.568 683.515C396.353 683.679 396.171 683.883 396.034 684.117C395.898 684.351 395.808 684.61 395.771 684.878C395.734 685.146 395.751 685.419 395.82 685.681C395.888 685.943 396.008 686.189 396.172 686.405C396.336 686.621 396.54 686.802 396.774 686.939C401.204 689.57 405.92 691.687 410.831 693.247C411.358 693.387 411.92 693.314 412.394 693.045C412.869 692.775 413.219 692.331 413.369 691.806C413.505 691.278 413.43 690.717 413.162 690.243C412.893 689.768 412.451 689.415 411.928 689.259Z" fill="white"/>
<path d="M441.962 705.907L431.015 699.814C430.074 699.29 428.72 699.555 428.191 700.555C427.925 701.03 427.853 701.59 427.992 702.116C428.13 702.643 428.467 703.095 428.932 703.378L439.879 709.471C440.823 709.998 442.177 709.73 442.703 708.733C442.972 708.258 443.044 707.698 442.906 707.17C442.768 706.642 442.429 706.189 441.962 705.907V705.907Z" fill="white"/>
<path d="M482.092 725.858L469.625 720.338C468.642 719.903 467.362 720.02 466.8 721.079C466.327 721.961 466.488 723.432 467.542 723.902L480.009 729.419C480.995 729.857 482.272 729.74 482.834 728.681C483.307 727.784 483.146 726.325 482.092 725.858Z" fill="white"/>
<path d="M516.922 742.247C515.69 741.924 514.481 741.52 513.303 741.038L513.215 741L512.738 740.785C512.462 740.656 512.185 740.524 511.914 740.385C511.326 740.091 510.758 739.774 510.196 739.438C509.962 739.302 509.704 739.212 509.435 739.176C509.167 739.139 508.894 739.155 508.632 739.224C508.37 739.292 508.124 739.412 507.908 739.576C507.692 739.74 507.51 739.944 507.374 740.178C507.237 740.412 507.147 740.67 507.111 740.939C507.074 741.207 507.09 741.48 507.159 741.742C507.228 742.004 507.347 742.25 507.511 742.466C507.675 742.682 507.88 742.863 508.113 743C510.517 744.437 513.112 745.526 515.821 746.235C516.866 746.505 518.113 745.891 518.36 744.794C518.499 744.265 518.427 743.704 518.158 743.228C517.89 742.753 517.446 742.4 516.922 742.247Z" fill="white"/>
<path d="M403.552 709.083C403.396 708.563 403.045 708.122 402.572 707.854C402.099 707.585 401.541 707.51 401.013 707.642C400.382 707.78 399.747 707.903 399.11 708.013C398.816 708.063 398.522 708.107 398.227 708.151L398.098 708.169C397.957 708.192 397.804 708.207 397.666 708.222C396.406 708.369 395.141 708.453 393.87 708.475C392.794 708.498 391.758 709.41 391.811 710.533C391.82 711.076 392.04 711.595 392.424 711.979C392.809 712.363 393.327 712.583 393.87 712.592C396.642 712.535 399.401 712.207 402.108 711.612C402.632 711.464 403.077 711.116 403.347 710.643C403.617 710.17 403.691 709.61 403.552 709.083V709.083Z" fill="white"/>
<path d="M509.096 703.178H494.887C494.34 703.178 493.817 703.395 493.431 703.781C493.044 704.167 492.827 704.691 492.827 705.237C492.827 705.783 493.044 706.306 493.431 706.692C493.817 707.078 494.34 707.295 494.887 707.295H509.096C509.642 707.295 510.166 707.078 510.552 706.692C510.938 706.306 511.155 705.783 511.155 705.237C511.155 704.691 510.938 704.167 510.552 703.781C510.166 703.395 509.642 703.178 509.096 703.178Z" fill="white"/>
<path d="M546.423 702.099C543.186 702.458 539.924 702.534 536.673 702.328C535.594 702.261 534.564 703.325 534.614 704.387C534.627 704.929 534.848 705.445 535.231 705.828C535.615 706.212 536.131 706.433 536.673 706.445C539.924 706.653 543.186 706.576 546.423 706.216C547.494 706.095 548.541 705.351 548.482 704.157C548.441 703.146 547.573 701.969 546.423 702.099Z" fill="white"/>
<path d="M583.732 698.311H574.806C573.727 698.311 572.694 699.261 572.747 700.37C572.757 700.913 572.977 701.431 573.361 701.814C573.745 702.198 574.263 702.418 574.806 702.428H583.732C584.812 702.428 585.847 701.481 585.791 700.37C585.78 699.827 585.56 699.31 585.176 698.927C584.792 698.543 584.275 698.322 583.732 698.311V698.311Z" fill="white"/>
<path d="M647.301 697.279C645.471 696.333 643.698 695.283 641.988 694.135C641.161 693.579 640.346 693 639.552 692.4L639.287 692.197L639.225 692.153L638.566 691.627C638.154 691.294 637.748 690.953 637.345 690.609C636.525 689.909 635.221 689.745 634.427 690.609C633.718 691.38 633.544 692.779 634.427 693.526C637.732 696.37 641.353 698.825 645.218 700.843C646.174 701.34 647.504 701.12 648.042 700.102C648.542 699.155 648.325 697.811 647.301 697.279Z" fill="white"/>
<path d="M676.514 720.367C672.53 716.628 668.342 713.111 663.97 709.833C663.105 709.183 661.616 709.666 661.145 710.574C660.572 711.659 660.963 712.7 661.887 713.397C665.964 716.481 669.873 719.781 673.596 723.284C674.381 724.023 675.743 724.123 676.514 723.284C677.285 722.446 677.352 721.155 676.514 720.367Z" fill="white"/>
<path d="M697.672 740.576L690.718 734.971C690.316 734.602 689.792 734.393 689.247 734.383C688.698 734.379 688.17 734.591 687.776 734.971C687.084 735.724 686.875 737.165 687.776 737.889L694.73 743.494C695.129 743.87 695.653 744.086 696.201 744.1C696.752 744.098 697.28 743.88 697.672 743.494C698.346 742.75 698.555 741.3 697.672 740.576Z" fill="white"/>
<path d="M690.426 694.206L677.444 694.994C676.367 695.062 675.328 695.897 675.384 697.052C675.431 698.114 676.296 699.185 677.444 699.111L690.426 698.32C691.503 698.255 692.541 697.42 692.486 696.261C692.444 695.209 691.579 694.135 690.426 694.206Z" fill="white"/>
<path d="M716.394 694.256H707.863C706.783 694.256 705.748 695.206 705.804 696.314C705.814 696.857 706.035 697.374 706.418 697.758C706.802 698.142 707.32 698.362 707.863 698.373H716.394C717.474 698.373 718.507 697.426 718.454 696.314C718.443 695.772 718.223 695.254 717.839 694.87C717.455 694.487 716.937 694.266 716.394 694.256V694.256Z" fill="white"/>
<path d="M485.325 691.665C484.672 690.65 483.56 690.439 482.501 690.924L471.949 695.779C470.966 696.232 470.645 697.729 471.207 698.602C471.863 699.617 472.972 699.829 474.032 699.343L484.584 694.488C485.561 694.035 485.887 692.538 485.325 691.665Z" fill="white"/>
<path d="M498.305 683.954C498.034 683.49 497.591 683.15 497.072 683.007C496.536 682.879 495.97 682.953 495.484 683.213L490.618 685.657C490.384 685.793 490.178 685.975 490.014 686.191C489.85 686.406 489.73 686.653 489.662 686.915C489.593 687.177 489.577 687.451 489.614 687.719C489.652 687.988 489.742 688.246 489.88 688.48C490.151 688.944 490.593 689.284 491.112 689.427C491.65 689.554 492.216 689.481 492.704 689.221L497.567 686.777C497.801 686.641 498.006 686.459 498.17 686.243C498.334 686.028 498.454 685.781 498.523 685.519C498.591 685.257 498.607 684.983 498.57 684.715C498.533 684.446 498.443 684.188 498.305 683.954V683.954Z" fill="white"/>
</g>
<path d="M505.389 579.182C484.902 584.987 440.773 589.26 397.486 593.592C396.604 580.929 399.031 568.483 405.244 556.285L426.493 508.817C439.867 502.397 453.123 497.842 466.209 495.877C482.978 493.969 497.77 495.736 508.519 505.111L511.661 551.656C512.006 562.31 509.823 571.43 505.389 579.182Z" fill="#360604"/>
<path d="M533.72 482.305C489.609 481.52 447.71 481.817 422.151 490.078C403.455 516.445 389.219 550.659 377.881 589.948C353.355 600.241 328.028 610.613 319.555 619.25C311.477 631.211 310.282 668.882 320.438 673.361L348.553 673.282C356.176 661.404 365.599 652.34 381.456 653.326C395.915 651.535 406.794 660.883 416.758 673.091L535.514 672.758L533.72 482.305ZM510.055 564.307C509.643 568.154 508.849 572.086 506.925 575.482C506.057 577.071 504.881 578.47 503.465 579.599C502.043 580.666 500.452 581.487 498.758 582.028C495.254 583.205 491.498 583.499 487.829 583.684C486.09 583.775 484.349 583.825 482.61 583.955C480.033 584.146 477.462 584.431 474.899 584.752C469.677 585.41 464.479 586.24 459.26 586.91C456.662 587.242 454.053 587.481 451.455 587.792C448.858 588.104 446.301 588.507 443.736 588.942C438.614 589.825 433.51 590.789 428.358 591.468C425.978 591.783 423.587 591.992 421.201 592.271C418.874 592.545 416.547 592.842 414.217 593.098C409.577 593.612 404.861 594.033 400.199 593.595C400.074 593.591 399.953 593.556 399.846 593.492C399.74 593.428 399.651 593.338 399.589 593.231C399.527 593.123 399.494 593.001 399.492 592.877C399.491 592.753 399.521 592.63 399.581 592.521C400.151 591.294 400.817 590.114 401.572 588.992C402.222 588.063 402.719 587.035 403.043 585.949C403.467 584.331 403.338 582.634 403.338 580.976C403.338 579.167 403.29 577.355 403.196 575.547C403.145 574.072 402.886 572.612 402.426 571.209C402.002 569.95 401.466 568.712 401.266 567.386C400.881 564.842 402.096 562.422 403.032 560.131C403.543 558.887 403.979 557.626 404.503 556.387C405.15 554.878 405.803 553.37 406.462 551.864C407.771 548.883 409.151 545.936 410.58 543.004C411.89 540.304 412.934 537.452 414.081 534.681C415.229 531.911 416.376 529.138 417.573 526.385C419.927 520.936 422.486 515.543 425.634 510.505C426.014 509.893 426.855 510.211 426.961 510.749C429.338 508.102 432.574 506.338 435.813 504.961C439.052 503.585 442.444 502.435 445.816 501.359C455.597 498.276 465.723 496.418 475.961 495.827C478.206 495.65 480.459 495.595 482.71 495.663C484.885 495.763 487.049 496.032 489.182 496.465C493.454 497.33 497.658 498.877 501.318 501.262C503.033 502.379 504.71 503.653 505.998 505.256C507.147 506.694 508.014 508.337 508.555 510.096C509.705 513.778 509.614 517.742 509.731 521.565C509.802 524.109 509.784 526.659 509.849 529.211C509.914 531.814 510.008 534.414 510.102 537.016C510.29 542.283 510.47 547.55 510.473 552.823C510.446 556.643 510.467 560.487 510.055 564.307Z" fill="#FFE50A"/>
<path d="M532.672 558.423C531.84 564.922 530.681 571.439 528.392 577.6C527.356 580.513 525.964 583.288 524.247 585.86C523.414 587.072 522.429 588.154 521.54 589.322C520.698 590.475 519.709 591.513 518.598 592.41C516.698 593.88 513.918 594.842 511.538 594.009C510.458 593.63 509.478 592.962 508.537 592.336C508.046 592.01 507.557 591.671 507.066 591.345C506.772 591.16 506.334 590.757 505.995 590.704C505.113 590.571 504.454 591.901 504.251 592.609C503.936 593.715 503.918 594.886 503.854 596.03C503.798 597.03 503.809 598.212 503.403 599.147C502.859 600.403 501.679 601.464 500.641 602.308C499.603 603.152 498.488 603.92 497.784 605.079C496.943 606.464 496.516 608.125 496.208 609.701C495.593 612.851 495.534 616.077 494.954 619.233C492.718 631.428 480.868 638.936 469.73 641.98C463.776 643.609 457.669 644.238 451.523 644.371C443.333 644.55 435.137 644.612 426.946 644.471C418.756 644.33 410.569 643.938 402.396 643.338C394.831 642.743 387.229 642.764 379.667 643.4C372.118 644.096 364.65 645.5 357.364 647.594C353.099 648.811 349.009 650.167 344.599 650.779C336.259 651.955 327.154 651.787 319.217 648.694C317.093 647.888 315.087 646.8 313.253 645.459C312.689 658.272 314.836 670.891 320.458 673.37L348.574 673.291C356.196 661.413 365.619 652.349 381.476 653.334C395.936 651.543 406.815 660.892 416.779 673.1L535.514 672.758L534.273 541.131C533.87 546.912 533.408 552.682 532.672 558.423Z" fill="#FBD000"/>
<path d="M477.794 554.711C476.094 553.558 473.949 553.373 472.24 552.235C470.292 550.935 468.604 549.362 466.565 548.168C462.487 545.78 457.969 544.233 453.444 542.945C451.211 542.307 448.911 541.539 446.604 541.219C445.104 541.013 443.583 541.131 442.462 542.139C442.071 541.989 441.503 542.225 441.579 542.727C441.903 545.236 442.262 547.727 442.641 550.238C443.021 552.75 443.753 555.346 443.756 557.84C443.756 559.152 443.28 559.549 442.38 560.413C441.99 560.768 441.714 561.229 441.585 561.74C441.17 563.351 441.879 565.522 442.521 566.983C445.892 574.688 454.827 576.647 462.405 575.315C464.17 575.003 466.212 574.726 467.6 573.471C469.519 571.736 471.304 571.089 473.758 570.356C477.068 569.371 480.286 567.683 480.68 563.887C481.001 560.713 480.689 556.673 477.794 554.711Z" fill="#FFD9BD"/>
<path d="M438.49 582.655C438.417 582.399 438.355 582.14 438.302 581.881C438.303 581.742 438.296 581.603 438.281 581.464C438.146 580.114 437.967 578.044 436.913 576.941C436.152 576.059 435.016 575.635 433.898 576.432C433.809 576.494 433.736 576.575 433.683 576.67H433.669C433.351 576.861 433.081 577.123 432.88 577.435C432.562 577.851 432.339 578.332 432.227 578.844C431.836 580.717 432.421 583.314 433.992 584.49C434.963 585.21 437.658 586.316 438.655 585.131C439.288 584.399 438.711 583.425 438.49 582.655Z" fill="#FFD9BD"/>
<path d="M475.638 562.687C475.355 562.554 475.049 562.48 474.737 562.468C474.425 562.457 474.114 562.508 473.823 562.619C472.646 562.569 471.363 563.225 470.842 564.216C470.72 564.458 470.647 564.723 470.628 564.994C470.609 565.265 470.645 565.537 470.732 565.795C470.82 566.052 470.958 566.289 471.139 566.492C471.319 566.695 471.539 566.86 471.784 566.977C472.199 567.173 472.65 567.281 473.109 567.293C473.568 567.305 474.024 567.222 474.449 567.048C475.279 566.758 475.983 566.191 476.444 565.442C476.584 565.211 476.675 564.954 476.71 564.686C476.745 564.418 476.724 564.146 476.649 563.887C476.573 563.627 476.444 563.387 476.27 563.18C476.096 562.974 475.88 562.806 475.638 562.687Z" fill="#FFA294"/>
<path d="M464.482 558.461C463.741 554.741 463.614 550.671 459.572 549.088C458.689 548.741 457.639 549.774 457.936 550.668V550.691C455.004 549.765 452.331 548.161 450.134 546.009C449.954 545.83 449.73 545.702 449.483 545.639C449.237 545.577 448.978 545.582 448.734 545.654C448.49 545.726 448.27 545.862 448.098 546.048C447.925 546.234 447.805 546.464 447.751 546.712C446.084 545.317 444.829 543.494 444.121 541.439C444.061 541.226 443.921 541.045 443.73 540.934C443.539 540.822 443.312 540.789 443.097 540.842C442.882 540.895 442.696 541.029 442.578 541.216C442.46 541.403 442.419 541.629 442.465 541.845C442.491 542.004 442.524 542.163 442.559 542.322C441.9 542.783 441.7 543.574 441.573 544.436C441.379 545.78 441.347 547.159 441.832 548.447C441.935 548.718 442.38 548.891 442.538 548.55C442.876 547.793 443.139 547.005 443.324 546.198C443.368 546.021 443.415 545.595 443.477 545.154C444.504 547.362 446.156 549.222 448.228 550.503C449.025 551.009 449.899 550.541 450.229 549.794C452.87 551.867 455.961 553.291 459.254 553.95C459.548 554.01 459.854 553.984 460.133 553.875C460.413 553.765 460.654 553.576 460.828 553.332C461.926 555.064 462.417 557.581 463.52 559.008C463.891 559.466 464.582 558.967 464.482 558.461Z" fill="#FFA294"/>
<path d="M463.72 563.157C465.059 562.028 466.368 560.893 467.612 559.664C468.142 559.14 467.471 558.131 466.806 558.57C464.526 560.075 462.067 561.702 460.125 563.637C458.507 565.248 458.172 567.486 458.948 569.601C459.657 571.53 461.205 573.574 463.12 574.429C464.632 575.103 466.847 575.05 467.395 573.203C467.416 573.127 467.419 573.047 467.404 572.969C467.39 572.892 467.358 572.818 467.311 572.755C467.264 572.691 467.203 572.639 467.133 572.603C467.063 572.566 466.985 572.546 466.906 572.544C465.273 572.694 463.964 573.132 462.593 571.883C461.364 570.771 460.266 568.877 460.396 567.177C460.555 565.301 462.423 564.257 463.72 563.157Z" fill="#FFA294"/>
<path d="M438.649 583.825C437.805 583.031 436.652 582.749 435.825 581.905C435.286 581.375 434.862 580.74 434.577 580.041C434.292 579.341 434.153 578.59 434.169 577.835C434.17 577.726 434.129 577.62 434.054 577.541C434.077 577.373 434.104 577.205 434.136 577.041C434.216 576.626 433.621 576.294 433.404 576.729C431.592 580.349 432.521 585.337 437.055 586.14C437.297 586.198 437.551 586.18 437.782 586.087C438.013 585.995 438.209 585.832 438.343 585.622C438.433 585.51 438.496 585.38 438.53 585.241C438.564 585.102 438.568 584.957 438.54 584.816C438.617 584.762 438.681 584.692 438.729 584.61C438.777 584.529 438.807 584.439 438.817 584.345C438.827 584.252 438.818 584.157 438.789 584.067C438.76 583.978 438.712 583.895 438.649 583.825V583.825Z" fill="#FFA294"/>
<path d="M495.646 553.773C493.901 551.676 491.271 550.956 488.77 550.188C485.602 549.193 482.505 547.984 479.5 546.571C468.292 541.372 457.763 533.44 445.266 531.738C445.132 531.63 444.969 531.567 444.798 531.555C444.627 531.544 444.456 531.585 444.309 531.673C444.038 531.709 443.783 531.819 443.57 531.991C443.357 532.162 443.196 532.389 443.103 532.646C439.088 536.105 436.608 540.46 434.801 545.509C434.578 546.13 435.566 546.559 435.869 545.965C436.569 544.598 437.834 543.319 439.155 542.319C439.246 542.939 439.361 543.554 439.502 544.171C439.732 545.168 440.973 545.201 441.503 544.465C441.979 543.804 442.453 543.139 442.93 542.474C443.047 542.31 443.168 542.145 443.286 541.977C443.376 541.907 443.462 541.83 443.542 541.748C444.08 542.495 444.424 543.592 444.815 544.357C445.807 546.259 446.963 547.933 448.934 548.915C449.734 549.312 450.764 548.856 450.773 547.886C450.773 547.762 450.773 547.639 450.773 547.515C452.635 549.653 454.973 551.324 457.598 552.397C458.575 552.782 459.363 551.706 459.21 550.841C459.071 550.035 458.938 549.231 458.81 548.43C460.281 549.347 461.687 550.4 462.184 551.873C462.961 554.176 463.361 556.505 463.708 558.905C463.844 559.84 465.091 560.049 465.703 559.493C468.645 556.746 474.04 552.841 477.765 556.293C480.827 559.128 481.142 565.51 478.486 568.704C478.15 569.107 478.294 569.924 478.947 569.88C480.763 569.751 482.507 569.901 484.243 569.206C485.02 568.895 485.796 568.292 486.596 568.071C486.667 568.054 486.738 568.036 486.811 568.024L489.571 569.009C489.739 569.06 489.918 569.064 490.087 569.019C490.257 568.974 490.411 568.883 490.533 568.757L490.597 568.774C491.683 569.068 492.286 567.795 491.809 567.066C493.453 564.853 494.928 562.52 496.222 560.087C497.328 557.928 497.214 555.658 495.646 553.773Z" fill="#9C5043"/>
<path d="M465.935 557.452C462.241 559.092 458.282 560.052 454.247 560.287C450.593 560.508 446.616 560.94 443.124 559.646C442.874 559.022 441.915 558.867 441.653 559.681C440.182 564.348 441.926 569.421 445.707 572.48C449.993 575.95 455.121 574.747 460.202 575.376C460.322 575.393 460.444 575.364 460.543 575.294C460.971 575.639 461.46 575.901 461.984 576.067C462.349 576.173 462.82 575.803 462.67 575.406C462.117 573.935 460.746 572.897 459.881 571.583C458.704 569.789 457.589 567.318 458.669 565.236C460.41 561.875 463.723 560.502 466.574 558.314C467.1 557.928 466.462 557.214 465.935 557.452Z" fill="white"/>
<path opacity="0.79" d="M465.935 557.452C462.241 559.09 458.282 560.051 454.247 560.287L452.526 560.399C452.04 560.856 451.521 561.275 450.973 561.654C450.311 562.14 449.467 562.64 449.034 563.36C448.862 563.677 448.762 564.027 448.74 564.386C448.734 564.459 448.734 564.532 448.74 564.604V564.628V564.678C448.74 564.678 448.811 564.831 448.761 564.763C448.884 564.922 448.831 564.866 448.993 564.96C449.108 565.028 449.228 565.089 449.349 565.148C449.605 565.272 449.864 565.383 450.117 565.513C450.89 565.914 451.554 566.495 452.054 567.208C452.554 567.921 452.874 568.743 452.988 569.606C453.185 571.274 452.444 572.894 451.732 574.353C451.649 574.523 451.567 574.691 451.482 574.859C454.291 575.262 457.254 575.012 460.202 575.376C460.322 575.393 460.444 575.364 460.543 575.294C460.971 575.639 461.46 575.902 461.984 576.067C462.349 576.173 462.82 575.803 462.67 575.406C462.117 573.935 460.746 572.897 459.881 571.583C458.704 569.789 457.589 567.318 458.669 565.236C460.41 561.875 463.723 560.502 466.574 558.314C467.1 557.928 466.462 557.214 465.935 557.452Z" fill="#FFCFE9"/>
<path d="M474.14 557.214C473.17 556.561 471.649 557.176 471.269 558.252C471.229 558.368 471.212 558.49 471.22 558.613C471.228 558.735 471.26 558.855 471.315 558.964C471.37 559.074 471.446 559.171 471.539 559.251C471.632 559.331 471.741 559.391 471.857 559.428C472.015 559.556 472.199 559.647 472.396 559.693C472.719 559.747 473.05 559.728 473.365 559.638C473.68 559.548 473.971 559.389 474.217 559.172C474.362 559.051 474.477 558.897 474.553 558.724C474.63 558.552 474.665 558.363 474.658 558.174C474.651 557.985 474.6 557.801 474.51 557.634C474.421 557.468 474.294 557.324 474.14 557.214Z" fill="white"/>
<path d="M477.17 557.855C476.958 557.712 476.699 557.657 476.447 557.702C476.355 557.723 476.274 557.777 476.22 557.854C476.165 557.932 476.141 558.026 476.153 558.12C476.158 558.163 476.171 558.204 476.191 558.243C476.176 558.35 476.194 558.46 476.242 558.557C476.29 558.654 476.367 558.734 476.461 558.787C476.551 558.838 476.653 558.864 476.756 558.864C476.892 558.855 477.021 558.8 477.12 558.708C477.241 558.61 477.325 558.474 477.359 558.322C477.38 558.235 477.373 558.142 477.339 558.059C477.305 557.975 477.247 557.904 477.17 557.855V557.855Z" fill="white"/>
<path d="M494.916 553.226C493.313 552.391 491.633 551.712 489.962 551.026C489.729 550.924 489.472 550.89 489.221 550.928C488.97 550.965 488.734 551.073 488.541 551.238C487.509 550.652 486.426 550.159 485.305 549.768C485.18 549.72 485.048 549.697 484.914 549.701C484.781 549.705 484.65 549.736 484.528 549.791C481.569 547.609 478.227 545.812 475.17 544.292C465.538 539.498 455.165 536.313 445.289 532.105C444.327 531.693 443.745 533.231 444.586 533.749C448.796 536.352 453.076 538.381 457.651 540.284C462.226 542.186 466.771 544.001 471.219 546.139C475.517 548.197 479.815 550.476 483.575 553.42C486.552 555.746 489.503 559.008 490.238 562.769C490.147 562.646 490.056 562.519 489.962 562.396C489.626 561.949 488.976 562.234 488.82 562.69C488.303 562.081 487.188 562.396 487.091 563.325C487.029 563.683 486.994 564.044 486.985 564.407C486.994 564.567 487.016 564.727 487.049 564.883C486.002 565.286 485.178 565.998 484.108 566.38C482.734 566.871 481.204 567.077 479.765 567.298C478.486 567.495 478.803 569.406 480.009 569.471C482.345 569.595 486.929 569.471 488.097 566.907C488.295 567.116 488.55 567.263 488.831 567.328C489.112 567.393 489.406 567.375 489.677 567.274C489.865 567.209 490.034 567.098 490.17 566.952C490.306 566.806 490.404 566.629 490.456 566.436C490.912 567.23 492.427 567.086 492.81 566.089C493.513 564.298 494.298 562.56 495.081 560.796C495.399 560.478 495.606 560.065 495.669 559.619C496.258 558.487 496.914 557.246 496.967 556.09C497.049 554.699 496.072 553.826 494.916 553.226Z" fill="#8A4039"/>
<path d="M456.921 548.635C456.447 548.081 456.128 547.41 455.998 546.692C455.959 546.536 455.89 546.389 455.795 546.26C455.7 546.131 455.58 546.022 455.442 545.94C455.305 545.857 455.153 545.802 454.994 545.778C454.835 545.754 454.674 545.762 454.518 545.801C454.362 545.839 454.216 545.908 454.087 546.003C453.957 546.099 453.848 546.218 453.766 546.356C453.683 546.493 453.628 546.645 453.604 546.804C453.58 546.962 453.588 547.124 453.626 547.28C453.759 548.137 454.079 548.955 454.565 549.674C455.065 550.403 456.112 551.526 457.104 551.009C457.28 550.918 457.428 550.782 457.532 550.613C457.635 550.445 457.691 550.251 457.692 550.053C457.692 549.538 457.224 549.015 456.921 548.635Z" fill="#8A4039"/>
<path d="M459.251 548C459.057 547.083 458.386 546.377 457.842 545.648C457.548 545.239 456.851 545.265 456.489 545.539C456.289 545.687 456.149 545.903 456.095 546.146C456.041 546.389 456.076 546.643 456.195 546.862C456.395 547.233 456.592 547.6 456.783 547.968C457.031 548.412 457.375 548.796 457.789 549.091C457.955 549.189 458.146 549.236 458.338 549.225C458.531 549.214 458.715 549.146 458.869 549.03C459.026 548.914 459.146 548.755 459.214 548.572C459.282 548.389 459.295 548.19 459.251 548V548Z" fill="#8A4039"/>
<path d="M463.599 549.962C462.946 548.688 461.881 547.686 461.134 546.459C460.419 545.283 458.645 546.245 459.257 547.483C459.963 548.912 460.811 550.471 462.231 551.282C462.418 551.385 462.632 551.426 462.843 551.398C463.054 551.37 463.251 551.276 463.404 551.128C463.557 550.98 463.659 550.787 463.694 550.577C463.729 550.367 463.696 550.151 463.599 549.962V549.962Z" fill="#8A4039"/>
<path d="M466.777 554.076C466.691 553.003 466.553 551.938 466.438 550.865C466.28 549.377 464.179 549.259 464.067 550.823C463.97 551.96 463.935 553.101 463.964 554.241C464.003 555.293 464.038 556.299 464.826 557.084C464.933 557.191 465.063 557.272 465.206 557.321C465.348 557.37 465.5 557.387 465.65 557.369C465.8 557.352 465.944 557.3 466.071 557.22C466.198 557.139 466.306 557.03 466.385 556.902C466.997 556.04 466.856 555.073 466.777 554.076Z" fill="#8A4039"/>
<path d="M467.615 552.253C467.439 552.879 467.262 553.508 467.089 554.135C466.915 554.761 466.647 555.464 467.071 556.067C467.193 556.276 467.39 556.43 467.622 556.498C467.853 556.567 468.103 556.544 468.318 556.435C469.001 556.09 469.11 555.429 469.26 554.747L469.675 552.832C469.969 551.497 468.001 550.912 467.615 552.253Z" fill="#8A4039"/>
<path d="M769.054 436.37H539.383V655.816H769.054V436.37Z" fill="#FFE50A"/>
<path d="M748.026 486.99C738.42 495.354 728.747 503.641 719.254 512.125C709.76 520.61 700.535 529.329 691.256 538.004C672.813 555.264 654.108 572.744 633.041 586.807C624.154 592.742 614.802 598.215 604.461 601.2C594.776 603.996 584.829 604.182 574.856 603.232C566.999 602.482 559.008 601.141 551.712 598.021C546.746 595.894 542.051 592.674 539.383 588.104V655.805H769.054V468.284C762.141 474.63 755.095 480.832 748.026 486.99Z" fill="#FBD000"/>
<path d="M774.309 654.987H538.239V673.141H774.309V654.987Z" fill="#360604"/>
<path d="M535.279 659.675H411.666V672.973H535.279V659.675Z" fill="#360604"/>
<path d="M352.354 674.082L321.867 672.973C316.866 672.385 314.627 668.562 314.11 662.724H352.354V674.082Z" fill="#360604"/>
<path d="M499.808 509.776C497.455 506.717 494.325 504.444 490.594 503.415C489.159 503.015 488.138 505.179 489.541 505.882C492.363 507.326 495.016 509.337 496.855 511.946C497.761 513.204 498.507 514.571 499.076 516.013C499.617 517.439 499.891 518.954 501.097 520.018C501.206 520.127 501.337 520.209 501.483 520.26C501.628 520.31 501.782 520.327 501.935 520.309C502.087 520.292 502.234 520.239 502.363 520.157C502.493 520.074 502.602 519.964 502.683 519.833C504.616 516.831 501.644 512.161 499.808 509.776Z" fill="white"/>
<path d="M504.651 524.724C504.525 524.41 504.294 524.149 503.998 523.986C503.9 523.775 503.734 523.604 503.525 523.501C503.317 523.398 503.08 523.37 502.853 523.421C502.605 523.487 502.391 523.646 502.257 523.865C502.122 524.084 502.076 524.346 502.13 524.597C502.004 524.853 501.96 525.141 502.002 525.423C502.045 525.704 502.172 525.966 502.368 526.174L502.706 526.491V526.471C502.786 526.568 502.885 526.647 502.998 526.702C503.111 526.758 503.234 526.789 503.36 526.793C503.485 526.797 503.61 526.775 503.726 526.727C503.843 526.679 503.947 526.606 504.033 526.515L504.327 526.221C504.52 526.029 504.653 525.786 504.71 525.52C504.768 525.254 504.747 524.978 504.651 524.724V524.724Z" fill="white"/>
<path d="M500.638 535.293C498.285 528.864 493.43 523.733 488.044 519.668C482.484 515.475 475.982 512.264 468.865 512.522C465.567 512.603 462.335 513.46 459.431 515.025C456.245 516.789 453.944 519.586 451.691 522.377C450.42 523.959 449.166 525.571 448.228 527.376C448.081 527.67 447.963 527.977 447.875 528.294C447.418 528.203 446.968 528.076 446.531 527.915C445.566 527.6 444.621 527.229 443.683 526.847C440.841 525.688 438.093 524.494 435.134 524.03L434.575 523.836C434.463 523.795 434.344 523.778 434.225 523.787C434.106 523.795 433.991 523.829 433.886 523.886C433.299 523.838 432.71 523.826 432.121 523.847C430.785 523.897 430.794 525.729 432.083 525.885C433.748 526.113 435.38 526.536 436.946 527.147C439.976 528.564 443.005 529.983 446.033 531.402C446.094 531.633 446.214 531.845 446.38 532.016C446.547 532.188 446.754 532.314 446.984 532.382C451.143 533.793 455.412 535.078 459.34 537.087C463.267 539.095 467.006 541.266 470.942 543.174C474.879 545.083 478.956 546.895 483.019 548.627C487.082 550.359 491.18 552.244 495.375 553.708C495.629 553.799 495.904 553.813 496.166 553.75C496.398 553.913 496.681 553.985 496.962 553.952C497.243 553.92 497.502 553.785 497.69 553.573C502.233 548.688 502.883 541.425 500.638 535.293Z" fill="#FFE50A"/>
<path d="M500.638 535.293C498.873 530.45 495.669 526.341 491.898 522.871C490.264 524.146 488.522 525.278 486.693 526.253C480.117 529.766 472.808 531.689 465.353 531.867C459.413 531.999 453.138 530.879 448.169 527.515C448.042 527.766 447.943 528.032 447.875 528.306C447.418 528.215 446.968 528.088 446.531 527.926C445.566 527.612 444.621 527.241 443.683 526.859C440.841 525.7 438.093 524.506 435.134 524.041L434.575 523.847C434.463 523.806 434.344 523.79 434.225 523.798C434.106 523.807 433.991 523.841 433.886 523.897C433.299 523.85 432.71 523.837 432.121 523.859C430.785 523.909 430.794 525.741 432.083 525.897C433.748 526.125 435.38 526.548 436.946 527.159C439.976 528.576 443.005 529.995 446.033 531.414C446.094 531.645 446.214 531.857 446.38 532.028C446.547 532.2 446.754 532.325 446.984 532.393C451.143 533.805 455.412 535.09 459.34 537.099C463.267 539.107 467.006 541.278 470.942 543.186C474.879 545.095 478.956 546.906 483.019 548.638C487.082 550.371 491.18 552.256 495.375 553.72C495.629 553.81 495.904 553.825 496.166 553.761C496.398 553.924 496.681 553.997 496.962 553.964C497.243 553.932 497.502 553.797 497.69 553.585C502.233 548.688 502.883 541.425 500.638 535.293Z" fill="#FBD000"/>
<path d="M485.375 580.682C484.199 578.935 483.022 577.211 481.813 575.491C480.663 573.847 479.618 571.853 478.221 570.412C477.238 569.401 476.135 569.439 474.84 569.727C472.809 570.182 470.81 570.772 468.857 571.491C468.612 571.563 468.396 571.709 468.238 571.909C468.08 572.108 467.988 572.352 467.974 572.606C467.774 575.17 465.132 577.179 463.438 578.87C462.555 579.752 461.599 580.955 460.549 581.661C459.437 582.408 457.698 581.661 456.43 581.367C453.712 580.779 451.009 580.133 448.322 579.429C445.919 578.794 443.389 578.094 441.5 576.397C441.441 576.345 441.374 576.301 441.303 576.267C440.477 575.653 439.537 575.21 438.537 574.965C438.345 574.909 438.141 574.916 437.953 574.984C437.765 575.051 437.603 575.176 437.49 575.341C437.397 575.416 437.327 575.515 437.289 575.628C437.25 575.741 437.244 575.863 437.272 575.979C437.272 575.979 437.272 575.997 437.272 576.006C437.275 576.114 437.297 576.222 437.337 576.323C437.981 579.47 438.476 582.393 438.355 585.625C438.357 585.915 438.451 586.197 438.624 586.43C438.797 586.662 439.04 586.834 439.317 586.919C440.394 587.301 441.538 588.042 442.691 588.234C442.97 588.425 443.3 588.528 443.639 588.528C450.993 588.639 458.148 587.234 465.294 585.696C468.907 584.916 472.569 583.955 476.279 583.828C479.177 583.731 482.181 584.213 484.796 582.672C485.425 582.305 485.828 581.364 485.375 580.682Z" fill="#FFE50A"/>
<path d="M485.375 580.682C484.352 579.144 483.316 577.626 482.245 576.114C481.354 577.179 480.319 578.116 479.171 578.896C476.224 580.852 472.8 581.971 469.266 582.131C468.209 582.175 467.106 582.105 466.074 582.37C465.447 582.492 464.876 582.809 464.441 583.275C463.824 583.852 463.099 584.302 462.308 584.599C461.299 585.046 460.247 585.389 459.169 585.625C455.068 586.507 450.749 585.699 446.769 584.575C443.662 583.693 440.611 582.399 438.049 580.429C438.299 582.152 438.398 583.894 438.343 585.634C438.345 585.924 438.439 586.206 438.612 586.438C438.785 586.671 439.028 586.843 439.305 586.928C440.382 587.31 441.526 588.051 442.68 588.242C442.958 588.434 443.289 588.537 443.627 588.536C450.982 588.648 458.136 587.242 465.282 585.704C468.895 584.925 472.558 583.963 476.267 583.837C479.165 583.74 482.169 584.222 484.784 582.681C485.425 582.305 485.828 581.364 485.375 580.682Z" fill="#FBD000"/>
<path d="M382.138 722.185C398.761 722.185 412.237 708.714 412.237 692.097C412.237 675.48 398.761 662.01 382.138 662.01C365.515 662.01 352.04 675.48 352.04 692.097C352.04 708.714 365.515 722.185 382.138 722.185Z" fill="#360604"/>
<path d="M697.363 722.184C713.986 722.184 727.462 708.714 727.462 692.097C727.462 675.48 713.986 662.01 697.363 662.01C680.74 662.01 667.265 675.48 667.265 692.097C667.265 708.714 680.74 722.184 697.363 722.184Z" fill="#360604"/>
<path d="M439.079 585.81C437.737 585.493 436.243 585.857 434.96 585.469C433.677 585.081 432.945 583.866 432.606 582.675C432.281 581.411 432.217 580.093 432.418 578.802C433.373 578.306 434.138 577.508 434.592 576.532C434.935 576.484 435.279 576.456 435.625 576.447C435.965 576.448 436.292 576.316 436.536 576.08C436.781 575.844 436.923 575.522 436.934 575.182C436.916 572.803 436.64 570.427 434.875 568.657C433.539 567.327 431.456 566.663 429.62 567.186C425.934 568.236 426.184 572.535 426.999 576.15C427.151 577.823 427.4 579.487 427.744 581.131C427.504 580.963 427.213 580.885 426.921 580.912C426.63 580.938 426.357 581.067 426.152 581.276C423.21 583.843 419.786 585.687 416.791 588.139C415.799 588.951 416.341 590.648 417.5 590.951C419.3 591.418 420.962 591.142 422.745 590.733C424.649 590.298 426.611 590.574 428.476 590.074C428.744 590.015 428.991 589.885 429.192 589.698C429.393 589.511 429.54 589.273 429.618 589.01C430.238 589.492 431.088 589.483 431.936 589.472C434.448 589.445 437.714 589.974 439.632 587.972C440.255 587.301 440.064 586.043 439.079 585.81ZM427.311 583.958C427.535 583.699 427.755 583.44 427.979 583.172C428.026 583.115 428.068 583.054 428.105 582.99C428.173 583.337 428.235 583.661 428.282 583.952C428.373 584.508 428.417 585.169 428.485 585.837C428.167 585.122 427.852 584.387 427.311 583.946V583.958ZM431.668 586.587C431.668 586.493 431.647 586.396 431.639 586.293C431.73 586.398 431.824 586.507 431.933 586.61L431.668 586.587Z" fill="#231F20"/>
<path d="M510.823 558.999C510.476 556.852 508.502 555.443 506.41 555.226C501.029 554.664 498.352 559.958 496.208 563.925C494.652 566.797 493.058 569.648 491.424 572.477C490.639 573.844 489.88 575.226 489.112 576.594C488.409 577.861 487.788 580.049 486.464 580.811C486.349 580.875 486.249 580.962 486.168 581.066C486.088 581.17 486.029 581.29 485.996 581.417C485.904 581.604 485.852 581.809 485.844 582.018C485.836 582.227 485.872 582.435 485.949 582.629C486.027 582.824 486.145 582.999 486.295 583.145C486.445 583.291 486.624 583.403 486.82 583.475C489.132 584.399 492.315 583.593 494.613 582.887C497.178 582.104 499.665 581.084 502.041 579.84C504.165 578.738 506.16 577.261 507.243 575.076C508.481 572.6 509.04 569.662 509.643 566.977C510.187 564.601 511.226 561.49 510.823 558.999Z" fill="#231F20"/>
<path d="M368.314 618.198C366.399 615.174 363.422 613.178 359.765 613.198C356.108 613.219 352.604 614.983 349.518 616.83C344.041 620.109 338.719 624.097 335.741 629.69C333.147 631.249 331.329 633.837 332.473 637.042C333.806 640.739 337.845 641.833 341.387 641.962C348.368 642.215 355.461 640.007 361.174 636.016C364.116 633.957 366.805 631.478 368.858 628.496C371.15 625.164 370.379 621.453 368.314 618.198Z" fill="white"/>
<path d="M401.225 580.417C400.722 579.535 399.46 579.308 398.669 580.364C398.203 580.996 397.684 581.587 397.115 582.128C396.368 582.837 396.277 582.952 395.609 582.102C394.843 581.066 394.311 579.876 394.05 578.614C393.409 575.87 393.462 572.903 393.859 570.13C394.035 568.927 392.22 568.365 391.991 569.603L391.946 569.853C391.851 569.917 391.769 569.999 391.706 570.095C391.643 570.191 391.601 570.299 391.582 570.412C391.246 572.077 391.002 573.758 390.852 575.45C390.34 578.517 390.375 581.837 391.44 584.752C391.196 584.748 390.958 584.831 390.769 584.987C390.58 585.143 390.453 585.361 390.411 585.602C389.802 589.092 393.176 591.733 396.533 590.871C397.155 590.71 397.75 590.458 398.298 590.122C398.917 589.923 399.468 589.558 399.893 589.066C401.708 587.063 403.343 583.772 403.32 581.037C403.305 579.829 401.884 579.549 401.225 580.417Z" fill="#FBD000"/>
<path d="M385.686 609.604C382.821 609.572 380.002 611.019 377.343 611.939C374.466 612.939 371.606 613.98 368.735 614.989C367.123 615.557 367.655 618.059 369.376 617.618C372.427 616.833 375.442 615.989 378.431 614.989C381.126 614.083 384.245 613.375 386.41 611.442C387.107 610.819 386.589 609.613 385.686 609.604Z" fill="#FBD000"/>
<path d="M330.611 633.022C328.737 633.563 327.104 634.019 325.315 634.866C323.709 635.625 322.079 636.357 320.499 637.172C317.884 638.518 315.498 640.406 313.977 642.977C313.115 644.447 315.272 645.668 316.222 644.303C317.819 642.018 320.341 640.839 322.794 639.662C324.15 639.01 325.524 638.386 326.892 637.754C328.569 636.975 329.872 636.054 331.387 635.031C332.344 634.387 331.879 632.655 330.611 633.022Z" fill="#FBD000"/>
<path d="M365.967 620.356C365.672 620.286 365.363 620.31 365.081 620.422C364.8 620.535 364.561 620.732 364.396 620.985C361.412 625.117 356.823 628.611 352.293 630.852C349.889 632.028 347.23 633.116 344.558 633.499C341.734 633.89 337.986 633.031 337.071 629.937C336.724 628.761 335.082 629.202 335.253 630.378C335.343 631.003 335.516 631.612 335.768 632.19C335.272 632.298 334.823 632.558 334.482 632.934C332.423 635.116 334.265 638.413 336.247 639.86C338.869 641.759 342.131 641.398 345.153 640.962C351.231 640.08 357.282 638.433 362.216 634.654C364.74 632.725 367.046 630.199 368.37 627.285C369.614 624.579 369.447 620.968 365.967 620.356Z" fill="#E5E6E7"/>
<path d="M759.032 443.587C754.219 439.664 748.297 442.257 742.804 442.06C739.362 441.937 739.365 447.283 742.804 447.407C745.228 447.492 747.57 446.986 749.971 446.751C751.718 446.577 753.833 446.457 755.369 447.495C756.84 448.48 757.134 450.386 757.284 452.024C757.487 454.435 757.517 456.873 757.622 459.291C757.77 462.717 763.118 462.737 762.971 459.291C762.747 454.156 763.492 447.221 759.032 443.587Z" fill="white"/>
<path d="M761.765 464.513C761.263 464.013 760.583 463.731 759.875 463.731C759.166 463.731 758.486 464.013 757.984 464.513C757.491 465.02 757.21 465.697 757.199 466.404V467.472C757.209 468.18 757.49 468.856 757.984 469.363C758.486 469.864 759.166 470.145 759.875 470.145C760.583 470.145 761.263 469.864 761.765 469.363C762.256 468.855 762.536 468.179 762.547 467.472V466.404C762.539 465.697 762.258 465.02 761.765 464.513Z" fill="white"/>
<path d="M518.593 488.196C515.28 487.237 513.865 492.395 517.172 493.351C520.161 494.213 521.97 497.01 521.796 500.065C521.605 503.503 526.953 503.491 527.145 500.065C527.451 494.648 523.758 489.687 518.593 488.196Z" fill="white"/>
<path d="M525.883 505.832C522.441 505.832 522.435 511.178 525.883 511.178C529.33 511.178 529.33 505.832 525.883 505.832Z" fill="white"/>
<path d="M510.376 554.911C508.258 553.355 505.389 553.147 502.918 553.855C500.447 554.564 498.305 556.161 496.681 558.152C494.943 560.281 493.654 562.698 492.357 565.11C490.954 567.715 489.588 570.341 488.259 572.985C486.717 576.05 485.227 579.137 483.79 582.246C483.372 583.146 483.537 584.222 484.449 584.757C485.24 585.222 486.54 585.002 486.961 584.099C489.334 578.976 491.841 573.917 494.481 568.921C495.693 566.627 496.869 564.286 498.305 562.119C498.573 561.713 498.964 561.152 499.188 560.869C499.545 560.424 499.926 559.998 500.329 559.593C501.037 558.837 501.883 558.224 502.821 557.787C502.93 557.734 503.039 557.681 503.15 557.637C502.856 557.764 503.377 557.561 503.386 557.558C503.669 557.458 503.958 557.373 504.251 557.305C504.368 557.276 504.486 557.252 504.604 557.229C504.721 557.205 505.148 557.149 504.821 557.184C505.115 557.153 505.409 557.137 505.704 557.137C505.851 557.137 505.998 557.137 506.142 557.137C506.286 557.137 506.534 557.173 506.263 557.137C506.577 557.183 506.887 557.254 507.19 557.349C507.299 557.384 507.407 557.42 507.516 557.461C507.625 557.502 507.625 557.499 507.478 557.44C507.557 557.476 507.634 557.514 507.71 557.555C507.996 557.706 508.269 557.878 508.528 558.07C509.325 558.658 510.588 558.202 511.041 557.411C511.585 556.479 511.182 555.488 510.382 554.899L510.376 554.911Z" fill="#020202"/>
<path d="M314.021 664.489C314.707 668.059 316.481 671.394 319.982 672.844C322.112 673.726 324.547 674.02 326.824 674.249C329.272 674.499 331.734 674.543 334.194 674.623C337.136 674.699 340.054 674.735 342.981 674.843C344.129 674.885 344.129 673.102 342.981 673.061C338.195 672.885 333.394 672.947 328.613 672.62C326.316 672.493 324.036 672.145 321.806 671.579C320.217 671.195 318.8 670.299 317.772 669.029C316.64 667.588 316.081 665.795 315.739 664.03C315.525 662.907 313.804 663.383 314.021 664.504V664.489Z" fill="#1C0202"/>
<path d="M379.526 588.128C365.699 594.336 351.772 600.282 337.998 606.584C334.579 608.153 331.173 609.741 327.778 611.348C324.795 612.769 321.614 614.395 319.508 617.012C315.336 622.185 313.571 628.708 313.003 635.228C312.827 637.266 312.739 639.307 312.577 641.345C312.415 643.383 312.518 645.479 312.577 647.541C312.689 651.814 312.897 656.087 313.006 660.363C313.05 662.195 315.904 662.201 315.857 660.363C315.763 656.646 315.592 652.928 315.478 649.211C315.416 647.3 315.372 645.388 315.357 643.477C315.357 641.712 315.536 639.924 315.651 638.151C315.869 634.754 316.201 631.422 317.122 628.132C317.868 625.283 319.086 622.579 320.726 620.133C321.47 618.966 322.407 617.934 323.497 617.08C324.776 616.181 326.113 615.366 327.498 614.642C329.178 613.727 330.981 612.98 332.714 612.166C334.379 611.382 336.046 610.607 337.715 609.843C344.496 606.722 351.322 603.693 358.153 600.685C365.766 597.329 373.392 594 380.982 590.589C381.685 590.274 381.865 589.254 381.494 588.639C381.07 587.916 380.249 587.81 379.543 588.128H379.526Z" fill="#841918"/>
<path d="M420.43 673.449H534.929C536.076 673.449 536.079 671.667 534.929 671.667H420.43C419.283 671.667 419.28 673.449 420.43 673.449Z" fill="#1C0202"/>
<path d="M332.073 634.481C331.699 637.451 332.805 640.301 335.477 641.809C337.96 643.212 341.025 643.421 343.82 643.315C351.619 643.021 359.497 640.274 365.625 635.419C368.861 632.84 371.509 629.099 371.335 624.785C371.182 620.762 368.688 616.88 365.202 614.918C359 611.434 351.233 613.427 345.403 616.683C342.766 618.094 340.339 619.866 338.192 621.947C335.603 624.519 333.718 627.711 332.717 631.219C332.455 632.17 332.259 633.138 332.129 634.116C332.026 634.878 332.314 635.648 333.126 635.881C333.791 636.063 334.773 635.651 334.891 634.884C335.123 633.119 335.584 631.392 336.262 629.746C336.586 629.005 336.958 628.286 337.377 627.593C337.577 627.258 337.789 626.932 338.01 626.608C338.11 626.461 338.216 626.314 338.318 626.17L338.613 625.794C339.537 624.636 340.574 623.572 341.708 622.618C342.709 621.778 343.771 621.012 344.885 620.327C347.177 618.886 349.427 617.68 351.895 616.924C354.896 616.012 358.12 615.654 361.074 616.365C361.448 616.457 361.818 616.562 362.18 616.683C362.5 616.786 362.812 616.91 363.116 617.053C363.436 617.206 363.751 617.374 364.057 617.556C364.231 617.662 364.404 617.771 364.572 617.886C364.654 617.945 364.978 618.18 364.902 618.121C366.257 619.193 367.307 620.601 367.946 622.206C369.223 625.476 368.202 628.84 365.808 631.443C363.181 634.301 359.509 636.369 355.941 637.816C354.027 638.593 352.053 639.212 350.039 639.668C349.274 639.842 348.5 639.986 347.724 640.109L346.894 640.23C347.215 640.186 346.747 640.248 346.662 640.259L346.162 640.315C344.832 640.467 343.493 640.529 342.155 640.501C341.513 640.483 340.878 640.436 340.24 640.365C340.181 640.365 339.96 640.321 340.24 640.365L339.995 640.327C339.851 640.307 339.701 640.28 339.572 640.254C339.257 640.195 338.945 640.124 338.636 640.039C338.327 639.954 338.077 639.877 337.807 639.777C337.751 639.757 337.386 639.612 337.557 639.683C337.727 639.754 337.301 639.562 337.224 639.524C336.999 639.411 336.78 639.285 336.568 639.148C336.45 639.071 336.336 638.989 336.224 638.907C336.471 639.092 336.206 638.88 336.112 638.795C336.018 638.71 335.912 638.604 335.818 638.501C335.78 638.46 335.524 638.172 335.659 638.33C335.794 638.489 335.565 638.195 335.527 638.136C335.441 638.004 335.362 637.869 335.288 637.727C335.215 637.586 335.121 637.363 335.227 637.627C335.174 637.489 335.121 637.351 335.079 637.21C335.038 637.069 335.003 636.951 334.974 636.822C334.956 636.745 334.874 636.233 334.912 636.548C334.84 635.863 334.852 635.172 334.947 634.49C335.041 633.725 334.22 633.063 333.52 633.063C332.649 633.057 332.17 633.713 332.073 634.481Z" fill="#841918"/>
<path d="M316.654 645.391C318.658 644.529 320.617 643.55 322.588 642.621C325.391 641.298 328.193 639.975 330.996 638.654C331.835 638.26 332.67 637.854 333.523 637.477C334.229 637.183 334.388 636.133 334.035 635.528C333.606 634.798 332.794 634.71 332.082 635.016C330.078 635.881 328.119 636.857 326.148 637.789C323.345 639.113 320.543 640.435 317.74 641.756C316.901 642.147 316.066 642.553 315.213 642.933C314.507 643.227 314.348 644.277 314.701 644.882C315.13 645.615 315.942 645.7 316.654 645.394V645.391Z" fill="#841918"/>
<path d="M371.135 620.768C373.948 619.591 376.684 618.259 379.426 616.945C380.897 616.236 382.368 615.524 383.839 614.827C384.503 614.516 385.169 614.208 385.836 613.904L386.68 613.53L387.107 613.345C387.263 613.277 387.266 613.277 387.107 613.345L387.334 613.251C388.043 612.957 388.551 612.307 388.328 611.487C388.146 610.816 387.289 610.196 386.563 610.493C383.75 611.669 381.014 613.001 378.273 614.316C376.802 615.024 375.331 615.736 373.86 616.433C373.195 616.745 372.529 617.053 371.862 617.356L371.018 617.73L370.591 617.915C370.435 617.983 370.432 617.983 370.591 617.915L370.365 618.006C369.656 618.3 369.147 618.953 369.37 619.771C369.553 620.441 370.409 621.062 371.135 620.765V620.768Z" fill="#841918"/>
<path d="M411.181 692.065C411.182 697.956 409.362 703.704 405.971 708.523C402.58 713.341 397.783 716.995 392.235 718.984C386.688 720.974 380.661 721.202 374.979 719.637C369.297 718.072 364.237 714.791 360.492 710.242C356.764 705.728 354.517 700.176 354.058 694.341C353.745 690.499 354.213 686.633 355.433 682.977C356.653 679.32 358.6 675.947 361.157 673.062C363.713 670.176 366.828 667.838 370.312 666.186C373.796 664.534 377.578 663.603 381.431 663.45C385.284 663.296 389.129 663.923 392.733 665.292C396.338 666.662 399.628 668.745 402.407 671.418C405.185 674.091 407.395 677.298 408.902 680.846C410.409 684.394 411.183 688.21 411.178 692.065C411.178 693.212 412.963 693.215 412.96 692.065C412.962 684.211 409.922 676.661 404.477 670.999C399.033 665.337 391.607 662.001 383.756 661.692C375.905 661.382 368.24 664.123 362.366 669.34C356.493 674.556 352.868 681.843 352.251 689.673C351.634 697.503 354.074 705.267 359.058 711.338C364.043 717.409 371.185 721.316 378.987 722.238C386.79 723.161 394.646 721.028 400.91 716.288C407.174 711.547 411.359 704.566 412.587 696.808C412.829 695.239 412.954 693.653 412.96 692.065C412.966 690.918 411.184 690.915 411.181 692.065Z" fill="#1C0202"/>
<path d="M390.777 700.266C394.883 696.161 394.883 689.506 390.777 685.402C386.671 681.297 380.014 681.297 375.908 685.402C371.802 689.506 371.802 696.161 375.908 700.266C380.014 704.37 386.671 704.37 390.777 700.266Z" fill="#EDEDED"/>
<path d="M726.153 692.065C726.154 697.956 724.335 703.704 720.943 708.523C717.552 713.341 712.755 716.995 707.207 718.984C701.66 720.974 695.633 721.202 689.951 719.637C684.269 718.072 679.209 714.791 675.464 710.242C671.737 705.728 669.491 700.176 669.033 694.341C668.72 690.499 669.188 686.633 670.408 682.977C671.628 679.32 673.575 675.947 676.132 673.062C678.689 670.176 681.803 667.837 685.287 666.186C688.771 664.534 692.553 663.603 696.406 663.449C700.259 663.296 704.104 663.923 707.708 665.292C711.313 666.661 714.604 668.745 717.382 671.418C720.161 674.091 722.37 677.298 723.877 680.846C725.384 684.394 726.159 688.21 726.153 692.065C726.153 693.212 727.939 693.215 727.936 692.065C727.937 684.211 724.897 676.661 719.453 670.999C714.008 665.336 706.582 662.001 698.731 661.692C690.881 661.382 683.215 664.123 677.341 669.34C671.468 674.556 667.843 681.843 667.226 689.673C666.609 697.503 669.049 705.267 674.033 711.338C679.018 717.409 686.16 721.316 693.962 722.238C701.765 723.161 709.622 721.028 715.885 716.287C722.149 711.547 726.334 704.566 727.562 696.808C727.804 695.239 727.929 693.653 727.936 692.065C727.939 690.918 726.156 690.915 726.153 692.065Z" fill="#1C0202"/>
<path d="M708.529 695.221C709.863 689.572 706.362 683.911 700.711 682.577C695.059 681.244 689.396 684.743 688.062 690.393C686.728 696.042 690.229 701.703 695.88 703.036C701.532 704.37 707.195 700.871 708.529 695.221Z" fill="#EDEDED"/>
<path d="M319.49 664.771H343.173C344.32 664.771 344.32 662.989 343.173 662.989H319.49C318.343 662.989 318.34 664.771 319.49 664.771Z" fill="#1C0202"/>
<path d="M506.851 575.203V658.513C506.851 660.348 509.702 660.351 509.702 658.513V575.203C509.702 573.368 506.851 573.365 506.851 575.203Z" fill="#841918"/>
<path d="M379.185 589.601C381.497 581.649 384.014 573.76 386.736 565.933C389.468 558.075 392.404 550.292 395.544 542.583C398.651 534.957 401.957 527.416 405.462 519.96C408.592 513.296 411.698 506.482 415.952 500.444C417.903 497.628 420.217 495.081 422.834 492.869C423.724 492.1 424.681 491.411 425.693 490.81C425.97 490.651 426.255 490.516 426.543 490.366L426.99 490.157L427.238 490.049C427.446 489.952 426.943 490.169 427.238 490.049C430.715 488.649 434.431 487.872 438.123 487.231C439.235 487.035 440.349 486.857 441.465 486.696C442.053 486.61 442.633 486.527 443.203 486.449C443.433 486.42 442.986 486.478 443.203 486.449L443.4 486.423L443.862 486.361L444.792 486.243C447.284 485.949 449.793 485.676 452.282 485.449C457.377 484.987 462.485 484.664 467.595 484.429C472.106 484.223 476.616 484.087 481.127 484.02C484.166 483.979 487.208 483.949 490.247 484.02C490.659 484.02 491.068 484.046 491.48 484.067C491.858 484.067 492.221 483.917 492.489 483.649C492.756 483.382 492.907 483.019 492.907 482.641C492.907 482.262 492.756 481.9 492.489 481.632C492.221 481.365 491.858 481.214 491.48 481.214C488.923 481.085 486.355 481.109 483.799 481.126C479.515 481.156 475.232 481.254 470.948 481.42C465.827 481.614 460.708 481.897 455.598 482.302C450.487 482.708 445.424 483.223 440.373 483.979C436.349 484.582 432.289 485.299 428.414 486.573C426.93 487.029 425.498 487.641 424.143 488.399C421.477 489.954 419.103 492.192 417.053 494.477C412.216 499.877 408.854 506.367 405.706 512.843C402.056 520.36 398.603 527.969 395.347 535.672C392.076 543.417 389.003 551.238 386.127 559.137C383.276 566.995 380.628 574.922 378.184 582.919C377.596 584.88 377.008 586.846 376.419 588.819C375.904 590.583 378.658 591.339 379.17 589.577L379.185 589.601Z" fill="#841918"/>
<path d="M399.069 594.553C401.772 594.409 404.476 594.183 407.174 593.965C411.263 593.62 415.35 593.249 419.436 592.851C424.445 592.368 429.452 591.863 434.457 591.336C439.9 590.764 445.337 590.167 450.77 589.545C456.203 588.924 461.655 588.271 467.127 587.587C472.199 586.945 477.265 586.278 482.322 585.549C486.382 584.96 490.438 584.343 494.475 583.614C496.008 583.337 497.54 583.043 499.061 582.711C501.138 582.258 503.08 581.699 504.798 580.358C507.381 578.361 509.09 575.456 510.223 572.435C511.502 569.018 511.744 565.342 512.02 561.734C512.694 552.941 512.541 544.11 512.259 535.305C512.117 530.917 511.938 526.529 511.811 522.139C511.723 519.177 511.658 516.242 511.044 513.316C510.161 509.096 508.199 505.114 505.16 502.021C502.277 499.08 498.582 497.065 494.695 495.777C490.48 494.377 485.993 493.804 481.569 493.645C476.848 493.516 472.124 493.781 467.448 494.436C462.74 495.064 458.07 495.947 453.459 497.083C449.464 498.063 445.515 499.219 441.612 500.55C435.643 502.609 429.159 505.182 425.175 510.32C423.975 511.869 423.042 513.622 422.095 515.319C421.048 517.201 420.053 519.113 419.097 521.042C417.203 524.865 415.458 528.764 413.764 532.679C410.275 540.739 406.85 548.827 403.708 557.029C402.188 561.008 400.723 565.008 399.313 569.027C399.06 569.753 399.607 570.589 400.31 570.792C400.676 570.883 401.064 570.831 401.392 570.646C401.721 570.46 401.965 570.155 402.075 569.795C404.958 561.56 408.08 553.424 411.44 545.386C414.676 537.657 417.912 529.897 421.621 522.392C422.563 520.498 423.543 518.625 424.563 516.772C425.446 515.193 426.328 513.428 427.417 512.066C429.45 509.482 432.256 507.679 435.169 506.223C439.288 504.165 443.815 502.744 448.272 501.444C452.516 500.203 456.813 499.162 461.164 498.321C462.297 498.104 463.434 497.902 464.573 497.715C465.162 497.621 465.75 497.53 466.338 497.445L467.156 497.327L467.598 497.265C467.303 497.307 467.745 497.248 467.848 497.233C470.169 496.939 472.505 496.707 474.843 496.574C477.132 496.448 479.427 496.41 481.719 496.495C482.842 496.539 483.963 496.61 485.084 496.715C485.631 496.768 486.182 496.83 486.729 496.898C486.852 496.898 487.07 496.942 486.814 496.898L487.217 496.957C487.511 496.998 487.805 497.042 488.076 497.089C490.128 497.415 492.15 497.906 494.122 498.559C494.598 498.722 495.072 498.895 495.543 499.077L495.837 499.197C495.963 499.247 496.202 499.35 495.94 499.239C496.169 499.336 496.396 499.433 496.619 499.533C497.507 499.937 498.372 500.392 499.208 500.894C499.617 501.144 500.023 501.406 500.417 501.68C500.6 501.806 500.779 501.932 500.959 502.065L501.253 502.279C501.003 502.091 501.253 502.279 501.365 502.374C502.094 502.959 502.782 503.594 503.424 504.273C503.751 504.62 504.068 504.982 504.371 505.353L504.595 505.647C504.421 505.429 504.571 505.617 504.657 505.729C504.802 505.925 504.943 506.121 505.08 506.317C505.647 507.137 506.151 507.998 506.59 508.893C506.692 509.105 506.795 509.32 506.884 509.537C506.937 509.655 506.987 509.776 507.04 509.893C507.093 510.011 507.007 509.82 507.004 509.808C507.031 509.879 507.06 509.946 507.09 510.017C507.284 510.514 507.469 511.014 507.631 511.519C507.976 512.592 508.249 513.687 508.449 514.796C508.499 515.063 508.546 515.337 508.587 515.607C508.608 515.754 508.631 515.901 508.652 516.054C508.614 515.76 508.672 516.225 508.684 516.322C508.755 516.945 508.811 517.572 508.846 518.198C508.955 520.039 508.961 521.892 509.02 523.736C509.296 532.426 509.72 541.116 509.649 549.815C509.614 554.129 509.458 558.446 509.096 562.754C508.986 564.576 508.778 566.39 508.472 568.189C508.186 569.634 507.755 571.047 507.187 572.406C506.607 573.77 505.857 575.054 504.954 576.229C504.489 576.804 503.975 577.339 503.418 577.826C502.948 578.229 502.434 578.578 501.885 578.867C501.086 579.253 500.239 579.533 499.367 579.699C498.714 579.852 498.058 579.993 497.399 580.132C493.933 580.849 490.438 581.426 486.941 581.97C484.764 582.309 482.586 582.632 480.407 582.94C479.23 583.107 478.046 583.271 476.856 583.434L475.023 583.684L474.873 583.705L474.408 583.766L473.402 583.899C468.189 584.589 462.969 585.242 457.742 585.857C452.304 586.504 446.862 587.123 441.418 587.713C436.248 588.278 431.077 588.819 425.905 589.336C421.404 589.789 416.902 590.222 412.399 590.633C409.051 590.927 405.7 591.221 402.346 591.471C401.258 591.551 400.169 591.627 399.081 591.686C398.706 591.697 398.349 591.851 398.084 592.116C397.819 592.381 397.665 592.738 397.654 593.112C397.658 593.489 397.809 593.849 398.076 594.116C398.343 594.382 398.704 594.533 399.081 594.536L399.069 594.553Z" fill="#841918"/>
<path d="M499.294 608.113V626.429C499.294 628.264 502.147 628.267 502.147 626.429V608.113C502.147 606.278 499.294 606.275 499.294 608.113Z" fill="#841918"/>
<path d="M490.839 484.02H533.334C535.17 484.02 535.173 481.17 533.334 481.17H490.839C489.003 481.17 489 484.02 490.839 484.02Z" fill="#841918"/>
<path d="M532.337 482.597V658.122C532.337 659.957 535.191 659.96 535.191 658.122V482.597C535.191 480.762 532.337 480.759 532.337 482.597Z" fill="#841918"/>
<path d="M538.733 437.787C538.733 465.86 538.652 493.932 538.492 522.003C538.358 550.141 538.23 578.28 538.106 606.42C538.051 622.216 538.022 638.011 538.018 653.805C538.018 655.64 540.869 655.643 540.869 653.805C540.869 625.732 540.95 597.66 541.113 569.589C541.246 541.451 541.375 513.312 541.498 485.173C541.551 469.377 541.58 453.582 541.586 437.787C541.586 435.952 538.733 435.949 538.733 437.787V437.787Z" fill="#841918"/>
<path d="M541.266 438.828H766.833C768.669 438.828 768.672 435.979 766.833 435.979H541.266C539.43 435.979 539.427 438.828 541.266 438.828Z" fill="#841918"/>
<path d="M766.319 437.787C766.319 451.668 766.34 465.549 766.383 479.429C766.425 493.639 766.476 507.853 766.536 522.071C766.595 536.399 766.657 550.726 766.722 565.054C766.781 579.289 766.834 593.525 766.881 607.76C766.926 621.694 766.952 635.629 766.96 649.564V654.693C766.96 656.528 769.814 656.531 769.814 654.693C769.814 640.812 769.792 626.931 769.749 613.048C769.71 598.84 769.659 584.626 769.596 570.406C769.537 556.079 769.475 541.751 769.411 527.423C769.352 513.186 769.299 498.949 769.252 484.714C769.211 470.78 769.184 456.847 769.172 442.913V437.787C769.172 435.952 766.319 435.949 766.319 437.787Z" fill="#841918"/>
<path d="M658.048 671.35H543.81C542.278 671.35 540.704 671.244 539.171 671.35H538.971L539.854 672.232V655.469L538.971 656.352H668.603C670.368 656.352 672.107 656.384 673.857 656.352H674.087C675.234 656.352 675.237 654.569 674.087 654.569H544.467C542.701 654.569 540.963 654.537 539.212 654.569H538.98C538.748 654.575 538.527 654.67 538.362 654.834C538.198 654.999 538.103 655.22 538.097 655.452V672.214C538.103 672.446 538.198 672.667 538.362 672.832C538.527 672.996 538.748 673.091 538.98 673.097H653.208C654.756 673.097 656.303 673.132 657.848 673.097H658.048C659.195 673.097 659.198 671.314 658.048 671.314V671.35Z" fill="#1C0202"/>
<path d="M721.396 656.384H771.388C772.065 656.422 772.743 656.422 773.421 656.384H773.515L772.632 655.502V672.264L773.515 671.382H735.752C734.605 671.382 734.605 673.164 735.752 673.164H773.515C773.747 673.159 773.969 673.064 774.133 672.9C774.297 672.736 774.392 672.514 774.397 672.282V655.519C774.392 655.287 774.297 655.066 774.133 654.901C773.969 654.737 773.747 654.642 773.515 654.637H727.83C725.723 654.637 723.593 654.555 721.487 654.637H721.396C720.249 654.637 720.246 656.419 721.396 656.419V656.384Z" fill="#1C0202"/>
<path d="M350.98 690.109C351.098 677.17 359.218 664.924 371.321 660.466C384.342 655.675 398.324 659.478 407.288 669.988C411.901 675.399 414.393 682.84 414.458 690.109C414.52 697.191 425.537 697.208 425.475 690.109C425.39 681.306 422.624 672.737 417.546 665.544C412.467 658.351 405.317 652.876 397.048 649.847C380.729 643.844 361.265 649.076 350.16 662.442C343.653 670.202 340.049 679.984 339.966 690.109C339.901 697.197 350.919 697.202 350.98 690.109Z" fill="#470C07"/>
<path d="M665.45 690.109C665.567 677.169 673.687 664.924 685.79 660.466C698.811 655.675 712.794 659.478 721.758 669.988C726.371 675.399 728.862 682.839 728.927 690.109C728.989 697.191 740.006 697.208 739.945 690.109C739.859 681.306 737.093 672.737 732.015 665.544C726.936 658.351 719.786 652.876 711.517 649.846C695.198 643.844 675.735 649.076 664.629 662.442C658.119 670.201 654.512 679.982 654.426 690.109C654.362 697.196 665.379 697.202 665.441 690.109H665.45Z" fill="#470C07"/>
<path d="M534.264 660.716V671.814C534.264 672.961 536.047 672.964 536.047 671.814V660.716C536.047 659.569 534.264 659.569 534.264 660.716Z" fill="#1C0202"/>
<path d="M396.451 590.863C395.297 590.856 394.182 590.447 393.298 589.707C392.413 588.967 391.815 587.941 391.605 586.807C391.554 586.501 391.53 586.191 391.535 585.881C391.535 585.722 391.535 585.566 391.535 585.407V583.349C391.535 580.285 391.499 577.22 391.535 574.156C391.542 573.003 391.952 571.888 392.692 571.004C393.432 570.12 394.457 569.52 395.592 569.309C397.792 568.874 400.272 570.25 401.04 572.362C401.469 573.538 401.369 574.762 401.369 576.109V581.887C401.369 583.208 401.369 584.534 401.369 585.851C401.369 587.884 400.134 589.842 398.245 590.527C397.673 590.749 397.064 590.861 396.451 590.857C394.618 590.88 394.612 593.733 396.451 593.709C398.115 593.692 399.732 593.149 401.068 592.156C402.405 591.164 403.393 589.775 403.891 588.187C404.35 586.693 404.223 585.052 404.223 583.508V577.182C404.223 575.762 404.317 574.297 404.105 572.888C403.833 571.287 403.065 569.811 401.91 568.669C400.755 567.526 399.27 566.774 397.666 566.519C394.379 566.039 390.979 567.665 389.505 570.703C388.681 572.406 388.681 574.126 388.681 575.956V582.181C388.681 583.437 388.681 584.693 388.681 585.951C388.698 587.602 389.233 589.205 390.211 590.534C391.188 591.864 392.559 592.853 394.129 593.362C394.88 593.6 395.663 593.72 396.451 593.718C398.286 593.715 398.289 590.863 396.451 590.863Z" fill="#841918"/>
<path d="M413.952 660.995H534.691C535.838 660.995 535.841 659.213 534.691 659.213H413.952C412.805 659.213 412.802 660.995 413.952 660.995Z" fill="#1C0202"/>
<path d="M414.323 531.161C414.323 538.611 414.341 546.061 414.378 553.511C414.408 561.604 414.437 569.7 414.467 577.797C414.467 581.784 414.473 585.773 414.484 589.763C414.484 591.595 417.338 591.598 417.338 589.763C417.338 582.313 417.319 574.857 417.282 567.395C417.253 559.302 417.223 551.207 417.194 543.11C417.194 539.122 417.188 535.134 417.176 531.146C417.176 529.311 414.323 529.308 414.323 531.146V531.161Z" fill="#841918"/>
<path d="M448.305 528.426C451.246 523.647 454.63 518.663 459.89 516.225C464.735 513.978 470.913 513.822 476.035 515.175C485.47 517.672 494.993 524.965 498.42 534.29C501.009 541.348 499.414 547.936 496.781 554.682C496.572 555.217 497.278 555.896 497.699 555.335C514.227 533.255 483.978 505.132 461.243 513.302C454.432 515.748 450.358 521.662 446.937 527.712C446.439 528.594 447.787 529.279 448.305 528.435V528.426Z" fill="#841918"/>
<path d="M429.167 525.903C431.727 527.012 434.269 528.162 436.816 529.303C439.096 530.323 441.523 531.679 444.036 531.911C445.007 532.002 445.427 530.599 444.76 530.008C442.88 528.35 440.211 527.473 437.952 526.479C435.498 525.388 433.051 524.291 430.597 523.245C428.832 522.483 427.382 525.144 429.179 525.924L429.167 525.903Z" fill="#841918"/>
<path d="M445.068 532.537C462.537 539.345 479.133 548.074 496.296 555.561C497.405 556.043 498.243 554.514 497.178 553.888C481.045 544.357 463.317 537.125 445.754 530.682C444.704 530.3 444.006 532.126 445.063 532.537H445.068Z" fill="#841918"/>
<path d="M495.346 554.832C497.011 558.014 495.346 561.219 492.754 563.237C492.165 563.689 492.504 564.707 493.307 564.486C497.59 563.237 498.708 557.537 496.728 553.991C496.216 553.073 494.866 553.914 495.346 554.832V554.832Z" fill="#841918"/>
<path d="M440.864 543.58C440.57 546.033 440.897 548.471 441.285 550.897C441.703 553.511 441.979 556.485 443.018 558.922C443.183 559.314 443.871 559.425 443.95 558.893C444.686 553.973 441.95 548.983 442.541 543.968C442.671 542.88 440.994 542.477 440.864 543.58V543.58Z" fill="#841918"/>
<path d="M444.262 553.023C444.383 554.438 444.333 556.026 444.727 557.396C444.788 557.609 444.905 557.802 445.067 557.954C445.228 558.106 445.428 558.211 445.645 558.258C445.855 558.296 446.07 558.29 446.278 558.24C446.536 558.154 446.761 557.988 446.92 557.766C447.078 557.544 447.162 557.278 447.16 557.005C447.242 555.696 446.866 554.249 446.692 552.95C446.492 551.417 444.112 551.432 444.251 553.023H444.262Z" fill="#841918"/>
<path d="M445.324 549.085C446.095 548.074 447.384 546.833 448.746 547.494C449.711 547.959 450.234 549.18 450.764 550.053C451.135 550.659 451.997 550.218 451.858 549.571C451.502 547.888 450.593 546.027 448.743 545.653C446.784 545.256 445.157 546.753 444.159 548.25C443.712 548.921 444.83 549.721 445.336 549.085H445.324Z" fill="#841918"/>
<path d="M487.279 565.495C487.334 566.018 487.493 566.525 487.745 566.986C487.998 567.448 488.339 567.854 488.75 568.183C489.509 568.771 490.709 569.336 491.692 568.933C491.785 568.903 491.871 568.854 491.944 568.789C492.017 568.724 492.075 568.645 492.116 568.556C492.156 568.467 492.178 568.371 492.179 568.273C492.179 568.175 492.16 568.079 492.121 567.989C491.906 567.533 491.315 567.568 490.894 567.48C489.877 567.266 488.944 566.533 488.794 565.448C488.662 564.498 487.158 564.522 487.279 565.495V565.495Z" fill="#841918"/>
<path d="M491.618 564.928C491.118 565.872 490.98 567.574 491.942 568.318C492.374 568.651 493.089 568.318 492.907 567.73C492.789 567.354 492.563 567.048 492.518 566.645C492.477 566.258 492.556 565.868 492.745 565.528C493.13 564.804 492.004 564.204 491.618 564.939V564.928Z" fill="#841918"/>
<path d="M457.286 547.247C458.378 549.068 459.849 550.615 461.846 551.397C462.287 551.567 462.84 550.994 462.384 550.647C460.861 549.488 459.425 548.203 458.433 546.548C457.989 545.806 456.842 546.506 457.286 547.247V547.247Z" fill="#841918"/>
<path d="M486.355 568.654C487.106 568.795 487.883 568.718 488.591 568.43C489.076 568.23 488.856 567.442 488.356 567.639C487.783 567.872 487.155 567.933 486.549 567.813C486.005 567.707 485.811 568.554 486.355 568.654V568.654Z" fill="#841918"/>
<path d="M440.967 558.47C438.22 563.628 440.926 570.33 445.345 573.762C450.667 577.879 458.254 577.017 464.467 576.179C464.762 576.138 464.885 575.641 464.526 575.591C459.213 575.003 453.209 575.712 448.26 573.371C443.406 571.074 439.811 564.298 442.459 559.255C442.962 558.293 441.479 557.505 440.967 558.464V558.47Z" fill="#841918"/>
<path d="M441.803 559.831C449.655 562.063 458.119 562.087 465.518 558.252C465.918 558.043 465.609 557.479 465.223 557.564C460.755 558.522 456.398 559.825 451.794 559.893C448.499 559.94 445.289 559.364 442.118 558.523C441.279 558.302 440.985 559.596 441.823 559.831H441.803Z" fill="#841918"/>
<path d="M468.089 558.487C470.231 556.861 473.178 554.699 476.008 556.085C478.221 557.164 479.044 560.066 479.05 562.334C479.05 564.963 478.074 567.736 475.458 568.757C473.843 569.386 472.063 569.368 470.495 570.115C470.403 570.173 470.331 570.257 470.286 570.356C470.241 570.455 470.226 570.565 470.244 570.673C470.261 570.78 470.309 570.88 470.383 570.96C470.456 571.04 470.552 571.097 470.657 571.124C473.278 571.491 476.788 570.93 478.736 568.971C480.874 566.816 481.539 563.457 480.998 560.555C480.48 557.778 478.824 554.876 475.873 554.194C472.59 553.435 469.677 555.538 467.292 557.505C466.744 557.958 467.515 558.92 468.089 558.487V558.487Z" fill="#841918"/>
<path d="M472.502 564.425C473.402 563.604 474.464 563.031 475.394 562.254C475.764 561.96 475.329 561.431 474.941 561.519C473.658 561.813 472.566 562.713 471.599 563.578C471.01 564.107 471.913 564.963 472.502 564.428V564.425Z" fill="#841918"/>
<path d="M472.743 562.831C473.796 563.681 474.214 564.784 474.743 565.98C474.926 566.395 475.547 566.139 475.541 565.745C475.514 564.251 474.364 562.99 473.187 562.216C472.828 561.987 472.416 562.557 472.749 562.825L472.743 562.831Z" fill="#841918"/>
<path d="M463.055 559.325C464.473 558.896 465.894 558.467 467.312 558.023C468.574 557.628 469.916 557.331 471.001 556.552C471.07 556.507 471.123 556.441 471.152 556.364C471.18 556.286 471.183 556.202 471.159 556.123C471.136 556.044 471.088 555.974 471.021 555.925C470.955 555.876 470.875 555.849 470.792 555.849C469.457 555.885 468.221 556.437 466.968 556.896C465.568 557.399 464.173 557.917 462.779 558.434C462.223 558.64 462.464 559.502 463.043 559.317L463.055 559.325Z" fill="#841918"/>
<path d="M467.465 572.633C469.589 571.903 471.799 571.239 473.778 570.177C474.202 569.948 473.87 569.386 473.461 569.456C471.287 569.848 469.224 570.812 467.144 571.544C466.456 571.786 466.771 572.871 467.465 572.633Z" fill="#841918"/>
<path d="M461.97 549.341C462.458 552.706 462.514 556.64 463.761 559.816C463.789 559.903 463.846 559.977 463.924 560.025C464.001 560.073 464.093 560.091 464.183 560.077C464.272 560.063 464.354 560.017 464.413 559.947C464.472 559.878 464.503 559.79 464.503 559.699C464.72 556.29 463.573 552.526 463.014 549.174C462.914 548.585 461.881 548.741 461.97 549.341Z" fill="#841918"/>
<path d="M465.947 552.247C465.676 553.673 465.359 555.099 465.168 556.54C465.088 557.143 465.959 557.37 466.109 556.758C466.453 555.346 466.683 553.905 466.953 552.476C467.077 551.826 466.071 551.594 465.947 552.247V552.247Z" fill="#841918"/>
<path d="M478.691 569.786C481.66 570.58 485.008 570.206 487.373 568.133C487.702 567.839 487.261 567.415 486.92 567.577C484.334 568.809 481.786 569.403 478.977 568.612C478.232 568.404 477.956 569.586 478.706 569.789L478.691 569.786Z" fill="#841918"/>
<path d="M443.018 578.861C448.652 580.285 454.306 582.925 460.166 583.125C461.164 583.161 461.167 581.77 460.328 581.496C457.483 580.567 454.497 580.076 451.608 579.296C448.878 578.561 446.163 577.826 443.397 577.217C442.335 576.991 441.962 578.594 443.018 578.861V578.861Z" fill="#841918"/>
<path d="M460.555 582.093C463.627 579.971 466.252 577.263 468.277 574.126C468.607 573.612 467.921 573.091 467.453 573.353C466.015 574.159 464.944 575.435 463.891 576.682C462.67 578.194 461.274 579.556 459.731 580.737C458.922 581.326 459.701 582.667 460.555 582.093V582.093Z" fill="#841918"/>
<path d="M477.076 570.124C478.65 572.082 480.054 574.169 481.274 576.364C482.351 578.317 482.987 580.717 484.493 582.375C484.828 582.743 485.425 582.405 485.42 581.958C485.399 579.667 483.866 577.394 482.716 575.488C481.367 573.288 479.835 571.207 478.135 569.265C477.635 568.677 476.591 569.518 477.076 570.124V570.124Z" fill="#841918"/>
<path d="M436.49 577.079C437.331 579.887 437.199 582.881 438.026 585.669C438.202 586.257 439.246 586.328 439.323 585.631C439.632 582.758 438.843 579.367 437.943 576.65C437.649 575.726 436.207 576.141 436.49 577.079Z" fill="#841918"/>
<path d="M437.608 576.856C436.316 575.894 434.581 574.818 432.977 575.814C431.247 576.891 431.28 580.202 431.506 581.952C431.748 583.893 432.645 585.113 434.41 585.943C435.587 586.493 437.696 587.157 438.67 585.969C438.714 585.925 438.745 585.869 438.761 585.808C438.776 585.748 438.775 585.684 438.757 585.624C438.739 585.564 438.706 585.509 438.66 585.467C438.614 585.424 438.557 585.394 438.496 585.381C436.881 584.793 434.725 584.972 433.636 583.322C432.901 582.208 433.086 580.446 433.245 579.205C433.366 578.27 433.38 576.961 434.975 577.094C435.563 577.144 436.284 577.75 436.74 578.07C437.434 578.549 438.299 577.361 437.623 576.85L437.608 576.856Z" fill="#841918"/>
<path d="M437.672 576.006C437.122 573.288 437.084 570.021 435.404 567.686C433.933 565.628 430.991 565.139 428.709 566.098C425.352 567.513 425.055 571.891 425.617 574.988C426.414 579.382 426.481 584.531 428.626 588.539C428.853 588.963 429.438 588.707 429.456 588.292C429.594 585.01 428.35 581.64 427.938 578.394C427.558 575.403 426.011 571.094 428.232 568.527C430.559 565.833 433.925 567.81 434.937 570.392C435.681 572.303 435.943 574.388 436.449 576.367C436.658 577.17 437.831 576.797 437.672 576.006V576.006Z" fill="#020202"/>
<path d="M437.993 586.781C439.126 587.448 440.397 588.522 441.762 588.501C441.859 588.493 441.952 588.461 442.034 588.408C442.115 588.355 442.182 588.282 442.229 588.197C442.276 588.112 442.3 588.016 442.301 587.919C442.302 587.821 442.278 587.725 442.232 587.64C441.591 586.446 439.973 585.831 438.846 585.169C437.837 584.581 436.981 586.187 437.993 586.781V586.781Z" fill="#841918"/>
<path d="M418.68 587.49C420.298 586.478 421.916 585.484 423.563 584.496C424.999 583.613 426.626 582.731 427.517 581.261C427.811 580.781 427.285 580.352 426.835 580.426C425.149 580.699 423.666 581.896 422.292 582.869C420.788 583.92 419.291 584.979 417.803 586.046C416.92 586.672 417.747 588.069 418.685 587.487L418.68 587.49Z" fill="#020202"/>
<path d="M444.124 530.982C439.011 534.549 434.71 539.848 434.245 546.274C434.198 546.933 435.11 546.889 435.298 546.377C437.431 540.619 439.823 535.987 444.945 532.323C445.769 531.735 444.963 530.385 444.124 530.97V530.982Z" fill="#841918"/>
<path d="M435.472 547.283C436.703 545.562 438.028 543.912 439.443 542.339C439.553 542.222 439.611 542.067 439.605 541.907C439.6 541.747 439.531 541.596 439.414 541.486C439.297 541.377 439.141 541.319 438.981 541.324C438.821 541.33 438.67 541.399 438.561 541.516C436.939 543.044 435.551 544.803 434.442 546.736C434.048 547.392 435.06 547.889 435.478 547.283H435.472Z" fill="#841918"/>
<path d="M439.182 540.831C439.008 542.733 439.04 544.677 439.832 546.439C440.064 546.959 440.876 546.65 440.853 546.145C440.77 544.342 440.479 542.616 440.626 540.798C440.703 539.866 439.264 539.916 439.182 540.839V540.831Z" fill="#841918"/>
<path d="M441.797 545.83C442.253 544.36 443.086 543.136 443.706 541.736C443.774 541.629 443.798 541.5 443.775 541.376C443.751 541.251 443.681 541.14 443.578 541.066C443.476 540.991 443.349 540.958 443.223 540.973C443.097 540.989 442.982 541.051 442.9 541.148C441.724 542.266 441.082 544.013 440.62 545.559C440.4 546.303 441.568 546.568 441.797 545.83Z" fill="#841918"/>
<path d="M442.724 540.798C443.489 543.833 445.001 546.833 447.472 548.815C447.595 548.932 447.759 548.995 447.929 548.991C448.013 548.989 448.096 548.971 448.172 548.936C448.249 548.902 448.319 548.854 448.377 548.793C448.435 548.732 448.48 548.66 448.51 548.582C448.54 548.504 448.555 548.42 448.553 548.336C448.551 548.252 448.532 548.169 448.498 548.093C448.464 548.016 448.415 547.946 448.355 547.889C446.457 545.601 444.933 543.283 444.186 540.372C443.942 539.425 442.494 539.857 442.733 540.798H442.724Z" fill="#841918"/>
<path d="M446.942 544.671C447.754 546.271 448.452 548.162 449.622 549.532C449.875 549.827 450.287 549.482 450.211 549.168C449.811 547.403 448.678 545.703 447.878 544.098C447.563 543.463 446.619 544.042 446.937 544.686L446.942 544.671Z" fill="#841918"/>
<path d="M447.828 542.757C448.978 545.174 450.454 547.422 452.214 549.438C453.544 550.944 455.094 552.535 457.254 552.379C457.344 552.373 457.428 552.334 457.493 552.271C457.558 552.209 457.598 552.125 457.607 552.035C457.615 551.945 457.592 551.855 457.541 551.781C457.49 551.707 457.414 551.653 457.327 551.629C453.244 550.303 450.317 546.042 448.181 542.53C448.04 542.298 447.713 542.51 447.828 542.745V542.757Z" fill="#841918"/>
<path d="M454.082 547.547C454.64 548.752 455.323 549.896 456.118 550.959C456.804 551.867 457.554 552.891 458.642 553.311C458.706 553.343 458.777 553.353 458.847 553.341C458.917 553.328 458.98 553.294 459.029 553.242C459.077 553.191 459.108 553.125 459.116 553.055C459.125 552.985 459.11 552.914 459.075 552.853C458.572 551.788 457.604 550.976 456.889 550.044C456.172 549.08 455.547 548.05 455.024 546.968C454.709 546.33 453.782 546.909 454.082 547.556V547.547Z" fill="#841918"/>
<path d="M456.989 547.683C457.527 549.232 458.016 550.809 458.66 552.317C458.954 553.017 460.004 552.75 459.816 551.976C459.428 550.385 458.875 548.833 458.375 547.271C458.08 546.389 456.683 546.803 456.989 547.68V547.683Z" fill="#841918"/>
<path d="M437.923 576.8C438.196 575.973 438.381 576.373 439.243 576.729C439.9 577 440.906 577.2 441.35 577.811C441.721 578.323 441.753 579.379 441.835 579.97C442.156 582.278 441.656 584.434 441.588 586.734C441.592 586.815 441.62 586.892 441.668 586.958C441.716 587.023 441.782 587.073 441.857 587.102C441.933 587.131 442.016 587.137 442.095 587.119C442.174 587.102 442.246 587.062 442.303 587.004C444.133 584.543 444.539 579.167 442.597 576.591C441.75 575.462 439.261 574.826 437.931 574.688C436.684 574.571 436.71 575.276 436.34 576.229C436.288 576.334 436.259 576.449 436.254 576.567C436.25 576.684 436.27 576.801 436.313 576.91C436.356 577.019 436.422 577.118 436.506 577.2C436.589 577.282 436.69 577.346 436.799 577.387C436.909 577.428 437.027 577.446 437.144 577.439C437.261 577.433 437.376 577.401 437.48 577.348C437.584 577.294 437.676 577.219 437.75 577.128C437.824 577.036 437.877 576.931 437.908 576.817L437.923 576.8Z" fill="#841918"/>
<path d="M459.966 582.293C460.763 583.069 461.511 583.978 462.511 584.487C462.621 584.532 462.742 584.542 462.857 584.517C462.973 584.492 463.079 584.432 463.16 584.346C463.242 584.26 463.295 584.151 463.314 584.034C463.332 583.917 463.315 583.797 463.264 583.69C462.755 582.693 461.828 581.925 461.052 581.14C460.343 580.411 459.234 581.581 459.966 582.293Z" fill="#841918"/>
<path d="M460.802 582.049C461.425 582.033 462.048 582.082 462.661 582.196C463.196 582.281 463.544 581.534 463.008 581.267C462.312 580.928 461.538 580.782 460.766 580.843C459.993 580.881 460.025 582.087 460.802 582.049V582.049Z" fill="#841918"/>
<path d="M467.836 574.085C467.93 573.753 468.021 573.424 468.13 573.094C468.256 572.768 468.326 572.423 468.339 572.074C468.312 571.589 467.609 571.209 467.265 571.665C466.839 572.233 466.677 573.094 466.474 573.768C466.197 574.623 467.601 574.965 467.851 574.085H467.836Z" fill="#841918"/>
<path d="M467.118 574.403C470.734 573.647 474.638 573.15 478.027 571.636C478.421 571.459 478.197 570.803 477.788 570.839C474.096 571.162 470.434 572.641 466.924 573.741C466.836 573.767 466.762 573.826 466.718 573.907C466.674 573.987 466.664 574.081 466.69 574.169C466.716 574.257 466.775 574.331 466.856 574.375C466.936 574.418 467.03 574.429 467.118 574.403V574.403Z" fill="#841918"/>
<path d="M467.727 556.834C464.785 558.864 461.926 560.996 459.148 563.24C457.257 564.769 457.351 565.848 457.724 568.212C458.313 571.909 461.116 577.838 465.844 575.585C466.282 575.373 466.021 574.703 465.588 574.723C463.599 574.756 461.764 573.982 460.634 572.286C459.778 570.989 458.575 567.904 458.957 566.327C459.469 564.154 462.276 562.584 463.929 561.299C465.4 560.149 466.871 558.981 468.318 557.805C468.868 557.361 468.345 556.408 467.73 556.834H467.727Z" fill="#841918"/>
<path d="M450.17 566.969C452.988 566.969 456.315 567.445 459.048 566.698C459.126 566.672 459.194 566.622 459.242 566.555C459.289 566.487 459.313 566.406 459.311 566.324C459.308 566.242 459.28 566.163 459.229 566.098C459.178 566.033 459.107 565.987 459.028 565.966C456.286 565.248 452.95 565.76 450.134 565.798C449.378 565.798 449.417 566.974 450.17 566.974V566.969Z" fill="#841918"/>
<path d="M454.733 565.148C455.856 565.328 457.18 565.754 458.313 565.542C458.563 565.495 458.554 565.145 458.363 565.036C457.392 564.484 456.009 564.448 454.933 564.275C454.368 564.178 454.162 565.057 454.733 565.157V565.148Z" fill="#841918"/>
<path d="M454.115 573.382C455.768 573.018 457.566 573.015 459.166 572.465C459.224 572.449 459.275 572.414 459.312 572.366C459.348 572.318 459.368 572.259 459.368 572.199C459.368 572.138 459.348 572.08 459.312 572.032C459.275 571.984 459.224 571.949 459.166 571.933C457.474 571.568 455.512 572.071 453.847 572.424C453.217 572.559 453.503 573.521 454.141 573.382H454.115Z" fill="#841918"/>
<path d="M457.492 574.297L459.902 573.447C460.34 573.291 460.137 572.597 459.696 572.753L457.289 573.606C456.851 573.759 457.054 574.453 457.492 574.297Z" fill="#841918"/>
<path d="M429.691 524.733C432.863 524.219 436.109 524.42 439.193 525.321C442.103 526.182 444.612 528.053 447.49 528.85C448.104 529.023 448.372 528.262 448.022 527.856C445.995 525.45 442.191 524.153 439.196 523.444C435.998 522.697 432.675 522.648 429.456 523.3C428.656 523.453 428.867 524.841 429.679 524.715L429.691 524.733Z" fill="#841918"/>
<path d="M744.075 507.19C744.075 507.19 741.96 509.07 738.085 512.405C734.211 515.739 728.562 520.512 721.522 526.306C707.422 537.913 687.658 553.579 665.061 569.83C642.465 586.081 621.321 599.826 605.826 609.493C598.08 614.327 591.749 618.15 587.351 620.762C582.953 623.373 580.499 624.782 580.499 624.782C580.499 624.782 582.659 622.947 586.604 619.7C590.549 616.453 596.285 611.78 603.428 606.102C617.717 594.738 637.634 579.314 660.207 563.084C682.78 546.853 703.747 532.881 719.063 522.953C726.712 517.992 732.978 514.046 737.303 511.337C741.627 508.629 744.075 507.19 744.075 507.19Z" fill="#841918"/>
<path d="M609.598 553.773L603.858 545.612L611.263 540.407L607.788 535.472L600.386 540.68L597.398 536.431L606.035 530.355L602.561 525.418L588.025 535.64L603.702 557.92L609.598 553.773Z" fill="#841918"/>
<path d="M624.001 543.657L621.771 538.134L627.99 533.764L632.427 537.713L638.667 533.328L616.202 515.819L609.068 520.836L617.956 547.891L624.001 543.657ZM615.664 522.777C617.779 524.624 620.236 526.941 622.277 528.682L623.725 529.97L619.641 532.84L618.918 531.046C617.97 528.535 616.638 525.459 615.526 522.877L615.664 522.777Z" fill="#841918"/>
<path d="M638.09 519.448L641.682 518.657C644.097 518.089 645.471 517.633 646.221 518.695C646.922 519.695 646.574 520.806 644.792 522.059C643.147 523.215 640.532 523.721 638.061 523.562L637.546 529.97C641.32 530.368 645.111 529.394 648.225 527.226C653.779 523.321 654.571 517.742 651.917 513.972C649.746 510.89 646.819 510.078 643.271 510.934L639.814 511.775C637.234 512.41 635.695 512.925 634.954 511.863C634.254 510.869 634.786 509.728 636.225 508.717C637.869 507.558 639.558 507.19 641.814 507.193L642.159 501.415C638.821 500.908 635.417 501.707 632.653 503.644C627.787 507.067 626.552 512.596 629.229 516.401C631.497 519.624 635.01 520.177 638.09 519.448Z" fill="#841918"/>
<path d="M651.643 498.286L663.846 515.628L669.742 511.478L657.542 494.139L663.437 489.99L659.963 485.055L642.273 497.495L645.745 502.429L651.643 498.286Z" fill="#841918"/>
<path d="M577.546 583.463L570.962 588.092L586.639 610.372L593.564 605.502C600.007 600.967 602.31 594.327 596.762 586.448C591.214 578.57 584.333 578.688 577.546 583.463ZM589.548 601.252L589.204 601.494L580.187 588.675L580.529 588.433C583.765 586.169 587.06 585.493 590.725 590.692C594.391 595.891 592.77 598.985 589.548 601.252Z" fill="#841918"/>
<path d="M611.148 585.76L608.347 581.784L615.617 576.673L612.142 571.738L604.876 576.847L602.416 573.35L610.916 567.374L607.444 562.437L593.043 572.559L608.724 594.838L623.463 584.475L619.991 579.54L611.148 585.76Z" fill="#841918"/>
<path d="M630.279 572.303L618.073 554.961L612.178 559.108L627.855 581.387L642.185 571.309L638.714 566.374L630.279 572.303Z" fill="#841918"/>
<path d="M636.318 542.141L630.42 546.288L646.095 568.567L651.993 564.42L636.318 542.141Z" fill="#841918"/>
<path d="M652.776 530.561L657.368 541.892C658.451 544.665 659.622 547.277 660.693 550.112L660.557 550.206C658.251 548.241 656.221 546.233 653.941 544.304L644.759 536.207L638.519 540.595L660.781 558.24L667.912 553.226L658.813 526.306L652.776 530.561Z" fill="#841918"/>
<path d="M678.768 538.21L675.967 534.234L683.236 529.123L679.765 524.188L672.495 529.3L670.036 525.803L678.538 519.824L675.064 514.887L660.666 525.012L676.343 547.291L691.085 536.925L687.611 531.99L678.768 538.21Z" fill="#841918"/>
<path d="M702.212 506.558C698.305 501.006 693.036 502.253 688.232 505.629L679.797 511.558L695.475 533.837L701.359 529.694L696.098 522.221L698.367 520.627L707.46 525.4L714.044 520.771L703.103 515.522C704.465 512.828 704.439 509.74 702.212 506.558ZM692.836 517.557L688.976 512.075L691.103 510.578C693.433 508.94 695.101 508.687 696.451 510.611C697.802 512.534 697.293 514.434 694.963 516.063L692.836 517.557Z" fill="#841918"/>
<path d="M720.863 504.508L717.31 485.181L711.132 489.522L712.77 495.339C713.359 497.43 713.87 499.386 714.518 501.538L714.376 501.638C712.564 500.297 710.931 499.139 709.202 497.848L704.274 494.342L697.966 498.78L714.968 508.661L720.369 516.342L726.253 512.193L720.863 504.508Z" fill="#841918"/>
<path opacity="0.48" d="M711.126 688.712C711.126 688.712 703.182 683.969 740.815 683.969C778.448 683.969 847.451 688.712 847.451 688.712C847.451 688.712 778.46 693.456 740.815 693.456C703.171 693.456 711.126 688.712 711.126 688.712Z" fill="white"/>
<path opacity="0.48" d="M756.484 663.101C756.484 663.101 752.148 660.516 772.664 660.516C793.181 660.516 830.749 663.101 830.749 663.101C830.749 663.101 793.169 665.683 772.664 665.683C752.159 665.683 756.484 663.101 756.484 663.101Z" fill="white"/>
<path d="M772.959 676.464C772.959 676.464 771.276 675.461 779.234 675.461C787.192 675.461 801.775 676.464 801.775 676.464C801.775 676.464 787.192 677.464 779.234 677.464C771.276 677.464 772.959 676.464 772.959 676.464Z" fill="white"/>
<path d="M682.207 595.168C682.207 595.168 673.734 590.118 713.826 590.118C753.919 590.118 827.41 595.168 827.41 595.168C827.41 595.168 753.933 600.22 713.838 600.22C673.743 600.22 682.207 595.168 682.207 595.168Z" fill="white"/>
<path d="M741.824 579.579C741.824 579.579 739.494 578.191 750.512 578.191C761.529 578.191 781.723 579.579 781.723 579.579C781.723 579.579 761.529 580.967 750.512 580.967C739.494 580.967 741.824 579.579 741.824 579.579Z" fill="white"/>
<path d="M844.923 625.573C843.926 623.809 842.493 622.331 840.761 621.279C841.467 618.386 839.878 614.848 836.036 614.848C835.19 614.836 834.355 615.038 833.609 615.436C833.532 615.28 833.474 615.118 833.385 614.962C832.56 613.494 831.289 612.325 829.757 611.624C828.224 610.924 826.509 610.727 824.858 611.062C823.206 611.397 821.704 612.248 820.566 613.491C819.429 614.734 818.716 616.306 818.529 617.98C816.712 618.455 815.018 619.312 813.559 620.494C812.1 621.676 810.91 623.155 810.068 624.833C809.226 626.511 808.752 628.349 808.677 630.225C808.603 632.101 808.929 633.971 809.634 635.711C810.34 637.45 811.408 639.019 812.769 640.314C814.129 641.608 815.75 642.597 817.523 643.215C819.296 643.834 821.18 644.067 823.051 643.899C824.921 643.732 826.734 643.168 828.369 642.244C828.528 642.153 828.664 642.047 828.831 641.95C831.111 643.185 833.731 643.645 836.295 643.261C838.86 642.876 841.229 641.668 843.047 639.819C844.864 637.97 846.029 635.58 846.368 633.01C846.707 630.44 846.2 627.829 844.923 625.573V625.573Z" fill="white"/>
<path d="M834.992 514.348C834.504 514.477 834.05 514.708 833.658 515.026C833.267 515.344 832.948 515.742 832.723 516.193C832.497 516.644 832.37 517.138 832.351 517.641C832.331 518.145 832.419 518.647 832.608 519.114C832.798 519.581 833.085 520.003 833.45 520.35C833.815 520.698 834.25 520.964 834.726 521.131C835.202 521.297 835.708 521.36 836.21 521.316C836.713 521.272 837.2 521.121 837.639 520.874L837.763 520.795C838.194 521.027 838.673 521.158 839.163 521.177C839.653 521.196 840.14 521.103 840.589 520.905C841.037 520.707 841.434 520.408 841.749 520.033C842.064 519.658 842.289 519.215 842.407 518.74C842.524 518.264 842.532 517.768 842.428 517.289C842.324 516.81 842.112 516.361 841.808 515.977C841.504 515.593 841.117 515.283 840.674 515.071C840.232 514.86 839.747 514.752 839.257 514.757C839.312 514.192 839.139 513.628 838.777 513.19C838.416 512.752 837.895 512.475 837.329 512.421C836.763 512.366 836.199 512.539 835.761 512.901C835.323 513.262 835.046 513.783 834.992 514.348V514.348Z" fill="white"/>
<path d="M857.659 574.829C857.906 574.359 858.024 573.831 858 573.3L857.859 572.244C857.678 571.577 857.326 570.969 856.838 570.48L856.032 569.859C855.424 569.504 854.733 569.317 854.029 569.318H853.911C853.855 569.318 853.805 569.318 853.749 569.318C853.613 568.456 853.216 567.656 852.612 567.026C852.008 566.395 851.225 565.965 850.369 565.791C849.514 565.618 848.625 565.71 847.823 566.056C847.021 566.401 846.344 566.983 845.883 567.724C845.286 567.607 844.677 567.569 844.07 567.609C843.139 567.673 842.23 567.919 841.394 568.334C840.559 568.749 839.813 569.324 839.2 570.027C838.586 570.73 838.118 571.547 837.82 572.431C837.523 573.315 837.402 574.249 837.466 575.179C837.466 575.229 837.48 575.276 837.483 575.323C835.718 577.594 836.692 581.896 840.461 581.896C840.738 581.896 841.015 581.869 841.287 581.817C841.464 583.643 842.732 585.346 845.112 585.346C845.693 585.367 846.272 585.248 846.798 584.999C847.324 584.75 847.782 584.377 848.133 583.913C849.03 584.283 850.001 584.442 850.969 584.378C851.927 584.321 852.859 584.048 853.697 583.581C854.535 583.113 855.256 582.463 855.808 581.678C856.359 580.893 856.726 579.994 856.882 579.047C857.037 578.101 856.977 577.131 856.706 576.211C856.75 576.167 856.803 576.138 856.847 576.091C857.22 575.746 857.499 575.312 857.659 574.829Z" fill="white"/>
<g style="mix-blend-mode:multiply" opacity="0.24">
<path d="M179.12 691.8C173.178 682.775 171.265 671.841 173.866 661.804C177.282 648.617 187.478 638.427 200.473 635.207C203.639 634.423 206.889 634.028 210.152 634.031C210.702 634.031 211.258 634.031 211.802 634.063C223.555 634.54 234.066 640.465 240.633 650.317C249.226 663.192 248.746 680.507 239.438 693.406L208.448 736.359L179.12 691.8Z" fill="#FB7F1C"/>
</g>
<path d="M208.522 732.96L180.732 690.741C175.211 682.351 173.213 672.008 175.731 662.286C178.814 650.394 187.922 640.304 200.935 637.078C203.949 636.333 207.043 635.958 210.149 635.96V635.96C210.675 635.96 211.199 635.96 211.722 635.989C223.54 636.469 233.198 642.644 239.035 651.387C247.322 663.804 246.616 680.172 237.882 692.265L208.522 732.96Z" fill="#FDE41B"/>
<path style="mix-blend-mode:multiply" opacity="0.68" d="M224.604 685.266C232.802 677.071 232.802 663.786 224.604 655.592C216.407 647.397 203.117 647.397 194.919 655.592C186.722 663.786 186.722 677.071 194.919 685.266C203.117 693.46 216.407 693.46 224.604 685.266Z" fill="url(#paint0_linear_920_404)"/>
<path d="M229.651 675.297C232.329 664.318 225.595 653.248 214.612 650.571C203.628 647.895 192.554 654.626 189.876 665.605C187.199 676.584 193.932 687.655 204.916 690.331C215.899 693.008 226.974 686.277 229.651 675.297Z" fill="url(#paint1_linear_920_404)"/>
<path d="M223.306 683.968C230.787 676.49 230.787 664.367 223.306 656.889C215.826 649.412 203.698 649.412 196.217 656.889C188.737 664.367 188.737 676.49 196.217 683.968C203.698 691.446 215.826 691.446 223.306 683.968Z" fill="url(#paint2_linear_920_404)"/>
<g style="mix-blend-mode:multiply" opacity="0.24">
<path d="M208.725 741.879C217.251 741.879 224.164 739.404 224.164 736.351C224.164 733.297 217.251 730.822 208.725 730.822C200.198 730.822 193.286 733.297 193.286 736.351C193.286 739.404 200.198 741.879 208.725 741.879Z" fill="#FB7F1C"/>
</g>
</g>
</g>
<defs>
<linearGradient id="paint0_linear_920_404" x1="188.771" y1="670.427" x2="230.752" y2="670.427" gradientUnits="userSpaceOnUse">
<stop offset="0.08" stop-color="#FDE41B"/>
<stop offset="1" stop-color="#FB7F1C"/>
</linearGradient>
<linearGradient id="paint1_linear_920_404" x1="209.783" y1="693.843" x2="209.783" y2="651.648" gradientUnits="userSpaceOnUse">
<stop stop-color="#FB7F1C"/>
<stop offset="0.92" stop-color="#FDE41B"/>
</linearGradient>
<linearGradient id="paint2_linear_920_404" x1="209.761" y1="692.322" x2="209.761" y2="652.838" gradientUnits="userSpaceOnUse">
<stop offset="0.08" stop-color="#FDE41B"/>
<stop offset="1" stop-color="#FB7F1C"/>
</linearGradient>
<clipPath id="clip0_920_404">
<rect width="749" height="476" fill="white" transform="translate(109 336)"/>
</clipPath>
</defs>
</svg>
