<svg width="394" height="258" viewBox="0 0 394 258" fill="none" xmlns="http://www.w3.org/2000/svg">
<g clip-path="url(#clip0_1371_1376)">
<path d="M387.169 60.8293L381.007 90.6455L377.041 86.785L370.294 91.5914L365.136 85.1957L353.573 93.5988L343.69 77.0822L332.667 83.5357L328.295 77.5068L314.298 85.3888L310.087 76.3808L319.899 28.8897L372.502 39.7443L387.169 60.8293Z" fill="#EBEBEB"/>
<path d="M372.502 39.7443L387.169 60.8293L368.922 57.0652L372.502 39.7443Z" fill="#DBDBDB"/>
<path d="M379.693 96.6101L370.66 140.356L299.804 125.744L308.773 82.3389L312.983 91.3533L326.987 83.4714L331.353 89.4938L342.382 83.0403L352.258 99.5569L363.829 91.1538L368.979 97.5495L375.733 92.7431L379.693 96.6101Z" fill="#EBEBEB"/>
<path d="M278.28 91.482L206.072 95.9473L200.335 3.31363L253.955 0L273.638 16.4974L278.28 91.482Z" fill="#EBEBEB"/>
<path d="M253.955 0L273.638 16.4974L255.043 17.6491L253.955 0Z" fill="#DBDBDB"/>
<path d="M233.964 62.3284L233.68 60.2373C232.953 55.9071 234.137 51.0621 237.904 45.9984C241.304 41.4944 243.145 38.2773 242.939 34.6226C242.707 30.5047 239.971 27.9053 234.878 28.1112C231.967 28.2622 229.172 29.2945 226.862 31.0709L224.641 26.0973C227.216 24.0061 231.723 22.4619 236.005 22.2367C245.295 21.722 249.815 27.2168 250.169 33.3486C250.479 38.837 247.633 42.9614 244.014 47.7806C240.692 52.1752 239.604 55.7977 240.074 59.8963L240.273 61.9939L233.964 62.3284ZM232.818 73.7235C232.65 70.738 234.55 68.5246 237.376 68.3702C240.203 68.2158 242.263 70.1975 242.43 73.1894C242.585 76.0141 240.853 78.2918 237.865 78.4591C235.013 78.6199 232.953 76.5481 232.792 73.7235H232.818Z" fill="#DBDBDB"/>
<path d="M53.3498 46.571L46.0871 43.2831L45.0762 45.5029C44.927 45.8202 44.6941 46.0908 44.4026 46.2858C44.111 46.4807 43.7719 46.5927 43.4215 46.6096C43.0224 46.6227 42.6246 46.6614 42.2304 46.7254C41.8844 46.7768 41.531 46.7333 41.2078 46.5995C40.8846 46.4658 40.6038 46.2469 40.3954 45.9662L38.9725 43.978L32.4889 48.6235L33.9118 50.6117C34.1097 50.8987 34.2262 51.2338 34.2489 51.5816C34.2715 51.9294 34.1996 52.2768 34.0406 52.587C33.857 52.9409 33.6915 53.3038 33.5448 53.6744C33.4173 54.0012 33.203 54.2871 32.9251 54.5014C32.6472 54.7156 32.3161 54.8501 31.9674 54.8905L29.54 55.1285L30.3191 63.062L32.7593 62.8175C33.1093 62.7895 33.4602 62.8574 33.7745 63.0139C34.0887 63.1703 34.3543 63.4094 34.5428 63.7054C34.6458 63.8727 34.7553 64.0335 34.8711 64.1944C34.987 64.3552 35.1029 64.5097 35.2253 64.6641C35.4475 64.9342 35.5903 65.2607 35.6381 65.6071C35.6858 65.9535 35.6365 66.3064 35.4957 66.6265L34.4784 68.8656L41.7475 72.16L42.7584 69.9273C42.909 69.6103 43.1433 69.3404 43.436 69.1465C43.7287 68.9527 44.0687 68.8422 44.4195 68.827C44.8141 68.8108 45.2075 68.7721 45.5978 68.7112C45.9437 68.6599 46.2972 68.7034 46.6204 68.8371C46.9436 68.9708 47.2243 69.1897 47.4327 69.4705L48.8557 71.4586L55.3457 66.8131L53.9228 64.8249C53.7188 64.5406 53.5986 64.2048 53.5758 63.8557C53.5531 63.5065 53.6287 63.158 53.794 62.8496C53.9734 62.4978 54.1345 62.137 54.2769 61.7687C54.4007 61.4395 54.6139 61.1513 54.8926 60.9365C55.1712 60.7217 55.5043 60.5887 55.8543 60.5526L58.2946 60.3081L57.5091 52.3747L55.0688 52.6128C54.7211 52.6433 54.3716 52.5771 54.0592 52.4215C53.7467 52.266 53.4833 52.0271 53.2982 51.7313C53.1888 51.564 53.0793 51.4031 52.9634 51.2423C52.8476 51.0814 52.7317 50.9205 52.6093 50.7726C52.3886 50.4991 52.2468 50.1706 52.1992 49.8225C52.1515 49.4744 52.1998 49.1199 52.3389 48.7973L53.3498 46.571ZM49.2291 53.9125C49.982 54.9625 50.4064 56.212 50.4487 57.5031C50.4909 58.7941 50.1491 60.0687 49.4665 61.1656C48.7838 62.2625 47.7909 63.1324 46.6135 63.6654C45.436 64.1984 44.1269 64.3705 42.8516 64.1599C41.5763 63.9493 40.3921 63.3654 39.4488 62.4822C38.5055 61.599 37.8456 60.4561 37.5523 59.198C37.2591 57.94 37.3458 56.6233 37.8014 55.4144C38.2571 54.2056 39.0612 53.1589 40.1121 52.4069C41.521 51.3986 43.2729 50.9908 44.9826 51.2732C46.6923 51.5555 48.2197 52.5049 49.2291 53.9125V53.9125Z" fill="#EBEBEB"/>
<path d="M381.651 151.835L376.809 154.628L377.666 156.107C377.794 156.32 377.857 156.564 377.849 156.812C377.841 157.06 377.762 157.3 377.621 157.504C377.473 157.735 377.331 157.973 377.202 158.224C377.096 158.446 376.929 158.633 376.72 158.763C376.512 158.893 376.27 158.961 376.024 158.958H374.324V164.549H376.037C376.283 164.546 376.525 164.614 376.733 164.744C376.942 164.874 377.109 165.061 377.215 165.283C377.344 165.534 377.486 165.772 377.634 166.003C377.775 166.207 377.854 166.447 377.862 166.695C377.87 166.942 377.807 167.187 377.679 167.4L376.822 168.879L381.664 171.672L382.527 170.186C382.652 169.975 382.833 169.803 383.05 169.689C383.268 169.576 383.512 169.525 383.757 169.542H384.581C384.825 169.525 385.07 169.577 385.287 169.69C385.504 169.804 385.685 169.975 385.811 170.186L386.673 171.678L391.509 168.886L390.652 167.4C390.531 167.186 390.471 166.943 390.48 166.697C390.489 166.452 390.567 166.214 390.704 166.01C390.852 165.778 390.994 165.534 391.122 165.289C391.228 165.067 391.395 164.88 391.604 164.75C391.813 164.62 392.055 164.553 392.301 164.556H394.013V158.964H392.288C392.042 158.967 391.8 158.9 391.591 158.77C391.382 158.64 391.215 158.453 391.109 158.231C390.981 157.986 390.839 157.742 390.691 157.51C390.554 157.306 390.476 157.068 390.467 156.823C390.458 156.577 390.518 156.334 390.639 156.12L391.496 154.634L386.66 151.842L385.798 153.309C385.673 153.519 385.492 153.691 385.274 153.805C385.057 153.918 384.812 153.969 384.568 153.952H384.156H383.744C383.499 153.968 383.253 153.917 383.035 153.804C382.817 153.69 382.635 153.519 382.508 153.309L381.651 151.835ZM384.156 157.176C385.063 157.174 385.95 157.442 386.705 157.945C387.46 158.448 388.049 159.163 388.396 160.001C388.744 160.838 388.835 161.76 388.659 162.649C388.482 163.538 388.045 164.355 387.404 164.996C386.762 165.637 385.945 166.074 385.055 166.25C384.165 166.427 383.243 166.335 382.405 165.988C381.567 165.64 380.851 165.052 380.348 164.298C379.845 163.543 379.577 162.657 379.578 161.75C379.577 161.149 379.695 160.553 379.925 159.998C380.154 159.442 380.491 158.937 380.917 158.511C381.342 158.086 381.847 157.748 382.403 157.518C382.958 157.288 383.554 157.169 384.156 157.169V157.176Z" fill="#EBEBEB"/>
<path d="M68.0421 22.7965L63.606 26.1938L64.6297 27.5514C64.7824 27.7448 64.8763 27.978 64.9003 28.2233C64.9242 28.4685 64.8773 28.7154 64.7649 28.9348C64.6417 29.1852 64.5342 29.4431 64.443 29.7069C64.3636 29.9392 64.2209 30.1449 64.031 30.3006C63.841 30.4563 63.6113 30.556 63.3677 30.5884L61.668 30.8071L62.3891 36.347L64.0889 36.1282C64.3363 36.0938 64.5884 36.1298 64.8162 36.2323C65.0441 36.3347 65.2383 36.4994 65.3766 36.7073C65.5316 36.9311 65.6993 37.146 65.8788 37.3507C66.0447 37.533 66.1547 37.7591 66.1958 38.002C66.2368 38.245 66.2073 38.4946 66.1106 38.7212L65.4667 40.3041L70.6175 42.4467L71.2614 40.8638C71.3572 40.6368 71.5148 40.4411 71.7162 40.2989C71.9176 40.1568 72.1549 40.0738 72.401 40.0595L72.8131 40.0145L73.2187 39.9502C73.457 39.9053 73.703 39.9266 73.93 40.0116C74.1571 40.0967 74.3564 40.2424 74.5064 40.4327L75.5559 41.8032L79.9921 38.406L78.9555 37.0483C78.8057 36.8522 78.7137 36.6182 78.6899 36.3727C78.666 36.1271 78.7111 35.8798 78.8202 35.6585C78.9423 35.4098 79.0498 35.1541 79.1422 34.8929C79.2215 34.6605 79.3642 34.4548 79.5542 34.2991C79.7441 34.1434 79.9738 34.0437 80.2174 34.0114L81.9172 33.7926L81.1961 28.2527L79.4963 28.4715C79.2495 28.5066 78.9978 28.4715 78.77 28.3702C78.5423 28.269 78.3477 28.1056 78.2086 27.8988C78.0476 27.6672 77.8802 27.4484 77.6999 27.2554C77.55 27.0692 77.4529 26.8461 77.4189 26.6095C77.3849 26.3729 77.4153 26.1315 77.5068 25.9107L78.1506 24.3278L72.9998 22.1852L72.3559 23.7681C72.2589 23.9943 72.101 24.1892 71.8999 24.3311C71.6987 24.4731 71.4621 24.5566 71.2163 24.5723L70.8043 24.611L70.4244 24.6238C70.1861 24.6687 69.9401 24.6474 69.7131 24.5624C69.486 24.4773 69.2867 24.3316 69.1367 24.1413L68.0421 22.7965ZM71.2163 27.7702C72.1132 27.6549 73.0241 27.8078 73.8342 28.2093C74.6443 28.6109 75.3172 29.2432 75.7681 30.0265C76.219 30.8098 76.4276 31.709 76.3677 32.6106C76.3078 33.5123 75.9821 34.376 75.4315 35.0929C74.8809 35.8097 74.1303 36.3476 73.2742 36.6386C72.4181 36.9296 71.495 36.9607 70.6212 36.728C69.7474 36.4953 68.9622 36.0093 68.3646 35.3311C67.7669 34.653 67.3836 33.8131 67.2631 32.9175C67.1826 32.3199 67.2212 31.7123 67.3766 31.1296C67.5319 30.5469 67.8011 30.0006 68.1685 29.5222C68.5359 29.0439 68.9943 28.6428 69.5174 28.3421C70.0404 28.0414 70.6178 27.847 71.2163 27.7702Z" fill="#EBEBEB"/>
<path d="M34.8966 167.966C35.1385 161.746 35.0525 155.517 34.6391 149.306C33.7178 136.481 31.7606 123.751 28.7864 111.242C27.1511 104.202 25.1422 97.2792 23.0433 90.3624C22.9789 90.1501 22.6441 90.208 22.702 90.4268C29.1856 114.813 34.5039 139.97 34.1369 165.321C34.0339 172.399 33.2097 179.38 32.5401 186.432C32.5401 186.619 32.8298 186.696 32.8749 186.503C34.2077 180.448 34.6455 174.13 34.8966 167.966Z" fill="#EBEBEB"/>
<path d="M22.7027 90.4075C22.7027 90.4075 12.8903 115.308 15.0859 121.137C17.2814 126.967 21.8142 128.215 21.8142 128.215C21.8142 128.215 15.807 136.785 20.0049 144.822C24.2029 152.858 33.5259 152.479 34.1697 161.589C34.1504 161.634 34.6655 123.537 22.7027 90.4075Z" fill="#EBEBEB"/>
<path d="M33.0815 145.903C33.0974 145.861 33.0974 145.816 33.0815 145.774C31.7937 128.774 28.6017 111.972 23.5654 95.6835C23.5654 95.6385 23.4688 95.6514 23.4817 95.6835C25.4261 102.976 27.1431 110.298 28.6325 117.65C27.3133 116.401 25.7017 115.503 23.9453 115.038C23.9453 115.038 23.8937 115.076 23.9453 115.089C25.7905 115.765 27.4496 116.867 28.787 118.306C29.0703 119.754 29.3536 121.195 29.6176 122.643C27.4221 120.192 24.3831 118.975 21.3376 117.817C21.3308 117.82 21.3249 117.825 21.3208 117.832C21.3167 117.838 21.3145 117.845 21.3145 117.853C21.3145 117.86 21.3167 117.868 21.3208 117.874C21.3249 117.88 21.3308 117.885 21.3376 117.888C24.5118 119.175 27.6667 120.835 29.8172 123.57C30.5641 127.7 31.2208 131.846 31.7874 136.007C30.2021 134.347 28.1691 133.183 25.9348 132.655C25.8639 132.655 25.8253 132.738 25.8961 132.758C28.1913 133.433 30.2404 134.761 31.7938 136.58H31.8325C32.0256 138.038 32.2102 139.503 32.3862 140.974C31.1598 139.937 29.7752 139.103 28.2848 138.503C28.2462 138.503 28.2204 138.548 28.2848 138.561C29.8057 139.22 31.1985 140.141 32.3991 141.283C32.3991 141.283 32.4312 141.283 32.4506 141.283C32.6115 142.679 32.7725 144.075 32.9141 145.472C30.7032 142.801 27.8339 140.752 24.5891 139.526C24.5754 139.526 24.5623 139.532 24.5527 139.541C24.543 139.551 24.5376 139.564 24.5376 139.578C24.5376 139.592 24.543 139.605 24.5527 139.614C24.5623 139.624 24.5754 139.629 24.5891 139.629C27.7932 141.041 30.6076 143.206 32.7918 145.941C32.8158 145.971 32.8483 145.994 32.885 146.005C32.9217 146.016 32.961 146.017 32.9978 146.006C33.2103 148.148 33.4035 150.291 33.558 152.44C33.558 152.472 33.6095 152.472 33.6095 152.44C33.4421 150.282 33.2661 148.103 33.0815 145.903Z" fill="white"/>
<path d="M25.1941 112.586C23.4171 111.481 21.3871 110.848 19.2964 110.746C19.2862 110.746 19.2764 110.75 19.2691 110.757C19.2619 110.765 19.2578 110.774 19.2578 110.785C19.2578 110.795 19.2619 110.805 19.2691 110.812C19.2764 110.819 19.2862 110.823 19.2964 110.823C21.3177 111.206 23.2792 111.855 25.1298 112.754C25.207 112.773 25.265 112.638 25.1941 112.586Z" fill="white"/>
<path d="M26.3849 138.947C25.019 138.164 23.5151 137.651 21.9551 137.435C21.9036 137.435 21.8972 137.506 21.9551 137.519C23.4785 137.824 24.952 138.34 26.3333 139.05C26.3913 139.082 26.4428 138.979 26.3849 138.947Z" fill="white"/>
<path d="M60.7022 121.568C56.5512 124.436 52.7389 127.764 49.3382 131.49C45.8311 135.435 43.126 140.024 41.3738 145.002C37.6445 155.373 35.6392 166.284 35.4374 177.302C35.3123 183.404 35.8979 189.499 37.1823 195.466C37.1927 195.509 37.2194 195.547 37.2568 195.571C37.2943 195.595 37.3397 195.604 37.3835 195.596C37.4274 195.588 37.4664 195.563 37.4924 195.527C37.5185 195.49 37.5296 195.445 37.5235 195.401C35.9253 184.872 35.9861 174.158 37.7038 163.648C39.3907 153.354 42.0369 142.145 48.5913 133.774C52.1583 129.212 56.6073 125.628 61.0049 121.922C61.2366 121.716 60.9405 121.401 60.7022 121.568Z" fill="#EBEBEB"/>
<path d="M36.8799 169.877C39.2427 166.058 42.0195 162.51 45.1598 159.299C50.0724 154.39 54.206 150.902 54.8498 147.659C55.4937 144.416 49.9308 142.023 49.9308 142.023C49.9308 142.023 56.7235 143.245 58.5842 140.395C60.4449 137.545 61.3399 121.034 61.3399 121.034C61.3399 121.034 48.9779 129.856 43.2154 142.222C37.4529 154.589 36.8799 169.877 36.8799 169.877Z" fill="#EBEBEB"/>
<path d="M56.9036 136.522C56.0896 136.401 55.2644 136.372 54.4441 136.438C54.3475 136.438 54.3539 136.605 54.4441 136.612C55.2553 136.612 56.073 136.573 56.8843 136.612C56.8935 136.609 56.902 136.604 56.9086 136.597C56.9152 136.591 56.9198 136.582 56.9218 136.573C56.9238 136.563 56.9232 136.554 56.92 136.545C56.9167 136.536 56.9111 136.528 56.9036 136.522V136.522Z" fill="white"/>
<path d="M48.0255 152.536C46.7201 152.563 45.4297 152.82 44.2139 153.296C44.2139 153.296 44.2139 153.36 44.2139 153.354C45.5016 153.051 46.7442 152.929 48.019 152.71C48.0357 152.703 48.0499 152.691 48.0602 152.676C48.0704 152.661 48.0762 152.643 48.0768 152.625C48.0775 152.607 48.073 152.589 48.064 152.574C48.0549 152.558 48.0415 152.545 48.0255 152.536V152.536Z" fill="white"/>
<path d="M45.3596 147.003C44.8176 146.999 44.2765 147.046 43.7435 147.145C43.7337 147.148 43.7252 147.155 43.7192 147.163C43.7132 147.172 43.71 147.182 43.71 147.193C43.71 147.203 43.7132 147.214 43.7192 147.222C43.7252 147.231 43.7337 147.237 43.7435 147.241C44.2832 147.272 44.8247 147.249 45.3596 147.17C45.3818 147.17 45.4031 147.161 45.4188 147.146C45.4345 147.13 45.4433 147.109 45.4433 147.087C45.4433 147.064 45.4345 147.043 45.4188 147.028C45.4031 147.012 45.3818 147.003 45.3596 147.003V147.003Z" fill="white"/>
<path d="M0.637125 139.082C4.66069 140.446 8.51633 142.261 12.1299 144.494C15.8793 146.875 19.1308 149.96 21.704 153.579C27.1182 161.11 31.2635 169.476 33.9759 178.344C35.4886 183.255 36.4221 188.325 36.7573 193.452C36.7503 193.485 36.7321 193.515 36.7057 193.536C36.6793 193.557 36.6464 193.569 36.6125 193.569C36.5785 193.569 36.5456 193.557 36.5192 193.536C36.4929 193.515 36.4746 193.485 36.4676 193.452C35.3311 184.562 32.8066 175.906 28.986 167.798C25.2323 159.852 20.5 151.398 13.2631 146.134C9.32272 143.271 4.893 141.392 0.476161 139.411C0.244374 139.333 0.405337 139.005 0.637125 139.082Z" fill="#EBEBEB"/>
<path d="M31.0917 172.676C28.2945 170.132 25.2264 167.903 21.9425 166.029C16.8303 163.192 12.6775 161.326 11.4091 158.848C10.1407 156.371 14.0875 153.154 14.0875 153.154C14.0875 153.154 8.87231 155.728 6.70896 153.83C4.54561 151.932 0 138.806 0 138.806C0 138.806 12.0465 143.085 19.5603 151.764C27.0741 160.444 31.0917 172.676 31.0917 172.676Z" fill="#EBEBEB"/>
<path d="M21.0924 160.592C19.908 160.51 18.7188 160.656 17.5898 161.023C17.5898 161.023 17.5898 161.081 17.5898 161.075C18.7416 160.877 19.9053 160.757 21.0731 160.714C21.1568 160.714 21.1761 160.599 21.0924 160.592Z" fill="white"/>
<path d="M10.5853 146.823C10.045 146.779 9.50121 146.809 8.96919 146.913C8.91124 146.913 8.93056 147.016 8.96919 147.009C9.50359 146.952 10.0251 146.971 10.5531 146.958C10.5695 146.959 10.5856 146.954 10.5987 146.944C10.6117 146.934 10.621 146.92 10.6248 146.904C10.6286 146.888 10.6267 146.871 10.6195 146.856C10.6123 146.841 10.6002 146.83 10.5853 146.823V146.823Z" fill="white"/>
<path d="M46.6275 210.046H19.4375L23.3135 181.664L24.305 174.387H41.7599L42.7515 181.664L46.6275 210.046Z" fill="#DBDBDB"/>
<path d="M42.7514 181.664H23.3135L24.305 174.387H41.7599L42.7514 181.664Z" fill="#C7C7C7"/>
<path d="M44.2524 171.865H21.8076V178.029H44.2524V171.865Z" fill="#DBDBDB"/>
<path d="M2.15039 210.046L51.0897 209.885L100.029 209.833L197.908 209.724L295.786 209.827L344.726 209.885L393.665 210.046L344.726 210.2L295.786 210.258L197.908 210.361L100.029 210.258L51.0897 210.2L2.15039 210.046Z" fill="#263238"/>
<path d="M199.196 258C301.158 258 383.815 248.949 383.815 237.784C383.815 226.618 301.158 217.567 199.196 217.567C97.2337 217.567 14.5771 226.618 14.5771 237.784C14.5771 248.949 97.2337 258 199.196 258Z" fill="#EBEBEB"/>
<path d="M156.218 234.438C154.718 234.946 111.702 235.081 110.053 234.065C109.41 233.679 109.043 227.418 108.766 219.839C108.708 218.204 108.663 216.512 108.624 214.801L105.192 191.869L133.953 191.682L136.664 214.62L136.555 219.665C136.555 219.665 153.05 226.968 154.737 228.293C156.424 229.619 157.718 233.929 156.218 234.438Z" fill="#EB9481"/>
<path d="M156.218 234.438C154.718 234.946 111.702 235.081 110.054 234.065C109.294 233.588 108.882 224.445 108.65 214.801L136.632 214.62L136.523 219.665C136.523 219.665 153.018 226.968 154.705 228.293C156.392 229.619 157.719 233.929 156.218 234.438Z" fill="white"/>
<path d="M156.219 234.438C154.718 234.946 111.703 235.081 110.054 234.065C109.41 233.679 109.043 227.418 108.767 219.839L136.497 219.665C136.497 219.665 152.993 226.968 154.68 228.293C156.367 229.619 157.719 233.929 156.219 234.438Z" fill="#06CDBD"/>
<path d="M155.594 232.72C148.383 232.565 119.28 232.636 112.14 233.035C112.082 233.035 112.082 233.074 112.14 233.08C119.287 233.383 148.389 233.08 155.594 232.836C155.748 232.829 155.748 232.72 155.594 232.72Z" fill="#263238"/>
<path d="M151.93 226.755C151.129 226.737 150.332 226.886 149.59 227.192C148.849 227.497 148.179 227.953 147.623 228.531C146.61 229.562 146.038 230.947 146.026 232.392C146.026 232.437 146.104 232.437 146.11 232.392C146.349 230.968 147.043 229.66 148.087 228.663C149.132 227.666 150.471 227.033 151.905 226.858C151.918 226.862 151.933 226.86 151.945 226.852C151.957 226.845 151.966 226.833 151.969 226.82C151.973 226.806 151.97 226.792 151.963 226.78C151.956 226.767 151.944 226.759 151.93 226.755V226.755Z" fill="#263238"/>
<path d="M139.318 220.373C136.433 220.34 133.092 221.37 131.302 223.738C131.237 223.828 131.366 223.924 131.45 223.879C133.97 222.55 136.625 221.493 139.369 220.726C139.412 220.715 139.448 220.688 139.472 220.651C139.496 220.615 139.506 220.57 139.5 220.527C139.494 220.483 139.472 220.444 139.438 220.415C139.404 220.387 139.362 220.372 139.318 220.373V220.373Z" fill="#263238"/>
<path d="M141.558 221.228C138.667 221.228 135.325 222.232 133.542 224.593C133.471 224.69 133.6 224.786 133.69 224.741C136.206 223.407 138.859 222.348 141.603 221.582C141.645 221.571 141.681 221.545 141.705 221.508C141.729 221.472 141.74 221.429 141.734 221.386C141.729 221.343 141.708 221.303 141.675 221.274C141.643 221.245 141.601 221.229 141.558 221.228V221.228Z" fill="#263238"/>
<path d="M143.785 222.09C140.901 222.09 137.559 223.088 135.769 225.456C135.705 225.546 135.834 225.642 135.917 225.597C138.438 224.268 141.092 223.211 143.837 222.444C143.879 222.433 143.916 222.406 143.94 222.369C143.964 222.333 143.974 222.288 143.968 222.245C143.961 222.201 143.939 222.161 143.906 222.133C143.872 222.105 143.829 222.09 143.785 222.09Z" fill="#263238"/>
<path d="M146.019 222.953C143.128 222.921 139.787 223.95 138.003 226.318C137.932 226.408 138.068 226.504 138.151 226.459C140.671 225.129 143.326 224.072 146.071 223.307C146.113 223.295 146.15 223.268 146.174 223.231C146.198 223.195 146.208 223.15 146.202 223.107C146.195 223.063 146.173 223.024 146.14 222.995C146.106 222.967 146.063 222.952 146.019 222.953V222.953Z" fill="#263238"/>
<path d="M113.955 226.183C110.736 226.183 110.736 231.234 113.955 231.214C117.175 231.195 117.2 226.163 113.955 226.183Z" fill="#263238"/>
<path d="M142.414 212.664C140.952 211.455 139.111 212.664 138.216 213.906C136.726 216.101 135.838 218.648 135.641 221.293C135.641 221.351 135.686 221.376 135.731 221.376C135.742 221.431 135.767 221.482 135.802 221.525C135.837 221.568 135.882 221.602 135.933 221.624C135.984 221.646 136.04 221.656 136.095 221.652C136.151 221.648 136.205 221.631 136.252 221.602C138.3 220.18 140.669 218.906 142.221 216.892C143.103 215.721 143.824 213.79 142.414 212.664ZM138.899 218.803C137.907 219.53 136.883 220.205 135.917 220.971C136.433 219.53 136.877 218.076 137.534 216.686C137.837 216.019 138.185 215.374 138.577 214.755C139.22 213.797 142.028 211.378 142.324 214.511C142.491 216.229 140.077 217.94 138.899 218.803Z" fill="#263238"/>
<path d="M128.455 222.386C130.966 222.76 133.561 222.039 136.027 221.647C136.081 221.633 136.13 221.606 136.172 221.57C136.213 221.533 136.246 221.488 136.266 221.436C136.287 221.385 136.295 221.33 136.291 221.274C136.286 221.219 136.269 221.166 136.24 221.119C136.249 221.112 136.257 221.102 136.262 221.092C136.267 221.081 136.27 221.07 136.27 221.058C136.27 221.046 136.267 221.034 136.262 221.024C136.257 221.013 136.249 221.004 136.24 220.997C134.258 219.231 131.847 218.017 129.247 217.477C127.728 217.188 125.577 217.606 125.384 219.491C125.152 221.267 126.987 222.155 128.455 222.386ZM126.704 220.752C124.773 218.281 128.462 218.069 129.569 218.326C130.288 218.506 130.993 218.734 131.681 219.009C133.089 219.592 134.467 220.247 135.808 220.971C134.585 221.093 133.381 221.312 132.164 221.479C130.709 221.672 127.786 222.11 126.704 220.752V220.752Z" fill="#263238"/>
<path d="M62.9043 85.8777C62.9043 85.8777 96.301 142.653 97.196 146.643C98.5674 152.768 105.836 213.256 105.836 213.256L140.605 212.613C140.605 212.613 134.617 159.28 128.944 141.708C124.862 129.051 95.3867 87.0745 95.3867 87.0745L62.9043 85.8777Z" fill="#282210"/>
<path d="M137.443 207.311C132.453 207.272 114.767 207.073 108.122 207.691C108.071 207.691 108.077 207.781 108.122 207.787C110.408 208.115 132.447 207.607 137.437 207.446C137.447 207.45 137.458 207.451 137.469 207.45C137.48 207.449 137.491 207.445 137.5 207.439C137.509 207.432 137.517 207.424 137.523 207.414C137.528 207.405 137.531 207.394 137.532 207.383C137.532 207.372 137.53 207.361 137.526 207.351C137.521 207.341 137.514 207.332 137.506 207.325C137.497 207.318 137.487 207.313 137.476 207.311C137.465 207.308 137.454 207.308 137.443 207.311V207.311Z" fill="#263238"/>
<path d="M68.6031 91.0895C70.7922 94.5189 73.1101 97.8776 75.3378 101.281C77.5656 104.685 79.8062 108.089 82.0146 111.486C86.4185 118.349 90.7109 125.257 94.8917 132.211C96.932 135.434 98.6775 138.834 100.107 142.37C101.412 145.907 102.392 149.556 103.036 153.27C103.719 156.995 104.17 160.759 104.588 164.523C105.017 168.526 105.466 172.53 105.934 176.536C106.848 184.733 107.764 192.931 108.683 201.128C108.792 202.132 108.902 203.135 109.005 204.145C109.005 204.293 108.754 204.319 108.735 204.145C107.711 196.006 106.861 187.835 105.934 179.695C105.47 175.633 105.009 171.573 104.549 167.515C104.118 163.738 103.706 159.955 103.12 156.204C102.582 152.501 101.765 148.845 100.673 145.266C99.4713 141.56 97.8603 137.999 95.8703 134.649C91.8462 127.707 87.5839 120.886 83.3216 114.06C79.0593 107.233 74.6811 100.348 70.187 93.6053C69.6333 92.7753 69.0731 91.9452 68.4936 91.1281C68.4486 91.0831 68.5645 91.0252 68.6031 91.0895Z" fill="#263238"/>
<path d="M73.8499 237.784C72.2661 237.687 31.3556 221.125 30.2224 219.555C30.1719 219.463 30.1495 219.358 30.158 219.253C30.158 217.844 32.9974 212.928 35.3668 206.468C35.5149 206.056 36.5708 204.139 38.0323 201.559C42.0951 194.488 49.1774 182.308 49.1774 182.308L75.9167 192.924L63.1169 212.066L61.1274 216.699C61.1274 216.699 73.6761 229.664 74.732 231.497C75.7879 233.331 75.4274 237.874 73.8499 237.784Z" fill="#EB9481"/>
<path d="M73.8499 237.784C72.2661 237.687 31.3556 221.125 30.2224 219.555C30.1719 219.463 30.1495 219.358 30.158 219.253C30.158 217.844 32.9974 212.928 35.3668 206.468C35.5149 206.056 36.5708 204.139 38.0323 201.559L63.1426 212.066L61.1531 216.699C61.1531 216.699 73.7018 229.664 74.7578 231.497C75.8137 233.331 75.4274 237.874 73.8499 237.784Z" fill="white"/>
<path d="M73.8505 237.784C72.2666 237.687 31.3561 221.125 30.2229 219.555C29.7851 218.957 31.6136 213.379 35.3738 206.468L61.1279 216.705C61.1279 216.705 73.6766 229.657 74.739 231.504C75.8013 233.35 75.4279 237.874 73.8505 237.784Z" fill="#06CDBD"/>
<path d="M73.9145 235.956C67.2893 233.112 40.286 222.264 33.5191 219.961C33.4612 219.961 33.4483 219.961 33.5191 219.999C40.0285 222.959 67.1154 233.588 73.8888 236.085C74.0175 236.117 74.0562 236.014 73.9145 235.956Z" fill="#263238"/>
<path d="M72.7555 229.052C72.0208 228.73 71.2272 228.563 70.4247 228.563C69.6223 228.563 68.8287 228.73 68.094 229.052C66.7731 229.63 65.7261 230.695 65.1709 232.025C65.1709 232.064 65.2289 232.096 65.2482 232.057C66.0072 230.823 67.1459 229.869 68.4936 229.336C69.8412 228.804 71.3253 228.722 72.7233 229.104C72.7341 229.101 72.7434 229.094 72.7494 229.084C72.7553 229.075 72.7575 229.063 72.7555 229.052V229.052Z" fill="#263238"/>
<path d="M63.4648 218.41C60.8057 217.297 57.316 217.001 54.7728 218.526C54.6762 218.584 54.7728 218.719 54.8565 218.713C57.6915 218.425 60.5492 218.44 63.3811 218.758C63.4247 218.762 63.4685 218.751 63.5043 218.726C63.5402 218.701 63.5656 218.663 63.5758 218.621C63.5861 218.578 63.5805 218.533 63.5601 218.494C63.5396 218.456 63.5057 218.426 63.4648 218.41Z" fill="#263238"/>
<path d="M65.2099 220.044C62.5508 218.931 59.0611 218.635 56.5179 220.16C56.4213 220.218 56.5179 220.353 56.6016 220.347C59.4365 220.056 62.2945 220.071 65.1262 220.392C65.1698 220.397 65.2136 220.385 65.2494 220.36C65.2853 220.335 65.3107 220.298 65.321 220.255C65.3312 220.212 65.3256 220.168 65.3052 220.129C65.2847 220.09 65.2509 220.06 65.2099 220.044Z" fill="#263238"/>
<path d="M66.961 221.679C64.2954 220.566 60.8057 220.27 58.2689 221.795C58.1659 221.852 58.2689 221.988 58.3462 221.981C61.1811 221.69 64.0391 221.706 66.8708 222.026C66.9153 222.034 66.9609 222.024 66.9987 222C67.0366 221.975 67.0638 221.937 67.0751 221.894C67.0865 221.85 67.081 221.804 67.0599 221.764C67.0387 221.724 67.0034 221.694 66.961 221.679V221.679Z" fill="#263238"/>
<path d="M68.7061 223.313C66.0405 222.2 62.5573 221.904 60.014 223.422C59.911 223.487 60.014 223.622 60.0913 223.615C62.9262 223.325 65.7842 223.34 68.6159 223.66C68.6604 223.668 68.706 223.658 68.7439 223.634C68.7817 223.609 68.8089 223.572 68.8202 223.528C68.8316 223.484 68.8261 223.438 68.805 223.398C68.7838 223.359 68.7486 223.328 68.7061 223.313V223.313Z" fill="#263238"/>
<path d="M37.7683 214.286C34.7615 213.089 32.8944 217.767 35.914 218.963C38.9337 220.16 40.8073 215.483 37.7683 214.286Z" fill="#263238"/>
<path d="M69.2267 212.426C68.3189 210.76 66.1749 211.172 64.8678 212.002C62.6661 213.476 60.89 215.501 59.717 217.876C59.7118 217.887 59.7091 217.898 59.709 217.91C59.7089 217.921 59.7114 217.933 59.7163 217.943C59.7213 217.954 59.7286 217.963 59.7376 217.97C59.7466 217.978 59.7572 217.983 59.7685 217.985C59.7685 218.198 59.9102 218.449 60.1613 218.397C62.6015 217.837 65.2735 217.548 67.4626 216.261C68.7181 215.515 70.083 214.003 69.2267 212.426ZM63.6574 216.795C62.4663 217.098 61.2687 217.342 60.0904 217.689C61.065 216.516 62.0987 215.393 63.1874 214.324C63.7233 213.814 64.2934 213.341 64.8936 212.909C65.8272 212.265 69.3555 211.075 68.4541 214.093C67.9583 215.759 65.0803 216.435 63.6574 216.795V216.795Z" fill="#263238"/>
<path d="M52.635 216.203C54.8241 217.49 57.4961 217.792 59.9299 218.359C60.181 218.417 60.3484 218.166 60.3291 217.947C60.3412 217.946 60.3527 217.941 60.3626 217.934C60.3725 217.927 60.3804 217.918 60.3856 217.907C60.3908 217.896 60.393 217.884 60.3922 217.871C60.3913 217.859 60.3873 217.848 60.3806 217.838C59.2095 215.458 57.4332 213.428 55.2298 211.95C53.9421 211.114 51.7852 210.695 50.8709 212.356C49.9566 214.016 51.3538 215.45 52.635 216.203ZM51.6306 214.028C50.7357 211.011 54.2576 212.208 55.1911 212.857C55.7906 213.291 56.3586 213.766 56.8909 214.279C57.9775 215.35 59.009 216.476 59.9814 217.651C58.8032 217.303 57.6056 217.053 56.4145 216.75C54.9722 216.364 52.12 215.721 51.6306 214.028Z" fill="#263238"/>
<path d="M65.1964 210.998L35.2637 198.921C35.2637 198.921 72.3754 144.391 72.6458 140.331C72.8905 136.74 56.5881 105.457 55.9507 96.3398C55.2553 86.4954 59.9941 78.8837 65.2093 74.1546L96.0821 87.274C96.0821 87.274 92.8242 92.4793 87.712 95.3811C87.712 95.3811 103.544 131.542 102.643 142.66C101.742 153.778 65.1964 210.998 65.1964 210.998Z" fill="#282210"/>
<path d="M66.523 205.31C62.1963 203.451 63.4647 203.92 59.1122 202.093C56.9875 201.205 43.0159 195.395 40.8654 194.912C40.8204 194.912 40.7882 194.977 40.8332 195.002C42.694 196.141 56.7815 201.707 58.9255 202.556C63.3102 204.281 62.0675 203.74 66.4715 205.413C66.4781 205.422 66.4868 205.429 66.4968 205.433C66.5069 205.438 66.5179 205.439 66.5288 205.438C66.5397 205.437 66.5502 205.434 66.5593 205.428C66.5683 205.421 66.5757 205.413 66.5806 205.403C66.5855 205.393 66.5878 205.382 66.5873 205.371C66.5868 205.361 66.5836 205.35 66.5778 205.341C66.572 205.331 66.5639 205.324 66.5544 205.318C66.5448 205.313 66.534 205.31 66.523 205.31V205.31Z" fill="#263238"/>
<path d="M92.7725 94.7184C89.5583 95.4671 86.4136 96.4874 83.3722 97.7682C83.36 97.7724 83.3487 97.779 83.339 97.7876C83.3292 97.7962 83.3213 97.8066 83.3156 97.8183C83.31 97.83 83.3066 97.8426 83.3058 97.8555C83.3051 97.8685 83.3068 97.8814 83.3111 97.8937C83.3153 97.9059 83.3219 97.9172 83.3305 97.9269C83.3391 97.9366 83.3495 97.9446 83.3612 97.9502C83.3728 97.9559 83.3855 97.9592 83.3984 97.96C83.4114 97.9608 83.4244 97.959 83.4366 97.9548C86.5915 97.0347 89.7979 96.1725 92.9013 95.0851C93.1395 95.0015 93.0172 94.6669 92.7725 94.7184Z" fill="#263238"/>
<path d="M89.097 93.4701C88.797 94.0034 88.5324 94.5558 88.305 95.1237C88.0828 95.5548 87.9451 96.0244 87.8994 96.5071C87.8994 96.6036 88.0282 96.6229 88.0861 96.565C88.4092 96.1789 88.6699 95.7447 88.8588 95.2782C89.1227 94.7699 89.3932 94.268 89.6443 93.7468C89.8181 93.3672 89.2966 93.1227 89.097 93.4701Z" fill="#263238"/>
<path d="M89.483 90.549C89.6762 90.0729 89.8629 89.6032 90.0625 89.127C90.2621 88.6509 90.5132 88.1619 90.7063 87.66C90.7063 87.5828 90.8609 87.66 90.8287 87.7179C90.6355 88.1941 90.5132 88.6959 90.3651 89.1849C90.217 89.6739 90.0496 90.1629 89.8886 90.652C89.586 91.5592 89.2448 92.46 88.8263 93.3415C89.3329 93.3667 89.8388 93.2788 90.3071 93.0841C90.7855 92.7782 91.1533 92.3272 91.3566 91.7972C91.627 91.2696 91.8781 90.7292 92.155 90.2016C92.4958 89.6311 92.7825 89.0301 93.0113 88.4064C93.0113 88.3292 93.1658 88.4064 93.1337 88.4643C92.7138 89.7831 92.1639 91.0569 91.4918 92.267C91.2021 92.7367 90.9767 93.2321 90.4488 93.4122C89.8773 93.572 89.2792 93.6136 88.6911 93.5345C88.6138 93.5345 88.5237 93.5345 88.5494 93.4187C88.813 92.4473 89.1246 91.4896 89.483 90.549V90.549Z" fill="#263238"/>
<path d="M88.169 96.5586C89.27 98.8813 90.2358 101.198 91.2595 103.514C92.2833 105.83 93.1911 108.069 94.1118 110.373C95.9532 115.018 97.6015 119.754 99.0502 124.528C99.7648 126.896 100.428 129.283 101.02 131.689C101.673 134.088 102.15 136.531 102.45 138.999C102.708 141.462 102.489 143.953 101.806 146.334C101.096 148.687 100.185 150.976 99.0823 153.173C98.4063 154.563 98.181 154.377 98.5029 153.675C99.4236 151.681 101.838 145.639 101.664 140.562C101.523 138.132 101.148 135.721 100.544 133.362C99.9816 130.93 99.3485 128.517 98.6445 126.124C97.2731 121.401 95.6442 116.775 93.9702 112.155C93.0301 109.581 92.0386 107.008 91.0728 104.434C90.107 101.86 89.1412 99.4926 88.0596 96.6487C88.0274 96.5328 88.1368 96.4878 88.169 96.5586Z" fill="#263238"/>
<path d="M65.4481 88.8825C65.9825 88.6831 66.7358 89.0112 67.2766 89.1013C67.9771 89.2201 68.6848 89.291 69.3949 89.3136C70.0975 89.3384 70.801 89.3147 71.5003 89.2428C72.2046 89.2247 72.8948 89.0418 73.5156 88.7088C74.5341 87.9674 75.4071 87.0447 76.091 85.9871C76.9059 84.9064 77.5789 83.7258 78.0934 82.474C78.0934 82.3968 78.2286 82.474 78.2028 82.5255C77.9775 83.2397 77.8101 83.9603 77.559 84.6617C77.2814 85.3206 76.9498 85.9555 76.5674 86.5598C75.9476 87.7758 75.0308 88.8159 73.9019 89.5839C72.6593 90.2916 71.0625 90.2273 69.6782 90.1694C68.8754 90.1226 68.077 90.0172 67.2895 89.8541C66.7229 89.7319 65.77 89.6418 65.4095 89.1463C65.3925 89.1274 65.3799 89.1049 65.3726 89.0806C65.3653 89.0562 65.3634 89.0306 65.3671 89.0054C65.3708 88.9803 65.3799 88.9562 65.3939 88.935C65.4079 88.9137 65.4264 88.8958 65.4481 88.8825V88.8825Z" fill="#263238"/>
<path d="M43.8079 193.201C48.7269 185.754 53.5558 178.248 58.2946 170.681C63.0333 163.114 67.7077 155.49 72.3177 147.807C73.4187 145.974 74.6871 144.146 75.3953 142.113C76.168 139.906 75.7301 137.763 75.0348 135.602C73.7217 131.658 72.1869 127.791 70.4377 124.02C68.7121 120.217 66.8514 116.479 65.0229 112.728C63.1943 108.977 61.2821 105.271 59.872 101.359C58.5843 97.6202 58.0628 93.7468 59.0672 89.8734C60.0716 86 62.235 82.577 64.4949 79.3534C65.0872 78.5041 65.6989 77.6612 66.2977 76.7797C66.3428 76.7154 66.4393 76.7797 66.3943 76.8569C63.9026 80.2156 61.4752 83.7737 60.0137 87.7179C59.2667 89.6621 58.8489 91.717 58.7775 93.7983C58.7653 95.911 59.0936 98.0118 59.7497 100.02C60.9601 103.932 62.8724 107.632 64.6559 111.312C66.4393 114.993 68.3451 118.802 70.1029 122.591C71.9162 126.406 73.5281 130.312 74.9318 134.295C75.5305 136.065 76.2195 137.918 76.168 139.816C76.1229 141.894 75.1314 143.767 74.1012 145.517C69.5942 153.141 64.9778 160.676 60.2777 168.165C55.5775 175.655 50.7422 183.144 45.8489 190.556L43.9946 193.355C43.898 193.471 43.7306 193.336 43.8079 193.201Z" fill="#263238"/>
<path d="M97.7945 52.5934C100.582 58.706 114.664 67.1284 121.257 68.0356C125.995 68.679 140.405 68.9107 145.343 68.1579C151.138 67.2699 146.708 51.6669 143.289 52.0723C133.889 53.1661 125.905 54.3886 123.394 54.3886C120.329 54.3886 103.75 49.0739 101.754 48.3211C96.8609 46.5002 96.2171 49.1254 97.7945 52.5934Z" fill="#EB9481"/>
<path d="M97.8854 54.2213C101.414 59.4395 113.138 67.9713 113.138 67.9713L114.767 64.3681L120.156 52.4519C120.156 52.4519 109.385 49.0739 102.296 47.5297C101.462 47.34 100.613 47.2194 99.759 47.1694C95.2327 46.9249 94.84 49.7173 97.8854 54.2213Z" fill="#FFC727"/>
<path d="M97.8854 54.2213C101.414 59.4395 113.138 67.9713 113.138 67.9713L114.767 64.3681C110.396 59.2915 103.641 51.6026 99.759 47.1822C95.2327 46.9249 94.84 49.7173 97.8854 54.2213Z" fill="#263238"/>
<path d="M111.026 65.552C111.921 63.3579 115.9 54.5237 116.892 52.6835C116.956 52.5548 117.059 52.5677 117.001 52.6835C115.275 57.0767 113.311 61.3726 111.116 65.552C111.091 65.6292 110.988 65.6035 111.026 65.552Z" fill="#263238"/>
<path d="M141.564 52.2331C147.282 51.4868 154.358 50.2063 160.352 52.7479C161.025 53.0118 161.59 53.4945 161.955 54.1184C164.66 55.2122 164.956 56.8143 164.956 56.8143C167.164 58.603 167.241 60.2888 167.241 60.2888C167.241 60.2888 170.409 61.5756 169.926 63.6475C169.398 65.938 165.059 63.6475 161.904 63.8341C154.66 64.2844 144.52 66.9418 142.427 67.2764L141.564 52.2331Z" fill="#EB9481"/>
<path d="M153.984 58.9762C156.102 58.8314 158.228 58.8314 160.346 58.9762C162.652 59.2654 164.934 59.7278 167.171 60.3595C167.185 60.3647 167.201 60.3638 167.215 60.3572C167.229 60.3505 167.24 60.3387 167.245 60.3242C167.25 60.3097 167.249 60.2937 167.242 60.2798C167.236 60.266 167.224 60.2553 167.209 60.2502C163.007 58.6025 158.432 58.1395 153.984 58.9118C153.881 58.899 153.881 58.9826 153.984 58.9762Z" fill="#263238"/>
<path d="M152.639 52.291C156.173 52.4712 158.382 53.0374 161.936 54.1055V54.0669C158.021 52.4326 156.418 52.2782 152.619 52.1366C152.497 52.1881 152.503 52.291 152.639 52.291Z" fill="#263238"/>
<path d="M153.211 64.9279C152.291 65.359 152.516 65.8415 154.274 66.2469C156.031 66.6522 163.339 66.7745 163.082 69.3225C162.824 71.8704 152.516 71.5487 149.638 70.6479C146.76 69.7471 142.427 67.2764 142.427 67.2764C144.468 66.9353 149.258 65.6421 153.211 64.9279Z" fill="#EB9481"/>
<path d="M105.45 62.3349C105.405 63.4351 105.302 64.5547 105.148 65.6678C105.148 65.6228 105.148 65.5842 105.193 65.5456C105.405 64.9665 105.618 64.3745 105.875 63.8148C105.875 63.8148 105.94 63.8148 105.933 63.8148C105.809 64.4281 105.624 65.0274 105.379 65.6035C105.263 65.8801 105.154 66.1504 105.032 66.4206C104.954 66.9161 104.864 67.4051 104.768 67.8941C104.575 68.8142 103.705 72.7262 103.48 73.3889C103.441 73.524 103.274 73.4918 103.287 73.3374C103.332 72.6168 104.059 68.5439 104.208 67.6174C104.495 65.8284 104.88 64.0564 105.36 62.3091C105.392 62.277 105.457 62.3027 105.45 62.3349Z" fill="#263238"/>
<path d="M98.7538 91.5914C97.0348 92.4728 94.8199 93.8433 84.8402 91.8809C84.1963 91.7522 83.5911 91.5978 82.9601 91.4112C73.6049 88.6059 62.3568 77.6098 61.7451 76.8312C61.7451 76.8312 76.6117 52.7479 95.6247 45.1748C97.9748 44.2418 101.864 46.0434 103.995 48.2889C104.761 49.0932 106.429 55.0063 105.791 59.7934C105.154 64.5804 100.466 90.7099 98.7538 91.5914Z" fill="#FFCC2F"/>
<path d="M97.4154 59.5746C97.4872 60.5923 97.3447 61.6137 96.9969 62.5729C96.9153 61.5549 97.0582 60.5314 97.4154 59.5746V59.5746Z" fill="white"/>
<path d="M90.9317 75.9755C90.9727 76.4819 90.9554 76.9914 90.8802 77.4939C90.8182 78.0003 90.695 78.4972 90.5132 78.9738C90.4689 78.4653 90.4862 77.9533 90.5647 77.4489C90.6305 76.9454 90.7537 76.4511 90.9317 75.9755V75.9755Z" fill="white"/>
<path d="M79.9149 63.5767C79.988 64.5944 79.8454 65.6161 79.4964 66.575C79.416 65.5571 79.5588 64.5338 79.9149 63.5767Z" fill="white"/>
<path d="M101.658 75.139C101.699 75.6476 101.682 76.1593 101.607 76.6639C101.545 77.1702 101.422 77.6672 101.24 78.1438C101.195 77.6353 101.213 77.1233 101.291 76.6189C101.356 76.1131 101.479 75.6166 101.658 75.139V75.139Z" fill="white"/>
<path d="M87.5127 61.4534C88.0193 61.4103 88.5291 61.4254 89.0322 61.4984C89.5391 61.5626 90.0363 61.6879 90.5131 61.8716C89.4946 61.9447 88.4722 61.8022 87.5127 61.4534V61.4534Z" fill="white"/>
<path d="M75.0088 73.2988C76.0272 73.2271 77.0493 73.3695 78.0092 73.717C76.9905 73.7986 75.9663 73.6559 75.0088 73.2988V73.2988Z" fill="white"/>
<path d="M89.7402 86.1222C90.7587 86.0491 91.7811 86.1917 92.7406 86.5405C91.7219 86.6208 90.698 86.4781 89.7402 86.1222V86.1222Z" fill="white"/>
<path d="M71.1523 81.4639C72.1707 81.3921 73.1928 81.5346 74.1527 81.8821C73.134 81.9624 72.1101 81.8197 71.1523 81.4639V81.4639Z" fill="white"/>
<path d="M97.3184 48.0444C98.3367 47.9727 99.3588 48.1152 100.319 48.4627C99.3003 48.5344 98.2782 48.3919 97.3184 48.0444V48.0444Z" fill="white"/>
<path d="M93.6803 52.1495C93.3548 52.5405 92.9829 52.8905 92.5729 53.1918C92.1739 53.5001 91.742 53.7634 91.2852 53.9768C91.6085 53.5883 91.9758 53.2385 92.3797 52.9345C92.7825 52.625 93.2187 52.3617 93.6803 52.1495V52.1495Z" fill="white"/>
<path d="M73.8567 63.8148C73.5272 64.2024 73.1533 64.5501 72.7428 64.8507C72.3479 65.1648 71.9153 65.4285 71.4551 65.6356C71.7863 65.2497 72.1599 64.9022 72.5689 64.5997C72.9648 64.2869 73.3972 64.0234 73.8567 63.8148V63.8148Z" fill="white"/>
<path d="M98.6125 69.0779C98.2831 69.4676 97.9093 69.8174 97.4986 70.1203C97.1028 70.4331 96.6704 70.6967 96.2109 70.9053C96.5403 70.5156 96.9141 70.1658 97.3248 69.8629C97.7228 69.5533 98.1548 69.2899 98.6125 69.0779Z" fill="white"/>
<path d="M82.5803 79.1668C82.2509 79.5565 81.8771 79.9063 81.4664 80.2092C81.0699 80.5211 80.6376 80.7846 80.1787 80.9942C80.5081 80.6045 80.8819 80.2547 81.2926 79.9518C81.6906 79.6422 82.1226 79.3788 82.5803 79.1668Z" fill="white"/>
<path d="M104.755 55.2958C104.426 55.6855 104.052 56.0353 103.641 56.3382C103.242 56.6465 102.81 56.9097 102.354 57.1231C102.683 56.7335 103.057 56.3837 103.467 56.0808C103.864 55.7689 104.296 55.5054 104.755 55.2958V55.2958Z" fill="white"/>
<path d="M104.42 66.9868C104.03 66.6577 103.68 66.2841 103.377 65.8737C103.064 65.4784 102.8 65.0462 102.592 64.5869C102.983 64.9121 103.333 65.2838 103.635 65.6935C103.942 66.0952 104.206 66.5288 104.42 66.9868V66.9868Z" fill="white"/>
<path d="M68.686 75.0425C68.2961 74.7133 67.946 74.3398 67.6429 73.9294C67.3331 73.5316 67.0695 73.0999 66.8574 72.6425C67.2473 72.9717 67.5974 73.3452 67.9005 73.7556C68.2125 74.1519 68.4762 74.5839 68.686 75.0425V75.0425Z" fill="white"/>
<path d="M100.075 84.6231C99.6833 84.2978 99.3331 83.9262 99.0316 83.5164C98.7231 83.1177 98.4596 82.6861 98.2461 82.2295C98.636 82.5587 98.9861 82.9322 99.2891 83.3426C99.5998 83.7375 99.8635 84.1672 100.075 84.6231Z" fill="white"/>
<path d="M84.3451 57.3097C83.9554 56.9828 83.6053 56.6114 83.3021 56.203C82.9949 55.8035 82.7315 55.372 82.5166 54.9162C82.9079 55.2415 83.2581 55.6131 83.5596 56.0229C83.8669 56.4225 84.1302 56.8539 84.3451 57.3097V57.3097Z" fill="white"/>
<path d="M84.6215 90.0793C84.2316 89.7502 83.8815 89.3766 83.5785 88.9662C83.2696 88.5677 83.0061 88.1361 82.793 87.6793C83.1843 88.0046 83.5345 88.3762 83.836 88.786C84.1458 89.1861 84.4093 89.62 84.6215 90.0793V90.0793Z" fill="white"/>
<path d="M87.2938 70.7509C86.9076 70.4199 86.5598 70.0465 86.2572 69.6377C85.9428 69.2431 85.679 68.8108 85.4717 68.3509C85.8596 68.6802 86.2075 69.0537 86.5083 69.464C86.8213 69.8596 87.0851 70.2917 87.2938 70.7509V70.7509Z" fill="white"/>
<path d="M100.512 54.7039C98.0846 54.2535 95.8054 49.2412 95.5156 45.8697C95.5156 45.638 96.6488 43.8043 97.943 41.5073C98.7285 40.111 99.559 38.5346 100.222 37.0419C100.357 36.7395 101.149 37.7625 101.149 37.7625L102.875 39.0494L108.573 43.4182C107.216 45.0454 106.064 46.8323 105.141 48.7393C105.05 48.946 104.981 49.1617 104.935 49.3828C104.933 49.4192 104.933 49.4557 104.935 49.4921C104.581 50.7661 102.849 55.135 100.512 54.7039Z" fill="#EB9481"/>
<path d="M104.936 49.4149C104.933 49.4514 104.933 49.4879 104.936 49.5243C104.597 49.4252 104.268 49.2982 103.95 49.1447C97.7115 46.2236 100.461 37.8719 100.461 37.8719L102.907 39.0816L108.606 43.4504C107.249 45.0775 106.096 46.8645 105.174 48.7715C105.072 48.9769 104.992 49.1926 104.936 49.4149V49.4149Z" fill="#263238"/>
<path d="M115.121 25.6404C115.121 25.6404 117.973 27.4484 117.986 30.6656C117.999 33.8827 116.699 37.029 116.428 37.1448C116.158 37.2607 115.121 25.6404 115.121 25.6404Z" fill="#263238"/>
<path d="M100.97 27.3133C99.257 30.6913 99.3471 41.34 101.485 44.081C104.588 48.0573 110.563 49.4278 114.175 45.4965C117.671 41.6874 117.311 27.8152 114.819 25.2286C111.194 21.4067 103.506 22.3139 100.97 27.3133Z" fill="#EB9481"/>
<path d="M110.061 35.8387C110.061 35.8387 110.003 35.8773 110.009 35.903C110.048 36.6301 109.971 37.4666 109.32 37.7239C109.32 37.7239 109.32 37.769 109.32 37.7625C110.125 37.6338 110.215 36.5207 110.061 35.8387Z" fill="#263238"/>
<path d="M109.397 35.0988C108.225 35.0344 108.187 37.3765 109.275 37.4344C110.363 37.4923 110.376 35.1502 109.397 35.0988Z" fill="#263238"/>
<path d="M114.032 35.813C114.032 35.813 114.09 35.813 114.09 35.8773C114.052 36.6044 114.136 37.4408 114.792 37.6918C114.792 37.6918 114.792 37.7368 114.792 37.7304C113.981 37.6081 113.884 36.495 114.032 35.813Z" fill="#263238"/>
<path d="M114.696 35.0666C115.862 34.9958 115.92 37.3379 114.838 37.4022C113.756 37.4666 113.718 35.1245 114.696 35.0666Z" fill="#263238"/>
<path d="M108.663 33.3165C108.971 33.229 109.274 33.1259 109.571 33.0076C109.909 32.9465 110.218 32.7744 110.447 32.5186C110.503 32.425 110.526 32.3156 110.513 32.2074C110.5 32.0993 110.452 31.9983 110.376 31.9202C110.202 31.7879 109.995 31.7044 109.778 31.6784C109.561 31.6523 109.34 31.6848 109.14 31.7723C108.705 31.8885 108.329 32.1612 108.084 32.5379C108.035 32.6275 108.013 32.7293 108.02 32.8312C108.027 32.9331 108.063 33.0308 108.124 33.1127C108.185 33.1946 108.268 33.2574 108.364 33.2935C108.46 33.3296 108.563 33.3376 108.663 33.3165V33.3165Z" fill="#263238"/>
<path d="M115.495 34.3524C115.182 34.2824 114.872 34.1965 114.568 34.095C114.229 34.0502 113.914 33.894 113.673 33.6511C113.611 33.5616 113.581 33.4538 113.588 33.3451C113.595 33.2365 113.638 33.1334 113.712 33.0527C113.878 32.9108 114.079 32.8162 114.294 32.7789C114.509 32.7415 114.731 32.7627 114.935 32.8403C115.375 32.9316 115.766 33.184 116.029 33.5481C116.085 33.6343 116.113 33.7346 116.113 33.8369C116.112 33.9392 116.081 34.0391 116.024 34.1243C115.968 34.2095 115.888 34.2765 115.794 34.317C115.7 34.3575 115.596 34.3698 115.495 34.3524V34.3524Z" fill="#263238"/>
<path d="M108.412 42.7169C108.586 42.8906 108.753 43.1222 109.017 43.148C109.288 43.1478 109.556 43.0908 109.803 42.9807C109.803 42.9807 109.848 42.9807 109.803 43.0193C109.697 43.1607 109.555 43.2708 109.392 43.3377C109.229 43.4045 109.05 43.4257 108.876 43.3989C108.729 43.3588 108.597 43.2765 108.496 43.1621C108.395 43.0478 108.33 42.9064 108.309 42.7555C108.304 42.7418 108.305 42.7267 108.311 42.7134C108.317 42.7002 108.328 42.6898 108.341 42.6847C108.355 42.6796 108.37 42.6801 108.383 42.6861C108.397 42.6922 108.407 42.7032 108.412 42.7169Z" fill="#263238"/>
<path d="M112.623 39.6156C112.623 39.6156 112.655 40.6965 112.623 41.2048C111.633 41.0999 110.634 41.1346 109.654 41.3078C109.423 41.3593 109.448 41.1727 109.712 41.0504C110.501 40.69 111.38 40.5735 112.236 40.7158C112.288 40.5807 112.153 39.0429 112.236 39.0494C112.626 39.1258 113.003 39.2557 113.357 39.4354C113.357 37.1706 112.996 34.9315 113.028 32.6666C113.028 32.5894 113.15 32.5765 113.163 32.6666C113.621 35.0625 113.837 37.4983 113.807 39.9373C113.814 40.214 112.816 39.7185 112.623 39.6156Z" fill="#263238"/>
<path d="M111.175 40.8188C110.918 41.4935 110.442 42.0623 109.823 42.4338C108.85 42.8263 108.535 41.9448 109.513 41.1469C110.027 40.8877 110.601 40.7742 111.175 40.8188Z" fill="#263238"/>
<path d="M110.163 42.2343C110.061 42.318 109.945 42.3852 109.822 42.4338C108.927 42.7941 108.573 42.0799 109.294 41.3593C109.783 41.3979 110.344 41.578 110.163 42.2343Z" fill="#FF99BA"/>
<path d="M100.48 36.4178C101.658 36.7781 103.01 33.2393 103.397 31.9138C103.731 30.717 104.118 26.9144 104.176 26.6506C104.234 26.3868 109.327 30.0157 112.275 29.1535C115.224 28.2913 117.227 25.6211 117.272 24.3793C117.317 23.1375 113.627 19.9847 110.44 19.8239C107.253 19.663 102.933 23.6844 102.933 23.6844C103.455 23.0926 103.929 22.46 104.35 21.7928C104.298 21.6512 102.238 22.4748 101.858 23.9418C101.858 23.9418 102.27 22.0952 102.115 22.063C101.961 22.0308 100.358 23.6072 100.718 24.804C100.718 24.804 98.8639 26.4061 98.6965 28.1627C98.5291 29.9192 99.0957 35.9931 100.48 36.4178Z" fill="#263238"/>
<path d="M114.387 28.4844C113.51 28.9596 112.566 29.298 111.587 29.4881C110.487 29.5861 109.381 29.4092 108.367 28.9734C107.346 28.5791 106.398 28.0181 105.56 27.3133C104.82 26.7085 104.157 25.9686 103.365 25.4281C103.165 25.2865 102.94 25.5761 103.062 25.7563C104.383 27.6213 106.271 29.0111 108.445 29.7197C109.454 30.0487 110.532 30.1102 111.573 29.8982C112.613 29.6861 113.581 29.2079 114.381 28.5101C114.381 28.5101 114.4 28.4844 114.387 28.4844Z" fill="#263238"/>
<path d="M101.71 36.1025C101.71 36.1025 99.8813 32.3964 98.233 32.9948C96.5847 33.5931 97.5891 38.7212 99.2825 39.6606C99.4899 39.7947 99.7223 39.8856 99.9657 39.9278C100.209 39.97 100.459 39.9626 100.699 39.9061C100.94 39.8497 101.166 39.7452 101.365 39.5991C101.564 39.453 101.732 39.2682 101.858 39.0558L101.71 36.1025Z" fill="#EB9481"/>
<path d="M98.5611 34.4553C98.5611 34.4553 98.5225 34.4553 98.5611 34.5068C99.7329 35.2017 100.209 36.4371 100.493 37.7239C100.439 37.5877 100.357 37.4647 100.251 37.3634C100.146 37.262 100.019 37.1849 99.8811 37.1371C99.7427 37.0894 99.5956 37.0723 99.45 37.0869C99.3044 37.1016 99.1636 37.1477 99.0376 37.2221C98.9989 37.2221 99.0376 37.2928 99.0376 37.2928C99.2679 37.257 99.5037 37.2935 99.7124 37.3972C99.9211 37.5009 100.092 37.6668 100.203 37.8719C100.387 38.2155 100.534 38.5779 100.641 38.9529C100.679 39.0751 100.892 39.0429 100.873 38.9078C101.149 37.3057 100.248 34.88 98.5611 34.4553Z" fill="#263238"/>
<path d="M89.6378 52.6514C88.35 59.9413 96.2566 84.5008 101.324 89.0884C108.863 95.9087 122.803 100.393 127.857 101.854C130.059 102.497 136.15 87.0102 133.922 85.9871C129.151 83.8188 114.33 79.1861 112.92 78.028C111.509 76.8698 103.011 64.5997 99.2247 57.5349C94.1576 48.0251 90.2752 48.9645 89.6378 52.6514Z" fill="#EB9481"/>
<path d="M130.168 84.6231C130.168 84.6231 136.748 86.3024 140.991 87.5957C143.361 88.3228 147.314 89.9249 148.814 91.2503C151.055 93.2385 159.154 102.967 156.837 104.981C154.738 106.808 148.84 97.5623 148.84 97.5623C148.84 97.5623 155.613 106.364 152.703 108.095C149.793 109.826 144.468 98.4953 144.468 98.4953C144.468 98.4953 151.222 107.696 147.919 109.002C145.421 109.987 140.064 99.9945 140.064 99.9945C140.064 99.9945 145.82 107.941 143.283 109.067C140.489 110.315 134.971 101.397 134.971 101.397C128.069 103.179 124.026 101.204 121.367 99.4669C120.742 99.0422 130.168 84.6231 130.168 84.6231Z" fill="#EB9481"/>
<path d="M146.689 94.3645C147.526 95.3683 148.376 96.3849 149.117 97.4594C149.857 98.5339 150.559 99.6406 151.196 100.779C152.06 102.252 152.751 103.82 153.257 105.451C152.149 102.62 149.555 98.7269 148.814 97.6524C148.074 96.5779 147.385 95.4648 146.651 94.3902C146.631 94.3645 146.67 94.3388 146.689 94.3645Z" fill="#263238"/>
<path d="M142.755 96.9704C144.184 98.1028 147.178 102.311 148.331 105.135C148.382 105.251 148.331 105.245 148.247 105.135C147.346 103.739 143.689 98.3344 142.723 96.9897C142.703 96.9704 142.736 96.9511 142.755 96.9704Z" fill="#263238"/>
<path d="M138.976 98.6176C140.752 100.479 142.155 102.663 143.109 105.052C143.154 105.168 143.064 105.148 142.993 105.052C141.661 102.883 140.63 101.191 138.905 98.6755C138.879 98.6176 138.937 98.5596 138.976 98.6176Z" fill="#263238"/>
<path d="M96.8231 53.1854C90.9447 44.8788 87.4293 47.9544 88.6075 56.9752C89.715 65.4104 92.6702 75.4607 92.6702 75.4607L107.479 68.2801C107.479 68.2801 100.564 58.5065 96.8231 53.1854Z" fill="#FFC727"/>
<path d="M100.396 56.454C100.591 56.9232 100.731 57.4132 100.814 57.9146C100.905 58.4175 100.937 58.9291 100.911 59.4395C100.718 58.9678 100.579 58.4756 100.499 57.9725C100.403 57.4723 100.368 56.9624 100.396 56.454V56.454Z" fill="white"/>
<path d="M91.6201 61.5049C92.5651 61.1207 93.582 60.9451 94.6012 60.9901C94.1314 61.1831 93.641 61.3212 93.1396 61.4019C92.6391 61.4974 92.1289 61.532 91.6201 61.5049V61.5049Z" fill="white"/>
<path d="M92.0007 48.5849C91.602 49.5252 91.0071 50.3698 90.2559 51.0621C90.6546 50.1218 91.2494 49.2772 92.0007 48.5849V48.5849Z" fill="white"/>
<path d="M104.549 65.3847C104.353 65.8553 104.105 66.3021 103.808 66.7166C103.519 67.1363 103.182 67.5207 102.804 67.8619C103.202 66.9216 103.797 66.077 104.549 65.3847V65.3847Z" fill="white"/>
<path d="M94.2474 70.4227C93.7754 70.2297 93.328 69.9813 92.9146 69.6828C92.4944 69.3944 92.1097 69.0575 91.7686 68.679C92.2389 68.8754 92.686 69.1236 93.1013 69.419C93.5214 69.7075 93.906 70.0444 94.2474 70.4227V70.4227Z" fill="white"/>
<path d="M98.7541 55.6883C99.546 56.7757 100.364 57.8373 101.175 58.9054C100.969 58.365 100.789 57.818 100.634 57.2647H100.673C100.834 57.6894 101.02 58.1076 101.175 58.5515L101.407 59.195C101.427 59.2389 101.444 59.284 101.458 59.3301C102.102 60.1601 102.746 60.9901 103.338 61.8394C104.066 62.856 104.768 63.8855 105.476 64.915C106.184 65.9445 106.899 67.2249 107.665 68.2608C107.736 68.3509 106.377 68.9042 106.229 68.975C106.081 69.0458 106.004 68.9235 106.146 68.8785C106.287 68.8335 107.369 68.1707 107.382 68.1579C106.673 67.1155 105.856 66.1568 105.115 65.1466C104.375 64.1365 103.641 63.1263 102.926 62.1032C101.478 60.0186 100.151 57.8566 98.709 55.7655L98.7541 55.6883Z" fill="#263238"/>
<path d="M88.9552 62.9461C89.1805 63.3836 89.4252 63.8147 89.599 64.2651L89.8437 64.8249C89.5024 63.2228 89.1998 61.6078 88.8457 60.0057C89.5282 62.5794 90.2171 65.211 90.8481 67.8233C91.4469 70.3198 92.1744 72.842 92.5221 75.3899C92.9711 75.1931 93.4364 75.036 93.9128 74.9202C93.4347 75.2295 92.92 75.478 92.3805 75.6602C91.6043 73.0692 90.9596 70.4407 90.4489 67.7847C90.2879 67.064 90.1399 66.3434 89.9853 65.6228C89.8179 65.1852 89.6183 64.767 89.4187 64.3359C89.2191 63.9048 89.0389 63.4222 88.8586 62.9654C88.8972 62.9397 88.9423 62.9139 88.9552 62.9461Z" fill="#263238"/>
<path d="M92.8889 72.9771C94.9492 71.8189 103.558 67.3664 105.483 66.5429C105.618 66.485 105.689 66.5429 105.553 66.6329C101.467 69.0057 97.2546 71.1536 92.934 73.0672C92.8824 73.08 92.8309 73.0093 92.8889 72.9771Z" fill="#263238"/>
<path d="M328.816 242.133H132.646L161.008 81.3738H357.178L328.816 242.133Z" fill="#FFC727"/>
<path d="M228.15 64.722H163.951L161.009 81.3738H229.721L228.15 64.722Z" fill="#FFC727"/>
<g opacity="0.1">
<path d="M328.816 242.133H132.646L161.008 81.3738H357.178L328.816 242.133Z" fill="black"/>
<path d="M228.149 64.722H163.95L161.008 81.3738H229.72L228.149 64.722Z" fill="black"/>
</g>
<path d="M157.023 71.5165C156.594 69.6753 156.594 67.76 157.023 65.9187C157.452 67.76 157.452 69.6753 157.023 71.5165V71.5165Z" fill="#263238"/>
<path d="M151.319 73.1637C150.663 72.4844 150.098 71.7231 149.638 70.8988C149.156 70.0918 148.777 69.227 148.512 68.3251C149.169 69.0005 149.734 69.7599 150.192 70.5836C150.674 71.3935 151.052 72.2602 151.319 73.1637V73.1637Z" fill="#263238"/>
<path d="M147.198 77.4425C145.389 76.8927 143.73 75.9352 142.35 74.6436C143.252 74.9058 144.118 75.282 144.925 75.7631C145.75 76.2258 146.513 76.79 147.198 77.4425V77.4425Z" fill="#263238"/>
<path d="M145.756 83.2076C143.913 83.6366 141.997 83.6366 140.154 83.2076C141.997 82.7786 143.913 82.7786 145.756 83.2076V83.2076Z" fill="#263238"/>
<path d="M147.43 88.9083C146.747 89.56 145.986 90.1241 145.163 90.5876C144.356 91.0688 143.491 91.445 142.588 91.7072C143.268 91.052 144.029 90.4876 144.854 90.0278C145.66 89.5444 146.526 89.168 147.43 88.9083V88.9083Z" fill="#263238"/>
<path d="M151.705 93.0197C151.157 94.8305 150.199 96.4906 148.904 97.8712C149.166 96.968 149.545 96.1028 150.031 95.2975C150.49 94.4703 151.053 93.7049 151.705 93.0197V93.0197Z" fill="#263238"/>
<path d="M157.474 94.4417C157.699 95.3575 157.807 96.2978 157.796 97.2406C157.81 98.1835 157.702 99.1243 157.474 100.04C157.243 99.1249 157.135 98.1837 157.152 97.2406C157.141 96.2978 157.25 95.3575 157.474 94.4417V94.4417Z" fill="#263238"/>
<path d="M163.179 92.8267C163.834 93.5061 164.399 94.2673 164.859 95.0916C165.343 95.8972 165.72 96.7624 165.979 97.6653C164.685 96.2847 163.727 94.6246 163.179 92.8138V92.8267Z" fill="#263238"/>
<path d="M167.293 88.5158C168.196 88.7755 169.062 89.1519 169.868 89.6353C170.693 90.0951 171.455 90.6595 172.135 91.3147C171.231 91.0549 170.365 90.6786 169.559 90.1951C168.735 89.7354 167.973 89.1709 167.293 88.5158V88.5158Z" fill="#263238"/>
<path d="M168.716 82.7507C170.561 82.3219 172.479 82.3219 174.324 82.7507C172.479 83.1796 170.561 83.1796 168.716 82.7507V82.7507Z" fill="#263238"/>
<path d="M167.068 77.05C167.749 76.3988 168.511 75.8366 169.334 75.3771C170.138 74.889 171.005 74.5103 171.909 74.2511C170.528 75.5445 168.867 76.5022 167.055 77.05H167.068Z" fill="#263238"/>
<path d="M162.785 72.9385C163.05 72.0374 163.427 71.1729 163.905 70.3648C164.365 69.5406 164.93 68.7793 165.586 68.0999C165.326 69.0029 164.949 69.868 164.466 70.6736C164.006 71.4979 163.441 72.2591 162.785 72.9385V72.9385Z" fill="#263238"/>
<path d="M328.527 242.133H131.933L104.021 87.2096H300.616L328.527 242.133Z" fill="#FFCC2F"/>
<path d="M172.147 181.915C176.66 181.915 180.318 178.26 180.318 173.75C180.318 169.241 176.66 165.585 172.147 165.585C167.635 165.585 163.977 169.241 163.977 173.75C163.977 178.26 167.635 181.915 172.147 181.915Z" fill="#263238"/>
<path d="M236.739 181.915C241.251 181.915 244.909 178.26 244.909 173.75C244.909 169.241 241.251 165.585 236.739 165.585C232.226 165.585 228.568 169.241 228.568 173.75C228.568 178.26 232.226 181.915 236.739 181.915Z" fill="#263238"/>
<path d="M216.18 183.221L215.73 182.366C215.691 182.288 211.467 174.49 202.975 174.49C195.249 174.49 193.317 181.831 193.266 182.147L193.034 183.08L191.16 182.629L191.386 181.69C191.386 181.6 193.691 172.56 202.975 172.56C212.633 172.56 217.249 181.104 217.442 181.471L217.893 182.32L216.18 183.221Z" fill="#263238"/>
<path d="M315.482 172.811C315.901 172.721 316.319 172.624 316.732 172.521" stroke="#263238" stroke-miterlimit="10"/>
<path d="M319.203 171.788C329.054 168.461 337.302 160.721 338.075 151.674C339.787 131.728 315.482 120.713 317.993 97.6653C320.388 75.6795 343.464 74.1095 352.716 77.1465C362.934 80.5052 359.431 90.3174 350.179 89.0498C334.141 86.8557 324.058 69.4318 331.675 49.6659C337.366 34.8993 351.557 29.3272 357.319 27.6286" stroke="#263238" stroke-miterlimit="10" stroke-dasharray="4 4"/>
<path d="M358.562 27.2876C359.354 27.0817 359.812 26.9981 359.812 26.9981" stroke="#263238" stroke-miterlimit="10"/>
<path d="M370.023 23.4399C368.381 18.3569 357.384 20.1842 359.528 26.8308C361.672 33.4773 371.665 28.5294 370.023 23.4399Z" fill="#263238"/>
<path d="M353.547 21.4067C353.63 19.174 356.734 17.4561 361.125 18.2475C365.516 19.0389 369.643 21.9986 369.643 21.9986C369.643 21.9986 365.31 24.6238 360.874 25.1064C356.438 25.589 353.463 23.6329 353.547 21.4067Z" fill="#EBEBEB"/>
<path d="M369.643 21.9858C367.364 21.9858 365.091 21.9214 362.818 21.8507C360.545 21.7799 358.266 21.6641 355.993 21.4839C358.272 21.4839 360.552 21.5418 362.824 21.6126C365.097 21.6834 367.376 21.7992 369.643 21.9858Z" fill="#263238"/>
<path d="M357.957 19.4185C359.251 20.0371 360.471 20.799 361.595 21.6898C360.947 21.3862 360.319 21.0423 359.715 20.6603C359.105 20.281 358.518 19.8663 357.957 19.4185V19.4185Z" fill="#263238"/>
<path d="M363.926 21.7735C362.761 22.7168 361.498 23.5322 360.159 24.2056C361.33 23.2611 362.599 22.4457 363.945 21.7735H363.926Z" fill="#263238"/>
<path d="M364.589 20.5188C365.239 20.8305 365.807 21.2886 366.25 21.8571C365.925 21.7039 365.62 21.5116 365.342 21.2845C365.063 21.0588 364.81 20.8019 364.589 20.5188V20.5188Z" fill="#263238"/>
<path d="M357.732 34.6291C359.103 36.392 362.625 35.9674 365.722 32.7631C368.819 29.5589 370.461 24.7396 370.461 24.7396C370.461 24.7396 365.387 25.1257 361.518 27.3133C357.648 29.501 356.354 32.8596 357.732 34.6291Z" fill="#EBEBEB"/>
<path d="M370.461 24.7396C368.606 26.0265 366.804 27.4549 364.994 28.8382C363.185 30.2216 361.415 31.65 359.683 33.1234C361.537 31.8366 363.34 30.4146 365.142 29.0313C366.945 27.6479 368.703 26.2195 370.461 24.7396Z" fill="#263238"/>
<path d="M362.464 33.6318C362.808 33.0068 363.115 32.3622 363.385 31.7015C363.659 31.0389 363.891 30.3598 364.08 29.6683C363.735 30.2927 363.427 30.9373 363.159 31.5985C362.888 32.2621 362.656 32.941 362.464 33.6318Z" fill="#263238"/>
<path d="M365.953 28.2527C364.447 28.1722 362.936 28.252 361.446 28.4908C362.197 28.5358 362.949 28.5358 363.7 28.4908C364.455 28.454 365.207 28.3745 365.953 28.2527V28.2527Z" fill="#263238"/>
<path d="M367.196 28.8897C367.368 28.572 367.502 28.2351 367.595 27.886C367.691 27.5394 367.747 27.1833 367.763 26.8243C367.421 27.4613 367.227 28.1674 367.196 28.8897V28.8897Z" fill="#263238"/>
<path d="M370.023 23.4399C369.66 23.5579 369.269 23.5654 368.901 23.4615C368.533 23.3575 368.205 23.1469 367.957 22.8561C367.709 22.5653 367.553 22.2075 367.508 21.828C367.464 21.4486 367.533 21.0645 367.707 20.7244C367.882 20.3843 368.153 20.1035 368.487 19.9176C368.821 19.7318 369.203 19.6491 369.584 19.6801C369.965 19.7111 370.328 19.8545 370.627 20.092C370.927 20.3295 371.149 20.6504 371.266 21.0142C371.422 21.5006 371.379 22.0289 371.146 22.4836C370.913 22.9383 370.509 23.2822 370.023 23.4399Z" fill="#455A64"/>
<path d="M371.208 27.1139C370.844 27.2314 370.454 27.2386 370.087 27.1346C369.719 27.0305 369.391 26.82 369.143 26.5295C368.895 26.2389 368.739 25.8816 368.695 25.5024C368.65 25.1233 368.719 24.7395 368.893 24.3996C369.067 24.0596 369.337 23.7788 369.671 23.5925C370.004 23.4062 370.385 23.3229 370.766 23.3531C371.147 23.3833 371.51 23.5257 371.81 23.7621C372.11 23.9986 372.333 24.3186 372.451 24.6817C372.529 24.923 372.559 25.1772 372.539 25.4301C372.519 25.6829 372.449 25.9292 372.334 26.1551C372.218 26.381 372.059 26.5819 371.866 26.7464C371.673 26.9109 371.449 27.0358 371.208 27.1139V27.1139Z" fill="#455A64"/>
<path d="M160.12 25.4731C159.812 28.4285 158.687 31.24 156.873 33.594C155.059 35.948 152.625 37.7518 149.845 38.8042C147.064 39.8566 144.045 40.1161 141.126 39.5539C138.206 38.9916 135.5 37.6296 133.31 35.6199L125.281 36.7974L129.299 29.8613C128.38 27.6044 127.988 25.1679 128.153 22.737C128.317 20.3061 129.034 17.9446 130.249 15.8319C131.463 13.7192 133.143 11.9109 135.162 10.5444C137.181 9.17781 139.484 8.28895 141.898 7.94529C144.312 7.60164 146.772 7.81223 149.092 8.56106C151.412 9.3099 153.531 10.5773 155.288 12.2669C157.044 13.9566 158.393 16.0241 159.23 18.3124C160.067 20.6007 160.372 23.0496 160.12 25.4731V25.4731Z" fill="white"/>
<path d="M160.12 25.4731C159.818 28.427 158.703 31.2396 156.9 33.5996C156.019 34.7932 154.957 35.8417 153.752 36.7073C152.573 37.6053 151.272 38.3311 149.889 38.8628C148.504 39.4076 147.05 39.7542 145.569 39.8923C144.828 39.9587 144.084 39.9737 143.341 39.9373C142.595 39.9182 141.853 39.8407 141.12 39.7057C138.16 39.1616 135.412 37.8048 133.181 35.7872L133.368 35.8451L125.352 37.0741L124.766 37.1641L125.062 36.6494L129.054 29.7004V29.9771C128.112 27.6785 127.711 25.1943 127.883 22.7164C128.055 20.2385 128.795 17.8333 130.045 15.6867C131.294 13.5468 133.011 11.7167 135.067 10.3334C137.12 8.96841 139.456 8.08568 141.899 7.75138C144.342 7.41708 146.829 7.6399 149.174 8.40312C151.494 9.19181 153.608 10.4888 155.362 12.1993C157.111 13.9055 158.449 15.9876 159.274 18.2875C160.098 20.5874 160.387 23.0448 160.12 25.4731ZM160.12 25.4731C160.38 23.0568 160.081 20.6129 159.246 18.3304C158.411 16.0478 157.062 13.9875 155.303 12.3086C153.545 10.6297 151.424 9.37713 149.104 8.64753C146.785 7.91792 144.328 7.73083 141.924 8.10071C139.545 8.45268 137.278 9.34645 135.299 10.713C133.337 12.0903 131.698 13.8774 130.496 15.9505C129.312 18.0281 128.614 20.3466 128.455 22.7322C128.298 25.1338 128.685 27.5399 129.588 29.7712L129.646 29.9128L129.569 30.0479L125.525 36.9711L125.242 36.5465L133.277 35.4205H133.387L133.464 35.4912C135.612 37.4891 138.274 38.8503 141.152 39.4226C141.869 39.5686 142.597 39.6568 143.328 39.6864C144.059 39.7378 144.793 39.7378 145.523 39.6864C146.989 39.5683 148.432 39.2501 149.812 38.7405C151.194 38.2375 152.496 37.5352 153.675 36.6558C154.875 35.7973 155.938 34.7626 156.83 33.5867C158.656 31.2382 159.795 28.4296 160.12 25.4731Z" fill="#263238"/>
<path d="M136.317 31.2833C136.305 31.0702 136.336 30.857 136.41 30.6566C136.483 30.4563 136.597 30.2733 136.745 30.1188C136.892 29.9644 137.07 29.8418 137.266 29.7588C137.463 29.6757 137.675 29.634 137.888 29.6361C138.325 29.6361 138.744 29.8096 139.054 30.1185C139.363 30.4274 139.536 30.8464 139.536 31.2833C139.536 31.7201 139.363 32.1391 139.054 32.448C138.744 32.7569 138.325 32.9304 137.888 32.9304C137.675 32.9326 137.463 32.8908 137.266 32.8078C137.07 32.7247 136.892 32.6022 136.745 32.4477C136.597 32.2933 136.483 32.1102 136.41 31.9099C136.336 31.7096 136.305 31.4963 136.317 31.2833V31.2833ZM136.961 27.4806L136.587 14.7151H139.163L138.789 27.4806H136.961Z" fill="#FFCC2F"/>
<path d="M142.44 31.2833C142.428 31.0708 142.459 30.858 142.532 30.6582C142.606 30.4583 142.719 30.2755 142.866 30.1212C143.012 29.9668 143.189 29.8441 143.385 29.7607C143.581 29.6773 143.792 29.6349 144.005 29.6361C144.442 29.6361 144.861 29.8096 145.17 30.1185C145.479 30.4274 145.653 30.8464 145.653 31.2833C145.653 31.7201 145.479 32.1391 145.17 32.448C144.861 32.7569 144.442 32.9304 144.005 32.9304C143.792 32.9317 143.581 32.8893 143.385 32.8058C143.189 32.7224 143.012 32.5997 142.866 32.4453C142.719 32.291 142.606 32.1082 142.532 31.9084C142.459 31.7085 142.428 31.4957 142.44 31.2833V31.2833ZM143.084 27.4806L142.73 14.7151H145.305L144.932 27.4806H143.084Z" fill="#FFCC2F"/>
<path d="M148.556 31.2833C148.544 31.0702 148.576 30.857 148.649 30.6566C148.723 30.4563 148.837 30.2733 148.984 30.1188C149.131 29.9644 149.309 29.8418 149.505 29.7588C149.702 29.6757 149.914 29.634 150.127 29.6361C150.564 29.6361 150.984 29.8096 151.293 30.1185C151.602 30.4274 151.776 30.8464 151.776 31.2833C151.776 31.7201 151.602 32.1391 151.293 32.448C150.984 32.7569 150.564 32.9304 150.127 32.9304C149.914 32.9326 149.702 32.8908 149.505 32.8078C149.309 32.7247 149.131 32.6022 148.984 32.4477C148.837 32.2933 148.723 32.1102 148.649 31.9099C148.576 31.7096 148.544 31.4963 148.556 31.2833ZM149.2 27.4806L148.827 14.7151H151.402L151.035 27.4806H149.2Z" fill="#FFCC2F"/>
</g>
<defs>
<clipPath id="clip0_1371_1376">
<rect width="394" height="258" fill="white"/>
</clipPath>
</defs>
</svg>
