<svg width="465" height="465" viewBox="0 0 465 465" fill="none" xmlns="http://www.w3.org/2000/svg">
<mask id="mask0_934_812" style="mask-type:alpha" maskUnits="userSpaceOnUse" x="0" y="0" width="465" height="465">
<rect width="465" height="465" fill="#D9D9D9"/>
</mask>
<g mask="url(#mask0_934_812)">
<path opacity="0.1" d="M512.23 351.804C509.754 357.919 506.706 363.786 503.126 369.327C501.447 371.969 499.606 374.504 497.612 376.917C497.594 376.941 471.195 434.16 347.545 406.6C223.895 379.04 172.461 400.065 127.781 427.92C83.1003 455.775 74.7877 460.68 29.5879 456.52C-15.6119 452.36 -77.9569 413.36 -77.9569 413.36C-103.414 397.24 -115.106 373.846 -110.041 369.327C-106.407 366.09 -101.846 361.881 -96.7259 356.817C-54.8458 315.592 25.6024 218.01 -41.398 128.619C-103.683 45.5178 -36.6213 30.4378 7.61652 28.6778C24.613 28.0114 41.569 30.7855 57.4687 36.8341C77.9067 44.6073 115.26 56.5224 163.925 61.9859C165.523 62.1636 167.131 62.3412 168.762 62.5022C194.527 65.1278 220.466 65.5995 246.309 63.9125C247.069 63.8681 247.835 63.8126 248.606 63.7571C274.171 61.9604 299.542 58.0325 324.455 52.014C326.069 51.6198 327.661 51.2478 329.248 50.8758C412.259 31.6538 488.785 97.1651 469.651 171.199C462.578 198.583 464.375 227.771 487.959 251.385C526.571 289.929 521.894 327.89 512.23 351.804Z" fill="#FFCD05"/>
<path d="M512.23 351.803C509.754 357.918 506.706 363.785 503.126 369.326C501.447 371.968 499.606 374.503 497.612 376.916H-118.917C-118.362 376.483 -115.105 373.845 -110.04 369.326C-106.407 366.089 -101.846 361.88 -96.7257 356.816L-31.7447 343.38C-30.9051 343.206 -30.0501 343.119 -29.1928 343.119L40.0822 343.019H40.1543L74.4672 342.974H74.5449L103.504 342.941H122.461H141.878L221.444 342.83H221.572H227.735H238.565H252.084H255.679L269.343 342.675H273.859L313.604 342.619H326.297H332.399L378.307 342.558H391.977L435.46 342.497L472.164 342.453C473.186 342.453 474.205 342.574 475.199 342.813L512.23 351.803Z" fill="#EFC6CD"/>
<path opacity="0.4" d="M-110.04 369.326H503.126C501.447 371.968 499.606 374.503 497.612 376.915H-118.917C-118.373 376.455 -115.117 373.817 -110.04 369.326Z" fill="#D48A9B"/>
<path d="M287.773 196.65L286.542 196.888L230.864 207.593C214.693 210.703 198.288 213.829 181.861 212.635C169.961 211.769 158.843 208.237 147.409 205.139C140.946 203.385 134.095 202.685 131.903 195.445C128.88 185.451 133.801 170.654 134.96 160.527C136.07 150.588 136.724 140.4 134.749 130.578C134.311 128.37 133.732 126.193 133.018 124.059C131.038 118.179 127.926 112.066 129.607 106.098C130.932 101.362 134.977 97.9802 138.76 94.8487C146.172 88.7412 153.739 81.8952 156.68 72.7395C158.122 68.2977 158.394 63.5172 159.947 59.1087C162.893 50.7247 170.294 44.4562 178.527 41.1359C186.76 37.8157 195.814 37.1105 204.696 37.1105C212.538 37.111 220.372 37.6322 228.146 38.6707C236.623 39.7812 245.178 41.6079 252.628 45.8165C260.079 50.0251 266.359 56.9211 268.095 65.3272C270.553 77.2146 263.729 89.8739 267.391 101.417C269.233 107.252 273.493 111.966 276.45 117.308C278.861 121.776 280.35 126.684 280.826 131.739C281.303 136.795 280.758 141.894 279.224 146.735C275.685 157.712 267.019 168.816 271.457 179.46C274.281 186.228 281.493 189.843 286.52 195.206C286.967 195.687 287.385 196.169 287.773 196.65Z" fill="#454B69"/>
<path opacity="0.1" d="M286.542 195.251V196.889L230.864 207.593C214.693 210.703 198.288 213.829 181.861 212.635C169.961 211.769 158.843 208.238 147.409 205.139C140.946 203.385 134.095 202.685 131.903 195.445C128.88 185.451 133.801 170.654 134.96 160.527C136.07 150.588 153.151 114.304 151.176 104.482L253.255 108.924C253.943 114.348 280.922 141.577 279.241 146.779C275.702 157.756 267.036 168.861 271.474 179.504C274.303 186.273 281.516 189.887 286.542 195.251Z" fill="black"/>
<path d="M182.244 167.778C182.848 171.215 183.17 174.996 181.417 177.994C179.081 182.014 173.989 183.297 169.434 184.207L153.623 187.372C152.547 187.588 151.404 187.833 150.599 188.571C149.651 189.421 149.329 190.764 149.19 192.03C148.552 197.76 150.577 203.407 152.424 208.865C156.158 219.919 159.293 231.207 164.014 241.873C168.735 252.539 175.215 262.722 184.463 269.851C193.711 276.98 205.949 280.778 217.272 277.991C227.136 275.564 235.225 268.596 242.198 261.206C247.951 255.099 253.333 248.436 256.123 240.513C258.048 235.072 258.675 229.275 259.28 223.534C260.216 214.732 261.151 205.929 262.087 197.127C262.525 192.996 262.814 188.349 260.134 185.179C258.958 183.785 257.36 182.858 255.729 181.997C249.66 178.771 243.269 176.106 237.622 172.22C231.974 168.333 226.964 162.981 225.25 156.34C224.224 152.354 224.407 148.012 222.659 144.297C220.706 140.133 216.557 137.313 212.118 136.074C207.68 134.836 202.998 135.003 198.427 135.519C193.855 136.036 176.235 137.357 174.344 142.515C173.328 145.291 177.539 151.249 178.538 153.98C180.182 158.46 181.422 163.077 182.244 167.778Z" fill="#EFB7B9"/>
<path opacity="0.1" d="M182.244 167.778C182.848 171.215 183.17 174.996 181.417 177.994C179.081 182.014 173.989 183.297 169.434 184.207L153.623 187.372C152.547 187.588 151.404 187.833 150.599 188.571C149.651 189.421 149.329 190.764 149.19 192.03C148.552 197.76 150.577 203.407 152.424 208.865C156.158 219.919 159.293 231.207 164.014 241.873C168.735 252.539 175.215 262.722 184.463 269.851C193.711 276.98 205.949 280.778 217.272 277.991C227.136 275.564 235.225 268.596 242.198 261.206C247.951 255.099 253.333 248.436 256.123 240.513C258.048 235.072 258.675 229.275 259.28 223.534C260.216 214.732 261.151 205.929 262.087 197.127C262.525 192.996 262.814 188.349 260.134 185.179C258.958 183.785 257.36 182.858 255.729 181.997C249.66 178.771 243.269 176.106 237.622 172.22C231.974 168.333 226.964 162.981 225.25 156.34C224.224 152.354 224.407 148.012 222.659 144.297C220.706 140.133 216.557 137.313 212.118 136.074C207.68 134.836 202.998 135.003 198.427 135.519C193.855 136.036 176.235 137.357 174.344 142.515C173.328 145.291 177.539 151.249 178.538 153.98C180.182 158.46 181.422 163.077 182.244 167.778Z" fill="black"/>
<path d="M220.296 228.153L229.566 208.509C233.91 199.303 238.348 189.631 237.888 179.465C237.799 177.444 237.777 174.918 239.552 174.002C240.323 173.687 241.162 173.58 241.987 173.691C251.747 174.19 261.378 176.14 270.564 179.476C272.345 180.12 274.17 180.864 275.418 182.286C276.667 183.707 277.171 185.617 277.599 187.449C279.054 193.644 280.115 199.926 280.777 206.255C282.442 221.923 281.615 237.731 280.777 253.449L278.314 301.438C278.328 302.118 278.189 302.794 277.909 303.414C277.299 304.525 275.923 304.897 274.686 305.108C269.92 305.924 265.05 305.757 260.223 305.574C226.271 304.286 192.141 302.309 158.41 306.429C158.562 301.436 158.483 296.439 158.172 291.438C156.835 269.845 151.243 248.78 145.75 227.859C142.549 215.644 139.448 202.318 144.602 190.808C145.36 188.991 146.449 187.33 147.814 185.911C150.006 183.763 152.996 182.63 155.958 181.819C161.068 180.428 166.361 179.829 171.653 180.043L206.632 256.259C208.229 259.746 209.544 263.416 211.136 266.858C212.568 260.912 210.848 253.943 212.568 247.497C214.421 240.807 217.339 234.405 220.296 228.153Z" fill="white"/>
<path d="M216.64 280.595C222.898 280.989 228.978 277.78 233.283 273.243C237.588 268.707 240.428 262.955 242.831 257.142C246.284 248.855 249.029 240.291 251.036 231.54C252.7 224.1 253.882 216.399 252.733 208.859C251.147 198.449 245.261 188.988 244.256 178.505C244.084 176.673 244.195 174.529 245.666 173.425C246.575 172.742 247.774 172.647 248.905 172.581C259.368 171.959 270.863 172.075 278.969 178.721C281.438 180.742 283.44 183.269 285.854 185.351C291.601 190.348 299.723 192.891 303.412 199.526C304.699 201.836 305.315 204.451 306.214 206.938C308.333 212.824 312 217.998 315.645 223.09C312.111 238.014 308.05 252.95 304.516 267.874C302.447 276.63 300.361 285.42 297.11 293.804C294.98 299.3 292.3 304.908 292.955 310.794C293.215 313.109 293.987 315.324 294.658 317.556C297.011 325.39 298.114 333.547 297.925 341.725L139.626 342.114C147.209 331.231 149.434 317.884 148.663 304.642C148.291 298.295 146.86 291.91 143.67 286.419C138.644 277.813 129.801 272.205 121.085 267.402C114.982 264.071 108.431 282.816 101.834 280.667C102.899 273.127 103.388 244.022 102.944 236.432C102.8 233.944 102.578 231.39 103.343 229.014C103.865 227.387 104.824 225.932 105.474 224.35C108.075 218.015 105.596 209.914 109.801 204.523C112.708 200.775 117.806 199.709 121.95 197.399C126.206 195.023 129.495 191.292 133.201 188.105C140.473 181.925 149.358 177.955 158.81 176.662C161.567 181.014 163.243 185.964 163.697 191.097C163.98 194.323 163.775 197.594 164.224 200.803C164.84 205.15 166.638 209.231 168.418 213.251C175.836 230.013 183.281 246.826 192.679 262.566C195.336 267.008 198.227 271.45 202.077 274.909C205.927 278.368 211.469 280.839 216.64 280.595Z" fill="#FFCD05"/>
<path opacity="0.1" d="M216.64 280.595C222.898 280.989 228.978 277.78 233.283 273.243C237.588 268.707 240.428 262.955 242.831 257.142C246.284 248.855 249.029 240.291 251.036 231.54C252.7 224.1 253.882 216.399 252.733 208.859C251.147 198.449 245.261 188.988 244.256 178.505C244.084 176.673 244.195 174.529 245.666 173.425C246.575 172.742 247.774 172.647 248.905 172.581C259.368 171.959 270.863 172.075 278.969 178.721C281.438 180.742 283.44 183.269 285.854 185.351C291.601 190.348 299.723 192.891 303.412 199.526C304.699 201.836 305.315 204.451 306.214 206.938C308.333 212.824 312 217.998 315.645 223.09C312.111 238.014 308.05 252.95 304.516 267.874C302.447 276.63 300.361 285.42 297.11 293.804C294.98 299.3 292.3 304.908 292.955 310.794C293.215 313.109 293.987 315.324 294.658 317.556C297.011 325.39 298.114 333.547 297.925 341.725L139.626 342.114C147.209 331.231 149.434 317.884 148.663 304.642C148.291 298.295 146.86 291.91 143.67 286.419C138.644 277.813 129.801 272.205 121.085 267.402C114.982 264.071 108.431 282.816 101.834 280.667C102.899 273.127 103.388 244.022 102.944 236.432C102.8 233.944 102.578 231.39 103.343 229.014C103.865 227.387 104.824 225.932 105.474 224.35C108.075 218.015 105.596 209.914 109.801 204.523C112.708 200.775 117.806 199.709 121.95 197.399C126.206 195.023 129.495 191.292 133.201 188.105C140.473 181.925 149.358 177.955 158.81 176.662C161.567 181.014 163.243 185.964 163.697 191.097C163.98 194.323 163.775 197.594 164.224 200.803C164.84 205.15 166.638 209.231 168.418 213.251C175.836 230.013 183.281 246.826 192.679 262.566C195.336 267.008 198.227 271.45 202.077 274.909C205.927 278.368 211.469 280.839 216.64 280.595Z" fill="#A28514"/>
<path d="M208.268 166.518C234.532 166.518 255.824 145.209 255.824 118.923C255.824 92.6378 234.532 71.3292 208.268 71.3292C182.004 71.3292 160.713 92.6378 160.713 118.923C160.713 145.209 182.004 166.518 208.268 166.518Z" fill="#EFB7B9"/>
<path d="M183.314 182.347C184.618 170.032 179.503 157.984 173.711 147.04C170.937 141.81 167.964 136.596 166.571 130.85C165.179 125.103 165.578 118.596 169.14 113.871C172.169 109.851 176.973 107.68 181.417 105.32C193.96 98.6576 205.428 88.8634 210.942 75.7655C207.824 77.4645 208.634 82.5338 211.386 84.7713C214.138 87.0089 217.888 87.442 221.272 88.508C233.61 92.3946 241.011 104.71 246.947 116.214C247.918 118.091 248.906 120.073 248.894 122.188C248.883 124.304 247.918 126.18 246.908 127.979C243.979 133.198 240.395 138.212 239.064 144.047C237.538 150.71 239.147 157.717 241.239 164.252C243.458 171.204 246.403 178.211 251.729 183.197C257.055 188.183 265.316 190.659 271.868 187.439C265.327 176.184 258.553 163.608 261.105 150.849C262.337 144.742 265.649 139.189 267.058 133.115C269.743 121.527 265.271 109.607 260.883 98.5465L247.768 65.5382C245.765 60.4912 243.485 55.1055 238.892 52.2461C235.785 50.3194 232.024 49.8197 228.384 49.4699C216.667 48.4261 204.529 48.7704 193.622 53.1345C173.75 61.0798 161.29 80.6682 151.404 99.6681C148.441 105.359 145.517 111.406 145.639 117.824C145.706 121.344 146.688 124.77 147.487 128.201C150.738 142.171 150.915 156.646 151.082 170.987C151.209 181.992 150.638 192.363 145.828 202.385C152.419 203.696 161.978 207.232 168.502 204.645C177.006 201.28 182.244 190.914 183.314 182.347Z" fill="#454B69"/>
<g opacity="0.1">
<path opacity="0.1" d="M151.054 170.754C151.076 169.188 151.076 167.608 151.054 166.012C150.888 151.671 150.71 137.196 147.459 123.226C146.733 120.508 146.166 117.749 145.762 114.965C145.647 115.921 145.597 116.883 145.612 117.846C145.678 121.366 146.66 124.792 147.459 128.223C150.694 142.11 150.893 156.496 151.054 170.754Z" fill="black"/>
<path opacity="0.1" d="M267.058 133.115C267.786 129.871 268.029 126.537 267.779 123.221C267.67 124.87 267.429 126.508 267.058 128.118C265.649 134.226 262.337 139.728 261.105 145.852C260.574 148.553 260.425 151.316 260.661 154.058C260.75 152.981 260.898 151.91 261.105 150.849C262.337 144.725 265.649 139.2 267.058 133.115Z" fill="black"/>
<path opacity="0.1" d="M248.462 119.64C248.733 118.851 248.879 118.025 248.894 117.191C248.894 115.076 247.918 113.093 246.947 111.217C241.011 99.7125 233.632 87.4086 221.272 83.5109C217.888 82.4449 214.143 82.0118 211.386 79.7743C210.676 79.1627 210.096 78.4155 209.679 77.5765C209.261 76.7375 209.016 75.8235 208.956 74.8882C202.942 85.9373 192.612 94.3879 181.417 100.323C176.979 102.683 172.169 104.854 169.14 108.874C166.294 112.649 165.467 117.563 165.961 122.316C166.241 119.266 167.339 116.348 169.14 113.871C172.169 109.851 176.973 107.68 181.417 105.32C192.612 99.3849 202.942 90.9343 208.956 79.8853C209.016 80.8206 209.261 81.7345 209.679 82.5735C210.096 83.4126 210.676 84.1597 211.386 84.7713C214.16 86.9922 217.888 87.4419 221.272 88.508C233.61 92.3946 241.011 104.71 246.947 116.214C247.549 117.31 248.056 118.456 248.462 119.64Z" fill="black"/>
<path opacity="0.1" d="M251.729 178.199C246.403 173.202 243.469 166.207 241.239 159.255C239.9 155.35 239.007 151.307 238.576 147.201C238.06 152.903 239.474 158.739 241.239 164.252C243.458 171.204 246.403 178.211 251.729 183.197C257.055 188.182 265.316 190.659 271.868 187.438C271.08 186.089 270.298 184.718 269.521 183.335C263.435 185.051 256.445 182.608 251.729 178.199Z" fill="black"/>
<path opacity="0.1" d="M183.314 177.35C182.244 185.917 177.006 196.283 168.48 199.67C162.56 202.019 154.133 199.32 147.703 197.827C147.15 199.385 146.517 200.914 145.806 202.407C152.397 203.718 161.955 207.255 168.48 204.667C177.006 201.28 182.244 190.914 183.314 182.347C183.535 180.204 183.576 178.046 183.436 175.895C183.403 176.378 183.353 176.867 183.314 177.35Z" fill="black"/>
</g>
<path d="M250.537 315.013C241.965 313.653 233.266 311.027 224.767 312.792C219.841 313.814 215.336 316.268 211.242 319.233C213.494 321.037 216.124 322.648 217.555 325.157C218.444 326.894 219.111 328.735 219.541 330.637C220.44 333.969 221.344 337.367 221.483 340.831C221.622 344.296 220.928 347.905 218.864 350.698C229.671 351.764 240.146 349.099 250.686 346.495C251.892 346.283 253.039 345.819 254.054 345.134C255.718 343.824 256.206 341.492 256.217 339.366C256.217 335.568 255.152 331.864 254.07 328.222C252.783 323.852 251.829 319.355 250.537 315.013Z" fill="white"/>
<path d="M308.411 221.363C312.666 221.918 315.967 225.355 318.397 228.886C325.215 238.714 328.155 250.629 331.429 262.139C335.497 276.452 340.281 290.54 345.781 304.403C346.965 307.604 348.404 310.705 350.086 313.675C351.456 315.968 353.12 318.172 353.725 320.776C355.19 327.073 350.003 332.991 344.593 336.5C341.71 338.445 338.562 339.964 335.245 341.009C332.017 341.975 328.649 342.341 325.304 342.708L294.508 346.039C280.334 347.583 266.032 349.126 251.851 347.638C250.958 344.529 252.711 342.33 252.584 339.093C252.495 336.778 251.474 334.624 250.564 332.492C248.887 328.694 247.778 324.67 247.275 320.549C247.114 319.033 247.058 317.478 246.481 316.068C245.904 314.658 244.667 313.392 243.153 313.292C251.474 312.465 257.793 310.893 266.115 310.06C269.205 309.749 272.417 309.4 275.052 307.756C278.32 305.718 280.151 302.043 281.604 298.478C285.205 289.65 287.524 279.923 285.632 270.573C284.078 262.905 279.746 255.765 279.768 247.941C279.768 243.283 281.355 238.769 283.23 234.505C285.216 229.996 287.807 225.388 292.167 223.101C296.528 220.813 303.49 220.696 308.411 221.363Z" fill="#FFCD05"/>
<path opacity="0.08" d="M308.411 221.363C312.666 221.918 315.967 225.355 318.397 228.886C325.215 238.714 328.155 250.629 331.429 262.139C335.497 276.452 340.281 290.54 345.781 304.403C346.965 307.604 348.404 310.705 350.086 313.675C351.456 315.968 353.12 318.172 353.725 320.776C355.19 327.073 350.003 332.991 344.593 336.5C341.71 338.445 338.562 339.964 335.245 341.009C332.017 341.975 328.649 342.341 325.304 342.708L294.508 346.039C280.334 347.583 266.032 349.126 251.851 347.638C250.958 344.529 252.711 342.33 252.584 339.093C252.495 336.778 251.474 334.624 250.564 332.492C248.887 328.694 247.778 324.67 247.275 320.549C247.114 319.033 247.058 317.478 246.481 316.068C245.904 314.658 244.667 313.392 243.153 313.292C251.474 312.465 257.793 310.893 266.115 310.06C269.205 309.749 272.417 309.4 275.052 307.756C278.32 305.718 280.151 302.043 281.604 298.478C285.205 289.65 287.524 279.923 285.632 270.573C284.078 262.905 279.746 255.765 279.768 247.941C279.768 243.283 281.355 238.769 283.23 234.505C285.216 229.996 287.807 225.388 292.167 223.101C296.528 220.813 303.49 220.696 308.411 221.363Z" fill="#FFCC2F"/>
<path d="M115.565 214.15C117.579 209.364 119.626 204.423 119.682 199.231C119.743 193.618 117.462 188.288 115.72 182.958C113.566 176.436 112.132 169.698 111.443 162.864C111.3 162.209 111.399 161.525 111.72 160.937C112.181 160.288 113.069 160.154 113.851 159.982C117.69 159.105 120.591 156.001 122.988 152.875C126.706 148.048 129.845 142.8 132.341 137.24C134.178 133.148 136.663 128.157 141.146 128.118C139.341 136.601 137.104 144.987 134.444 153.242C139.132 152.042 143.587 150.299 148.275 149.1C149.192 148.81 150.154 148.682 151.115 148.722C153.922 149.016 155.642 152.82 154.011 155.124C156.302 157.811 160.114 158.533 163.109 160.376C166.105 162.22 168.258 166.784 165.595 169.099C165.073 169.549 164.413 169.865 164.036 170.443C162.749 172.43 165.9 174.712 165.639 177.067C165.428 178.993 162.96 179.893 161.09 179.382C159.22 178.871 157.761 177.472 156.097 176.445C154.433 175.418 152.258 174.779 150.644 175.845C150.211 181.07 149.745 186.394 147.487 191.153C146.66 192.891 145.601 194.517 144.935 196.322C144.298 198.289 143.903 200.327 143.759 202.39L141.745 220.819C132.136 222.745 123.521 219.864 115.565 214.15Z" fill="#EFB7B9"/>
<path d="M113.218 230.669L111.448 218.681C111.279 217.705 111.185 216.718 111.166 215.728C111.166 212.951 112.386 210.303 113.568 207.777C123.36 212.352 133.945 213.979 144.746 213.984C146.172 213.984 147.797 213.851 148.685 212.735C150.521 214.85 150.577 218.254 149.795 220.941C149.012 223.628 147.509 226.049 146.51 228.67C146.005 229.997 145.595 231.446 144.63 232.468C143.132 234.083 140.702 234.361 138.494 234.35C136.171 234.335 133.854 234.114 131.57 233.689C125.656 232.59 119.132 229.608 113.218 230.669Z" fill="white"/>
<path d="M149.739 230.18C142.139 229.314 134.588 228.092 127.088 226.515C123.409 225.744 119.698 224.883 115.948 225.033C113.507 225.133 110.883 225.621 108.736 224.411C110.827 231.535 110.955 239.041 108.453 246.032C106.971 250.196 104.713 254.077 103.626 258.363C101.363 267.33 104.469 277.108 101.64 285.914C101.341 287.064 100.753 288.119 99.9313 288.979C99.0658 289.773 97.8842 290.183 97.0853 291.044C95.9091 292.31 95.837 294.214 95.8315 295.941L95.7815 311.238C95.7483 320.976 95.8759 331.304 101.013 339.554C106.872 348.993 119.204 353.885 129.939 351.014C132.793 350.284 135.467 348.974 137.795 347.166C141.523 344.202 143.897 339.915 146.222 335.74C148.996 330.743 151.77 325.635 152.663 320.01C153.295 316.029 152.94 311.965 152.485 307.962C149.978 285.753 144.535 263.732 145.706 241.44C145.881 237.365 147.287 233.438 149.739 230.18Z" fill="#FFCC2F"/>
<path d="M181.506 322.348C177.65 322.57 173.766 322.792 169.927 322.348C167.153 322.014 164.446 321.331 161.694 320.865C154.18 319.65 146.491 320.078 139.157 322.117C131.822 324.156 125.016 327.76 119.204 332.68C117.074 334.501 114.921 337.294 116.097 339.843C117.362 342.586 121.229 342.508 124.208 341.997C120.993 343.534 118.152 345.757 115.887 348.51C115.054 349.526 114.267 350.731 114.428 352.047C114.766 354.795 118.494 355.295 121.251 355.056C120.353 356.022 120.957 357.732 122.1 358.387C123.243 359.043 124.663 358.909 125.956 358.671C128.814 358.147 131.575 357.19 134.144 355.833C133.623 357.194 134.527 358.787 135.809 359.465C137.09 360.142 138.649 360.092 140.086 359.859C146.865 358.748 152.524 354.029 159.137 352.174C169.711 349.215 180.773 353.934 191.763 354.268C195.203 354.373 198.731 354.023 201.866 352.602C205.71 350.853 208.812 347.572 212.873 346.406C217.383 345.117 222.559 346.6 226.687 344.373C229.688 342.758 226.981 330.304 226.215 327.905C224.811 323.519 223.402 320.61 218.726 320.166C206.892 319.005 193.428 321.659 181.506 322.348Z" fill="#EFB7B9"/>
<path d="M211.025 318.95C211.025 318.95 228.939 334.124 218.604 350.681L238.576 343.779V329.294C238.576 328.605 230.992 318.261 230.992 318.261L222.032 316.879L211.025 318.95Z" fill="white"/>
<path d="M23.4612 318.012H30.1796C33.858 318.012 37.3857 319.474 39.9867 322.077C42.5877 324.68 44.049 328.211 44.049 331.892V352.497H9.5918V331.892C9.5918 330.069 9.95054 328.264 10.6475 326.58C11.3445 324.896 12.3662 323.366 13.6541 322.077C14.942 320.788 16.4709 319.766 18.1536 319.068C19.8363 318.371 21.6399 318.012 23.4612 318.012Z" fill="#3F3D56"/>
<path opacity="0.1" d="M23.4612 318.012H30.1796C33.858 318.012 37.3857 319.474 39.9867 322.077C42.5877 324.68 44.049 328.211 44.049 331.892V352.497H9.5918V331.892C9.5918 330.069 9.95054 328.264 10.6475 326.58C11.3445 324.896 12.3662 323.366 13.6541 322.077C14.942 320.788 16.4709 319.766 18.1536 319.068C19.8363 318.371 21.6399 318.012 23.4612 318.012Z" fill="black"/>
<path d="M25.4415 325.596C26.9643 325.596 28.1988 324.36 28.1988 322.836C28.1988 321.312 26.9643 320.077 25.4415 320.077C23.9188 320.077 22.6843 321.312 22.6843 322.836C22.6843 324.36 23.9188 325.596 25.4415 325.596Z" fill="#3F3D56"/>
<path d="M25.4415 322.148C26.9643 322.148 28.1988 320.912 28.1988 319.388C28.1988 317.864 26.9643 316.629 25.4415 316.629C23.9188 316.629 22.6843 317.864 22.6843 319.388C22.6843 320.912 23.9188 322.148 25.4415 322.148Z" fill="#3F3D56"/>
<path d="M25.4415 318.7C26.9643 318.7 28.1988 317.464 28.1988 315.94C28.1988 314.416 26.9643 313.181 25.4415 313.181C23.9188 313.181 22.6843 314.416 22.6843 315.94C22.6843 317.464 23.9188 318.7 25.4415 318.7Z" fill="#3F3D56"/>
<path d="M25.4415 315.252C26.9643 315.252 28.1988 314.016 28.1988 312.492C28.1988 310.968 26.9643 309.733 25.4415 309.733C23.9188 309.733 22.6843 310.968 22.6843 312.492C22.6843 314.016 23.9188 315.252 25.4415 315.252Z" fill="#3F3D56"/>
<path d="M25.4415 311.804C26.9643 311.804 28.1988 310.569 28.1988 309.045C28.1988 307.521 26.9643 306.285 25.4415 306.285C23.9188 306.285 22.6843 307.521 22.6843 309.045C22.6843 310.569 23.9188 311.804 25.4415 311.804Z" fill="#3F3D56"/>
<path d="M25.4415 308.356C26.9643 308.356 28.1988 307.121 28.1988 305.597C28.1988 304.073 26.9643 302.837 25.4415 302.837C23.9188 302.837 22.6843 304.073 22.6843 305.597C22.6843 307.121 23.9188 308.356 25.4415 308.356Z" fill="#3F3D56"/>
<path d="M25.4415 304.903C26.9643 304.903 28.1988 303.667 28.1988 302.143C28.1988 300.619 26.9643 299.384 25.4415 299.384C23.9188 299.384 22.6843 300.619 22.6843 302.143C22.6843 303.667 23.9188 304.903 25.4415 304.903Z" fill="#3F3D56"/>
<path d="M29.58 306.285C31.1028 306.285 32.3372 305.05 32.3372 303.526C32.3372 302.002 31.1028 300.766 29.58 300.766C28.0572 300.766 26.8228 302.002 26.8228 303.526C26.8228 305.05 28.0572 306.285 29.58 306.285Z" fill="#3F3D56"/>
<path d="M32.3376 304.903C33.8604 304.903 35.0948 303.667 35.0948 302.143C35.0948 300.619 33.8604 299.384 32.3376 299.384C30.8148 299.384 29.5803 300.619 29.5803 302.143C29.5803 303.667 30.8148 304.903 32.3376 304.903Z" fill="#3F3D56"/>
<path d="M35.0946 303.525C36.6174 303.525 37.8519 302.29 37.8519 300.766C37.8519 299.242 36.6174 298.006 35.0946 298.006C33.5719 298.006 32.3374 299.242 32.3374 300.766C32.3374 302.29 33.5719 303.525 35.0946 303.525Z" fill="#3F3D56"/>
<path d="M25.4415 301.454C26.9643 301.454 28.1988 300.219 28.1988 298.695C28.1988 297.171 26.9643 295.935 25.4415 295.935C23.9188 295.935 22.6843 297.171 22.6843 298.695C22.6843 300.219 23.9188 301.454 25.4415 301.454Z" fill="#3F3D56"/>
<path d="M25.4415 298.006C26.9643 298.006 28.1988 296.771 28.1988 295.247C28.1988 293.723 26.9643 292.487 25.4415 292.487C23.9188 292.487 22.6843 293.723 22.6843 295.247C22.6843 296.771 23.9188 298.006 25.4415 298.006Z" fill="#3F3D56"/>
<path d="M25.4415 294.558C26.9643 294.558 28.1988 293.323 28.1988 291.799C28.1988 290.275 26.9643 289.039 25.4415 289.039C23.9188 289.039 22.6843 290.275 22.6843 291.799C22.6843 293.323 23.9188 294.558 25.4415 294.558Z" fill="#3F3D56"/>
<path d="M25.4415 291.111C26.9643 291.111 28.1988 289.875 28.1988 288.351C28.1988 286.827 26.9643 285.592 25.4415 285.592C23.9188 285.592 22.6843 286.827 22.6843 288.351C22.6843 289.875 23.9188 291.111 25.4415 291.111Z" fill="#3F3D56"/>
<path d="M36.8923 279.451C36.2043 279.551 35.5164 279.623 34.8285 279.668C35.468 279.109 36.0617 278.5 36.6038 277.846C36.2218 276.687 35.6601 275.595 34.9394 274.609C34.256 274.994 33.5004 275.232 32.7203 275.309C32.038 275.409 31.35 275.481 30.6621 275.531C31.5664 274.793 32.4097 273.682 33.2973 272.755C31.3085 270.951 28.7607 269.886 26.0806 269.738C23.4006 269.59 20.7512 270.368 18.5763 271.943C16.4013 273.517 14.8331 275.791 14.1341 278.385C13.4352 280.979 13.6482 283.734 14.7373 286.189C15.8264 288.644 17.7255 290.65 20.1164 291.871C22.5073 293.092 25.2448 293.453 27.8703 292.895C30.4957 292.336 32.8496 290.891 34.5375 288.803C36.2255 286.714 37.145 284.108 37.1419 281.422C37.1421 280.746 37.0827 280.072 36.9644 279.407L36.8923 279.451Z" fill="#FFCD05"/>
<path d="M46.0847 293.16C45.3815 293.592 44.5878 293.857 43.7657 293.931C43.0833 294.031 42.3954 294.109 41.7075 294.153C42.4386 293.497 43.121 292.788 43.749 292.032C42.0866 291.599 40.3224 291.801 38.8011 292.6C37.2799 293.399 36.111 294.737 35.5231 296.352C34.9352 297.968 34.9705 299.745 35.6221 301.336C36.2737 302.927 37.4947 304.217 39.0465 304.955C40.5982 305.693 42.3691 305.825 44.013 305.325C45.6569 304.826 47.0555 303.73 47.9354 302.254C48.8153 300.777 49.1132 299.025 48.7709 297.34C48.4287 295.655 47.4708 294.159 46.0847 293.143V293.16Z" fill="#FFCD05"/>
<path d="M21.3085 306.285C22.8313 306.285 24.0657 305.05 24.0657 303.526C24.0657 302.002 22.8313 300.766 21.3085 300.766C19.7857 300.766 18.5513 302.002 18.5513 303.526C18.5513 305.05 19.7857 306.285 21.3085 306.285Z" fill="#3F3D56"/>
<path d="M18.5511 304.903C20.0738 304.903 21.3083 303.667 21.3083 302.143C21.3083 300.619 20.0738 299.384 18.5511 299.384C17.0283 299.384 15.7938 300.619 15.7938 302.143C15.7938 303.667 17.0283 304.903 18.5511 304.903Z" fill="#3F3D56"/>
<path d="M15.794 303.525C17.3168 303.525 18.5512 302.29 18.5512 300.766C18.5512 299.242 17.3168 298.006 15.794 298.006C14.2712 298.006 13.0367 299.242 13.0367 300.766C13.0367 302.29 14.2712 303.525 15.794 303.525Z" fill="#3F3D56"/>
<path d="M4.80403 293.16C5.50714 293.592 6.30085 293.857 7.12299 293.931C7.80537 294.031 8.49329 294.109 9.18121 294.153C8.44867 293.498 7.76624 292.79 7.13964 292.032C8.80202 291.599 10.5663 291.801 12.0875 292.6C13.6088 293.399 14.7776 294.737 15.3655 296.352C15.9535 297.968 15.9182 299.745 15.2666 301.336C14.615 302.927 13.394 304.217 11.8422 304.955C10.2905 305.693 8.51954 305.825 6.87568 305.325C5.23183 304.826 3.83324 303.73 2.95333 302.254C2.07343 300.777 1.77548 299.025 2.11773 297.34C2.45999 295.655 3.41785 294.159 4.80403 293.143V293.16Z" fill="#FFCD05"/>
<path d="M23.4611 320.055H30.1795C33.8579 320.055 37.3856 321.517 39.9866 324.12C42.5877 326.723 44.0489 330.254 44.0489 333.935V352.186C44.0489 352.81 43.8011 353.409 43.3599 353.85C42.9188 354.292 42.3205 354.54 41.6966 354.54H11.9273C11.3035 354.54 10.7052 354.292 10.264 353.85C9.8229 353.409 9.57507 352.81 9.57507 352.186V333.935C9.57507 332.111 9.93437 330.305 10.6324 328.619C11.3305 326.934 12.3536 325.403 13.6432 324.114C14.9329 322.825 16.4638 321.803 18.1484 321.106C19.8331 320.41 21.6384 320.052 23.4611 320.055Z" fill="#3F3D56"/>
<g opacity="0.1">
<path opacity="0.1" d="M37.0805 280.206C36.8014 280.504 36.505 280.786 36.1929 281.05C36.5091 281.05 36.8198 281 37.136 280.967C37.1249 280.711 37.1083 280.456 37.0805 280.206Z" fill="black"/>
<path opacity="0.1" d="M32.0542 276.908C32.7477 276.864 33.43 276.791 34.118 276.691C34.7352 276.613 35.3383 276.449 35.9099 276.203C35.6293 275.648 35.3066 275.115 34.9446 274.609C34.5995 274.82 34.2258 274.979 33.835 275.081C33.291 275.737 32.6955 276.348 32.0542 276.908Z" fill="black"/>
<path opacity="0.1" d="M15.1059 282.832C15.1018 280.727 15.665 278.66 16.7362 276.849C17.8074 275.037 19.3469 273.548 21.1926 272.539C23.0383 271.529 25.1219 271.037 27.2238 271.113C29.3258 271.189 31.3683 271.831 33.1362 272.971L33.3137 272.783C32.1599 271.755 30.8143 270.966 29.3546 270.462C27.8948 269.957 26.3497 269.747 24.8082 269.842C23.2668 269.938 21.7595 270.338 20.3732 271.019C18.9869 271.7 17.749 272.649 16.7308 273.812C15.7126 274.974 14.9343 276.326 14.4407 277.791C13.9471 279.255 13.748 280.803 13.8548 282.345C13.9616 283.887 14.3723 285.393 15.063 286.775C15.7538 288.158 16.7112 289.39 17.8798 290.4C16.0856 288.288 15.1022 285.605 15.1059 282.832Z" fill="black"/>
</g>
<g opacity="0.1">
<path opacity="0.1" d="M41.7078 295.53C42.3957 295.486 43.0836 295.414 43.766 295.314C44.5886 295.237 45.3822 294.971 46.0849 294.537C46.8639 295.111 47.5134 295.842 47.9913 296.684C48.4692 297.526 48.7648 298.459 48.8588 299.423C48.8857 299.181 48.8987 298.938 48.8977 298.695C48.9029 297.617 48.6545 296.552 48.1727 295.588C47.6908 294.623 46.9889 293.786 46.1238 293.143C45.4207 293.576 44.627 293.84 43.8048 293.915L43.25 293.987C42.7766 294.541 42.261 295.057 41.7078 295.53Z" fill="black"/>
<path opacity="0.1" d="M41.985 293.176C42.2151 293.179 42.4449 293.196 42.673 293.226C43.0336 292.843 43.3886 292.432 43.7492 292.033C42.7293 291.76 41.6604 291.726 40.6252 291.933C39.59 292.14 38.6164 292.583 37.7796 293.227C36.9429 293.871 36.2655 294.7 35.7999 295.648C35.3343 296.596 35.093 297.639 35.0947 298.695C35.0947 298.928 35.0947 299.156 35.128 299.384C35.2986 297.682 36.0947 296.105 37.3617 294.958C38.6288 293.811 40.2765 293.176 41.985 293.176Z" fill="black"/>
</g>
<g opacity="0.1">
<path opacity="0.1" d="M9.18094 295.53C8.49302 295.486 7.8051 295.414 7.12272 295.314C6.30016 295.237 5.50647 294.971 4.80377 294.537C4.02483 295.111 3.37531 295.842 2.89742 296.684C2.41952 297.526 2.12395 298.459 2.02989 299.423C2.00298 299.181 1.99001 298.938 1.99105 298.695C1.98582 297.617 2.23418 296.552 2.71606 295.588C3.19793 294.623 3.8998 293.786 4.76493 293.143C5.46804 293.576 6.26175 293.84 7.08389 293.915L7.63867 293.987C8.1091 294.543 8.62497 295.06 9.18094 295.53Z" fill="black"/>
<path opacity="0.1" d="M8.90359 293.176C8.67165 293.179 8.44008 293.196 8.21012 293.226C7.85507 292.843 7.50001 292.432 7.1394 292.033C8.15932 291.76 9.22825 291.726 10.2634 291.933C11.2986 292.14 12.2723 292.583 13.109 293.227C13.9458 293.871 14.6232 294.7 15.0887 295.648C15.5543 296.596 15.7956 297.639 15.7939 298.695C15.7939 298.928 15.7939 299.156 15.7606 299.384C15.59 297.682 14.794 296.105 13.5269 294.958C12.2598 293.811 10.6121 293.176 8.90359 293.176Z" fill="black"/>
</g>
<path d="M392.41 354.928L312.444 365.517L308.444 366.044L269.349 345.145V340.254L391.522 326.917L392.41 354.928Z" fill="#9C9CA1"/>
<path d="M292.006 347.366L378.634 337.144L377.747 353.152L310.269 358.104L292.006 347.366Z" fill="#939498"/>
<path opacity="0.4" d="M312.444 360.259V365.511L308.444 366.066L269.344 345.145V340.254L306.664 360.242C306.664 360.242 311.557 360.703 312.444 360.259Z" fill="black"/>
<path d="M327.795 276.891L309.842 360.203C309.661 361.037 309.683 361.903 309.907 362.726C310.13 363.55 310.549 364.308 311.127 364.935C311.704 365.563 312.425 366.043 313.226 366.333C314.028 366.624 314.888 366.717 315.734 366.605L429.313 351.558C430.302 351.428 431.235 351.021 432.004 350.385C432.773 349.748 433.348 348.908 433.662 347.96L458.167 274.004C458.438 273.183 458.505 272.309 458.363 271.457C458.221 270.604 457.874 269.799 457.353 269.111C456.831 268.422 456.149 267.871 455.367 267.505C454.585 267.139 453.726 266.968 452.863 267.008L332.743 272.716C331.575 272.771 330.457 273.21 329.562 273.965C328.668 274.719 328.047 275.748 327.795 276.891Z" fill="#3F3D56"/>
<path d="M390.204 307.627C390.483 304.973 389.328 302.677 387.625 302.498C385.921 302.319 384.315 304.325 384.036 306.978C383.757 309.631 384.912 311.927 386.616 312.106C388.319 312.285 389.926 310.28 390.204 307.627Z" fill="white"/>
<path opacity="0.1" d="M298.934 430C298.934 430 280.981 449.227 297.141 458.568C297.141 458.568 299.253 461.113 302.27 459.781C302.27 459.781 301.252 458.876 303.293 457.133C304.015 456.507 304.66 455.798 305.216 455.021C305.969 453.972 306.36 452.706 306.331 451.415C306.331 451.415 308.682 443.786 301.214 433.882C301.214 433.882 300.537 430.569 299.963 430.206L298.598 434.824C298.598 434.824 302.026 435.696 303.315 438.306C303.315 438.306 298.798 434.759 298.36 435.501C298.273 435.653 297.748 437.987 297.748 437.987C297.748 437.987 303.705 439.524 305.568 443.618C305.568 443.618 300.753 438.674 297.542 438.869L296.957 442.432C296.957 442.432 303.331 443.753 305.622 448.334C305.622 448.334 300.412 443.336 296.87 443.223L296.767 446.802C296.767 446.802 302.957 448.21 304.847 452.032C304.847 452.032 298.246 446.872 296.8 447.625C296.8 447.625 296.903 450.922 297.342 451.783C297.342 451.783 301.761 452.866 302.66 455.216C302.66 455.216 297.883 452.233 297.471 452.687C297.471 452.687 298.755 456.943 300.542 458.757C300.542 458.757 297.704 456.272 296.816 452.92C296.816 452.92 295.614 455.016 295.917 457.073C295.917 457.073 294.146 455.113 296.518 451.886C296.518 451.886 295.652 448.529 295.868 447.998C295.868 447.998 293.08 450.852 292.365 453.413C292.365 453.413 291.823 450.208 295.863 447.072V443.466C295.863 443.466 291.975 447.045 291.173 449.26C291.173 449.26 291.119 445.903 295.944 442.562L296.486 439.059C296.486 439.059 292.901 441.885 291.477 444.159C291.477 444.159 292.094 441.03 296.675 438.062L297.309 435.767C297.309 435.767 294.731 437.878 294.06 438.55C293.388 439.221 293.134 439.091 293.134 439.091C294.189 437.276 295.726 435.788 297.574 434.792C297.574 434.792 299.232 430.125 298.934 430Z" fill="#FFCD05"/>
<path opacity="0.1" d="M314.266 16.0394C314.266 16.0394 278.232 26.3273 295.751 41.64C295.751 41.64 297.305 44.8888 302.293 44.8888C302.293 44.8888 301.361 43.6326 305.217 42.8691C306.545 42.6021 307.846 42.218 309.105 41.7212C310.591 41.2007 311.855 40.1906 312.691 38.8568C312.691 38.8568 320.272 32.7924 315.295 20.566C315.295 20.566 316.2 17.2306 315.593 16.6566L311.088 20.3495C311.088 20.3495 315.42 22.5749 315.783 25.5151C315.783 25.5151 311.412 20.3765 310.367 20.8801C310.156 20.983 308.114 22.9106 308.114 22.9106C308.114 22.9106 315.631 26.7983 315.972 31.3521C315.972 31.3521 311.965 24.7949 307.308 23.6416L304.491 26.6846C304.491 26.6846 312.723 30.5453 313.4 35.7217C313.4 35.7217 308.862 28.9588 303.945 27.3831L301.778 30.6319C301.778 30.6319 309.707 34.498 310.226 38.8081C310.226 38.8081 303.82 31.3088 301.361 31.4008C301.361 31.4008 299.666 34.4872 299.818 35.4672C299.818 35.4672 305.418 38.3262 305.39 40.8386C305.39 40.8386 300.332 36.1062 299.498 36.3552C299.498 36.3552 298.924 40.8115 300.43 43.2265C300.43 43.2265 297.82 39.7557 298.448 36.3011C298.448 36.3011 295.583 37.736 294.863 39.7557C294.863 39.7557 293.466 37.2162 298.61 35.2236C298.61 35.2236 299.266 31.769 299.867 31.3683C299.867 31.3683 294.343 32.8411 291.922 34.8879C291.922 34.8879 292.94 31.704 300.392 30.4911L302.439 27.1774C302.439 27.1774 294.966 28.8667 292.594 30.5724C292.594 30.5724 294.397 27.4535 303.062 26.3706L305.77 23.3654C305.77 23.3654 299.141 24.4863 295.859 25.9915C295.859 25.9915 298.486 23.3654 306.593 22.5261L308.759 20.6743C308.759 20.6743 303.945 21.5515 302.601 21.8872C301.258 22.2229 300.977 22.0063 300.977 22.0063C303.683 20.6961 306.636 19.9728 309.642 19.8838C309.642 19.8838 314.581 16.2668 314.266 16.0394Z" fill="#FFCD05"/>
<path opacity="0.1" d="M168.076 464.346C168.076 464.346 186.218 445.292 170.15 435.794C170.15 435.794 168.06 433.228 165.033 434.527C165.033 434.527 166.046 435.442 163.988 437.17C163.26 437.788 162.608 438.489 162.043 439.26C161.279 440.301 160.875 441.563 160.895 442.855C160.895 442.855 158.464 450.463 165.84 460.436C165.84 460.436 166.484 463.756 167.053 464.129L168.466 459.521C168.466 459.521 165.044 458.617 163.782 455.996C163.782 455.996 168.26 459.581 168.705 458.845C168.797 458.693 169.344 456.37 169.344 456.37C169.344 456.37 163.387 454.746 161.578 450.663C161.578 450.663 166.343 455.655 169.56 455.487L170.178 451.93C170.178 451.93 163.82 450.549 161.561 445.974C161.561 445.974 166.722 451.02 170.264 451.172L170.4 447.587C170.4 447.587 164.22 446.093 162.347 442.249C162.347 442.249 168.899 447.479 170.351 446.737C170.351 446.737 170.28 443.445 169.809 442.579C169.809 442.579 165.401 441.42 164.524 439.092C164.524 439.092 169.273 442.124 169.685 441.669C169.685 441.669 168.445 437.402 166.674 435.572C166.674 435.572 169.49 438.085 170.345 441.442C170.345 441.442 171.569 439.357 171.282 437.3C171.282 437.3 173.037 439.281 170.632 442.481C170.632 442.481 171.466 445.849 171.244 446.375C171.244 446.375 174.06 443.548 174.797 441.019C174.797 441.019 175.338 444.23 171.239 447.322L171.185 450.928C171.185 450.928 175.106 447.387 175.929 445.178C175.929 445.178 175.929 448.54 171.093 451.833L170.551 455.33C170.551 455.33 174.163 452.536 175.609 450.279C175.609 450.279 174.959 453.397 170.351 456.321L169.696 458.612C169.696 458.612 172.295 456.527 172.988 455.861C173.681 455.195 173.92 455.32 173.92 455.32C172.848 457.126 171.296 458.6 169.436 459.576C169.436 459.576 167.806 464.216 168.076 464.346Z" fill="#FFCD05"/>
<path opacity="0.1" d="M243.638 -9.27931C243.638 -9.27931 246.73 16.8411 264.298 10.5384C264.298 10.5384 267.607 10.5655 268.538 7.40331C268.538 7.40331 267.184 7.59824 267.173 4.91256C267.161 3.95718 267.035 3.00662 266.8 2.08069C266.488 0.827965 265.775 -0.288321 264.769 -1.09773C264.769 -1.09773 260.458 -7.82276 248.051 -8.48335C248.051 -8.48335 245.084 -10.1078 244.434 -9.902L247.082 -5.87889C247.082 -5.87889 249.958 -7.93647 252.784 -7.23256C252.784 -7.23256 247.163 -6.07382 247.45 -5.26162C247.504 -5.09376 248.945 -3.19321 248.945 -3.19321C248.945 -3.19321 254.008 -6.7669 258.341 -5.5486C258.341 -5.5486 251.458 -5.0721 249.53 -2.4893L251.842 0.261353C251.842 0.261353 256.965 -3.75634 261.953 -2.55969C261.953 -2.55969 254.772 -1.80164 252.395 0.824481L255.091 3.21777C255.091 3.21777 260.16 -0.604997 264.298 0.423792C264.298 0.423792 256.088 2.13483 255.73 3.72133C255.73 3.72133 258.314 5.76808 259.267 5.98467C259.267 5.98467 262.971 3.32606 265.321 4.13826C265.321 4.13826 259.96 5.86013 260.041 6.46657C260.041 6.46657 264.119 8.23176 266.659 8.03683C266.659 8.03683 262.928 8.5783 259.798 7.11633C259.798 7.11633 260.621 9.38508 262.392 10.4843C262.392 10.4843 259.749 10.5655 258.812 6.69399C258.812 6.69399 255.693 5.18871 255.427 4.68514C255.427 4.68514 255.806 8.6541 257.285 10.8362C257.285 10.8362 254.48 9.21181 254.696 4.07329L251.988 1.72873C251.988 1.72873 252.21 7.00804 253.38 9.05479C253.38 9.05479 250.781 6.92682 251.344 1.08438L249.021 -1.58505C249.021 -1.58505 248.864 2.9741 249.676 5.52983C249.676 5.52983 247.688 3.03908 248.382 -2.3756L247.033 -4.34112C247.033 -4.34112 246.984 -1.0111 247.033 -0.0472832C247.082 0.91653 246.849 1.00858 246.849 1.00858C246.137 -0.975397 245.991 -3.11814 246.427 -5.1804C246.427 -5.1804 243.908 -9.40926 243.638 -9.27931Z" fill="#FFCD05"/>
<path opacity="0.1" d="M241.029 406.343C241.029 406.343 215.673 399.303 214.861 417.952C214.861 417.952 213.583 421.006 216.155 423.063C216.155 423.063 216.486 421.742 218.977 422.744C219.865 423.095 220.792 423.341 221.739 423.475C223.018 423.659 224.323 423.419 225.454 422.792C225.454 422.792 233.306 421.352 238.635 410.155C238.635 410.155 241.261 408.027 241.343 407.344L236.615 408.27C236.615 408.27 237.427 411.714 235.705 414.064C235.705 414.064 236.788 408.422 235.906 408.378C235.727 408.378 233.42 408.98 233.42 408.98C233.42 408.98 234.806 414.968 232.039 418.515C232.039 418.515 234.205 411.963 232.543 409.202L229.109 410.333C229.109 410.333 230.885 416.593 227.885 420.751C227.885 420.751 229.911 413.826 228.373 410.631L225.156 412.196C225.156 412.196 226.78 418.336 224.251 421.78C224.251 421.78 225.779 413.539 224.441 412.602C224.441 412.602 221.571 414.226 221.013 415.017C221.013 415.017 222.096 419.452 220.428 421.32C220.428 421.32 220.861 415.705 220.271 415.553C220.271 415.553 217.087 418.656 216.307 421.081C216.307 421.081 217.2 417.416 219.762 415.082C219.762 415.082 217.347 414.984 215.662 416.203C215.662 416.203 216.583 413.728 220.536 414.34C220.536 414.34 223.114 412.017 223.683 411.968C223.683 411.968 219.892 410.81 217.282 411.351C217.282 411.351 219.87 409.38 224.522 411.524L227.728 409.9C227.728 409.9 222.757 408.108 220.423 408.416C220.423 408.416 223.374 406.792 228.546 409.548L231.893 408.406C231.893 408.406 227.734 406.537 225.058 406.321C225.058 406.321 228.118 405.427 232.867 408.119L235.196 407.615C235.196 407.615 232.131 406.305 231.216 405.991C230.301 405.677 230.306 405.449 230.306 405.449C232.403 405.545 234.433 406.22 236.171 407.398C236.171 407.398 241.045 406.64 241.029 406.343Z" fill="#FFCD05"/>
</g>
</svg>
