<svg width="263" height="263" viewBox="0 0 263 263" fill="none" xmlns="http://www.w3.org/2000/svg">
<path d="M228.246 113.746C222.679 77.3085 199.855 32.5432 154.765 27.8588C154.765 27.8588 120.53 23.6948 86.7822 30.0054C66.7523 33.7512 49.1895 44.9014 38.0761 60.9267C26.9628 76.9519 23.2517 96.4933 27.756 115.125C30.6824 127.225 32.6595 139.748 32.1172 152.182C31.1722 173.821 31.7159 194.019 52.7169 206.926C71.4679 218.449 95.067 228.612 117.581 230.391C132.881 231.601 150.039 229.643 164.785 225.66C239.936 205.358 233.813 150.183 228.246 113.746Z" fill="#F4F7FA"/>
<path d="M150.22 221.562C149.085 221.166 146.959 219.3 146.604 218.585C144.255 213.83 139.278 205.212 140.753 199.799C141.005 198.878 145.368 198.886 146.134 198.151C148.918 197.482 149.926 197.423 152.26 195.488C159.151 189.774 149.434 174.28 164.844 172.793C176.132 171.703 184.31 177.234 186.629 160.553C188.947 143.873 208.286 116.661 223.231 131.783C231.809 140.46 218.756 152.314 221.713 163.704C224.523 174.528 218.673 181.722 207.026 185.413C195.378 189.104 199.988 194.795 201.055 204.744C202.337 216.694 184.712 215.057 176.64 213.605C170.142 212.436 152.803 213.848 150.22 221.562Z" fill="url(#paint0_linear_1200_1052)"/>
<path d="M143.726 209.691L143.665 209.449C162.887 204.62 180.111 194.032 193.474 178.831C206.19 164.37 215.242 146.034 219.654 125.811L219.897 125.864C215.477 146.129 206.405 164.499 193.662 178.997C180.265 194.237 162.998 204.851 143.726 209.691Z" fill="#FCFDFE"/>
<path d="M202.163 209.643C192.824 204.242 176.062 200.623 164.804 201.576L164.783 201.328C176.087 200.371 192.913 204.004 202.29 209.427L202.163 209.643Z" fill="#FCFDFE"/>
<path d="M151.213 207.721L151.088 207.508C156.166 204.554 159.555 199.143 161.162 191.434C162.339 185.779 162.549 179.041 161.784 171.407L162.032 171.382C162.799 179.042 162.589 185.806 161.406 191.485C159.785 199.265 156.355 204.729 151.213 207.721Z" fill="#FCFDFE"/>
<path d="M195.392 176.869L195.255 176.657C204.538 170.597 216.192 170.905 224.334 172.23L224.295 172.476C216.196 171.163 204.607 170.854 195.392 176.869Z" fill="#FCFDFE"/>
<path d="M209.395 155.704L209.155 155.634C210.635 150.481 212.025 139.673 204.706 125.194L204.929 125.081C212.286 139.639 210.885 150.516 209.395 155.704Z" fill="#FCFDFE"/>
<path d="M164.878 226.5C158.748 225.597 152.625 224.554 146.511 223.373C146.412 223.463 144.402 210.138 150.732 203.149C163.247 189.61 154.817 177.462 152.412 170.263C148.602 160.119 150.606 149.133 160.931 148.971C172.383 148.567 174.458 129.612 172.383 112.37C170.778 103.962 178.712 93.7591 186.631 91.4276C194.713 88.8437 202.78 94.1313 205.252 110.892C208.994 130.299 194.831 142.002 189.585 151.732C184.425 161.283 196.43 169.011 186.768 177.475C178.64 184.994 168.397 190.4 172.144 199.845C175.993 209.185 175.071 216.82 164.878 226.5Z" fill="url(#paint1_linear_1200_1052)"/>
<path d="M156.68 227.291L156.43 227.288C156.43 227.169 162.288 199.134 172.388 171.852C173.783 167.435 175.298 162.979 176.764 158.67C180.689 147.132 184.747 135.202 186.674 123.323C188.828 110.045 188.061 98.0862 184.328 86.7616L184.564 86.6836C188.31 98.0458 189.081 110.044 186.921 123.363C184.99 135.262 180.928 147.203 177 158.751C175.535 163.059 174.023 167.512 172.624 171.936C162.444 199.431 156.695 227.13 156.68 227.291Z" fill="#FCFDFE"/>
<path d="M184.094 136.373L183.909 136.206C190.742 128.613 198.988 117.823 203.417 112.027C206.985 107.359 207.004 107.368 207.151 107.388L207.112 107.635L207.131 107.512L207.182 107.623C207.002 107.747 205.507 109.703 203.616 112.178C199.184 117.978 190.935 128.773 184.094 136.373Z" fill="#FCFDFE"/>
<path d="M186.159 125.959C184.746 117.256 181.162 111.533 178.405 108.263C175.357 104.652 172.555 103.078 172.268 103.043C172.289 103.043 172.31 103.037 172.327 103.025L172.186 102.817C172.249 102.776 172.321 102.786 172.488 102.859C173.244 103.187 176.072 104.956 179.038 108.643C182.774 113.286 185.321 119.26 186.402 125.919L186.159 125.959Z" fill="#FCFDFE"/>
<path d="M166.626 189.7L166.378 189.671C167.342 181.574 165.457 172.865 160.77 163.785C158.327 159.05 155.211 154.411 151.508 149.997C151.241 149.678 151.146 149.564 151.116 149.513L151.329 149.388C151.351 149.424 151.504 149.607 151.697 149.837C155.411 154.265 158.537 158.919 160.989 163.67C165.701 172.796 167.596 181.554 166.626 189.7Z" fill="#FCFDFE"/>
<path d="M169.388 181.176L169.176 181.045C176.389 169.39 191.462 168.385 192.133 168.385H192.155L192.252 168.504L192.167 168.627L192.128 168.51L192.116 168.633C191.864 168.63 176.623 169.489 169.388 181.176ZM192.084 168.389L192.123 168.507L192.084 168.389Z" fill="#FCFDFE"/>
<path d="M157.704 222.719L157.454 222.71C157.584 219.185 156.323 213.177 149.585 204.569C149.22 204.101 149.22 204.101 149.231 204.031L149.478 204.067L149.354 204.049L149.468 204.002C149.488 204.038 149.625 204.215 149.784 204.415C156.567 213.082 157.834 219.153 157.704 222.719Z" fill="#FCFDFE"/>
<path d="M159.26 216.079L159.02 216.008C159.8 213.327 162.855 208.073 174.606 203.014C174.77 202.943 174.874 202.899 174.911 202.88L175.025 203.102C174.986 203.122 174.876 203.173 174.705 203.244C163.046 208.263 160.025 213.44 159.26 216.079Z" fill="#FCFDFE"/>
<path d="M184.564 215.49L157.526 216.33C150.059 215.898 141.471 216.033 132.31 216.299C123.123 216.564 114.461 216.969 106.898 217.841L79.1603 218.661V224.294C79.1591 224.3 79.1591 224.305 79.1603 224.311C79.1603 227.909 103.115 230.077 132.412 229.168C161.43 228.268 184.708 224.493 184.652 220.958C184.652 220.948 184.648 220.746 184.648 220.746L184.564 215.49Z" fill="url(#paint2_linear_1200_1052)"/>
<path d="M184.566 215.557C184.622 219.086 161.362 222.651 132.367 223.524C103.095 224.405 79.1602 222.211 79.1602 218.619C79.1602 215.027 103.05 211.459 132.266 210.638C161.206 209.828 184.512 212.03 184.566 215.557Z" fill="url(#paint3_linear_1200_1052)"/>
<path opacity="0.5" d="M150.498 132.422L137.096 142.963L150.773 153.141C166.043 164.483 175.122 182.447 175.398 201.804L175.588 215.068C175.588 215.316 175.37 215.527 174.995 215.777L133.691 214.806L130.908 214.884L88.9713 218.275C88.5814 218.045 88.4552 217.84 88.4552 217.588L88.4368 204.13C88.4098 184.493 97.4178 165.896 112.77 153.85L126.309 143.203L112.639 133.001C97.2717 121.587 88.2985 103.646 88.2723 84.5867L88.2532 70.9164L129.886 72.6823L132.631 72.6674L173.524 70.4755L173.716 83.9558C173.983 102.746 165.421 120.674 150.498 132.422Z" fill="#D8DEE8"/>
<path d="M175.533 215.062C175.533 215.31 175.342 215.558 174.966 215.807C171.624 218.01 153.841 220.145 132.249 220.785C110.501 221.43 92.3378 220.34 88.8678 218.308C88.4786 218.077 88.2751 217.837 88.2744 217.585C88.2744 215.1 108.004 212.532 132.178 211.85C156.165 211.174 175.498 212.612 175.533 215.062Z" fill="#BFC8D6"/>
<path d="M132.98 175.097L130.751 175.147L130.474 139.051L132.69 139.015L132.98 175.097Z" fill="url(#paint4_linear_1200_1052)"/>
<path d="M131.535 117.814L105.838 118.144L107.175 120.368C107.175 120.368 116.724 134.034 131.72 141.373C146.528 133.573 155.738 119.732 155.738 119.732L157.019 117.485L131.535 117.814Z" fill="url(#paint5_linear_1200_1052)"/>
<path d="M157.014 117.06C157.029 118.407 145.656 119.646 131.552 119.832C117.381 120.019 105.842 119.071 105.836 117.714C105.831 116.357 117.353 115.117 131.513 114.942C145.607 114.77 156.998 115.716 157.014 117.06Z" fill="url(#paint6_linear_1200_1052)"/>
<path d="M131.803 172.204C131.792 172.204 131.803 172.198 131.803 172.198C131.803 172.198 131.813 172.201 131.803 172.204Z" fill="url(#paint7_linear_1200_1052)"/>
<path d="M167.883 215.265C155.177 218.105 135.373 218.978 132.492 219.063L132.172 219.073L131.851 219.082C130.319 219.127 123.982 219.231 116.419 219.003C109.755 218.797 102.151 218.34 96.0665 217.349C96.0531 217.349 96.097 217.303 96.097 217.3V215.705C96.3699 211.005 97.0632 197.424 99.4288 194.492C102.249 191.003 130.87 172.851 131.82 172.214C132.779 172.809 161.392 189.543 164.208 192.858C164.965 193.747 165.574 195.741 166.066 198.162C166.626 200.911 167.03 204.246 167.313 207.236C167.729 211.619 167.883 215.265 167.883 215.265Z" fill="url(#paint8_linear_1200_1052)"/>
<g style="mix-blend-mode:soft-light">
<path d="M107.147 90.9845C106.843 82.5111 107.577 76.3586 107.577 76.3586C107.577 76.3586 105.273 71.0093 97.1668 73.4776C95.0472 79.7336 94.2163 85.7415 94.3312 91.093L107.147 90.9845Z" fill="white"/>
</g>
<g style="mix-blend-mode:soft-light">
<path d="M107.342 94.7565L94.5566 94.8727C97.4177 123.016 124.897 139.139 124.897 139.139L131.419 139.033C113.415 132.006 108.44 110.517 107.342 94.7565Z" fill="white"/>
</g>
<g style="mix-blend-mode:soft-light">
<path d="M108.163 213.25L96.6017 213.578C95.1045 208.397 94.4984 203.198 94.575 198.639L107.6 198.302C107.368 206.758 108.129 212.926 108.163 213.25Z" fill="white"/>
</g>
<g style="mix-blend-mode:soft-light">
<path d="M107.765 194.405L94.7876 194.733C97.5339 165.563 124.963 148.375 124.963 148.375L131.491 148.259C113.54 156.254 108.738 178.211 107.765 194.405Z" fill="white"/>
</g>
<path d="M182.302 70.4953L155.836 70.6541C148.528 70.0714 140.124 69.9913 131.16 70.0367C122.17 70.082 113.695 70.2657 106.295 70.9278L79.1602 71.0745V76.2431C79.1602 76.2431 79.1602 76.3373 79.1602 76.348C79.1602 79.7897 102.593 82.4544 131.256 82.2516C159.654 82.051 182.438 79.1283 182.387 75.7433C182.387 75.7334 182.387 75.6972 182.387 75.6972L182.302 70.4953Z" fill="url(#paint9_linear_1200_1052)"/>
<path d="M182.303 70.4577C182.355 73.837 159.589 76.7194 131.214 76.8952C102.574 77.0717 79.1602 74.4283 79.1602 70.9915C79.1602 67.5548 102.53 64.6824 131.116 64.5612C159.439 64.4435 182.25 67.082 182.303 70.4577Z" fill="url(#paint10_linear_1200_1052)"/>
<path style="mix-blend-mode:multiply" opacity="0.3" d="M167.883 215.265C155.177 218.105 135.373 218.978 132.492 219.063L132.172 219.073L131.851 219.082C130.319 219.126 123.982 219.231 116.419 219.003C109.755 218.797 102.151 218.34 96.0665 217.349C96.0531 217.349 96.097 217.303 96.097 217.3V217.29C96.097 217.208 96.0516 216.633 96.0913 215.71C103.245 215.717 118.129 215.193 124.585 211.001C133.193 205.41 140.372 205.05 149.785 206.572C157.512 207.823 163.098 203.502 166.067 198.162C166.627 200.911 167.03 204.246 167.315 207.235C167.729 211.619 167.883 215.265 167.883 215.265Z" fill="url(#paint11_linear_1200_1052)"/>
<path d="M157.974 40.2064C158.871 39.6251 158.054 37.9337 158.006 34.3013C157.947 29.8494 159.129 29.02 158.179 27.274C157.018 25.1381 154.095 24.2541 152.159 24.213C151.733 24.2038 151.632 23.9706 148.053 24.8971C141.607 26.5665 139.993 24.7766 137.106 26.5644C134.316 28.292 135.538 30.184 132.829 32.2093C128.439 35.4929 123.822 31.9428 120.684 34.6905C117.716 37.2886 117.648 43.9061 120.769 47.5215C124.309 51.616 130.69 50.3861 134.967 49.5737C135.867 49.4029 140.413 48.4487 145.145 44.9553C147.256 43.3953 149.129 41.5371 150.705 39.4387C150.973 39.1367 151.392 38.7709 151.944 38.712C152.609 38.6411 153.142 39.0473 153.398 39.2253C154.752 40.1575 157.091 40.7778 157.974 40.2064Z" fill="url(#paint12_linear_1200_1052)"/>
<path d="M151.91 35.6879C153.063 34.6373 159.637 36.9114 162.366 39.5989C165.569 42.7556 165.323 45.3147 168.119 49.2363C169.508 51.1857 171.891 53.8108 176.113 56.1126C175.814 56.8597 175.515 57.6069 175.216 58.3541C173.174 58.4767 169.167 58.4044 165.429 55.963C162.832 54.2673 161.495 52.0201 158.928 47.598C156.353 43.1518 150.469 37.0043 151.91 35.6879Z" fill="url(#paint13_linear_1200_1052)"/>
<path d="M179.552 97.0377L178.242 94.2525C178.055 93.8568 177.765 93.5192 177.402 93.2756L176.752 92.8411C176.752 92.8411 175.201 92.7999 174.959 93.7754C174.907 95.0145 177.314 97.7821 178.836 98.8794C179.09 99.0623 179.45 99.3048 179.669 99.18C180.039 98.9695 179.779 97.8274 179.552 97.0377Z" fill="url(#paint14_linear_1200_1052)"/>
<path d="M177.089 91.3269C176.883 92.5214 177.144 93.1445 177.425 93.4933C177.624 93.7393 179.232 96.3898 178.571 96.818C178.273 97.0115 176.231 94.4786 176.032 94.0859C175.853 93.7315 175.736 93.8172 175.726 92.8581C175.72 92.3635 175.64 91.8725 175.489 91.4013L177.089 91.3269Z" fill="url(#paint15_linear_1200_1052)"/>
<path d="M179.411 81.8582C179.411 81.8582 180.862 83.5893 180.626 85.4878C180.39 87.3862 177.848 84.6109 177.494 83.673C177.139 82.7351 176.726 81.3989 176.726 81.3989C176.726 81.3989 178.508 80.2901 179.411 81.8582Z" fill="url(#paint16_linear_1200_1052)"/>
<path d="M178.854 79.1488C178.854 79.1488 178.461 81.1663 179.209 82.2311C179.583 82.7613 180.087 83.2108 179.939 83.6425C179.839 83.9317 179.462 84.1387 179.142 84.1068C178.53 84.0437 178.191 83.1051 177.952 82.4437C177.597 81.4662 177.401 79.3742 177.401 79.3742L178.854 79.1488Z" fill="url(#paint17_linear_1200_1052)"/>
<path d="M177.701 80.8494L179.04 80.3617C179.736 78.7716 180.585 76.1601 180.302 72.9849C179.572 64.8213 172.021 60.4949 171.182 60.032C169.126 61.0641 167.041 62.5202 166.965 64.3562C166.871 66.6601 170.01 67.8787 172.961 71.2481C174.733 73.2706 176.626 76.2848 177.701 80.8494Z" fill="url(#paint18_linear_1200_1052)"/>
<path d="M177.219 92.2604C178.694 86.5007 178.317 81.8007 177.892 79.0927C177.249 75.0003 175.941 66.6757 170.383 63.5679C169.17 62.8902 167.434 62.2834 165.32 60.3984C163.906 59.1314 162.703 57.6479 161.755 56.0033C154.321 53.8227 147.466 54.7067 144.44 58.6928C144.091 59.1536 143.215 60.1532 143.046 61.6262C142.664 64.9503 145.93 68.952 149.595 69.7878C154.253 70.8511 156.956 66.0675 161.079 67.6611C162.233 68.1063 163.212 69.2093 165.17 71.4182C166.906 73.3689 168.391 75.53 169.589 77.8507C171.166 80.9358 172.362 83.2135 172.536 86.1661C172.577 86.8537 172.601 88.2431 173.406 89.741C173.92 90.6778 174.63 91.4933 175.486 92.1321L177.219 92.2604Z" fill="url(#paint19_linear_1200_1052)"/>
<path style="mix-blend-mode:multiply" opacity="0.3" d="M143.046 61.6299C143.215 60.1568 144.091 59.1573 144.44 58.6965C147.466 54.7104 154.321 53.8264 161.755 56.007C162.703 57.6516 163.906 59.1351 165.32 60.4021C167.434 62.2871 169.17 62.8939 170.383 63.5716C173.778 65.4672 175.585 69.3087 176.622 72.9453C175.078 70.5514 173.756 69.9148 172.733 69.9034C171.27 69.8871 170.615 71.139 168.867 70.9668C166.999 70.7839 166.572 69.2392 165.057 69.0613C164.604 69.0081 164.046 69.0783 163.376 69.4348C162.481 68.4991 161.816 67.9462 161.079 67.6626C156.952 66.0718 154.25 70.8526 149.594 69.7893C145.93 68.9556 142.664 64.9539 143.046 61.6299Z" fill="url(#paint20_linear_1200_1052)"/>
<path d="M173.369 66.1477C172.135 66.0825 170.898 66.1104 169.669 66.2313C162.253 66.9643 160.21 70.6336 154.078 71.5275C152.628 71.7401 146.172 72.6823 143.374 68.9499C141.366 66.2703 141.673 61.6533 143.866 59.8378C144.795 59.0694 145.716 59.0906 151.667 59.1445C153.908 59.1643 156.15 59.1714 158.391 59.2005C167.878 59.321 169.693 58.6639 171.419 60.2334C172.226 60.9649 173.404 62.5387 173.369 66.1477Z" fill="url(#paint21_linear_1200_1052)"/>
<path d="M153.34 35.7078C153.34 35.7078 145.851 33.5237 142.552 37.2574C141.947 37.9422 141.468 38.8439 141.12 40.5835C139.347 49.4504 146.059 54.7763 143.414 59.4536C142.364 61.3109 140.513 61.871 139.199 65.2091C138.976 65.7763 138.171 67.8186 138.909 68.463C139.56 69.0301 140.63 67.8321 142.531 68.0639C144.544 68.3084 145.012 69.8545 146.368 69.6298C147.252 69.4831 147.632 68.7288 148.933 66.8495C150.817 64.1281 151.758 62.7677 152.433 62.2906C155.096 60.4085 157.155 62.8627 160.192 60.999C161.292 60.3241 165.367 55.079 164.167 56.5195C161.314 52.9609 160.651 50.0246 160.583 47.983C160.509 45.7443 161.15 44.727 160.583 42.0814C160.583 42.0814 160.46 40.6899 158.164 38.1549C157.834 37.7912 156.928 35.851 153.34 35.7078Z" fill="url(#paint22_linear_1200_1052)"/>
<path d="M150.309 31.4281C150.397 31.8393 150.846 34.0468 149.943 34.6181C149.747 34.7408 149.371 34.8117 148.618 34.9527C148.126 35.0449 147.712 35.1016 147.421 35.1363C147.476 35.6882 147.681 36.2143 148.015 36.6569C149.213 38.1931 151.614 37.7954 151.955 37.733C153.16 37.5133 154.351 37.1404 154.638 36.9121C155.076 36.5648 155.418 36.3046 155.622 36.0395C155.155 35.814 154.212 35.2186 153.579 35.0236C153.145 34.89 152.703 34.7816 152.257 34.6989C152.19 34.2736 152.124 33.8483 152.057 33.4229L150.309 31.4281Z" fill="url(#paint23_linear_1200_1052)"/>
<path d="M150.267 32.5277C150.267 32.5277 150.43 34.1454 152.003 34.4303C153.411 34.6855 154.47 31.2835 153.75 30.4038C153.51 30.1103 152.916 29.831 152.403 29.8459C152.042 29.8558 150.82 30.3216 150.649 31.5473C150.406 31.2913 150.103 31.2176 149.953 31.3247C149.763 31.4608 149.865 31.857 149.888 31.9471C149.951 32.1754 150.083 32.3785 150.267 32.5277V32.5277Z" fill="url(#paint24_linear_1200_1052)"/>
<path style="mix-blend-mode:multiply" opacity="0.3" d="M164.167 56.5195C163.824 56.0941 163.514 55.6731 163.232 55.2633C161.93 54.8182 160.573 54.5558 159.199 54.4835C156.722 54.3637 155.366 54.9464 153.679 53.932C151.765 52.7801 152.105 51.1815 150.257 50.289C148.314 49.3497 146.94 50.4109 145.07 50.0685C143.94 49.8615 142.565 49.1059 141.162 46.9033C142.236 52.2073 145.362 56.0055 143.414 59.4508C142.364 61.3081 140.513 61.8681 139.199 65.2063C138.976 65.7734 138.171 67.8157 138.909 68.4601C139.56 69.0272 140.63 67.8292 142.531 68.061C144.544 68.3056 145.012 69.8517 146.368 69.6269C147.252 69.4802 147.632 68.7259 148.933 66.8467C150.817 64.1252 151.758 62.7648 152.433 62.2878C155.096 60.4056 157.155 62.8598 160.192 60.9961C161.292 60.327 165.366 55.0811 164.167 56.5195Z" fill="url(#paint25_linear_1200_1052)"/>
<path d="M166.424 57.4297L149.481 58.2541C149.366 58.2599 149.255 58.2933 149.156 58.3516C149.057 58.4099 148.974 58.4912 148.914 58.5887L148.442 59.3416C148.39 59.4264 148.361 59.524 148.359 59.6239C148.358 59.7238 148.383 59.8222 148.433 59.9087C148.484 59.9951 148.556 60.0662 148.644 60.1144C148.731 60.1627 148.83 60.1861 148.93 60.1823L166.879 59.4982L166.424 57.4297Z" fill="url(#paint26_linear_1200_1052)"/>
<path d="M184.048 47.9922L166.542 48.3317C166.287 48.3366 166.039 48.4075 165.82 48.5376C165.601 48.6678 165.42 48.8526 165.294 49.0739L159.232 59.7414L177.72 59.0048C177.97 58.9946 178.214 58.9221 178.429 58.794C178.644 58.6659 178.823 58.4862 178.951 58.2711L184.567 48.8882C184.621 48.7975 184.65 48.6939 184.651 48.5883C184.651 48.4827 184.624 48.3788 184.571 48.2874C184.518 48.196 184.441 48.1205 184.349 48.0686C184.257 48.0166 184.153 47.9903 184.048 47.9922V47.9922Z" fill="url(#paint27_linear_1200_1052)"/>
<path style="mix-blend-mode:multiply" d="M165.294 49.0761C165.419 48.8545 165.601 48.6695 165.819 48.5393C166.038 48.409 166.287 48.338 166.542 48.3331L166.926 48.326C166.983 48.8932 167.156 49.4078 167.502 49.8254C168.582 51.1283 170.374 50.3216 171.711 51.7032C173.179 53.2181 171.823 55.0208 173.136 56.4308C174.518 57.9146 176.752 56.7066 179.321 57.6558L178.951 58.274C178.823 58.4885 178.643 58.6676 178.428 58.7952C178.213 58.9228 177.97 58.9949 177.72 59.0048L159.232 59.7414L165.294 49.0761Z" fill="url(#paint28_linear_1200_1052)"/>
<path d="M150.86 56.8633L151.521 55.1166C149.084 54.4481 145.713 53.4606 142.255 52.225C141.714 52.0315 141.07 51.7919 140.859 51.2219C140.268 49.6234 144.027 47.9667 145.489 44.4768C146.84 41.2485 146.096 36.769 144.527 36.2394C141.266 35.1385 129.69 49.5447 133.823 55.6171C136.16 59.0509 143.364 59.5968 150.86 56.8633Z" fill="url(#paint29_linear_1200_1052)"/>
<path d="M151.521 55.1166C153.052 54.3035 154.884 55.1364 155.001 55.1924C155.494 55.4267 155.942 55.7472 156.322 56.1388C156.377 56.2154 157.041 57.1348 156.8 57.4297C156.605 57.6658 155.855 57.4701 154.957 56.9094C154.421 56.8337 153.879 56.8203 153.341 56.8697C152.103 56.9838 151.535 57.3751 151.085 57.037C150.756 56.7903 150.644 56.2671 150.762 55.8786C150.886 55.4611 151.263 55.2541 151.521 55.1166Z" fill="url(#paint30_linear_1200_1052)"/>
<path d="M82.438 98.1393V118.798C82.438 121.786 79.9399 124.201 76.842 124.186L65.3388 124.139L63.8196 124.134L58.4518 130.712C58.0449 131.029 57.0702 131.042 56.742 130.646L55.9459 129.594L51.7811 124.085H51.3962L40.8769 124.044C39.7427 124.038 38.7779 123.628 37.9705 122.943C36.8965 122.042 36.2783 120.662 36.2783 119.119V100.379C36.2783 97.6693 38.3199 95.3463 40.9478 95.1917L43.1787 95.0578L76.9044 93.0615C77.6971 93.0109 78.4913 93.1358 79.2303 93.4273C81.1471 94.1759 82.438 95.968 82.438 98.1393Z" fill="url(#paint31_linear_1200_1052)"/>
<path d="M81.6185 97.607V118.208C81.6185 121.186 79.0382 123.596 75.9601 123.589L65.0807 123.567L62.9399 123.562L57.5983 129.833C57.5092 129.94 57.3978 130.025 57.2719 130.084C57.1461 130.142 57.0088 130.172 56.87 130.172C56.7312 130.171 56.5943 130.14 56.4688 130.081C56.3434 130.021 56.2327 129.935 56.1444 129.828L55.9487 129.596L51.3948 124.083L50.9411 123.534L40.095 123.51C39.3386 123.509 38.5951 123.313 37.9357 122.943C36.4329 122.123 35.4546 120.487 35.4546 118.605V99.9151C35.4546 97.2107 37.5153 94.8912 40.1333 94.7331L42.6931 94.5772L75.9155 92.5533C77.1695 92.4767 78.3817 92.8071 79.3182 93.4273C80.6821 94.3262 81.6185 95.8425 81.6185 97.607Z" fill="url(#paint32_linear_1200_1052)"/>
<path d="M55.7142 112.536L57.5779 112.491C58.0975 112.479 58.5271 112.034 58.5541 111.512L59.2367 98.384C59.2448 98.2582 59.2248 98.1323 59.1782 98.0152C59.1316 97.8981 59.0596 97.7928 58.9674 97.707C58.7823 97.5241 58.525 97.4653 58.2585 97.4837L55.0493 97.7077C54.9186 97.7105 54.7899 97.7394 54.6706 97.7927C54.5512 97.8461 54.4438 97.9227 54.3546 98.0182C54.1761 98.2128 54.0823 98.4704 54.0937 98.7342L54.7572 111.623C54.767 111.87 54.8723 112.103 55.0509 112.273C55.2296 112.444 55.4675 112.538 55.7142 112.536V112.536Z" fill="white"/>
<path d="M58.5901 115.743C58.1251 115.298 57.4713 115.083 56.6286 115.097C55.761 115.111 55.1022 115.339 54.6522 115.782C54.2023 116.225 53.9781 116.87 53.9795 117.718C53.9795 118.538 54.2089 119.172 54.6678 119.622C55.1267 120.071 55.7803 120.297 56.6286 120.298C57.4599 120.298 58.1112 120.065 58.5824 119.598C59.0535 119.132 59.2898 118.491 59.2912 117.677C59.2908 116.833 59.0571 116.188 58.5901 115.743Z" fill="white"/>
<path style="mix-blend-mode:multiply" opacity="0.3" d="M65.36 124.141L63.8302 124.135L58.4575 130.713C58.0506 131.03 57.0723 131.043 56.7448 130.647L55.9473 129.596L51.3948 124.083L40.8762 124.042C39.7961 124.038 38.7532 123.647 37.9357 122.941C36.4329 122.122 35.4546 120.486 35.4546 118.604V99.9151C35.4546 97.2107 37.5153 94.8912 40.1333 94.7331L42.6931 94.5771C42.854 94.7303 43.0008 94.8884 43.1511 95.0578C44.8666 96.9456 46.0774 99.7294 45.8562 103.832C45.2033 116.033 53.3109 118.01 60.6367 120.297C62.9051 121.006 64.2634 122.226 65.0552 123.567C65.1672 123.756 65.2672 123.947 65.36 124.141Z" fill="url(#paint33_linear_1200_1052)"/>
<path d="M54.1176 142.028L55.1675 140.524L57.3112 139.642C57.3112 139.642 56.452 138.078 54.4714 139.245C53.8461 139.907 52.9827 141.451 52.0328 142.181C51.0828 142.911 54.1176 142.028 54.1176 142.028Z" fill="url(#paint34_linear_1200_1052)"/>
<path d="M46.3652 143.141C48.5564 140.742 51.1736 139.537 52.5631 139C52.9884 139.176 53.6427 139.52 54.0518 140.185C55.8382 143.081 50.2039 147.54 51.5706 150.393C52.4808 152.295 55.3441 151.059 59.0374 154.217C60.8097 155.731 60.9713 156.718 60.7544 157.453C60.4105 158.615 59.0431 159.398 58.6277 159.636C55.0123 161.702 47.5108 161.138 44.3441 156.557C41.6929 152.72 42.7725 147.074 46.3652 143.141Z" fill="url(#paint35_linear_1200_1052)"/>
<path d="M49.1889 226.262C49.1109 225.836 47.7335 225.448 47.0516 226.02C46.7127 226.303 46.4795 226.879 46.6751 227.138C46.746 227.233 46.4547 227.399 46.7347 227.403C47.6626 227.414 49.2683 226.685 49.1889 226.262Z" fill="url(#paint36_linear_1200_1052)"/>
<path d="M47.7447 226.417L46.3269 226.216C46.9833 225.426 46.8621 222.909 46.8621 222.909L48.3685 223.246C48.3685 223.246 48.197 223.936 47.9049 224.956C47.8057 225.305 47.761 225.854 47.7447 226.417Z" fill="url(#paint37_linear_1200_1052)"/>
<path d="M47.8702 226.242C47.8702 226.242 46.1646 225.849 45.9803 226.188C45.796 226.527 45.6521 227.432 46.7346 227.403C47.8171 227.374 47.9666 226.529 47.8702 226.242Z" fill="url(#paint38_linear_1200_1052)"/>
<path d="M68.6281 227.861C68.492 227.45 67.0735 227.26 66.478 227.921C66.1824 228.249 66.0321 228.852 66.2654 229.082C66.349 229.165 66.0832 229.37 66.3611 229.335C67.2784 229.216 68.7628 228.27 68.6281 227.861Z" fill="url(#paint39_linear_1200_1052)"/>
<path d="M67.2201 228.217H65.7888C66.3283 227.343 65.8555 224.868 65.8555 224.868L67.3945 224.99C67.3945 224.99 67.3236 225.699 67.1747 226.747C67.1244 227.106 67.157 227.654 67.2201 228.217Z" fill="url(#paint40_linear_1200_1052)"/>
<path d="M70.9284 174.108C71.9327 177.429 72.6744 180.824 73.1465 184.262C74.8847 196.904 71.1906 197.305 71.8804 211.317C72.1009 215.788 68.0063 226.101 67.6455 226.328C67.4571 226.348 67.2677 226.355 67.0783 226.35C66.5891 226.333 66.1041 226.252 65.6357 226.11C64.9871 225.998 62.6492 219.665 63.1908 215.902C63.5743 213.236 63.4637 210.372 63.2411 204.655C63.2049 203.729 60.8309 186.621 60.8309 186.621C60.1092 192.953 59.2798 198.333 58.5624 202.505C56.2514 215.903 48.7378 224.019 48.3458 224.149C48.2685 224.18 47.566 224.436 46.9868 224.056C46.8381 223.962 46.7189 223.828 46.643 223.669C46.4424 223.512 46.7026 210.289 48.9944 200.337C52.3206 185.893 50.8723 182.513 51.9264 176.061C52.8402 170.476 70.9284 174.108 70.9284 174.108Z" fill="url(#paint41_linear_1200_1052)"/>
<path d="M71.8181 176.289C69.8226 177.317 64.676 179.151 58.5462 178.24C56.2334 177.892 53.9961 177.155 51.9294 176.06C53.518 171.245 52.2704 168.667 51.6813 166.289C50.8441 162.903 50.8306 163.157 50.1373 160.468C48.9981 156.028 48.8102 151.489 49.5936 150.564C51.224 148.628 53.8675 148.135 55.8985 147.985C56.4968 147.941 57.0412 147.925 57.4928 147.914C58.6228 147.879 60.507 147.659 62.4551 147.787C64.3074 147.914 66.2122 148.354 67.5761 149.585C67.6236 149.626 67.0508 149.936 67.3344 150.263C68.0788 151.145 68.7393 152.094 69.3072 153.099C69.8992 154.152 70.4308 155.377 70.9689 157.205C71.6512 159.54 72.0895 161.939 72.2768 164.364C72.7858 171.079 72.2768 174.183 71.8181 176.289Z" fill="url(#paint42_linear_1200_1052)"/>
<path d="M67.3201 228.027C67.3201 228.027 65.5762 227.876 65.4408 228.239C65.3054 228.603 65.2906 229.515 66.3582 229.337C67.4258 229.158 67.4555 228.297 67.3201 228.027Z" fill="url(#paint43_linear_1200_1052)"/>
<path d="M58.9432 144.756C58.6299 144.569 58.3917 144.969 58.5391 145.323C58.6866 145.678 59.1821 145.895 59.4827 145.686C59.7832 145.477 59.3643 145.009 58.9432 144.756Z" fill="url(#paint44_linear_1200_1052)"/>
<path d="M62.8237 148.278C62.8237 148.886 61.245 149.379 59.2941 149.379C57.3432 149.379 55.7681 148.886 55.7681 148.278C55.7721 148.167 55.8189 148.062 55.8985 147.985C56.4968 147.941 57.0412 147.925 57.4928 147.914C58.6228 147.879 60.507 147.659 62.4551 147.787C62.6904 147.934 62.8237 148.103 62.8237 148.278Z" fill="url(#paint45_linear_1200_1052)"/>
<path d="M60.2424 147.805L59.6299 146.427C59.8086 146.251 60.9768 145.377 60.9527 144.388C60.9201 143.044 59.8518 142.019 59.6427 141.813C58.7651 140.951 58.5794 140.855 58.2561 140.757L57.8145 140.643H57.7648C57.5004 140.631 56.6802 140.855 56.5264 140.942C56.0351 141.215 56.1337 143.529 57.2232 146.509C57.2367 146.631 57.2516 146.753 57.2672 146.877C57.365 147.647 57.4962 148.382 57.6507 149.081C57.6507 149.081 59.6618 149.166 60.2424 147.805Z" fill="url(#paint46_linear_1200_1052)"/>
<path d="M59.136 140.184C59.4196 141.122 58.7908 141.527 58.615 141.756C58.5145 141.902 58.4382 142.062 58.3888 142.232C58.3769 142.273 58.3705 142.316 58.3697 142.359C58.3456 143.014 59.4997 143.423 59.399 143.741C59.3281 143.974 58.6086 143.913 58.5838 144.103C58.5604 144.281 59.1906 144.441 59.1665 144.652C59.1488 144.812 58.7823 144.784 58.6426 145.063C58.5717 145.205 58.6291 145.276 58.6213 145.641C58.6189 145.831 58.599 146.021 58.5618 146.208C58.4066 146.858 57.5495 147.342 57.3056 147.175C57.2348 147.129 57.2638 147.064 57.1504 146.874C57.0649 146.742 56.9618 146.623 56.8441 146.519C56.5606 146.262 56.0296 146.178 55.4646 145.986C54.4183 145.632 54.0235 145.178 53.8994 145.021C53.8547 144.966 53.825 144.923 53.803 144.892C53.3677 144.269 53.0551 143.253 53.1742 142.533C53.3734 141.328 54.7012 141.463 55.3441 140.131C55.7028 139.389 55.9183 138.61 56.7818 138.305C57.4538 138.067 58.0734 138.305 58.4746 138.878C58.7591 139.278 58.9821 139.718 59.136 140.184V140.184Z" fill="#26264F"/>
<path d="M58.9942 143.622C58.6674 143.377 58.3562 143.798 58.4775 144.208C58.5987 144.617 59.1275 144.917 59.4869 144.722C59.8463 144.527 59.4345 143.955 58.9942 143.622Z" fill="url(#paint47_linear_1200_1052)"/>
<path d="M61.9977 138.759L60.5445 137.863C60.5445 137.863 59.1976 137.253 57.7216 138.223C56.2457 139.194 56.8781 139.896 56.8781 139.896L57.9641 139.406C57.9641 139.406 58.6631 139.085 59.7462 139.564C60.9953 139.927 61.8658 139.837 61.8658 139.837L61.9977 138.759Z" fill="url(#paint48_linear_1200_1052)"/>
<path d="M68.7939 137.494C65.7145 136.458 62.8392 136.673 61.3661 136.877C61.0826 137.237 60.6742 137.855 60.6374 138.636C60.4793 142.035 67.5682 143.203 67.7568 146.363C67.8823 148.467 64.7794 148.773 63.0781 153.326C62.2629 155.51 62.5996 156.452 63.1454 156.989C64.0096 157.84 65.5855 157.861 66.0647 157.867C70.2273 157.923 76.5152 153.793 77.0646 148.25C77.5254 143.607 73.8434 139.192 68.7939 137.494Z" fill="url(#paint49_linear_1200_1052)"/>
<defs>
<linearGradient id="paint0_linear_1200_1052" x1="234.335" y1="151.443" x2="54.5462" y2="267.687" gradientUnits="userSpaceOnUse">
<stop stop-color="#E38DDD"/>
<stop offset="1" stop-color="#9571F6"/>
</linearGradient>
<linearGradient id="paint1_linear_1200_1052" x1="186.783" y1="93.983" x2="162.528" y2="224.826" gradientUnits="userSpaceOnUse">
<stop stop-color="#FF9085"/>
<stop offset="1" stop-color="#FB6FBB"/>
</linearGradient>
<linearGradient id="paint2_linear_1200_1052" x1="131.112" y1="320.708" x2="132.41" y2="155.941" gradientUnits="userSpaceOnUse">
<stop stop-color="#311944"/>
<stop offset="1" stop-color="#893976"/>
</linearGradient>
<linearGradient id="paint3_linear_1200_1052" x1="140.583" y1="192.717" x2="112.497" y2="271.231" gradientUnits="userSpaceOnUse">
<stop stop-color="#311944"/>
<stop offset="1" stop-color="#893976"/>
</linearGradient>
<linearGradient id="paint4_linear_1200_1052" x1="132.213" y1="117.307" x2="129.929" y2="303.988" gradientUnits="userSpaceOnUse">
<stop stop-color="#FFC444"/>
<stop offset="1" stop-color="#F36F56"/>
</linearGradient>
<linearGradient id="paint5_linear_1200_1052" x1="131.614" y1="102.651" x2="130.086" y2="227.584" gradientUnits="userSpaceOnUse">
<stop stop-color="#FFC444"/>
<stop offset="1" stop-color="#F36F56"/>
</linearGradient>
<linearGradient id="paint6_linear_1200_1052" x1="139.378" y1="25.4302" x2="126.511" y2="174.21" gradientUnits="userSpaceOnUse">
<stop stop-color="#FFC444"/>
<stop offset="1" stop-color="#F36F56"/>
</linearGradient>
<linearGradient id="paint7_linear_1200_1052" x1="131.803" y1="172.194" x2="131.803" y2="172.23" gradientUnits="userSpaceOnUse">
<stop stop-color="#FFC444"/>
<stop offset="1" stop-color="#F36F56"/>
</linearGradient>
<linearGradient id="paint8_linear_1200_1052" x1="132.857" y1="143.999" x2="129.887" y2="386.812" gradientUnits="userSpaceOnUse">
<stop stop-color="#FFC444"/>
<stop offset="1" stop-color="#F36F56"/>
</linearGradient>
<linearGradient id="paint9_linear_1200_1052" x1="136.123" y1="149.606" x2="129.656" y2="58.2548" gradientUnits="userSpaceOnUse">
<stop stop-color="#311944"/>
<stop offset="1" stop-color="#893976"/>
</linearGradient>
<linearGradient id="paint10_linear_1200_1052" x1="138.769" y1="48.2615" x2="112.881" y2="120.63" gradientUnits="userSpaceOnUse">
<stop stop-color="#311944"/>
<stop offset="1" stop-color="#893976"/>
</linearGradient>
<linearGradient id="paint11_linear_1200_1052" x1="132.357" y1="184.845" x2="130.999" y2="295.844" gradientUnits="userSpaceOnUse">
<stop stop-color="#FFC444"/>
<stop offset="1" stop-color="#F36F56"/>
</linearGradient>
<linearGradient id="paint12_linear_1200_1052" x1="160.594" y1="22.9852" x2="112.928" y2="55.3611" gradientUnits="userSpaceOnUse">
<stop stop-color="#311944"/>
<stop offset="1" stop-color="#6B3976"/>
</linearGradient>
<linearGradient id="paint13_linear_1200_1052" x1="163.592" y1="7.29947" x2="164.602" y2="135.156" gradientUnits="userSpaceOnUse">
<stop stop-color="#FF9085"/>
<stop offset="1" stop-color="#FB6FBB"/>
</linearGradient>
<linearGradient id="paint14_linear_1200_1052" x1="180.474" y1="98.2134" x2="174.659" y2="94.2905" gradientUnits="userSpaceOnUse">
<stop stop-color="#311944"/>
<stop offset="1" stop-color="#6B3976"/>
</linearGradient>
<linearGradient id="paint15_linear_1200_1052" x1="178.735" y1="99.3254" x2="167.304" y2="65.0326" gradientUnits="userSpaceOnUse">
<stop stop-color="#FFC444"/>
<stop offset="1" stop-color="#F36F56"/>
</linearGradient>
<linearGradient id="paint16_linear_1200_1052" x1="180.652" y1="83.578" x2="176.726" y2="83.578" gradientUnits="userSpaceOnUse">
<stop stop-color="#311944"/>
<stop offset="1" stop-color="#6B3976"/>
</linearGradient>
<linearGradient id="paint17_linear_1200_1052" x1="182.927" y1="94.3574" x2="176.517" y2="75.1258" gradientUnits="userSpaceOnUse">
<stop stop-color="#FFC444"/>
<stop offset="1" stop-color="#F36F56"/>
</linearGradient>
<linearGradient id="paint18_linear_1200_1052" x1="633.224" y1="330.192" x2="601.989" y2="312.508" gradientUnits="userSpaceOnUse">
<stop stop-color="#E38DDD"/>
<stop offset="1" stop-color="#9571F6"/>
</linearGradient>
<linearGradient id="paint19_linear_1200_1052" x1="156.095" y1="51.9186" x2="164.133" y2="86.1398" gradientUnits="userSpaceOnUse">
<stop stop-color="#E38DDD"/>
<stop offset="1" stop-color="#9571F6"/>
</linearGradient>
<linearGradient id="paint20_linear_1200_1052" x1="168.275" y1="94.7176" x2="161.476" y2="73.2012" gradientUnits="userSpaceOnUse">
<stop stop-color="#E38DDD"/>
<stop offset="1" stop-color="#9571F6"/>
</linearGradient>
<linearGradient id="paint21_linear_1200_1052" x1="631.497" y1="333.242" x2="600.262" y2="315.557" gradientUnits="userSpaceOnUse">
<stop stop-color="#E38DDD"/>
<stop offset="1" stop-color="#9571F6"/>
</linearGradient>
<linearGradient id="paint22_linear_1200_1052" x1="151.063" y1="7.33142" x2="152.063" y2="133.82" gradientUnits="userSpaceOnUse">
<stop stop-color="#FF9085"/>
<stop offset="1" stop-color="#FB6FBB"/>
</linearGradient>
<linearGradient id="paint23_linear_1200_1052" x1="150.452" y1="40.3891" x2="152.879" y2="29.3804" gradientUnits="userSpaceOnUse">
<stop stop-color="#FFC444"/>
<stop offset="1" stop-color="#F36F56"/>
</linearGradient>
<linearGradient id="paint24_linear_1200_1052" x1="152.097" y1="30.5802" x2="149.315" y2="44.8992" gradientUnits="userSpaceOnUse">
<stop stop-color="#FFC444"/>
<stop offset="1" stop-color="#F36F56"/>
</linearGradient>
<linearGradient id="paint25_linear_1200_1052" x1="138.604" y1="58.279" x2="164.386" y2="58.279" gradientUnits="userSpaceOnUse">
<stop stop-color="#FF9085"/>
<stop offset="1" stop-color="#FB6FBB"/>
</linearGradient>
<linearGradient id="paint26_linear_1200_1052" x1="166.877" y1="58.8064" x2="148.357" y2="58.8064" gradientUnits="userSpaceOnUse">
<stop stop-color="#444B8C"/>
<stop offset="1" stop-color="#3E4177"/>
</linearGradient>
<linearGradient id="paint27_linear_1200_1052" x1="184.653" y1="53.8675" x2="159.232" y2="53.8675" gradientUnits="userSpaceOnUse">
<stop stop-color="#444B8C"/>
<stop offset="1" stop-color="#3E4177"/>
</linearGradient>
<linearGradient id="paint28_linear_1200_1052" x1="179.321" y1="54.0334" x2="159.232" y2="54.0334" gradientUnits="userSpaceOnUse">
<stop stop-color="#444B8C"/>
<stop offset="1" stop-color="#3E4177"/>
</linearGradient>
<linearGradient id="paint29_linear_1200_1052" x1="141.865" y1="7.40441" x2="142.866" y2="133.893" gradientUnits="userSpaceOnUse">
<stop stop-color="#FF9085"/>
<stop offset="1" stop-color="#FB6FBB"/>
</linearGradient>
<linearGradient id="paint30_linear_1200_1052" x1="155.278" y1="55.1541" x2="149.122" y2="60.9557" gradientUnits="userSpaceOnUse">
<stop stop-color="#FFC444"/>
<stop offset="1" stop-color="#F36F56"/>
</linearGradient>
<linearGradient id="paint31_linear_1200_1052" x1="48.4203" y1="91.0717" x2="66.8714" y2="120.735" gradientUnits="userSpaceOnUse">
<stop stop-color="#311944"/>
<stop offset="1" stop-color="#893976"/>
</linearGradient>
<linearGradient id="paint32_linear_1200_1052" x1="47.6228" y1="90.6024" x2="66.0108" y2="120.165" gradientUnits="userSpaceOnUse">
<stop stop-color="#FF9085"/>
<stop offset="1" stop-color="#FB6FBB"/>
</linearGradient>
<linearGradient id="paint33_linear_1200_1052" x1="35.4695" y1="98.0536" x2="52.1866" y2="124.931" gradientUnits="userSpaceOnUse">
<stop stop-color="#FF9085"/>
<stop offset="1" stop-color="#FB6FBB"/>
</linearGradient>
<linearGradient id="paint34_linear_1200_1052" x1="54.8696" y1="141.673" x2="50.1922" y2="147.3" gradientUnits="userSpaceOnUse">
<stop stop-color="#FFC444"/>
<stop offset="1" stop-color="#F36F56"/>
</linearGradient>
<linearGradient id="paint35_linear_1200_1052" x1="57.3339" y1="83.1513" x2="50.3322" y2="173.753" gradientUnits="userSpaceOnUse">
<stop stop-color="#E38DDD"/>
<stop offset="1" stop-color="#9571F6"/>
</linearGradient>
<linearGradient id="paint36_linear_1200_1052" x1="49.9678" y1="224.986" x2="46.9347" y2="227.001" gradientUnits="userSpaceOnUse">
<stop stop-color="#444B8C"/>
<stop offset="1" stop-color="#26264F"/>
</linearGradient>
<linearGradient id="paint37_linear_1200_1052" x1="47.0193" y1="227.02" x2="47.683" y2="222.327" gradientUnits="userSpaceOnUse">
<stop stop-color="#FFC444"/>
<stop offset="1" stop-color="#F36F56"/>
</linearGradient>
<linearGradient id="paint38_linear_1200_1052" x1="49.7398" y1="224.643" x2="46.7068" y2="226.658" gradientUnits="userSpaceOnUse">
<stop stop-color="#444B8C"/>
<stop offset="1" stop-color="#26264F"/>
</linearGradient>
<linearGradient id="paint39_linear_1200_1052" x1="69.213" y1="226.535" x2="66.4915" y2="228.955" gradientUnits="userSpaceOnUse">
<stop stop-color="#444B8C"/>
<stop offset="1" stop-color="#26264F"/>
</linearGradient>
<linearGradient id="paint40_linear_1200_1052" x1="66.592" y1="228.96" x2="66.592" y2="224.22" gradientUnits="userSpaceOnUse">
<stop stop-color="#FFC444"/>
<stop offset="1" stop-color="#F36F56"/>
</linearGradient>
<linearGradient id="paint41_linear_1200_1052" x1="66.8153" y1="231.134" x2="49.0717" y2="159.493" gradientUnits="userSpaceOnUse">
<stop stop-color="#444B8C"/>
<stop offset="1" stop-color="#26264F"/>
</linearGradient>
<linearGradient id="paint42_linear_1200_1052" x1="66.9211" y1="82.7174" x2="59.9193" y2="173.319" gradientUnits="userSpaceOnUse">
<stop stop-color="#E38DDD"/>
<stop offset="1" stop-color="#9571F6"/>
</linearGradient>
<linearGradient id="paint43_linear_1200_1052" x1="68.9392" y1="226.228" x2="66.2185" y2="228.648" gradientUnits="userSpaceOnUse">
<stop stop-color="#444B8C"/>
<stop offset="1" stop-color="#26264F"/>
</linearGradient>
<linearGradient id="paint44_linear_1200_1052" x1="58.0423" y1="143.348" x2="60.2195" y2="150.118" gradientUnits="userSpaceOnUse">
<stop stop-color="#FFC444"/>
<stop offset="1" stop-color="#F36F56"/>
</linearGradient>
<linearGradient id="paint45_linear_1200_1052" x1="58.4293" y1="140.463" x2="61.9801" y2="172.49" gradientUnits="userSpaceOnUse">
<stop stop-color="#FFC444"/>
<stop offset="1" stop-color="#F36F56"/>
</linearGradient>
<linearGradient id="paint46_linear_1200_1052" x1="58.2816" y1="140.479" x2="61.8325" y2="172.506" gradientUnits="userSpaceOnUse">
<stop stop-color="#FFC444"/>
<stop offset="1" stop-color="#F36F56"/>
</linearGradient>
<linearGradient id="paint47_linear_1200_1052" x1="58.6129" y1="140.442" x2="62.1637" y2="172.47" gradientUnits="userSpaceOnUse">
<stop stop-color="#FFC444"/>
<stop offset="1" stop-color="#F36F56"/>
</linearGradient>
<linearGradient id="paint48_linear_1200_1052" x1="57.5662" y1="139.01" x2="61.8297" y2="140.203" gradientUnits="userSpaceOnUse">
<stop stop-color="#FFC444"/>
<stop offset="1" stop-color="#F36F56"/>
</linearGradient>
<linearGradient id="paint49_linear_1200_1052" x1="73.5052" y1="83.2263" x2="66.5035" y2="173.828" gradientUnits="userSpaceOnUse">
<stop stop-color="#E38DDD"/>
<stop offset="1" stop-color="#9571F6"/>
</linearGradient>
</defs>
</svg>
