<svg width="640" height="400" viewBox="0 0 640 400" fill="none" xmlns="http://www.w3.org/2000/svg">
<g clip-path="url(#clip0_1504_1554)">
<path d="M283.724 351.2H94.0159L118.609 290.784L131.601 283.667L152.055 236.414L168.592 226.709L184.322 198.283H199.84L234.336 256.482L251.892 265.54L283.724 351.2Z" fill="#EBEBEB"/>
<path d="M94.0159 351.2H175.841V304.053L196.836 271.045L186.837 236.414L199.84 198.283H184.322L168.592 226.709L152.055 236.414L131.601 283.667L118.609 290.784L94.0159 351.2Z" fill="#DBDBDB"/>
<path d="M199.84 351.2L207.769 326.38L220.591 313.758L226.322 298.877L230.313 302.112V316.346L220.591 327.674V351.295L199.84 351.2Z" fill="#DBDBDB"/>
<path d="M215.082 274.747L217.205 264.787L222.926 259.07L225.601 262.464L222.034 266.908L223.637 276.38L215.082 274.747Z" fill="#DBDBDB"/>
<path d="M270.074 351.158H547.584L495.224 241.876L470.036 231.089L443.299 178.883L425.669 159.939L410.13 125.372L391.937 128.32L360.826 200.743L343.451 213.694L315.238 288.281L287.45 315.264L270.074 351.158Z" fill="#EBEBEB"/>
<path d="M410.13 125.372L412.263 179.827L391.777 208.423L401.383 230.315L382.363 278.576L398.942 318.499L389.124 351.158H270.074L287.45 315.264L315.238 288.281L343.451 213.694L360.826 200.743L391.937 128.32L410.13 125.372Z" fill="#DBDBDB"/>
<path d="M405.013 264.543L419.3 239.723L418.186 229.201L423.503 221.649L429.946 243.096L410.618 264.543H405.013Z" fill="#DBDBDB"/>
<path d="M393.805 82.0962L394.813 84.1433L397.085 84.4721L395.45 86.0738L395.832 88.333L393.805 87.2617L391.777 88.333L392.159 86.0738L390.525 84.4721L392.786 84.1433L393.805 82.0962Z" fill="#DBDBDB"/>
<path d="M203.268 184.748L204.287 186.806L206.548 187.135L204.914 188.736L205.296 190.985L203.268 189.924L201.241 190.985L201.634 188.736L199.989 187.135L202.26 186.806L203.268 184.748Z" fill="#DBDBDB"/>
<path d="M467.988 6.85196L469.007 8.89906L471.278 9.22787L469.633 10.8295L470.015 13.0781L467.988 12.0174L465.96 13.0781L466.353 10.8295L464.708 9.22787L466.979 8.89906L467.988 6.85196Z" fill="#DBDBDB"/>
<path d="M240.323 9.95975L241.342 12.0175L243.603 12.3463L241.968 13.9479L242.35 16.1965L240.323 15.1358L238.295 16.1965L238.688 13.9479L237.043 12.3463L239.314 12.0175L240.323 9.95975Z" fill="#DBDBDB"/>
<path d="M528.999 178.522L530.018 180.569L532.289 180.898L530.644 182.5L531.036 184.748L528.999 183.688L526.982 184.748L527.364 182.5L525.719 180.898L527.99 180.569L528.999 178.522Z" fill="#DBDBDB"/>
<path d="M305.632 78.5642L306.64 80.6219L308.912 80.9507L307.267 82.5417L307.659 84.8009L305.632 83.7403L303.605 84.8009L303.987 82.5417L302.352 80.9507L304.613 80.6219L305.632 78.5642Z" fill="#DBDBDB"/>
<path d="M103.675 36.2857L104.683 38.3434L106.955 38.6722L105.31 40.2738L105.702 42.5224L103.675 41.4618L101.648 42.5224L102.03 40.2738L100.385 38.6722L102.656 38.3434L103.675 36.2857Z" fill="#DBDBDB"/>
<path d="M147.416 158.857L148.425 160.904L150.696 161.233L149.051 162.835L149.444 165.094L147.416 164.023L145.389 165.094L145.771 162.835L144.136 161.233L146.397 160.904L147.416 158.857Z" fill="#DBDBDB"/>
<path d="M103.675 193.796L104.301 195.069L105.702 195.27L104.683 196.257L104.927 197.646L103.675 196.988L102.412 197.646L102.656 196.257L101.647 195.27L103.049 195.069L103.675 193.796Z" fill="#DBDBDB"/>
<path d="M246.214 65.0193L246.84 66.2922L248.241 66.4937L247.222 67.4801L247.466 68.8696L246.214 68.212L244.961 68.8696L245.195 67.4801L244.176 66.4937L245.587 66.2922L246.214 65.0193Z" fill="#DBDBDB"/>
<path d="M351.518 177.78L352.144 179.052L353.545 179.254L352.537 180.24L352.77 181.641L351.518 180.972L350.265 181.641L350.509 180.24L349.49 179.254L350.891 179.052L351.518 177.78Z" fill="#DBDBDB"/>
<path d="M114.682 47.2849L115.308 48.5577L116.709 48.7592L115.69 49.7456L115.934 51.1457L114.682 50.4881L113.429 51.1457L113.663 49.7456L112.655 48.7592L114.056 48.5577L114.682 47.2849Z" fill="#DBDBDB"/>
<path d="M471.278 160.045L471.894 161.318L473.295 161.52L472.287 162.506L472.531 163.906L471.278 163.238L470.015 163.906L470.259 162.506L469.24 161.52L470.641 161.318L471.278 160.045Z" fill="#DBDBDB"/>
<path d="M155.876 219.719L156.502 220.992L157.903 221.193L156.895 222.18L157.128 223.569L155.876 222.911L154.623 223.569L154.867 222.18L153.848 221.193L155.249 220.992L155.876 219.719Z" fill="#DBDBDB"/>
<path d="M131.548 152.016L132.174 153.278L133.575 153.49L132.567 154.477L132.8 155.866L131.548 155.209L130.295 155.866L130.539 154.477L129.521 153.49L130.922 153.278L131.548 152.016Z" fill="#DBDBDB"/>
<path d="M337.231 55.1869L337.857 56.4597L339.258 56.6612L338.239 57.6477L338.483 59.0477L337.231 58.3901L335.978 59.0477L336.212 57.6477L335.204 56.6612L336.605 56.4597L337.231 55.1869Z" fill="#DBDBDB"/>
<path d="M476.235 219.719L476.861 220.992L478.262 221.193L477.254 222.18L477.488 223.569L476.235 222.911L474.983 223.569L475.216 222.18L474.208 221.193L475.609 220.992L476.235 219.719Z" fill="#DBDBDB"/>
<path d="M539.188 98.6427L539.814 99.9155L541.216 100.117L540.197 101.103L540.441 102.504L539.188 101.846L537.936 102.504L538.169 101.103L537.161 100.117L538.562 99.9155L539.188 98.6427Z" fill="#DBDBDB"/>
<path d="M483.856 96.7229L484.482 97.9851L485.883 98.1867L484.864 99.1731L485.108 100.573L483.856 99.9156L482.603 100.573L482.837 99.1731L481.829 98.1867L483.23 97.9851L483.856 96.7229Z" fill="#DBDBDB"/>
<path d="M443.235 41.133C440.925 45.1614 437.646 48.5509 433.696 50.9951C429.745 53.4392 425.247 54.861 420.609 55.1318C415.971 55.4025 411.338 54.5138 407.129 52.546C402.921 50.5781 399.27 47.5932 396.505 43.861C393.741 40.1288 391.952 35.7671 391.298 31.1702C390.645 26.5732 391.148 21.886 392.763 17.5323C394.378 13.1786 397.053 9.29564 400.546 6.23453C404.04 3.17343 408.242 1.03068 412.772 0C409.242 1.62557 406.119 4.01701 403.63 7.00037C401.141 9.98372 399.349 13.484 398.383 17.2465C397.418 21.009 397.304 24.9392 398.05 28.7513C398.796 32.5633 400.383 36.1612 402.695 39.2834C405.008 42.4055 407.987 44.9734 411.417 46.8002C414.848 48.627 418.642 49.6668 422.525 49.844C426.408 50.0211 430.281 49.3312 433.864 47.8243C437.447 46.3175 440.648 44.0316 443.235 41.133V41.133Z" fill="#DBDBDB"/>
<path d="M93.8142 351.2C239.229 350.542 402.37 350.542 547.786 351.2C402.37 351.847 239.229 351.847 93.8142 351.2V351.2Z" fill="#263238"/>
<path d="M553.645 360.704H87.9551C86.694 360.704 85.4845 360.203 84.5927 359.312C83.701 358.421 83.2 357.212 83.2 355.952V355.952C83.1986 355.327 83.3206 354.709 83.5591 354.132C83.7976 353.555 84.1478 353.03 84.5896 352.589C85.0314 352.147 85.5562 351.797 86.1338 351.559C86.7113 351.321 87.3303 351.199 87.9551 351.2H553.645C554.906 351.2 556.115 351.701 557.007 352.592C557.899 353.483 558.4 354.692 558.4 355.952V355.952C558.397 357.211 557.895 358.418 557.004 359.309C556.113 360.199 554.905 360.701 553.645 360.704V360.704Z" fill="#455A64"/>
<path d="M458.944 370.101H165.386C162.76 370.101 160.631 372.229 160.631 374.853C160.631 377.477 162.76 379.605 165.386 379.605H458.944C461.571 379.605 463.7 377.477 463.7 374.853C463.7 372.229 461.571 370.101 458.944 370.101Z" fill="#455A64"/>
<path d="M432.579 398.4H218.712C218.087 398.401 217.468 398.279 216.891 398.041C216.313 397.803 215.788 397.453 215.346 397.011C214.905 396.57 214.554 396.045 214.316 395.468C214.077 394.891 213.955 394.273 213.957 393.648V393.648C213.957 392.388 214.458 391.179 215.35 390.288C216.241 389.397 217.451 388.896 218.712 388.896H432.579C433.203 388.896 433.821 389.019 434.398 389.258C434.975 389.497 435.499 389.847 435.941 390.288C436.383 390.729 436.733 391.253 436.972 391.83C437.211 392.406 437.334 393.024 437.334 393.648V393.648C437.335 394.273 437.213 394.891 436.975 395.468C436.736 396.045 436.386 396.57 435.944 397.011C435.502 397.453 434.977 397.803 434.4 398.041C433.822 398.279 433.203 398.401 432.579 398.4V398.4Z" fill="#455A64"/>
<path d="M145.569 370.101H123.226C120.6 370.101 118.471 372.229 118.471 374.853C118.471 377.477 120.6 379.605 123.226 379.605H145.569C148.196 379.605 150.325 377.477 150.325 374.853C150.325 372.229 148.196 370.101 145.569 370.101Z" fill="#455A64"/>
<path d="M469.537 398.4H458.361C457.736 398.4 457.118 398.277 456.541 398.038C455.964 397.799 455.44 397.449 454.998 397.008C454.557 396.567 454.206 396.043 453.967 395.467C453.728 394.89 453.605 394.272 453.605 393.648V393.648C453.608 392.389 454.11 391.182 455.001 390.291C455.893 389.401 457.1 388.899 458.361 388.896H469.537C470.798 388.899 472.006 389.401 472.897 390.291C473.788 391.182 474.29 392.389 474.293 393.648V393.648C474.293 394.272 474.17 394.89 473.931 395.467C473.692 396.043 473.341 396.567 472.9 397.008C472.458 397.449 471.934 397.799 471.357 398.038C470.78 398.277 470.162 398.4 469.537 398.4V398.4Z" fill="#455A64"/>
<path d="M303.265 370.197H180.257C181.523 370.197 182.738 369.694 183.634 368.799C184.53 367.904 185.033 366.69 185.033 365.424C185.033 364.158 184.53 362.944 183.634 362.049C182.738 361.153 181.523 360.651 180.257 360.651H303.265C301.998 360.651 300.783 361.153 299.888 362.049C298.992 362.944 298.489 364.158 298.489 365.424C298.489 366.69 298.992 367.904 299.888 368.799C300.783 369.694 301.998 370.197 303.265 370.197Z" fill="#455A64"/>
<path d="M431.008 370.197H350.339C351.606 370.197 352.821 369.694 353.717 368.799C354.613 367.904 355.116 366.69 355.116 365.424C355.116 364.158 354.613 362.944 353.717 362.049C352.821 361.153 351.606 360.651 350.339 360.651H431.008C429.741 360.651 428.526 361.153 427.63 362.049C426.734 362.944 426.231 364.158 426.231 365.424C426.231 366.69 426.734 367.904 427.63 368.799C428.526 369.694 429.741 370.197 431.008 370.197Z" fill="#455A64"/>
<path d="M369.986 389.002H246.214C247.48 389.002 248.695 388.5 249.591 387.604C250.487 386.709 250.99 385.495 250.99 384.229C250.99 382.964 250.487 381.749 249.591 380.854C248.695 379.959 247.48 379.456 246.214 379.456H369.986C368.72 379.456 367.505 379.959 366.609 380.854C365.713 381.749 365.21 382.964 365.21 384.229C365.21 385.495 365.713 386.709 366.609 387.604C367.505 388.5 368.72 389.002 369.986 389.002Z" fill="#455A64"/>
<path d="M125.636 351.115H421.784L367.726 217.937L341.721 204.784L314.124 141.165L295.92 118.064L279.871 75.9443L261.084 79.5294L228.965 167.799L211.038 183.582L172.264 274.492L143.574 307.362L125.636 351.115Z" fill="#455A64"/>
<path d="M279.871 75.9443L282.069 142.311L260.925 177.164L270.839 203.84L251.202 262.655L268.323 311.308L258.187 351.115H125.636L143.574 307.362L172.264 274.492L211.038 183.582L228.965 167.799L261.084 79.5294L279.871 75.9443Z" fill="#37474F"/>
<path d="M274.585 245.557L289.339 215.306L288.182 202.483L293.68 193.276L300.336 219.411L280.37 245.557H274.585Z" fill="#37474F"/>
<path d="M515.964 351.136H296.684L325.651 280.039L346.115 263.62L367.227 202.409L384.305 189.829L400.534 153.002H416.562L452.183 228.406L470.302 240.147L515.964 351.136Z" fill="#37474F"/>
<path d="M296.684 351.136H391.788V290.041L413.462 247.275L403.135 202.409L416.562 153.002H400.534L384.305 189.829L367.227 202.409L346.115 263.62L325.651 280.039L296.684 351.136Z" fill="#263238"/>
<path d="M416.562 351.136L424.745 318.977L437.992 302.621L443.893 283.327L448.022 287.528V305.973L437.992 320.653V351.253L416.562 351.136Z" fill="#263238"/>
<path d="M432.292 252.069L434.489 239.161L440.391 231.757L443.161 236.159L439.467 241.908L441.134 254.191L432.292 252.069Z" fill="#263238"/>
<path d="M138.957 350.871C137.747 352.091 123.566 352.632 118.408 352.632C113.249 352.632 99.0684 352.091 97.9008 350.871C96.7332 349.651 113.822 255.41 118.461 255.41C123.099 255.41 140.177 349.651 138.957 350.871Z" fill="#263238"/>
<path d="M139.296 326.868C135.794 328.205 122.812 333.487 120.01 335.025C120.01 334.431 120.01 333.847 120.01 333.253C123.141 331.408 126.294 329.594 129.425 327.759C132.888 325.952 136.251 323.959 139.498 321.787C139.647 321.671 139.562 321.363 139.349 321.448C135.928 323.046 132.62 324.875 129.446 326.921C126.262 328.788 123.078 330.718 119.947 332.659C119.947 328.141 119.929 323.626 119.894 319.115C125.011 316.994 129.957 314.483 134.69 311.605C134.849 311.51 134.69 311.213 134.552 311.287C129.487 313.321 124.583 315.735 119.883 318.51C119.883 316.166 119.883 313.811 119.883 311.467C119.745 299.375 119.724 287.284 119.416 275.192C122.494 273.643 125.668 272.275 128.746 270.716C128.947 270.61 128.746 270.26 128.587 270.345C125.466 271.554 122.462 273.007 119.395 274.343C119.225 268.107 118.991 261.881 118.609 255.644C118.609 255.602 118.592 255.561 118.563 255.531C118.533 255.501 118.492 255.485 118.45 255.485C118.408 255.485 118.367 255.501 118.337 255.531C118.308 255.561 118.291 255.602 118.291 255.644C117.856 267.226 117.887 278.82 118.036 290.413C114.852 287.867 111.445 285.618 108.207 283.147C108.08 283.052 107.952 283.264 108.08 283.359C111.476 285.937 114.65 288.801 118.047 291.367V293.33C114.586 291.749 111.073 290.285 107.581 288.79C107.305 288.673 107.061 289.066 107.347 289.193C110.903 290.901 114.448 292.64 118.057 294.252C118.132 299.991 118.238 305.729 118.312 311.467C118.439 321.49 118.662 331.514 118.875 341.537C112.35 338.242 105.777 335.032 99.1533 331.906C98.8985 331.79 98.6756 332.14 98.9304 332.288C105.396 335.984 112.057 339.326 118.885 342.301C119.066 350.627 119.235 343.054 119.342 351.38C119.357 351.475 119.406 351.56 119.478 351.622C119.551 351.684 119.644 351.718 119.74 351.718C119.835 351.718 119.928 351.684 120.001 351.622C120.074 351.56 120.122 351.475 120.138 351.38C120.021 340.774 120 346.077 119.968 335.47C123.407 334.622 136.409 329.053 139.498 327.526C139.806 327.292 139.583 326.741 139.296 326.868Z" fill="#37474F"/>
<path d="M245.089 350.797C244.027 351.858 231.874 352.303 227.448 352.303C223.022 352.303 210.847 351.836 209.807 350.797C208.767 349.757 223.499 268.913 227.448 268.913C231.396 268.913 246.129 349.747 245.089 350.797Z" fill="#263238"/>
<path d="M245.333 330.199C242.329 331.344 231.184 335.873 228.785 337.199C228.785 336.69 228.785 336.138 228.785 335.672C231.47 334.091 234.166 332.49 236.862 330.962C239.852 329.4 242.754 327.675 245.556 325.797C245.693 325.701 245.619 325.436 245.439 325.51C242.505 326.883 239.668 328.453 236.947 330.209C234.209 331.811 231.502 333.465 228.806 335.131C228.806 331.259 228.806 327.377 228.753 323.463C233.16 321.647 237.418 319.491 241.49 317.014C241.628 316.94 241.49 316.675 241.373 316.749C237.031 318.496 232.827 320.567 228.796 322.944C228.796 320.928 228.796 318.913 228.796 316.898C228.679 306.524 228.658 296.14 228.392 285.767C231.035 284.441 233.763 283.264 236.395 281.927C236.576 281.842 236.395 281.535 236.268 281.609C233.583 282.67 230.961 283.89 228.371 285.046C228.233 279.742 228.031 274.344 227.702 268.998C227.702 268.961 227.688 268.926 227.662 268.9C227.636 268.874 227.601 268.86 227.564 268.86C227.528 268.86 227.493 268.874 227.467 268.9C227.441 268.926 227.426 268.961 227.426 268.998C227.055 278.936 227.087 288.885 227.214 298.824C224.476 296.65 221.557 294.719 218.776 292.598C218.67 292.513 218.563 292.704 218.67 292.778C221.578 294.995 224.306 297.445 227.225 299.651C227.225 300.213 227.225 300.776 227.225 301.338C224.253 299.98 221.249 298.718 218.245 297.434C218.012 297.339 217.799 297.678 218.043 297.784C221.1 299.259 224.136 300.744 227.235 302.123C227.299 307.055 227.384 311.976 227.448 316.898C227.564 325.5 227.755 334.102 227.936 342.704C222.332 339.876 216.692 337.121 211.017 334.441C210.794 334.346 210.603 334.643 210.826 334.77C216.371 337.945 222.086 340.814 227.946 343.362C228.106 350.511 228.254 345.112 228.339 352.261C228.339 352.351 228.375 352.437 228.439 352.501C228.502 352.564 228.589 352.6 228.679 352.6C228.769 352.6 228.855 352.564 228.919 352.501C228.983 352.437 229.019 352.351 229.019 352.261C228.912 343.149 228.902 346.575 228.881 337.464C231.831 336.732 242.987 331.959 245.64 330.644C245.81 330.559 245.619 330.082 245.333 330.199Z" fill="#37474F"/>
<path d="M130.125 351.221C131.006 352.102 141.249 352.494 144.985 352.494C148.722 352.494 158.964 352.102 159.845 351.221C160.726 350.341 148.318 282.277 144.985 282.277C141.653 282.277 129.244 350.341 130.125 351.221Z" fill="#263238"/>
<path d="M129.913 333.869C132.45 334.834 141.833 338.652 143.86 339.766V338.493C141.6 337.157 139.328 335.841 137.057 334.526C134.543 333.203 132.098 331.751 129.733 330.177C129.627 330.093 129.733 329.859 129.839 329.923C132.312 331.082 134.705 332.404 137.004 333.879C139.307 335.237 141.589 336.626 143.86 338.026C143.86 334.77 143.86 331.503 143.86 328.247C140.182 326.716 136.623 324.912 133.214 322.848C133.098 322.774 133.214 322.562 133.31 322.615C136.974 324.085 140.522 325.83 143.924 327.833C143.924 326.136 143.924 324.439 143.924 322.742C144.02 314.013 144.03 305.262 144.253 296.533C142.035 295.408 139.742 294.411 137.524 293.298C137.375 293.224 137.524 292.969 137.63 293.022C139.891 293.902 142.056 294.952 144.274 295.918C144.395 291.413 144.582 286.909 144.837 282.405C144.837 282.374 144.849 282.344 144.871 282.322C144.893 282.3 144.923 282.288 144.954 282.288C144.985 282.288 145.014 282.3 145.036 282.322C145.058 282.344 145.07 282.374 145.07 282.405C145.389 290.773 145.357 299.153 145.251 307.532C147.554 305.686 150.017 304.064 152.362 302.282C152.447 302.207 152.543 302.367 152.447 302.43C149.995 304.297 147.703 306.365 145.251 308.221C145.251 308.699 145.251 309.165 145.251 309.643C147.745 308.497 150.282 307.437 152.808 306.355C153.01 306.27 153.18 306.556 152.978 306.652C150.409 307.882 147.841 309.144 145.24 310.3C145.177 314.448 145.113 318.605 145.06 322.742C144.964 329.986 144.805 337.231 144.646 344.475C149.359 342.089 154.124 339.766 158.901 337.517C159.081 337.432 159.24 337.687 159.06 337.793C154.377 340.458 149.551 342.862 144.603 344.995C144.476 351.02 144.349 346.331 144.274 352.356C144.262 352.421 144.227 352.48 144.175 352.522C144.124 352.565 144.06 352.588 143.993 352.588C143.927 352.588 143.862 352.565 143.811 352.522C143.76 352.48 143.725 352.421 143.712 352.356C143.786 344.677 143.807 347.7 143.829 340.031C139.033 338.374 134.331 336.459 129.743 334.293C129.51 334.176 129.669 333.784 129.913 333.869Z" fill="#455A64"/>
<path d="M506.305 350.659C505.18 351.783 492.093 352.282 487.338 352.282C482.582 352.282 469.484 351.783 468.359 350.659C467.234 349.535 483.092 262.623 487.338 262.623C491.583 262.623 507.43 349.535 506.305 350.659Z" fill="#263238"/>
<path d="M506.549 328.502C503.365 329.732 491.339 334.611 488.749 336.032C488.749 335.491 488.749 334.972 488.749 334.399L497.442 329.329C500.657 327.649 503.779 325.797 506.794 323.782C506.931 323.676 506.857 323.389 506.656 323.463C503.499 324.945 500.442 326.632 497.506 328.512C494.566 330.241 491.658 332.023 488.749 333.816C488.749 329.647 488.749 325.479 488.696 321.31C493.422 319.35 497.989 317.027 502.357 314.363C502.505 314.267 502.41 313.992 502.24 314.066C497.568 315.942 493.044 318.169 488.707 320.727C488.707 318.605 488.707 316.399 488.654 314.235C488.537 303.077 488.516 291.961 488.229 280.75C491.074 279.318 494.003 278.056 496.837 276.624C497.018 276.529 496.837 276.2 496.689 276.274C493.812 277.398 491.042 278.735 488.197 279.976C488.049 274.216 487.826 268.467 487.476 262.719C487.476 262.679 487.46 262.641 487.432 262.614C487.404 262.586 487.366 262.57 487.327 262.57C487.288 262.57 487.25 262.586 487.222 262.614C487.194 262.641 487.178 262.679 487.178 262.719C486.775 273.41 486.817 284.102 486.945 294.793C484.005 292.449 480.863 290.37 477.87 288.1C477.753 288.005 477.647 288.207 477.764 288.291C480.884 290.678 483.814 293.308 486.955 295.716C486.955 296.321 486.955 296.925 486.955 297.53C483.771 296.077 480.534 294.719 477.307 293.34C477.052 293.224 476.829 293.584 477.084 293.711C480.375 295.281 483.644 296.893 486.977 298.378C487.055 303.675 487.132 308.978 487.21 314.289C487.327 323.538 487.529 332.787 487.73 342.036C481.701 338.988 475.634 336.025 469.527 333.147C469.293 333.041 469.092 333.37 469.325 333.497C475.293 336.909 481.441 339.996 487.741 342.746C487.911 350.426 488.07 344.624 488.165 352.293C488.165 352.388 488.203 352.48 488.271 352.548C488.339 352.615 488.431 352.653 488.526 352.653C488.622 352.653 488.714 352.615 488.782 352.548C488.849 352.48 488.887 352.388 488.887 352.293C488.781 342.492 488.77 346.172 488.739 336.382C491.923 335.597 503.917 330.464 506.783 329.064C507.091 328.894 506.878 328.385 506.549 328.502Z" fill="#455A64"/>
<path d="M452.172 350.659C451.047 351.783 437.96 352.282 433.194 352.282C428.428 352.282 415.352 351.783 414.226 350.659C413.101 349.535 428.948 262.623 433.194 262.623C437.44 262.623 453.287 349.535 452.172 350.659Z" fill="#263238"/>
<path d="M452.417 328.502C449.232 329.732 437.206 334.611 434.617 336.032V334.399C437.504 332.702 440.398 331.012 443.299 329.329C446.514 327.649 449.635 325.797 452.65 323.782C452.788 323.675 452.714 323.389 452.523 323.463C449.365 324.943 446.308 326.629 443.373 328.512C440.423 330.241 437.514 332.023 434.606 333.816C434.606 329.647 434.606 325.479 434.553 321.31C439.281 319.348 443.852 317.025 448.224 314.363C448.373 314.267 448.224 313.992 448.097 314.066C443.425 315.945 438.901 318.171 434.564 320.727C434.564 318.563 434.564 316.399 434.564 314.235C434.436 303.077 434.415 291.961 434.139 280.75C436.973 279.318 439.902 278.056 442.736 276.624C442.928 276.529 442.8 276.2 442.599 276.274C439.711 277.398 436.941 278.735 434.107 279.976C433.948 274.216 433.725 268.467 433.375 262.719C433.375 262.679 433.359 262.641 433.331 262.614C433.303 262.586 433.266 262.57 433.226 262.57C433.187 262.57 433.149 262.586 433.121 262.614C433.093 262.641 433.078 262.679 433.078 262.719C432.685 273.41 432.717 284.102 432.855 294.793C429.904 292.449 426.773 290.37 423.779 288.1C423.663 288.005 423.546 288.207 423.663 288.291C426.794 290.678 429.723 293.308 432.865 295.716C432.865 296.321 432.865 296.925 432.865 297.53C429.681 296.077 426.433 294.719 423.206 293.34C422.962 293.224 422.729 293.584 422.994 293.711C426.274 295.281 429.554 296.893 432.876 298.378C432.95 303.682 433.046 308.985 433.109 314.289C433.226 323.538 433.438 332.787 433.629 342.036C427.608 338.988 421.54 336.025 415.426 333.147C415.192 333.041 414.991 333.37 415.224 333.497C421.196 336.909 427.347 339.996 433.651 342.746C433.81 350.426 433.969 344.624 434.065 352.292C434.079 352.379 434.124 352.457 434.191 352.514C434.258 352.57 434.343 352.601 434.431 352.601C434.519 352.601 434.603 352.57 434.67 352.514C434.737 352.457 434.782 352.379 434.797 352.292C434.691 342.492 434.67 346.172 434.638 336.382C437.822 335.597 449.816 330.464 452.682 329.064C452.947 328.894 452.746 328.385 452.417 328.502Z" fill="#455A64"/>
<path d="M445.188 351.486C445.974 352.271 455.123 352.621 458.446 352.621C461.768 352.621 470.928 352.271 471.713 351.486C472.499 350.701 461.418 289.967 458.446 289.967C455.474 289.967 444.403 350.712 445.188 351.486Z" fill="#263238"/>
<path d="M444.987 336.011C447.248 336.87 455.601 340.254 457.427 341.315V340.169C455.41 338.981 453.383 337.814 451.355 336.637C449.114 335.456 446.935 334.161 444.828 332.755C444.721 332.681 444.828 332.479 444.912 332.532C447.111 333.568 449.238 334.748 451.281 336.064C453.34 337.273 455.367 338.514 457.405 339.766C457.405 336.849 457.405 333.943 457.405 331.026C454.101 329.658 450.907 328.038 447.853 326.179C447.746 326.126 447.853 325.924 447.938 325.977C451.202 327.291 454.363 328.847 457.395 330.634V326.094C457.48 318.298 457.501 310.491 457.692 302.695C455.707 301.698 453.669 300.818 451.684 299.81C451.557 299.747 451.684 299.513 451.78 299.566C453.797 300.351 455.739 301.285 457.713 302.154C457.819 298.134 457.968 294.114 458.223 290.095C458.23 290.073 458.243 290.055 458.261 290.042C458.279 290.029 458.301 290.022 458.324 290.022C458.346 290.022 458.368 290.029 458.386 290.042C458.404 290.055 458.417 290.073 458.424 290.095C458.7 297.519 458.679 305.039 458.584 312.517C460.643 310.873 462.829 309.42 464.952 307.829C465.026 307.765 465.111 307.903 465.026 307.967C462.84 309.632 460.781 311.478 458.605 313.132C458.605 313.557 458.605 313.981 458.605 314.395C460.834 313.334 463.095 312.432 465.355 311.467C465.525 311.393 465.685 311.647 465.504 311.732C463.211 312.793 460.919 313.949 458.594 314.989C458.594 318.69 458.477 322.413 458.435 326.094C458.35 332.564 458.212 339.023 458.064 345.483C462.309 343.362 466.555 341.24 470.801 339.278C470.96 339.204 471.108 339.437 470.939 339.522C466.773 341.911 462.478 344.067 458.074 345.981C457.957 351.359 457.841 347.042 457.777 352.43C457.777 352.498 457.75 352.563 457.702 352.61C457.655 352.658 457.59 352.685 457.522 352.685C457.455 352.685 457.39 352.658 457.342 352.61C457.294 352.563 457.267 352.498 457.267 352.43C457.342 345.578 457.352 348.4 457.374 341.548C453.085 340.067 448.879 338.357 444.774 336.425C444.647 336.287 444.785 335.926 444.987 336.011Z" fill="#37474F"/>
<path d="M190.797 351.37C191.582 352.155 200.731 352.505 204.064 352.505C207.397 352.505 216.536 352.155 217.322 351.37C218.107 350.585 207.026 289.851 204.064 289.851C201.103 289.851 190.011 350.585 190.797 351.37Z" fill="#263238"/>
<path d="M190.616 335.894C192.877 336.754 201.23 340.137 203.056 341.198C203.056 340.816 203.056 340.434 203.056 340.052L196.985 336.51C194.736 335.335 192.554 334.039 190.446 332.628C190.351 332.553 190.446 332.352 190.542 332.415C192.742 333.443 194.87 334.62 196.91 335.937C198.97 337.146 201.008 338.387 203.035 339.639C203.035 336.732 203.035 333.816 203.035 330.909C199.732 329.537 196.539 327.917 193.482 326.062C193.376 325.998 193.482 325.807 193.567 325.86C196.831 327.174 199.993 328.731 203.024 330.517C203.024 329 203.024 327.483 203.024 325.977C203.099 318.181 203.12 310.375 203.321 302.579C201.337 301.518 199.288 300.691 197.303 299.683C197.176 299.619 197.303 299.397 197.399 299.45C199.415 300.235 201.358 301.168 203.332 302.038C203.438 298.007 203.597 293.987 203.842 289.978C203.836 289.962 203.835 289.945 203.837 289.928C203.84 289.912 203.847 289.896 203.856 289.883C203.866 289.869 203.879 289.858 203.894 289.85C203.909 289.843 203.926 289.839 203.942 289.839C203.959 289.839 203.976 289.843 203.991 289.85C204.006 289.858 204.019 289.869 204.028 289.883C204.038 289.896 204.045 289.912 204.047 289.928C204.05 289.945 204.048 289.962 204.043 289.978C204.33 297.403 204.298 304.912 204.213 312.39C206.262 310.746 208.459 309.303 210.582 307.712C210.666 307.649 210.741 307.787 210.656 307.84C208.469 309.505 206.41 311.35 204.234 313.016C204.234 313.429 204.234 313.854 204.234 314.278C206.463 313.217 208.724 312.316 210.985 311.35C211.155 311.266 211.314 311.52 211.134 311.605C208.841 312.666 206.548 313.832 204.224 314.872L204.064 325.977C203.98 332.437 203.842 338.896 203.704 345.366C207.907 343.245 212.152 341.177 216.441 339.161C216.6 339.076 216.748 339.31 216.589 339.405C212.414 341.784 208.117 343.94 203.714 345.865C203.597 351.232 203.481 347.053 203.417 352.43C203.417 352.498 203.39 352.563 203.342 352.61C203.295 352.658 203.23 352.685 203.162 352.685C203.095 352.685 203.03 352.658 202.982 352.61C202.934 352.563 202.907 352.498 202.907 352.43C202.982 345.578 202.992 348.273 203.014 341.421C198.725 339.943 194.52 338.237 190.414 336.308C190.245 336.16 190.404 335.81 190.616 335.894Z" fill="#37474F"/>
<path d="M269.554 351.253C270.34 352.038 279.489 352.388 282.812 352.388C286.134 352.388 295.294 352.038 296.079 351.253C296.865 350.468 285.784 289.734 282.812 289.734C279.84 289.734 268.79 350.426 269.554 351.253Z" fill="#263238"/>
<path d="M269.374 335.767C271.635 336.626 279.988 340.01 281.814 341.071V339.925C279.797 338.737 277.77 337.57 275.743 336.393C273.715 335.216 271.242 333.996 269.215 332.511C269.109 332.437 269.215 332.235 269.3 332.288C271.498 333.324 273.625 334.504 275.668 335.82C277.727 337.029 279.755 338.27 281.793 339.522C281.793 336.605 281.793 333.699 281.793 330.782C278.488 329.414 275.295 327.794 272.24 325.935C272.134 325.871 272.24 325.68 272.325 325.733C275.589 327.047 278.751 328.603 281.782 330.39V325.85C281.867 318.054 281.888 310.247 282.079 302.451C280.094 301.454 278.056 300.574 276.072 299.566C275.944 299.503 276.072 299.269 276.167 299.322C278.184 300.107 280.126 301.041 282.101 301.91C282.207 297.89 282.366 293.871 282.61 289.851C282.617 289.829 282.63 289.811 282.649 289.798C282.667 289.785 282.688 289.778 282.711 289.778C282.733 289.778 282.755 289.785 282.773 289.798C282.791 289.811 282.805 289.829 282.812 289.851C283.088 297.275 283.066 304.795 282.971 312.273C285.03 310.629 287.217 309.176 289.339 307.585C289.424 307.521 289.499 307.659 289.414 307.723C287.227 309.388 285.168 311.234 283.045 312.888C283.045 313.313 283.045 313.737 283.045 314.151C285.274 313.09 287.535 312.188 289.796 311.223C289.966 311.149 290.125 311.403 289.944 311.488C287.652 312.549 285.359 313.705 283.035 314.745C282.981 318.446 282.918 322.169 282.875 325.85C282.79 332.32 282.652 338.779 282.514 345.239C286.76 343.118 291.006 340.996 295.252 339.034C295.411 338.96 295.559 339.183 295.39 339.278C291.222 341.663 286.927 343.819 282.525 345.737C282.408 351.115 282.292 347.053 282.228 352.43C282.228 352.498 282.201 352.563 282.153 352.61C282.105 352.658 282.041 352.685 281.973 352.685C281.906 352.685 281.841 352.658 281.793 352.61C281.745 352.563 281.718 352.498 281.718 352.43C281.793 345.578 281.803 348.188 281.825 341.304C277.536 339.823 273.33 338.113 269.225 336.181C269.013 336.043 269.151 335.682 269.374 335.767Z" fill="#37474F"/>
<path d="M517.259 351.253C518.045 352.038 527.194 352.388 530.516 352.388C533.839 352.388 542.988 352.038 543.774 351.253C544.559 350.468 533.478 289.734 530.516 289.734C527.555 289.734 516.474 350.426 517.259 351.253Z" fill="#263238"/>
<path d="M517.079 335.767C519.329 336.626 527.693 340.01 529.519 341.071V339.925C527.502 338.737 525.475 337.57 523.447 336.393C521.203 335.211 519.021 333.915 516.909 332.511C516.813 332.437 516.909 332.235 517.004 332.288C519.204 333.322 521.332 334.502 523.373 335.82C525.432 337.029 527.47 338.27 529.497 339.522C529.497 336.605 529.497 333.699 529.497 330.782C526.191 329.419 522.997 327.798 519.944 325.935C519.838 325.871 519.944 325.68 520.029 325.733C523.294 327.047 526.455 328.603 529.487 330.39C529.487 328.883 529.487 327.367 529.487 325.85C529.572 318.054 529.582 310.247 529.784 302.451C527.799 301.454 525.75 300.574 523.766 299.566C523.638 299.503 523.766 299.269 523.872 299.322C525.888 300.107 527.82 301.041 529.795 301.91C529.911 297.89 530.06 293.871 530.304 289.851C530.304 289.822 530.315 289.795 530.335 289.776C530.355 289.756 530.382 289.745 530.41 289.745C530.438 289.745 530.465 289.756 530.485 289.776C530.505 289.795 530.516 289.822 530.516 289.851C530.792 297.275 530.771 304.795 530.676 312.273C532.735 310.629 534.921 309.176 537.044 307.585C537.129 307.521 537.203 307.659 537.129 307.723C534.942 309.388 532.883 311.234 530.697 312.888C530.697 313.313 530.697 313.737 530.697 314.151C532.926 313.09 535.187 312.188 537.437 311.223C537.617 311.149 537.776 311.403 537.596 311.488C535.293 312.549 533.011 313.705 530.686 314.745C530.633 318.446 530.569 322.169 530.516 325.85C530.442 332.32 530.293 338.779 530.155 345.239C534.401 343.118 538.647 340.996 542.892 339.034C542.925 339.016 542.963 339.011 542.999 339.021C543.035 339.031 543.065 339.055 543.084 339.087C543.102 339.119 543.107 339.158 543.097 339.194C543.087 339.229 543.063 339.26 543.03 339.278C538.859 341.663 534.561 343.819 530.155 345.737C530.039 351.115 529.932 347.053 529.858 352.43C529.858 352.749 529.349 352.749 529.359 352.43C529.434 345.578 529.444 348.188 529.465 341.304C525.176 339.827 520.97 338.116 516.866 336.181C516.707 336.043 516.856 335.682 517.079 335.767Z" fill="#37474F"/>
<path d="M418.695 346.883H417.124V351.306H418.695V346.883Z" fill="#263238"/>
<path d="M342.687 346.883H341.116V351.306H342.687V346.883Z" fill="#263238"/>
<path d="M341.116 351.295L363.3 318.34L386.067 351.295H341.116Z" fill="#FFC727"/>
<path opacity="0.1" d="M341.116 351.295L363.3 318.34L386.067 351.295H341.116Z" fill="black"/>
<path d="M363.299 318.34H395.821L418.419 351.295H386.067L363.299 318.34Z" fill="#FFC727"/>
<path d="M377.162 324.333H392.022L396.543 330.931H381.715L377.162 324.333Z" fill="white"/>
<path opacity="0.3" d="M356.007 351.295H369.997L363.299 318.34L356.007 351.295Z" fill="black"/>
<path d="M386.842 346.883H385.271V351.306H386.842V346.883Z" fill="#263238"/>
<path d="M363.257 318.34C357.886 329.043 351.655 340.816 345.839 351.295C351.22 340.583 357.43 328.809 363.257 318.34Z" fill="white"/>
<path d="M363.257 318.34C369.02 328.756 375.166 340.466 380.494 351.115C374.731 340.689 368.575 328.989 363.257 318.34Z" fill="white"/>
<path d="M356.008 351.295C354.998 347.844 352.962 344.781 350.17 342.513L363.257 318.34L356.008 351.295Z" fill="#FFC727"/>
<path d="M369.997 351.295L363.257 318.34L376.928 343.796C375.115 344.126 373.458 345.035 372.208 346.388C370.957 347.741 370.181 349.463 369.997 351.295Z" fill="#FFC727"/>
<path d="M243.38 119.517C243.116 119.222 242.836 118.942 242.541 118.679V118.679C242.281 118.387 242.005 118.111 241.713 117.852C241.713 117.852 241.713 117.852 241.713 117.852C241.452 117.554 241.172 117.274 240.875 117.014C240.614 116.716 240.334 116.436 240.036 116.176C240.036 116.176 240.036 116.176 240.036 116.176C239.776 115.884 239.5 115.608 239.208 115.348V115.348C238.945 115.053 238.665 114.774 238.37 114.51C238.37 114.51 238.37 114.51 238.37 114.51C238.11 114.219 237.833 113.943 237.542 113.683V113.683C237.278 113.388 236.998 113.108 236.703 112.845C236.703 112.845 236.703 112.845 236.703 112.845C236.443 112.554 236.167 112.277 235.875 112.018V112.018C235.019 111.075 234.02 110.273 232.914 109.642V26.1668C232.914 25.732 232.691 25.5092 232.691 25.1062C232.746 24.652 232.669 24.1916 232.468 23.7803C232.468 23.5576 232.256 23.1121 232.256 22.8894C232.142 22.4366 231.992 21.9934 231.81 21.5635C231.571 21.321 231.415 21.0091 231.364 20.6725C231.113 20.2828 230.813 19.9263 230.473 19.6119C230.25 19.3891 230.037 18.9543 229.815 18.7209L228.923 17.8405C228.923 17.7027 228.753 17.5648 228.562 17.4799L228.127 17.0344H228.074C228.074 16.8965 227.904 16.7693 227.713 16.6738L227.278 16.2389C227.278 16.101 227.108 15.9631 226.917 15.8783L226.333 15.2525C226.333 15.1146 226.163 14.9767 225.972 14.8919L225.537 14.457C225.537 14.3297 225.367 14.1918 225.176 14.0964L224.73 13.6615C224.73 13.5236 224.56 13.3857 224.369 13.3009L223.934 12.8554C223.934 12.7281 223.764 12.5902 223.573 12.4947L223.128 12.0599C223.128 11.922 222.958 11.7841 222.767 11.6992L222.087 11.0098C222.087 10.8719 221.918 10.7446 221.726 10.6492L221.291 10.2143C221.291 10.0764 221.121 9.93852 220.93 9.85367L220.442 9.36575C220.442 9.15362 220.007 8.93088 219.784 8.93088C219.787 8.90129 219.784 8.87141 219.774 8.84317C219.765 8.81493 219.75 8.78897 219.73 8.76696C219.71 8.74496 219.685 8.72741 219.658 8.71545C219.631 8.70349 219.602 8.69738 219.572 8.69753C219.115 8.4854 218.892 8.26265 218.447 8.03991C218.224 7.81717 217.789 7.59443 217.385 7.14895C217.152 7.14895 216.717 6.93682 216.494 6.93682C216.048 6.71407 215.432 6.71407 215.167 6.48072C214.779 6.51432 214.39 6.44094 214.042 6.26859H210.284C210.02 6.43874 209.705 6.51359 209.393 6.48072C208.735 6.71407 208.331 6.71407 208.066 6.93682C207.631 6.93682 207.408 7.14895 207.174 7.59443C206.698 7.60846 206.236 7.76349 205.848 8.03991C205.635 8.26265 205.189 8.4854 204.956 8.69753C204.678 9.02204 204.308 9.25495 203.895 9.36575C203.735 9.70242 203.511 10.005 203.236 10.2567C203.014 10.4795 203.014 10.6916 202.791 10.6916L120.647 112.527C118.697 114.859 117.72 117.852 117.917 120.885C118.115 123.918 119.472 126.759 121.708 128.819C121.963 129.125 122.244 129.409 122.547 129.667C122.808 129.968 123.092 130.248 123.396 130.505C123.654 130.809 123.934 131.093 124.235 131.354C124.496 131.654 124.78 131.934 125.084 132.192C125.339 132.498 125.619 132.782 125.922 133.04C126.184 133.344 126.467 133.628 126.771 133.889C127.03 134.192 127.314 134.472 127.621 134.727C127.875 135.033 128.156 135.317 128.459 135.575C128.721 135.876 129.004 136.156 129.308 136.413C129.83 137.003 130.41 137.54 131.038 138.015C133.122 139.824 135.816 140.772 138.574 140.667H199.946V149.067C199.926 150.776 200.268 152.469 200.95 154.036C201.633 155.603 202.64 157.008 203.905 158.157C204.16 158.444 204.425 158.709 204.712 158.974C204.977 159.26 205.253 159.536 205.54 159.791C205.794 160.077 206.07 160.342 206.346 160.607C206.612 160.894 206.888 161.17 207.174 161.424C207.429 161.71 207.705 161.976 207.981 162.241C208.241 162.529 208.517 162.802 208.809 163.058V163.058C209.064 163.333 209.34 163.609 209.616 163.864C209.872 164.155 210.145 164.431 210.433 164.691V164.691C210.698 164.967 210.964 165.242 211.25 165.497C212.921 167.297 215.096 168.554 217.491 169.103C219.886 169.652 222.391 169.468 224.681 168.576C226.97 167.684 228.938 166.124 230.329 164.1C231.719 162.075 232.468 159.679 232.479 157.224V140.667H234.697C237.177 140.725 239.616 140.022 241.683 138.651C243.75 137.281 245.347 135.31 246.258 133.004C247.169 130.698 247.349 128.168 246.776 125.757C246.202 123.345 244.902 121.167 243.05 119.517H243.38ZM199.988 72.0835V107.881H171.139L199.988 72.0835Z" fill="#FFC727"/>
<path opacity="0.1" d="M243.38 119.517C243.116 119.222 242.836 118.942 242.541 118.679V118.679C242.281 118.387 242.005 118.111 241.713 117.852C241.713 117.852 241.713 117.852 241.713 117.852C241.452 117.554 241.172 117.274 240.875 117.014C240.614 116.716 240.334 116.436 240.036 116.176C240.036 116.176 240.036 116.176 240.036 116.176C239.776 115.884 239.5 115.608 239.208 115.348V115.348C238.945 115.053 238.665 114.774 238.37 114.51C238.37 114.51 238.37 114.51 238.37 114.51C238.11 114.219 237.833 113.943 237.542 113.683V113.683C237.278 113.388 236.998 113.108 236.703 112.845C236.703 112.845 236.703 112.845 236.703 112.845C236.443 112.554 236.167 112.277 235.875 112.018V112.018C235.019 111.075 234.02 110.273 232.914 109.642V26.1668C232.914 25.732 232.691 25.5092 232.691 25.1062C232.746 24.652 232.669 24.1916 232.468 23.7803C232.468 23.5576 232.256 23.1121 232.256 22.8894C232.142 22.4366 231.992 21.9934 231.81 21.5635C231.571 21.321 231.415 21.0091 231.364 20.6725C231.113 20.2828 230.813 19.9263 230.473 19.6119C230.25 19.3891 230.037 18.9543 229.815 18.7209L228.923 17.8405C228.923 17.7027 228.753 17.5648 228.562 17.4799L228.127 17.0344H228.074C228.074 16.8965 227.904 16.7693 227.713 16.6738L227.278 16.2389C227.278 16.101 227.108 15.9631 226.917 15.8783L226.333 15.2525C226.333 15.1146 226.163 14.9767 225.972 14.8919L225.537 14.457C225.537 14.3297 225.367 14.1918 225.176 14.0964L224.73 13.6615C224.73 13.5236 224.56 13.3857 224.369 13.3009L223.934 12.8554C223.934 12.7281 223.764 12.5902 223.573 12.4947L223.128 12.0599C223.128 11.922 222.958 11.7841 222.767 11.6992L222.087 11.0098C222.087 10.8719 221.918 10.7446 221.726 10.6492L221.291 10.2143C221.291 10.0764 221.121 9.93852 220.93 9.85367L220.442 9.36575C220.442 9.15362 220.007 8.93088 219.784 8.93088C219.787 8.90129 219.784 8.87141 219.774 8.84317C219.765 8.81493 219.75 8.78897 219.73 8.76696C219.71 8.74496 219.685 8.72741 219.658 8.71545C219.631 8.70349 219.602 8.69738 219.572 8.69753C219.115 8.4854 218.892 8.26265 218.447 8.03991C218.224 7.81717 217.789 7.59443 217.385 7.14895C217.152 7.14895 216.717 6.93682 216.494 6.93682C216.048 6.71407 215.432 6.71407 215.167 6.48072C214.779 6.51432 214.39 6.44094 214.042 6.26859H210.284C210.02 6.43874 209.705 6.51359 209.393 6.48072C208.735 6.71407 208.331 6.71407 208.066 6.93682C207.631 6.93682 207.408 7.14895 207.174 7.59443C206.698 7.60846 206.236 7.76349 205.848 8.03991C205.635 8.26265 205.189 8.4854 204.956 8.69753C204.678 9.02204 204.308 9.25495 203.895 9.36575C203.735 9.70242 203.511 10.005 203.236 10.2567C203.014 10.4795 203.014 10.6916 202.791 10.6916L120.647 112.527C118.697 114.859 117.72 117.852 117.917 120.885C118.115 123.918 119.472 126.759 121.708 128.819C121.963 129.125 122.244 129.409 122.547 129.667C122.808 129.968 123.092 130.248 123.396 130.505C123.654 130.809 123.934 131.093 124.235 131.354C124.496 131.654 124.78 131.934 125.084 132.192C125.339 132.498 125.619 132.782 125.922 133.04C126.184 133.344 126.467 133.628 126.771 133.889C127.03 134.192 127.314 134.472 127.621 134.727C127.875 135.033 128.156 135.317 128.459 135.575C128.721 135.876 129.004 136.156 129.308 136.413C129.83 137.003 130.41 137.54 131.038 138.015C133.122 139.824 135.816 140.772 138.574 140.667H199.946V149.067C199.926 150.776 200.268 152.469 200.95 154.036C201.633 155.603 202.64 157.008 203.905 158.157C204.16 158.444 204.425 158.709 204.712 158.974C204.977 159.26 205.253 159.536 205.54 159.791C205.794 160.077 206.07 160.342 206.346 160.607C206.612 160.894 206.888 161.17 207.174 161.424C207.429 161.71 207.705 161.976 207.981 162.241C208.241 162.529 208.517 162.802 208.809 163.058V163.058C209.064 163.333 209.34 163.609 209.616 163.864C209.872 164.155 210.145 164.431 210.433 164.691V164.691C210.698 164.967 210.964 165.242 211.25 165.497C212.921 167.297 215.096 168.554 217.491 169.103C219.886 169.652 222.391 169.468 224.681 168.576C226.97 167.684 228.938 166.124 230.329 164.1C231.719 162.075 232.468 159.679 232.479 157.224V140.667H234.697C237.177 140.725 239.616 140.022 241.683 138.651C243.75 137.281 245.347 135.31 246.258 133.004C247.169 130.698 247.349 128.168 246.776 125.757C246.202 123.345 244.902 121.167 243.05 119.517H243.38ZM199.988 72.0835V107.881H171.139L199.988 72.0835Z" fill="black"/>
<path d="M238.985 120.058C238.983 121.675 238.658 123.275 238.031 124.766C237.404 126.257 236.486 127.608 235.332 128.741C234.177 129.874 232.808 130.767 231.305 131.366C229.803 131.966 228.195 132.261 226.577 132.234H224.359V149.067C224.359 152.302 223.073 155.405 220.784 157.692C218.495 159.98 215.39 161.265 212.152 161.265C208.915 161.265 205.81 159.98 203.521 157.692C201.232 155.405 199.946 152.302 199.946 149.067V132.234H130.168C127.409 132.336 124.714 131.384 122.632 129.572C121.348 128.608 120.273 127.393 119.474 126.002C118.674 124.61 118.165 123.071 117.978 121.477C117.792 119.883 117.931 118.268 118.388 116.729C118.845 115.191 119.61 113.761 120.636 112.527L202.642 10.6386C202.865 10.6386 202.865 10.4264 203.088 10.2037C203.363 9.94982 203.59 9.64789 203.757 9.31271C204.162 9.191 204.529 8.9641 204.818 8.65509C205.041 8.43235 205.487 8.20961 205.699 7.98687C206.09 7.70728 206.556 7.55202 207.036 7.54139C207.249 7.09591 207.472 6.88377 207.917 6.88377C208.14 6.66103 208.586 6.66103 209.255 6.43829C209.566 6.46998 209.877 6.39111 210.136 6.21555H213.904C214.23 6.38629 214.598 6.46339 214.965 6.43829C215.188 6.66103 215.857 6.66103 216.303 6.88377C216.526 6.88377 216.961 7.0959 217.184 7.0959C217.629 7.54138 218.075 7.76413 218.245 7.98687C218.691 8.20961 218.914 8.43235 219.36 8.65509C219.419 8.65509 219.475 8.67856 219.517 8.72033C219.559 8.7621 219.582 8.81876 219.582 8.87783C219.805 8.87783 220.251 9.08997 220.251 9.31271L221.132 10.2037C221.355 10.4264 221.578 10.8613 221.801 11.084C222.136 11.4204 222.432 11.7941 222.682 12.1978C222.738 12.5295 222.893 12.8364 223.128 13.0781C223.31 13.5117 223.459 13.9584 223.573 14.4146C223.573 14.6267 223.786 15.0722 223.786 15.2949C223.986 15.7064 224.063 16.1666 224.009 16.6208C224.009 17.0662 224.231 17.289 224.231 17.6814V107.839H226.45C228.077 107.814 229.693 108.11 231.206 108.711C232.718 109.313 234.096 110.207 235.261 111.343C236.426 112.478 237.355 113.833 237.994 115.329C238.633 116.824 238.97 118.431 238.985 120.058V120.058ZM199.989 53.1716L155.876 107.871H199.989V53.1716Z" fill="#FFC727"/>
<path d="M368.638 39.2343C366.141 35.4146 363.233 31.8792 359.966 28.6912C359.85 28.557 359.722 28.4329 359.584 28.32C359.551 28.276 359.512 28.2367 359.468 28.2033C359.37 28.0921 359.268 27.9859 359.16 27.8851C358.873 27.5775 358.576 27.2911 358.279 27.0048L358.205 26.9305L357.897 26.6335C357.863 26.5895 357.824 26.5502 357.78 26.5169L357.472 26.188C357.186 25.8911 356.878 25.6047 356.591 25.3183C356.571 25.2856 356.541 25.2597 356.506 25.244L356.209 24.9471C356.176 24.903 356.136 24.8638 356.092 24.8304C355.994 24.7131 355.888 24.6032 355.774 24.5016C355.498 24.2046 355.19 23.9182 354.903 23.6212L354.819 23.5576L354.521 23.25L354.405 23.1439C354.298 23.0272 354.203 22.9212 354.086 22.8151C353.81 22.5075 353.502 22.2317 353.216 21.9347L353.131 21.8711C353.039 21.7583 352.936 21.6552 352.823 21.5635C352.79 21.5255 352.755 21.4901 352.717 21.4574C343.822 12.2826 332.21 6.21555 319.187 6.21555C301.684 6.21555 287.28 16.6314 277.961 30.7914C268.217 44.9726 263.101 63.3647 262.899 83.7296C263.122 103.882 268.206 122.487 277.961 136.668C280.459 140.418 283.337 143.901 286.548 147.063L286.983 147.487C286.996 147.493 287.007 147.502 287.016 147.513C287.025 147.524 287.032 147.537 287.036 147.55L287.832 148.335C287.959 148.484 288.097 148.611 288.235 148.749L288.671 149.173L288.734 149.237L289.52 150.022L289.923 150.435C290.072 150.584 290.22 150.722 290.358 150.87C290.379 150.864 290.401 150.864 290.422 150.87L291.207 151.655C291.345 151.804 291.473 151.942 291.611 152.069L292.057 152.504C292.079 152.516 292.098 152.534 292.11 152.557L292.895 153.342L293.298 153.755L293.744 154.19C293.767 154.202 293.785 154.221 293.797 154.243C294.052 154.519 294.328 154.774 294.583 155.028C303.35 163.779 314.644 169.634 327.635 169.634C344.693 169.634 359.33 159.027 368.638 145.047C378.191 130.877 383.498 112.272 383.498 92.1196C383.488 71.7971 378.17 53.4368 368.638 39.2343ZM339.799 122.932C333.367 132.478 326.065 136.668 319.187 136.668C314.972 136.57 310.892 135.165 307.511 132.648C307.203 132.245 306.895 131.81 306.587 131.375C300.389 122.073 295.973 107.902 295.973 92.1302C295.973 76.2201 300.41 62.2298 306.587 52.7049C313.243 43.4028 320.779 38.9798 327.646 39.1919C331.647 39.172 335.546 40.4485 338.759 42.83C339.109 43.2967 339.46 43.774 339.821 44.2619C346.03 53.808 350.435 67.7453 350.435 83.6872C350.446 99.4595 346.009 113.63 339.799 122.932Z" fill="#FFC727"/>
<path opacity="0.1" d="M368.638 39.2343C366.141 35.4146 363.233 31.8792 359.966 28.6912C359.85 28.557 359.722 28.4329 359.584 28.32C359.551 28.276 359.512 28.2367 359.468 28.2033C359.37 28.0921 359.268 27.9859 359.16 27.8851C358.873 27.5775 358.576 27.2911 358.279 27.0048L358.205 26.9305L357.897 26.6335C357.863 26.5895 357.824 26.5502 357.78 26.5169L357.472 26.188C357.186 25.8911 356.878 25.6047 356.591 25.3183C356.571 25.2856 356.541 25.2597 356.506 25.244L356.209 24.9471C356.176 24.903 356.136 24.8638 356.092 24.8304C355.994 24.7131 355.888 24.6032 355.774 24.5016C355.498 24.2046 355.19 23.9182 354.903 23.6212L354.819 23.5576L354.521 23.25L354.405 23.1439C354.298 23.0272 354.203 22.9212 354.086 22.8151C353.81 22.5075 353.502 22.2317 353.216 21.9347L353.131 21.8711C353.039 21.7583 352.936 21.6552 352.823 21.5635C352.79 21.5255 352.755 21.4901 352.717 21.4574C343.822 12.2826 332.21 6.21555 319.187 6.21555C301.684 6.21555 287.28 16.6314 277.961 30.7914C268.217 44.9726 263.101 63.3647 262.899 83.7296C263.122 103.882 268.206 122.487 277.961 136.668C280.459 140.418 283.337 143.901 286.548 147.063L286.983 147.487C286.996 147.493 287.007 147.502 287.016 147.513C287.025 147.524 287.032 147.537 287.036 147.55L287.832 148.335C287.959 148.484 288.097 148.611 288.235 148.749L288.671 149.173L288.734 149.237L289.52 150.022L289.923 150.435C290.072 150.584 290.22 150.722 290.358 150.87C290.379 150.864 290.401 150.864 290.422 150.87L291.207 151.655C291.345 151.804 291.473 151.942 291.611 152.069L292.057 152.504C292.079 152.516 292.098 152.534 292.11 152.557L292.895 153.342L293.298 153.755L293.744 154.19C293.767 154.202 293.785 154.221 293.797 154.243C294.052 154.519 294.328 154.774 294.583 155.028C303.35 163.779 314.644 169.634 327.635 169.634C344.693 169.634 359.33 159.027 368.638 145.047C378.191 130.877 383.498 112.272 383.498 92.1196C383.488 71.7971 378.17 53.4368 368.638 39.2343ZM339.799 122.932C333.367 132.478 326.065 136.668 319.187 136.668C314.972 136.57 310.892 135.165 307.511 132.648C307.203 132.245 306.895 131.81 306.587 131.375C300.389 122.073 295.973 107.902 295.973 92.1302C295.973 76.2201 300.41 62.2298 306.587 52.7049C313.243 43.4028 320.779 38.9798 327.646 39.1919C331.647 39.172 335.546 40.4485 338.759 42.83C339.109 43.2967 339.46 43.774 339.821 44.2619C346.03 53.808 350.435 67.7453 350.435 83.6872C350.446 99.4595 346.009 113.63 339.799 122.932Z" fill="black"/>
<path d="M262.899 83.7296C263.122 63.3541 268.206 44.9726 277.971 30.802C287.269 16.6208 301.684 6.21555 319.187 6.21555C336.254 6.21555 350.881 16.6208 360.2 30.802C369.753 44.9726 375.06 63.3541 375.06 83.7296C375.06 103.882 369.753 122.487 360.2 136.668C350.881 150.616 336.254 161.244 319.187 161.244C301.684 161.244 287.269 150.637 277.971 136.668C268.217 122.487 263.122 103.882 262.899 83.7296ZM350.435 83.7296C350.435 67.8195 346.009 53.8292 339.821 44.3044C333.452 35.0022 326.086 30.5792 319.208 30.802C312.34 30.5792 304.804 35.0447 298.16 44.3044C291.95 53.8504 287.545 67.7877 287.545 83.7296C287.545 99.4594 291.982 113.63 298.16 122.975C304.804 132.521 312.34 136.71 319.208 136.71C326.075 136.71 333.399 132.468 339.821 122.975C346.009 113.63 350.435 99.4594 350.435 83.7296V83.7296Z" fill="#FFC727"/>
<path d="M519.637 119.517C519.361 119.22 519.085 118.944 518.798 118.679C518.533 118.393 518.246 118.106 517.97 117.852C517.694 117.555 517.418 117.268 517.132 117.014C516.867 116.717 516.58 116.441 516.304 116.176C516.028 115.889 515.752 115.603 515.465 115.348C515.189 115.051 514.913 114.776 514.627 114.51C514.362 114.224 514.075 113.938 513.799 113.683C513.523 113.386 513.247 113.11 512.96 112.845C512.695 112.559 512.409 112.272 512.133 112.018C511.276 111.072 510.272 110.27 509.161 109.642V26.1669C509.161 25.732 508.938 25.5092 508.938 25.1062C508.993 24.652 508.915 24.1916 508.715 23.7803C508.715 23.5576 508.502 23.1121 508.502 22.8894C508.388 22.4366 508.239 21.9934 508.057 21.5635C507.822 21.3182 507.666 21.0076 507.611 20.6726C507.363 20.2803 507.063 19.9235 506.719 19.6119C506.496 19.3891 506.284 18.9543 506.061 18.7209L505.17 17.8406C505.17 17.7027 505 17.5648 504.809 17.4799L504.374 17.0344H504.32C504.32 16.8966 504.161 16.7693 503.96 16.6738L503.524 16.2389C503.524 16.1011 503.355 15.9632 503.164 15.8783L502.728 15.4328H502.675C502.675 15.2949 502.505 15.1571 502.314 15.0722L501.879 14.6373C501.879 14.51 501.709 14.3722 501.518 14.2767L501.073 13.8418C501.073 13.7039 500.903 13.566 500.712 13.4812L500.276 13.0357C500.276 12.9084 500.107 12.7705 499.916 12.6751L499.47 12.2402C499.47 12.1023 499.3 11.9644 499.109 11.8796L498.674 11.4341C498.674 11.2962 498.514 11.1689 498.313 11.0735L497.878 10.6386C497.878 10.5007 497.708 10.3628 497.517 10.2779L497.028 9.79004C497.028 9.5779 496.593 9.35517 496.37 9.35517C496.37 9.29328 496.346 9.23393 496.302 9.19016C496.258 9.1464 496.199 9.12182 496.137 9.12182C495.702 8.90968 495.479 8.68694 495.075 8.4642C494.707 8.18486 494.353 7.88751 494.014 7.57323C493.781 7.57323 493.345 7.36109 493.122 7.36109C492.677 7.13835 492.061 7.13835 491.796 6.905C491.408 6.9386 491.019 6.86522 490.671 6.69287H486.382C486.118 6.86303 485.804 6.93787 485.491 6.905C484.833 7.13835 484.429 7.13835 484.164 7.36109C483.729 7.36109 483.506 7.57323 483.272 8.01871C482.796 8.03462 482.335 8.18948 481.946 8.4642C481.733 8.68694 481.288 8.90968 481.065 9.12182C480.783 9.44197 480.414 9.67399 480.003 9.79004C479.84 10.1245 479.617 10.4264 479.345 10.681C479.122 10.9038 479.122 11.1159 478.899 11.1159L396.904 113.004C394.954 115.337 393.977 118.329 394.174 121.362C394.372 124.395 395.73 127.236 397.966 129.296C398.813 130.136 399.655 130.981 400.492 131.831C400.753 132.132 401.037 132.412 401.341 132.669C401.596 132.975 401.877 133.259 402.18 133.518C402.441 133.821 402.725 134.105 403.029 134.366C403.288 134.669 403.572 134.949 403.878 135.204C404.433 135.773 404.996 136.336 405.565 136.891C406.088 137.48 406.667 138.017 407.296 138.492C409.379 140.301 412.074 141.249 414.832 141.144H476.203V149.545C476.184 151.253 476.527 152.946 477.21 154.513C477.892 156.079 478.898 157.484 480.162 158.635V158.635C480.419 158.926 480.692 159.202 480.98 159.462V159.462C481.245 159.738 481.51 160.013 481.797 160.268C482.052 160.565 482.338 160.83 482.614 161.095C482.88 161.371 483.145 161.647 483.432 161.901C483.686 162.198 483.973 162.464 484.249 162.729C484.514 163.015 484.78 163.28 485.066 163.535C485.321 163.821 485.608 164.097 485.884 164.352C486.138 164.638 486.404 164.903 486.69 165.168C486.956 165.455 487.232 165.73 487.518 165.985C489.19 167.786 491.365 169.042 493.762 169.591C496.158 170.14 498.664 169.956 500.953 169.062C503.243 168.168 505.211 166.607 506.601 164.581C507.991 162.555 508.738 160.158 508.747 157.701V140.667H510.965C513.446 140.727 515.886 140.026 517.955 138.656C520.024 137.287 521.623 135.316 522.535 133.009C523.447 130.703 523.629 128.172 523.055 125.759C522.482 123.346 521.181 121.167 519.329 119.517H519.637ZM476.235 72.0835V107.881H447.375L476.235 72.0835Z" fill="#FFC727"/>
<path opacity="0.1" d="M519.637 119.517C519.361 119.22 519.085 118.944 518.798 118.679C518.533 118.393 518.246 118.106 517.97 117.852C517.694 117.555 517.418 117.268 517.132 117.014C516.867 116.717 516.58 116.441 516.304 116.176C516.028 115.889 515.752 115.603 515.465 115.348C515.189 115.051 514.913 114.776 514.627 114.51C514.362 114.224 514.075 113.938 513.799 113.683C513.523 113.386 513.247 113.11 512.96 112.845C512.695 112.559 512.409 112.272 512.133 112.018C511.276 111.072 510.272 110.27 509.161 109.642V26.1669C509.161 25.732 508.938 25.5092 508.938 25.1062C508.993 24.652 508.915 24.1916 508.715 23.7803C508.715 23.5576 508.502 23.1121 508.502 22.8894C508.388 22.4366 508.239 21.9934 508.057 21.5635C507.822 21.3182 507.666 21.0076 507.611 20.6726C507.363 20.2803 507.063 19.9235 506.719 19.6119C506.496 19.3891 506.284 18.9543 506.061 18.7209L505.17 17.8406C505.17 17.7027 505 17.5648 504.809 17.4799L504.374 17.0344H504.32C504.32 16.8966 504.161 16.7693 503.96 16.6738L503.524 16.2389C503.524 16.1011 503.355 15.9632 503.164 15.8783L502.728 15.4328H502.675C502.675 15.2949 502.505 15.1571 502.314 15.0722L501.879 14.6373C501.879 14.51 501.709 14.3722 501.518 14.2767L501.073 13.8418C501.073 13.7039 500.903 13.566 500.712 13.4812L500.276 13.0357C500.276 12.9084 500.107 12.7705 499.916 12.6751L499.47 12.2402C499.47 12.1023 499.3 11.9644 499.109 11.8796L498.674 11.4341C498.674 11.2962 498.514 11.1689 498.313 11.0735L497.878 10.6386C497.878 10.5007 497.708 10.3628 497.517 10.2779L497.028 9.79004C497.028 9.5779 496.593 9.35517 496.37 9.35517C496.37 9.29328 496.346 9.23393 496.302 9.19016C496.258 9.1464 496.199 9.12182 496.137 9.12182C495.702 8.90968 495.479 8.68694 495.075 8.4642C494.707 8.18486 494.353 7.88751 494.014 7.57323C493.781 7.57323 493.345 7.36109 493.122 7.36109C492.677 7.13835 492.061 7.13835 491.796 6.905C491.408 6.9386 491.019 6.86522 490.671 6.69287H486.382C486.118 6.86303 485.804 6.93787 485.491 6.905C484.833 7.13835 484.429 7.13835 484.164 7.36109C483.729 7.36109 483.506 7.57323 483.272 8.01871C482.796 8.03462 482.335 8.18948 481.946 8.4642C481.733 8.68694 481.288 8.90968 481.065 9.12182C480.783 9.44197 480.414 9.67399 480.003 9.79004C479.84 10.1245 479.617 10.4264 479.345 10.681C479.122 10.9038 479.122 11.1159 478.899 11.1159L396.904 113.004C394.954 115.337 393.977 118.329 394.174 121.362C394.372 124.395 395.73 127.236 397.966 129.296C398.813 130.136 399.655 130.981 400.492 131.831C400.753 132.132 401.037 132.412 401.341 132.669C401.596 132.975 401.877 133.259 402.18 133.518C402.441 133.821 402.725 134.105 403.029 134.366C403.288 134.669 403.572 134.949 403.878 135.204C404.433 135.773 404.996 136.336 405.565 136.891C406.088 137.48 406.667 138.017 407.296 138.492C409.379 140.301 412.074 141.249 414.832 141.144H476.203V149.545C476.184 151.253 476.527 152.946 477.21 154.513C477.892 156.079 478.898 157.484 480.162 158.635V158.635C480.419 158.926 480.692 159.202 480.98 159.462V159.462C481.245 159.738 481.51 160.013 481.797 160.268C482.052 160.565 482.338 160.83 482.614 161.095C482.88 161.371 483.145 161.647 483.432 161.901C483.686 162.198 483.973 162.464 484.249 162.729C484.514 163.015 484.78 163.28 485.066 163.535C485.321 163.821 485.608 164.097 485.884 164.352C486.138 164.638 486.404 164.903 486.69 165.168C486.956 165.455 487.232 165.73 487.518 165.985C489.19 167.786 491.365 169.042 493.762 169.591C496.158 170.14 498.664 169.956 500.953 169.062C503.243 168.168 505.211 166.607 506.601 164.581C507.991 162.555 508.738 160.158 508.747 157.701V140.667H510.965C513.446 140.727 515.886 140.026 517.955 138.656C520.024 137.287 521.623 135.316 522.535 133.009C523.447 130.703 523.629 128.172 523.055 125.759C522.482 123.346 521.181 121.167 519.329 119.517H519.637ZM476.235 72.0835V107.881H447.375L476.235 72.0835Z" fill="black"/>
<path d="M515.242 120.058C515.24 121.676 514.915 123.277 514.287 124.769C513.659 126.26 512.741 127.612 511.585 128.745C510.429 129.878 509.059 130.77 507.555 131.369C506.051 131.968 504.443 132.262 502.824 132.234H500.605V149.067C500.605 152.302 499.319 155.405 497.03 157.692C494.741 159.98 491.636 161.265 488.399 161.265C485.162 161.265 482.057 159.98 479.768 157.692C477.479 155.405 476.193 152.302 476.193 149.067V132.234H406.415C403.655 132.336 400.961 131.384 398.878 129.572C397.595 128.608 396.52 127.393 395.72 126.002C394.92 124.61 394.411 123.071 394.225 121.477C394.038 119.883 394.178 118.268 394.635 116.729C395.091 115.191 395.856 113.761 396.883 112.527L478.889 10.6386C479.112 10.6386 479.112 10.4264 479.334 10.2037C479.61 9.94982 479.836 9.64789 480.003 9.31271C480.409 9.191 480.775 8.9641 481.065 8.65509C481.287 8.43235 481.733 8.20961 481.956 7.98687C482.342 7.70569 482.805 7.55014 483.283 7.54139C483.495 7.09591 483.718 6.88377 484.164 6.88377C484.387 6.66103 484.833 6.66103 485.501 6.43829C485.812 6.46998 486.124 6.39111 486.382 6.21555H490.15C490.477 6.38629 490.844 6.46339 491.212 6.43829C491.435 6.66103 492.103 6.66103 492.549 6.88377C492.772 6.88377 493.218 7.0959 493.43 7.0959C493.876 7.54138 494.322 7.76413 494.492 7.98687C494.937 8.20961 495.16 8.43235 495.606 8.65509C495.643 8.63429 495.685 8.62439 495.727 8.62657C495.77 8.62874 495.81 8.64289 495.845 8.66737C495.879 8.69184 495.906 8.72563 495.922 8.76478C495.938 8.80392 495.943 8.84682 495.935 8.88844C496.158 8.88844 496.604 9.10058 496.604 9.32332L497.485 10.2143C497.708 10.437 497.931 10.8719 498.154 11.0946C498.492 11.4281 498.788 11.8022 499.035 12.2084C499.091 12.5401 499.246 12.847 499.48 13.0887C499.663 13.5223 499.812 13.9691 499.926 14.4252C499.926 14.6373 500.138 15.0828 500.138 15.3055C500.338 15.717 500.416 16.1772 500.361 16.6314C500.361 17.0769 500.584 17.2996 500.584 17.692V107.849H502.803C506.071 107.824 509.216 109.095 511.548 111.384C513.88 113.672 515.209 116.792 515.242 120.058V120.058ZM476.235 53.1716L432.122 107.871H476.235V53.1716Z" fill="#FFC727"/>
<path opacity="0.2" d="M327.837 349.492C334.069 349.492 339.12 344.444 339.12 338.217C339.12 331.99 334.069 326.942 327.837 326.942C321.606 326.942 316.554 331.99 316.554 338.217C316.554 344.444 321.606 349.492 327.837 349.492Z" fill="#FFC727"/>
<path opacity="0.2" d="M327.837 349.439C332.621 349.439 336.498 345.564 336.498 340.784C336.498 336.004 332.621 332.129 327.837 332.129C323.054 332.129 319.176 336.004 319.176 340.784C319.176 345.564 323.054 349.439 327.837 349.439Z" fill="#FFC727"/>
<path d="M328.612 349.418C328.612 349.418 321.723 348.41 321.32 348.676C320.917 348.941 320.524 350.945 321.32 351.433C322.116 351.921 328.453 351.041 328.453 351.041C328.665 350.832 328.798 350.555 328.827 350.258C328.856 349.962 328.78 349.664 328.612 349.418V349.418Z" fill="#FFC727"/>
<path opacity="0.49" d="M328.612 349.418C328.612 349.418 321.723 348.41 321.32 348.676C320.917 348.941 320.524 350.945 321.32 351.433C322.116 351.921 328.453 351.041 328.453 351.041C328.665 350.832 328.798 350.555 328.827 350.258C328.856 349.962 328.78 349.664 328.612 349.418V349.418Z" fill="black"/>
<path opacity="0.2" d="M321.352 348.76C321.554 348.707 321.893 349.397 321.819 350.161C321.745 350.924 321.469 351.38 321.352 351.37C321.235 351.359 320.853 350.924 320.917 349.98C320.97 349.301 321.172 348.792 321.352 348.76Z" fill="white"/>
<g opacity="0.2">
<path d="M322.074 348.951C322.47 348.925 322.867 348.925 323.263 348.951L323.857 349.004L324.154 349.057C324.247 349.089 324.343 349.11 324.441 349.121C324.824 349.185 325.21 349.227 325.598 349.248L326.786 349.354C326.39 349.375 325.994 349.375 325.598 349.354C325.196 349.358 324.795 349.329 324.398 349.27C324.3 349.256 324.204 349.231 324.112 349.195L323.825 349.142L323.252 349.057L322.074 348.951Z" fill="black"/>
<path d="M322.848 349.365L323.687 349.503C323.963 349.556 324.239 349.62 324.504 349.651C324.78 349.667 325.056 349.667 325.332 349.651H326.171C325.898 349.724 325.622 349.781 325.343 349.821C325.057 349.853 324.769 349.853 324.483 349.821C324.203 349.775 323.927 349.711 323.655 349.63C323.38 349.562 323.11 349.474 322.848 349.365V349.365Z" fill="black"/>
<path d="M326.234 349.959C326.596 349.692 327.027 349.533 327.476 349.503C327.705 349.489 327.934 349.529 328.145 349.62C328.262 349.663 328.367 349.731 328.453 349.821C328.499 349.87 328.535 349.928 328.559 349.991C328.565 350.015 328.565 350.041 328.559 350.065C328.559 350.065 328.559 350.065 328.559 350.065C328.543 350.097 328.521 350.126 328.495 350.15C328.327 350.324 328.108 350.439 327.869 350.479C327.751 350.51 327.626 350.51 327.508 350.479L327.168 350.426C327.073 350.351 326.967 350.298 326.914 350.161C326.903 350.141 326.898 350.119 326.898 350.097C326.898 350.075 326.903 350.053 326.914 350.033C326.922 350.016 326.934 350 326.948 349.987C326.963 349.974 326.98 349.965 326.999 349.959H327.168C327.281 349.943 327.395 349.943 327.508 349.959C327.618 349.967 327.724 350.003 327.816 350.065C327.613 349.996 327.393 349.996 327.19 350.065H327.041C327.041 350.065 327.041 350.065 327.041 350.129C327.041 350.192 327.168 350.256 327.253 350.298C327.345 350.346 327.441 350.385 327.54 350.415C327.634 350.441 327.733 350.441 327.827 350.415C328.024 350.371 328.204 350.272 328.347 350.129C328.33 350.094 328.309 350.062 328.283 350.033C328.215 349.959 328.132 349.901 328.039 349.864C327.851 349.784 327.649 349.741 327.444 349.736C327.229 349.733 327.014 349.762 326.808 349.821C326.613 349.851 326.421 349.897 326.234 349.959V349.959Z" fill="black"/>
<path d="M328.527 350.627C328.259 350.768 327.968 350.861 327.667 350.903C327.516 350.919 327.363 350.919 327.211 350.903C327.055 350.88 326.902 350.841 326.755 350.786C326.478 350.679 326.212 350.548 325.959 350.394C325.697 350.261 325.418 350.164 325.131 350.108C325.433 350.086 325.736 350.14 326.012 350.267C326.298 350.373 326.553 350.511 326.818 350.606C327.086 350.708 327.371 350.755 327.657 350.744C327.95 350.735 328.242 350.696 328.527 350.627V350.627Z" fill="black"/>
<path d="M321.861 351.211H322.923C323.276 351.233 323.631 351.233 323.984 351.211C324.334 351.148 324.691 351.126 325.046 351.147C325.396 351.147 325.746 351.211 326.107 351.264H325.046C324.69 351.267 324.335 351.299 323.984 351.359C323.632 351.4 323.275 351.4 322.923 351.359C322.566 351.331 322.212 351.281 321.861 351.211V351.211Z" fill="black"/>
<path d="M326.595 350.988L325.714 350.776L325.269 350.691C325.128 350.664 324.984 350.664 324.844 350.691L323.952 350.871L323.496 350.924C323.338 350.95 323.177 350.95 323.018 350.924C322.867 350.892 322.718 350.849 322.573 350.797C322.415 350.743 322.27 350.656 322.148 350.542C322.121 350.5 322.099 350.453 322.084 350.404C322.063 350.35 322.063 350.289 322.084 350.235C322.134 350.151 322.214 350.09 322.307 350.065C322.457 350.011 322.615 349.983 322.774 349.98C322.93 349.97 323.086 349.97 323.241 349.98C323.4 349.999 323.552 350.053 323.687 350.139C323.709 350.151 323.728 350.168 323.743 350.188C323.757 350.208 323.767 350.231 323.772 350.256C323.772 350.33 323.698 350.351 323.666 350.373H323.443C323.291 350.388 323.138 350.388 322.987 350.373L323.432 350.32C323.56 350.32 323.793 350.224 323.634 350.161C323.507 350.092 323.365 350.056 323.22 350.054C323.075 350.039 322.929 350.039 322.785 350.054C322.64 350.065 322.498 350.094 322.36 350.139C322.307 350.139 322.254 350.203 322.244 350.235C322.231 350.251 322.224 350.272 322.224 350.293C322.224 350.314 322.231 350.335 322.244 350.351C322.345 350.44 322.465 350.505 322.594 350.542C322.732 350.595 322.874 350.637 323.018 350.67C323.307 350.711 323.6 350.711 323.889 350.67C324.186 350.67 324.473 350.564 324.78 350.532H325.014C325.092 350.526 325.17 350.526 325.247 350.532L325.693 350.648C326.022 350.776 326.309 350.871 326.595 350.988Z" fill="black"/>
<path d="M324.653 350.139C324.239 350.065 323.857 349.959 323.464 349.853L322.891 349.704C322.698 349.643 322.498 349.607 322.296 349.598C322.499 349.551 322.71 349.551 322.912 349.598C323.117 349.621 323.319 349.66 323.517 349.715C323.911 349.81 324.293 349.953 324.653 350.139V350.139Z" fill="black"/>
</g>
<path d="M327.657 349.365C327.657 349.365 334.556 348.432 334.97 348.707C335.384 348.983 335.723 350.988 334.896 351.465C334.068 351.942 327.752 350.988 327.752 350.988C327.549 350.771 327.429 350.49 327.411 350.194C327.394 349.897 327.481 349.604 327.657 349.365V349.365Z" fill="#FFC727"/>
<path opacity="0.49" d="M327.657 349.365C327.657 349.365 334.556 348.432 334.97 348.707C335.384 348.983 335.723 350.988 334.896 351.465C334.068 351.942 327.752 350.988 327.752 350.988C327.549 350.771 327.429 350.49 327.411 350.194C327.394 349.897 327.481 349.604 327.657 349.365V349.365Z" fill="black"/>
<path opacity="0.2" d="M334.928 348.792C334.726 348.792 334.376 349.429 334.45 350.192C334.524 350.956 334.779 351.412 334.896 351.402C335.012 351.391 335.395 350.967 335.342 350.023C335.31 349.365 335.108 348.835 334.928 348.792Z" fill="white"/>
<g opacity="0.2">
<path d="M327.912 350.797L329.09 350.861C329.284 350.871 329.479 350.871 329.674 350.861H329.96H330.268C330.667 350.868 331.064 350.907 331.457 350.977C331.847 351.037 332.233 351.118 332.614 351.221L331.436 351.126C331.043 351.126 330.65 351.051 330.268 351.051H329.981C329.879 351.062 329.776 351.062 329.674 351.051C329.476 351.062 329.277 351.062 329.079 351.051C328.686 350.956 328.294 350.882 327.912 350.797Z" fill="black"/>
<path d="M328.623 350.776C328.889 350.682 329.163 350.607 329.44 350.553C329.72 350.489 330.003 350.447 330.289 350.426C330.575 350.425 330.86 350.457 331.138 350.521C331.415 350.583 331.688 350.661 331.956 350.754L331.117 350.67C330.846 350.636 330.573 350.619 330.3 350.617L329.472 350.701L328.623 350.776Z" fill="black"/>
<path d="M332.041 350.426C332.231 350.533 332.43 350.625 332.635 350.702C332.837 350.77 333.048 350.813 333.261 350.829C333.467 350.844 333.673 350.815 333.866 350.744C333.962 350.716 334.049 350.665 334.121 350.595C334.154 350.571 334.18 350.538 334.195 350.5V350.5V350.447C334.062 350.296 333.889 350.185 333.696 350.129C333.606 350.107 333.511 350.107 333.42 350.129L333.113 350.214C333.025 350.246 332.948 350.301 332.89 350.373C332.89 350.373 332.89 350.373 332.89 350.436H333.028C333.233 350.511 333.459 350.511 333.664 350.436C333.57 350.498 333.459 350.531 333.346 350.532C333.233 350.548 333.119 350.548 333.006 350.532L332.837 350.479C332.837 350.479 332.773 350.479 332.752 350.394C332.741 350.376 332.736 350.356 332.736 350.336C332.736 350.315 332.741 350.295 332.752 350.277C332.81 350.162 332.908 350.071 333.028 350.023L333.346 349.906C333.468 349.874 333.596 349.874 333.718 349.906C333.948 349.968 334.155 350.098 334.312 350.277V350.373C334.319 350.397 334.319 350.423 334.312 350.447C334.285 350.507 334.245 350.562 334.195 350.606C334.103 350.688 333.994 350.749 333.877 350.786C333.658 350.86 333.426 350.882 333.197 350.85C332.782 350.808 332.384 350.662 332.041 350.426V350.426Z" fill="black"/>
<path d="M334.376 349.906C334.101 349.811 333.816 349.747 333.527 349.715C333.246 349.678 332.96 349.699 332.688 349.779C332.412 349.853 332.147 349.97 331.85 350.065C331.563 350.162 331.258 350.191 330.958 350.15C331.251 350.12 331.537 350.045 331.807 349.927C332.073 349.794 332.35 349.684 332.635 349.598C332.783 349.552 332.937 349.527 333.091 349.524C333.243 349.508 333.396 349.508 333.548 349.524C333.845 349.599 334.126 349.729 334.376 349.906V349.906Z" fill="black"/>
<path d="M330.257 349.248C330.608 349.174 330.962 349.121 331.319 349.089C331.671 349.048 332.028 349.048 332.38 349.089C332.731 349.149 333.086 349.181 333.442 349.185H334.503C334.152 349.248 333.798 349.291 333.442 349.312C333.089 349.353 332.733 349.353 332.38 349.312C332.027 349.284 331.672 349.284 331.319 349.312L330.257 349.248Z" fill="black"/>
<path d="M332.476 349.365L331.595 349.599L331.149 349.673C331.068 349.683 330.986 349.683 330.905 349.673H330.671L329.791 349.461C329.51 349.388 329.22 349.356 328.931 349.365L328.506 349.45C328.373 349.482 328.246 349.54 328.135 349.62C328.125 349.638 328.121 349.658 328.121 349.678C328.121 349.698 328.125 349.718 328.135 349.736C328.161 349.781 328.203 349.815 328.251 349.832C328.383 349.892 328.523 349.934 328.665 349.959C328.81 349.97 328.956 349.97 329.101 349.959C329.243 349.967 329.384 349.942 329.515 349.885C329.674 349.885 329.451 349.758 329.323 349.715C329.181 349.672 329.036 349.64 328.888 349.62H329.334C329.415 349.635 329.493 349.66 329.568 349.694C329.593 349.701 329.615 349.717 329.63 349.738C329.646 349.759 329.654 349.785 329.653 349.811C329.648 349.835 329.638 349.858 329.623 349.878C329.608 349.899 329.589 349.915 329.568 349.927C329.421 349.997 329.263 350.037 329.101 350.044C328.949 350.06 328.796 350.06 328.644 350.044C328.484 350.034 328.326 349.998 328.177 349.938C328.085 349.898 328.009 349.827 327.965 349.736C327.949 349.685 327.949 349.629 327.965 349.577C327.979 349.526 328.004 349.479 328.039 349.439C328.17 349.334 328.322 349.258 328.485 349.217C328.635 349.174 328.787 349.142 328.941 349.121C329.1 349.1 329.261 349.1 329.419 349.121C329.57 349.143 329.719 349.175 329.865 349.217L330.735 349.461C330.879 349.487 331.027 349.487 331.17 349.461H331.616C331.892 349.503 332.189 349.45 332.476 349.365Z" fill="black"/>
<path d="M330.48 350.097C330.108 350.268 329.716 350.393 329.313 350.468C329.112 350.503 328.911 350.528 328.708 350.542C328.498 350.558 328.287 350.526 328.092 350.447C328.29 350.469 328.489 350.469 328.686 350.447L329.281 350.33C329.676 350.23 330.076 350.152 330.48 350.097Z" fill="black"/>
<path d="M332.316 350.839C332.635 350.945 332.921 351.041 333.229 351.115L333.686 351.2H334.163C334.014 351.271 333.851 351.311 333.686 351.317C333.518 351.321 333.35 351.303 333.187 351.264C333.026 351.223 332.869 351.166 332.72 351.094C332.573 351.03 332.437 350.945 332.316 350.839V350.839Z" fill="black"/>
</g>
<path d="M333.399 334.781C333.399 334.81 333.405 334.838 333.416 334.864C333.428 334.891 333.444 334.915 333.465 334.935C333.486 334.954 333.511 334.97 333.538 334.98C333.565 334.99 333.593 334.994 333.622 334.993C333.678 334.993 333.732 334.971 333.772 334.931C333.812 334.891 333.834 334.837 333.834 334.781C333.836 334.752 333.831 334.723 333.821 334.696C333.811 334.669 333.796 334.645 333.776 334.624C333.756 334.603 333.732 334.586 333.706 334.575C333.679 334.564 333.651 334.558 333.622 334.558C333.563 334.558 333.506 334.581 333.464 334.623C333.423 334.665 333.399 334.722 333.399 334.781Z" fill="#FFC727"/>
<path d="M331.117 325.606C331.117 325.648 331.129 325.689 331.153 325.724C331.176 325.759 331.209 325.786 331.248 325.802C331.287 325.818 331.329 325.822 331.371 325.814C331.412 325.806 331.45 325.786 331.479 325.756C331.509 325.726 331.529 325.688 331.537 325.647C331.546 325.606 331.541 325.563 331.525 325.525C331.509 325.486 331.482 325.453 331.447 325.43C331.412 325.406 331.371 325.394 331.329 325.394C331.273 325.394 331.219 325.416 331.179 325.456C331.139 325.496 331.117 325.55 331.117 325.606Z" fill="#FFC727"/>
<path d="M322.923 333.381C322.963 333.42 323.016 333.441 323.072 333.441C323.127 333.441 323.18 333.42 323.22 333.381C323.26 333.339 323.282 333.284 323.282 333.227C323.282 333.17 323.26 333.115 323.22 333.073C323.18 333.034 323.127 333.012 323.072 333.012C323.016 333.012 322.963 333.034 322.923 333.073C322.901 333.092 322.883 333.116 322.87 333.142C322.858 333.169 322.852 333.198 322.852 333.227C322.852 333.256 322.858 333.285 322.87 333.312C322.883 333.338 322.901 333.362 322.923 333.381V333.381Z" fill="#FFC727"/>
<path d="M321.033 346.427C321.033 346.483 321.056 346.537 321.096 346.577C321.135 346.617 321.189 346.639 321.246 346.639C321.302 346.639 321.356 346.617 321.396 346.577C321.436 346.537 321.458 346.483 321.458 346.427C321.458 346.371 321.436 346.317 321.396 346.277C321.356 346.237 321.302 346.215 321.246 346.215C321.189 346.215 321.135 346.237 321.096 346.277C321.056 346.317 321.033 346.371 321.033 346.427V346.427Z" fill="#FFC727"/>
<path d="M334.386 344.974C334.386 345.016 334.399 345.057 334.422 345.092C334.445 345.127 334.478 345.154 334.517 345.17C334.556 345.186 334.599 345.19 334.64 345.182C334.681 345.174 334.719 345.153 334.749 345.124C334.778 345.094 334.799 345.056 334.807 345.015C334.815 344.974 334.811 344.931 334.795 344.893C334.779 344.854 334.751 344.821 334.716 344.797C334.682 344.774 334.641 344.762 334.599 344.762C334.542 344.762 334.488 344.784 334.448 344.824C334.409 344.864 334.386 344.918 334.386 344.974V344.974Z" fill="#FFC727"/>
<path d="M333.113 336.17C333.113 336.246 333.143 336.319 333.196 336.373C333.25 336.426 333.323 336.457 333.399 336.457C333.475 336.457 333.548 336.426 333.602 336.373C333.656 336.319 333.686 336.246 333.686 336.17C333.686 336.094 333.656 336.021 333.602 335.968C333.548 335.914 333.475 335.884 333.399 335.884C333.361 335.884 333.324 335.891 333.289 335.906C333.255 335.92 333.223 335.941 333.196 335.968C333.17 335.994 333.149 336.026 333.134 336.061C333.12 336.095 333.113 336.133 333.113 336.17Z" fill="#FFC727"/>
<path d="M324.112 330.994C324.157 331.027 324.211 331.046 324.267 331.048C324.323 331.051 324.378 331.037 324.426 331.009C324.474 330.98 324.513 330.938 324.538 330.888C324.562 330.838 324.571 330.781 324.564 330.726C324.557 330.67 324.534 330.618 324.498 330.576C324.461 330.533 324.413 330.503 324.359 330.487C324.306 330.472 324.248 330.472 324.195 330.489C324.142 330.505 324.094 330.537 324.059 330.581C324.034 330.611 324.015 330.646 324.005 330.683C323.994 330.721 323.991 330.76 323.996 330.799C324.001 330.838 324.014 330.875 324.034 330.908C324.053 330.942 324.08 330.971 324.112 330.994V330.994Z" fill="#FFC727"/>
<path d="M321.575 341.686C321.577 341.763 321.61 341.836 321.665 341.889C321.721 341.942 321.795 341.972 321.872 341.972C321.948 341.972 322.021 341.942 322.075 341.888C322.128 341.835 322.158 341.762 322.158 341.686C322.159 341.609 322.129 341.535 322.075 341.479C322.022 341.424 321.949 341.392 321.872 341.389C321.794 341.391 321.72 341.424 321.665 341.479C321.61 341.534 321.577 341.608 321.575 341.686V341.686Z" fill="#FFC727"/>
<path d="M332.656 335.757C332.656 335.774 332.659 335.79 332.666 335.806C332.672 335.821 332.682 335.836 332.693 335.847C332.705 335.859 332.719 335.869 332.735 335.875C332.75 335.882 332.767 335.885 332.784 335.885C332.801 335.885 332.817 335.882 332.833 335.875C332.848 335.869 332.862 335.859 332.874 335.847C332.886 335.836 332.895 335.821 332.902 335.806C332.908 335.79 332.912 335.774 332.912 335.757C332.909 335.724 332.895 335.693 332.871 335.669C332.848 335.646 332.817 335.632 332.784 335.629C332.75 335.629 332.717 335.643 332.693 335.667C332.669 335.691 332.656 335.723 332.656 335.757Z" fill="#FFC727"/>
<path d="M333.845 339.937C333.916 339.937 333.973 339.879 333.973 339.809C333.973 339.738 333.916 339.681 333.845 339.681C333.775 339.681 333.718 339.738 333.718 339.809C333.718 339.879 333.775 339.937 333.845 339.937Z" fill="#FFC727"/>
<path d="M335.352 343.829C335.352 343.863 335.366 343.895 335.389 343.919C335.413 343.943 335.446 343.957 335.48 343.957C335.514 343.957 335.546 343.943 335.57 343.919C335.594 343.895 335.608 343.863 335.608 343.829C335.608 343.795 335.594 343.762 335.57 343.738C335.546 343.714 335.514 343.701 335.48 343.701C335.447 343.703 335.416 343.718 335.392 343.741C335.369 343.765 335.355 343.796 335.352 343.829V343.829Z" fill="#FFC727"/>
<path d="M321.161 340.785C321.161 340.819 321.174 340.851 321.198 340.875C321.222 340.899 321.255 340.912 321.289 340.912C321.323 340.912 321.355 340.899 321.379 340.875C321.403 340.851 321.417 340.819 321.417 340.785C321.414 340.752 321.4 340.721 321.376 340.697C321.353 340.674 321.322 340.659 321.289 340.657C321.255 340.657 321.222 340.67 321.198 340.694C321.174 340.718 321.161 340.751 321.161 340.785V340.785Z" fill="#FFC727"/>
<path d="M334.354 331.801C334.354 331.832 334.367 331.862 334.389 331.884C334.411 331.906 334.44 331.918 334.471 331.918C334.488 331.919 334.504 331.917 334.52 331.912C334.535 331.907 334.549 331.899 334.561 331.888C334.573 331.877 334.583 331.863 334.589 331.848C334.596 331.833 334.599 331.817 334.599 331.801C334.599 331.767 334.586 331.734 334.562 331.71C334.538 331.686 334.505 331.673 334.471 331.673C334.455 331.673 334.439 331.676 334.424 331.683C334.409 331.689 334.396 331.699 334.385 331.711C334.374 331.723 334.365 331.737 334.36 331.753C334.355 331.768 334.353 331.785 334.354 331.801Z" fill="#FFC727"/>
<path d="M328.708 330.762C328.778 330.762 328.836 330.705 328.836 330.634C328.836 330.563 328.778 330.506 328.708 330.506C328.637 330.506 328.58 330.563 328.58 330.634C328.58 330.705 328.637 330.762 328.708 330.762Z" fill="#FFC727"/>
<path d="M327.763 328.874C327.834 328.874 327.891 328.817 327.891 328.746C327.891 328.675 327.834 328.618 327.763 328.618C327.693 328.618 327.635 328.675 327.635 328.746C327.635 328.817 327.693 328.874 327.763 328.874Z" fill="#FFC727"/>
<path d="M323.453 349.715C324.771 350.217 326.148 350.549 327.551 350.702H328.389C328.389 350.702 330.512 350.203 330.799 350.097C331.085 349.991 331.86 350.32 332.157 350.097C332.939 349.499 333.623 348.784 334.184 347.976C334.081 347.209 333.896 346.455 333.633 345.727C333.633 345.419 334.057 343.606 334.1 342.99C334.142 342.375 332.348 339.395 332.178 338.907C332.219 338.129 332.395 337.365 332.698 336.648C332.698 336.648 331.223 338.196 331.266 338.567C331.308 338.939 331.987 339.766 332.03 340.031C332.072 340.296 331.106 342.152 331.138 342.428C331.335 342.913 331.478 343.418 331.563 343.934C331.46 343.486 331.223 343.079 330.883 342.768C330.5 342.557 330.128 342.327 329.769 342.078C329.428 341.495 329.195 340.856 329.079 340.19C329.329 339.807 329.468 339.363 329.482 338.907C329.126 337.931 328.66 336.998 328.092 336.128C328.092 336.128 328.325 337.316 328.092 337.602C327.858 337.889 327.03 338.323 326.935 338.546C326.839 338.769 327.699 339.734 327.593 339.967C327.487 340.201 325.587 340.593 325.396 340.858C325.027 341.687 324.831 342.582 324.823 343.489C324.961 343.871 325.417 345.324 325.162 345.61C324.908 345.897 324.334 346.013 324.313 345.897C324.468 345.381 324.536 344.843 324.515 344.306C324.377 343.743 323.772 342.513 323.729 342.184C323.815 341.436 323.997 340.701 324.271 339.999C323.76 340.771 323.343 341.601 323.029 342.471C323.092 343.321 323.202 344.167 323.358 345.006C323.358 345.006 323.082 344.825 323.018 344.698C322.989 344.345 322.989 343.99 323.018 343.637C322.674 344.022 322.388 344.454 322.169 344.921C322.084 345.303 322.519 346.257 322.456 346.586C322.392 346.915 322.052 347.647 322.01 348.071C321.967 348.495 323.124 349.514 323.453 349.715ZM332.56 346.841C332.463 347.292 332.295 347.725 332.062 348.124C332.062 348.124 332.157 347.498 332.157 347.244C332.102 346.913 332.01 346.589 331.881 346.278C331.844 345.874 331.958 345.47 332.2 345.144C332.395 345.691 332.516 346.261 332.56 346.841ZM330.777 349.789L331.552 349.11C331.807 348.877 332.56 348.538 332.698 348.315C332.854 347.883 332.975 347.44 333.059 346.989C333.152 347.471 333.184 347.963 333.155 348.453C332.843 348.969 332.419 349.408 331.913 349.736C331.541 349.824 331.156 349.842 330.777 349.789ZM325.162 346.448C324.954 346.803 324.807 347.19 324.727 347.594C324.75 347.973 324.875 348.34 325.088 348.654C325.228 348.939 325.338 349.238 325.417 349.545C325.417 349.545 324.526 349.132 324.356 348.485C324.186 347.838 325.109 346.522 325.162 346.448V346.448Z" fill="#FFC727"/>
<path d="M331.202 337.072C331.202 337.072 332.125 336.414 332.147 335.926C332.168 335.438 331.573 334.388 331.637 333.996C331.688 333.723 331.777 333.459 331.903 333.211C331.903 333.211 330.926 333.879 330.926 334.431C330.926 334.982 331.51 335.852 331.457 336.128C331.404 336.404 331.202 337.072 331.202 337.072Z" fill="#FFC727"/>
<path d="M325.683 340.095C325.783 339.8 325.844 339.493 325.863 339.183C325.801 338.956 325.684 338.749 325.523 338.578C325.449 338.672 325.399 338.784 325.379 338.903C325.358 339.021 325.368 339.143 325.407 339.257C325.523 339.681 325.683 340.095 325.683 340.095Z" fill="#FFC727"/>
<path d="M323.4 339.978C323.67 339.552 323.851 339.076 323.931 338.578C323.938 338.011 323.807 337.45 323.549 336.945C323.379 336.746 323.174 336.581 322.944 336.457C323.099 336.69 323.214 336.949 323.284 337.22C323.284 337.454 323.114 338.186 323.093 338.472C323.156 338.981 323.259 339.485 323.4 339.978V339.978Z" fill="#FFC727"/>
<path d="M329.397 336.17C329.397 336.17 330.087 335.226 329.96 334.611C329.792 334.014 329.491 333.463 329.079 332.999C328.744 332.67 328.436 332.315 328.156 331.938C327.938 331.342 327.938 330.689 328.156 330.093C328.321 329.893 328.528 329.73 328.761 329.615C328.458 329.615 328.159 329.687 327.889 329.825C327.62 329.963 327.387 330.164 327.211 330.411C326.606 331.249 325.831 334.526 326.149 335.279C326.507 335.857 326.976 336.358 327.529 336.754C327.408 336.221 327.348 335.677 327.349 335.131C327.444 334.813 328.41 335.131 328.644 335.332C328.919 335.589 329.171 335.87 329.397 336.17V336.17Z" fill="#FFC727"/>
<path d="M330.99 340.805C330.99 340.805 331.414 340.36 331.329 339.978C331.244 339.596 330.693 339.023 330.661 338.843C330.674 338.536 330.717 338.23 330.788 337.931C330.788 337.931 330.236 338.992 330.363 339.289C330.491 339.586 330.597 340.095 330.597 340.095C330.597 340.095 330.353 339.936 330.3 339.798C330.259 339.684 330.227 339.567 330.204 339.448C330.204 339.448 329.79 339.967 329.918 340.328C330.147 340.722 330.433 341.079 330.767 341.389C330.759 341.279 330.759 341.169 330.767 341.06C330.767 340.933 330.841 340.996 330.99 340.805Z" fill="#FFC727"/>
<g opacity="0.4">
<path d="M328.039 350.701C328.039 350.701 330.554 349.789 331.117 348.506C331.467 347.7 330.523 346.045 330.438 345.791C330.353 345.536 330.438 344.518 330.332 344.115C330.225 343.712 328.421 342.662 328.209 342.386C327.996 342.11 328.516 341.007 328.516 341.007C328.516 341.007 327.168 342.068 326.967 342.715C326.765 343.362 327.561 344.539 327.561 344.762C327.446 345.077 327.285 345.374 327.084 345.642C326.883 345.387 326.755 345.083 326.712 344.762C326.712 344.337 326.914 344.125 326.871 343.828C326.729 343.507 326.527 343.216 326.277 342.969C326.429 343.228 326.482 343.533 326.425 343.828C326.277 344.178 325.598 344.889 325.693 345.409C325.789 345.928 326.606 347.201 326.532 347.53C326.485 347.739 326.398 347.937 326.277 348.113C326.157 347.84 326.061 347.556 325.99 347.265C325.916 346.925 325.842 346.469 325.842 346.469C325.842 346.469 325.428 348.707 325.842 349.333C326.481 349.924 327.226 350.389 328.039 350.701Z" fill="white"/>
<path d="M328.708 335.141C328.858 334.834 328.958 334.505 329.005 334.166C329.005 333.837 328.421 333.391 328.145 333.105C327.719 332.713 327.435 332.191 327.338 331.62C327.338 331.196 327.455 330.877 327.455 330.877C327.074 331.905 326.811 332.973 326.67 334.06C326.695 334.515 326.866 334.95 327.158 335.3C327.158 335.3 327.317 334.579 327.667 334.6C328.056 334.684 328.416 334.871 328.708 335.141Z" fill="white"/>
<path d="M331.414 336.743C331.414 336.743 331.956 336.244 331.945 335.905C331.829 335.461 331.651 335.036 331.414 334.643C331.414 334.643 331.648 335.704 331.68 335.948C331.645 336.228 331.555 336.498 331.414 336.743Z" fill="white"/>
<path d="M325.205 349.906C325.205 349.906 324.143 349.227 323.91 349.057C323.657 348.651 323.494 348.196 323.432 347.721C323.432 347.53 323.804 346.66 323.804 346.448C323.804 346.236 323.093 345.387 323.093 345.387C323.195 345.708 323.259 346.039 323.284 346.374C323.284 346.565 322.307 347.668 322.371 348.082C322.435 348.495 323.316 349.238 323.57 349.407C324.102 349.615 324.648 349.782 325.205 349.906V349.906Z" fill="white"/>
<path d="M332.911 345.515C333.225 344.752 333.446 343.954 333.569 343.139C333.317 342.328 333.012 341.534 332.656 340.763C332.656 340.763 332.72 342.365 332.783 342.619C332.8 342.977 332.757 343.336 332.656 343.68C332.541 343.434 332.438 343.183 332.348 342.927C332.353 342.594 332.396 342.263 332.476 341.94C332.223 342.55 332.086 343.201 332.072 343.86C332.293 344.439 332.574 344.994 332.911 345.515V345.515Z" fill="white"/>
</g>
</g>
<defs>
<clipPath id="clip0_1504_1554">
<rect width="475.2" height="398.4" fill="white" transform="translate(83.2)"/>
</clipPath>
</defs>
</svg>
