<svg xmlns="http://www.w3.org/2000/svg" viewBox="0 0 97.12 21.31"><g id="Layer_2" data-name="Layer 2"><g id="Layer_1-2" data-name="Layer 1"><path d="M31.79,13.23H29l-.44,1.33H26.64l2.71-7.48h2.11l2.7,7.48H32.23Zm-.47-1.4-.93-2.74-.92,2.74Z"/><path d="M44.33,9.22A2.53,2.53,0,0,1,45,11.08v3.48H43.18V11.33a1.19,1.19,0,0,0-.31-.89,1.25,1.25,0,0,0-1.67,0,1.23,1.23,0,0,0-.3.89v3.23H39.09V11.33a1.23,1.23,0,0,0-.31-.89,1.25,1.25,0,0,0-1.67,0,1.23,1.23,0,0,0-.3.89v3.23H35v-6h1.83v.75a1.93,1.93,0,0,1,.72-.6,2.37,2.37,0,0,1,1-.21,2.47,2.47,0,0,1,1.2.28,2.18,2.18,0,0,1,.83.82,2.29,2.29,0,0,1,.84-.79,2.22,2.22,0,0,1,1.16-.31A2.32,2.32,0,0,1,44.33,9.22Z"/><path d="M46.25,10a2.63,2.63,0,0,1,.94-1.06,2.49,2.49,0,0,1,1.34-.38,2.29,2.29,0,0,1,1.1.26,1.83,1.83,0,0,1,.73.67V8.61h1.82v6H50.36v-.85a2.11,2.11,0,0,1-.74.68,2.32,2.32,0,0,1-1.1.25,2.37,2.37,0,0,1-1.33-.38,2.66,2.66,0,0,1-.94-1.07,3.64,3.64,0,0,1-.34-1.62A3.6,3.6,0,0,1,46.25,10Zm3.73.55a1.21,1.21,0,0,0-.92-.4,1.23,1.23,0,0,0-.92.39,1.49,1.49,0,0,0-.38,1.07,1.5,1.5,0,0,0,.38,1.08,1.21,1.21,0,0,0,.92.4,1.23,1.23,0,0,0,.92-.39,1.5,1.5,0,0,0,.38-1.08A1.49,1.49,0,0,0,50,10.51Z"/><path d="M56.12,8.83a2.06,2.06,0,0,1,1.07-.28v1.92h-.5a1.48,1.48,0,0,0-1,.3,1.29,1.29,0,0,0-.35,1v2.76H53.5v-6h1.82v1A2.45,2.45,0,0,1,56.12,8.83Z"/><path d="M65.72,10.67a2.13,2.13,0,0,1-.91.87,3.25,3.25,0,0,1-1.54.33H62.14v2.69H60.32V7.08h3a3.49,3.49,0,0,1,1.52.3,2.08,2.08,0,0,1,.92.86,2.57,2.57,0,0,1,0,2.43Zm-1.81-.49a.94.94,0,0,0,.26-.7.92.92,0,0,0-.26-.69,1.09,1.09,0,0,0-.77-.24h-1v1.87h1A1.09,1.09,0,0,0,63.91,10.18Z"/><path d="M67,10A2.56,2.56,0,0,1,67.9,8.9a2.46,2.46,0,0,1,1.33-.38,2.26,2.26,0,0,1,1.1.26,1.83,1.83,0,0,1,.73.67V8.61h1.83v6H71.06v-.85a2,2,0,0,1-.74.68,2.26,2.26,0,0,1-1.1.25,2.36,2.36,0,0,1-1.32-.38A2.59,2.59,0,0,1,67,13.19a3.51,3.51,0,0,1-.35-1.62A3.47,3.47,0,0,1,67,10Zm3.72.55a1.19,1.19,0,0,0-.92-.4,1.23,1.23,0,0,0-.92.39,1.49,1.49,0,0,0-.38,1.07,1.5,1.5,0,0,0,.38,1.08,1.27,1.27,0,0,0,1.84,0,1.45,1.45,0,0,0,.38-1.08A1.45,1.45,0,0,0,70.68,10.51Z"/><path d="M74.22,10A2.64,2.64,0,0,1,75.28,8.9a3.15,3.15,0,0,1,1.55-.38,3,3,0,0,1,1.87.59,2.73,2.73,0,0,1,1,1.65H77.74a.93.93,0,0,0-.94-.68,1,1,0,0,0-.8.39,1.79,1.79,0,0,0-.3,1.11A1.8,1.8,0,0,0,76,12.7a1,1,0,0,0,.8.39.93.93,0,0,0,.94-.69h1.94a2.7,2.7,0,0,1-1,1.64,2.88,2.88,0,0,1-1.86.6,3.14,3.14,0,0,1-1.55-.37,2.66,2.66,0,0,1-1.06-1.07,3.34,3.34,0,0,1-.38-1.62A3.37,3.37,0,0,1,74.22,10Z"/><path d="M84.29,14.56l-1.81-2.5v2.5H80.65V6.67h1.83V11l1.8-2.42h2.24l-2.47,3,2.5,3Z"/><path d="M92.81,12H88.69a1.26,1.26,0,0,0,.35.85,1.12,1.12,0,0,0,.78.29,1,1,0,0,0,1-.58H92.7a2.47,2.47,0,0,1-.53,1.06,2.66,2.66,0,0,1-1,.73,3.1,3.1,0,0,1-1.31.27,3.14,3.14,0,0,1-1.55-.37,2.69,2.69,0,0,1-1.07-1.07,3.23,3.23,0,0,1-.38-1.62A3.37,3.37,0,0,1,87.25,10,2.7,2.7,0,0,1,88.31,8.9a3.41,3.41,0,0,1,3.11,0,2.58,2.58,0,0,1,1,1,3.07,3.07,0,0,1,.38,1.57A4.84,4.84,0,0,1,92.81,12ZM91,11a1,1,0,0,0-.32-.75,1.2,1.2,0,0,0-.8-.28,1.13,1.13,0,0,0-.77.27,1.19,1.19,0,0,0-.39.76Z"/><path d="M97.12,13v1.55h-.93a2.3,2.3,0,0,1-1.55-.49,2,2,0,0,1-.55-1.58V10.12h-.72V8.61h.72V7.16h1.82V8.61h1.2v1.51h-1.2v2.39a.46.46,0,0,0,.13.38.63.63,0,0,0,.43.12Z"/><path d="M0,21.3c-.13-1.79,2.1-4.59,2.1-4.59a2,2,0,0,0-.78.63s2.93-4.47,5-2.39"/><path d="M0,21.3c1.78.13,4.57-2.1,4.57-2.1A2,2,0,0,1,4,20S8.41,17,6.34,15"/><path d="M3.06,18.24c-.07-.91,1.06-2.32,1.06-2.32a.92.92,0,0,0-.39.31S5.22,14,6.27,15"/><path d="M3.06,18.24c.9.07,2.32-1.07,2.32-1.07a1.07,1.07,0,0,1-.32.4S7.32,16.08,6.27,15"/><path d="M10.93,12.28l-.06-.34-.12-.53c0-.11-.06-.22-.08-.33a14.2,14.2,0,0,0-1.29-3.2L9.31,8l0,0-.07.15s-.05.11-.08.17-.05.11-.08.17l0,.06v.05l0,.06c0,.06-.05.12-.07.17A1.12,1.12,0,0,0,8.87,9l0,.05v0l0,.05v0a.36.36,0,0,1,0,.09s0,0,0,0l0,.07h0l0,.07,0,.13c0,.09-.07.18-.1.27s-.05.18-.08.27l0,.1s0,0,0,.05,0,0,0,0v0s0,.06,0,.09,0,.09,0,.14,0,0,0,.06,0,.12,0,.18a1.24,1.24,0,0,0,0,.16s0,.05,0,.07,0,.14-.05.21,0,.08,0,.13,0,0,0,.06v.06s0,.06,0,.09,0,.05,0,.07a.22.22,0,0,0,0,.08s0,.06,0,.08,0,.07,0,.1l0,.18v0a.51.51,0,0,0,0,.13v0s0,.08,0,.11a.28.28,0,0,0,0,.09.28.28,0,0,0,0,.09.13.13,0,0,0,0,.06s0,0,0,.06v.09a.25.25,0,0,1,0,.08.34.34,0,0,1,0,.1v.23a.28.28,0,0,0,0,.09s0,.09,0,.13a.41.41,0,0,1,0,.11,1.34,1.34,0,0,1,0,.2l.24,0,.22,0,.19,0,.11,0,.15,0,.13,0h0c0-.28,0-.56,0-.84l.29-.09c.24-.08.48-.15.73-.21,0,.29.08.6.1.9h0l.28-.07.21-.06.23-.07h0l.2-.07Q11,12.7,10.93,12.28ZM9.65,11.6l-.12,0-.07,0H9.39l-.15,0-.08,0-.08,0h0l.06-.39q.1-.63.27-1.26c.12.38.23.75.33,1.14,0,.11,0,.23.08.35Z"/><path d="M13.37,3.27l-.1.09h0l-.43.38-.06.06h0l-.08.08L12.56,4l-.07.07-.43.44c-.06.07-.13.14-.19.22l-.09.09a.52.52,0,0,1-.1.11l-.09.12c-.1.12-.21.24-.3.37l-.07.09-.05.06-.07.09-.32.45-.09.12c-.11.16-.22.33-.32.5l-.08.13a14.27,14.27,0,0,1,2,5.89,14.46,14.46,0,0,1,.07,1.47,14.28,14.28,0,0,1-1.08,5.48.54.54,0,0,1-.05.11.14.14,0,0,1,0,.06l0,.09-.17.39-.06.12a.25.25,0,0,1,0,.07l-.09.2-.08.14c-.07.15-.15.29-.23.43a14.35,14.35,0,0,0,4.87-10.23A14.33,14.33,0,0,0,21.31,0,14.19,14.19,0,0,0,13.37,3.27Zm3.54,2.66A1.39,1.39,0,1,1,18.3,4.54,1.38,1.38,0,0,1,16.91,5.93Z"/><path d="M8.9,6.56A14.2,14.2,0,0,0,.05,10.87a14.08,14.08,0,0,1,6.56-1.6c.31,0,.61,0,.91,0A9.29,9.29,0,0,1,8.9,6.56Z"/></g></g></svg>