<svg width="228" height="50" viewBox="0 0 228 50" fill="none" xmlns="http://www.w3.org/2000/svg">
<path d="M25.6378 28.8203C25.5909 28.5469 25.5441 28.2813 25.4894 28.0078C25.4034 27.5938 25.3175 27.1797 25.2159 26.7734C25.1534 26.5156 25.0909 26.25 25.0206 25.9922C24.3175 23.3516 23.3019 20.8359 22.0128 18.4922C21.9503 18.6094 21.8956 18.7266 21.8331 18.8438C21.8175 18.875 21.8019 18.9063 21.7863 18.9375C21.7316 19.0469 21.6769 19.1641 21.6222 19.2813C21.5597 19.4141 21.4972 19.5469 21.4347 19.6797C21.3722 19.8125 21.3175 19.9453 21.255 20.0781C21.2316 20.1328 21.2081 20.1797 21.1847 20.2266C21.1691 20.2578 21.1534 20.2969 21.1378 20.3281C21.1144 20.375 21.0909 20.4297 21.0753 20.4766C21.0206 20.6094 20.9581 20.75 20.9034 20.8828C20.8644 20.9766 20.8253 21.0781 20.7862 21.1719C20.7706 21.211 20.755 21.25 20.7394 21.2969C20.7316 21.3203 20.7237 21.3359 20.7159 21.3594C20.7159 21.3672 20.7081 21.3828 20.7003 21.3906C20.6847 21.4297 20.6691 21.4688 20.6534 21.5078C20.6456 21.5313 20.63 21.5547 20.6222 21.5781C20.5987 21.6484 20.5675 21.7188 20.5441 21.7813C20.5284 21.8125 20.5206 21.8438 20.5128 21.875C20.4894 21.9297 20.4659 21.9922 20.4503 22.0469C20.4503 22.0547 20.4503 22.0547 20.4425 22.0625C20.4191 22.1172 20.4034 22.1797 20.38 22.2344C20.3409 22.3359 20.3019 22.4375 20.2706 22.5391C20.1925 22.75 20.1222 22.9688 20.0519 23.1875C19.9816 23.3906 19.9191 23.6016 19.8566 23.8125C19.8331 23.8906 19.8097 23.9766 19.7862 24.0547C19.7706 24.0938 19.7628 24.1328 19.755 24.1719C19.7472 24.2031 19.7394 24.2266 19.7316 24.2578C19.7238 24.2813 19.7159 24.3125 19.7081 24.3359C19.6847 24.3984 19.6691 24.4609 19.6534 24.5313C19.6222 24.6406 19.5909 24.75 19.5597 24.8672C19.5441 24.9141 19.5362 24.961 19.5206 25.0078C19.4816 25.1485 19.4425 25.2969 19.4113 25.4453C19.38 25.5703 19.3488 25.6875 19.3175 25.8125C19.3019 25.8672 19.2941 25.9219 19.2784 25.9766C19.2394 26.1406 19.2003 26.3047 19.1691 26.4688C19.1456 26.5625 19.13 26.6641 19.1066 26.7578C19.0909 26.8047 19.0831 26.8594 19.0753 26.9063C19.0675 26.9375 19.0597 26.9688 19.0597 27C19.0597 27.0156 19.0519 27.0391 19.0519 27.0547C19.0363 27.125 19.0284 27.1875 19.0128 27.2578C19.005 27.3125 18.9894 27.375 18.9816 27.4297C18.9659 27.4922 18.9581 27.5547 18.9503 27.6172C18.9347 27.6797 18.9269 27.7422 18.9191 27.8047C18.9034 27.8828 18.8956 27.9531 18.88 28.0313C18.8566 28.1719 18.8331 28.3125 18.8097 28.4609C18.8019 28.5 18.7941 28.5391 18.7941 28.5859C18.7784 28.6875 18.7628 28.7813 18.7472 28.8828C18.7472 28.8985 18.7394 28.9219 18.7394 28.9375C18.7237 29.0235 18.7159 29.1172 18.7003 29.2031C18.6925 29.2735 18.6847 29.3438 18.6769 29.4062C18.6691 29.4766 18.6613 29.5469 18.6534 29.6094C18.6456 29.6563 18.6378 29.7109 18.6378 29.7578C18.63 29.8047 18.63 29.8438 18.6222 29.8906C18.6222 29.9219 18.6144 29.9531 18.6144 29.9766C18.6144 30.0156 18.6066 30.0547 18.5987 30.0938C18.5909 30.1563 18.5831 30.2188 18.5831 30.2813C18.5753 30.3594 18.5675 30.4453 18.5597 30.5313C18.5519 30.6094 18.5441 30.6953 18.5363 30.7734C18.5363 30.8047 18.5284 30.8438 18.5284 30.875C18.5284 30.8906 18.5284 30.8985 18.5284 30.9141C18.5284 30.9375 18.5206 30.961 18.5206 30.9844C18.5206 31.0078 18.5128 31.0391 18.5128 31.0625C18.505 31.1328 18.4972 31.2031 18.4972 31.2656C18.4894 31.3672 18.4816 31.4688 18.4737 31.5703C18.4659 31.6563 18.4659 31.7422 18.4581 31.8281C18.4503 31.9844 18.4425 32.1328 18.4347 32.2891C18.6144 32.2734 18.8019 32.2578 18.9816 32.2422C19.1612 32.2266 19.3331 32.2031 19.505 32.1875C19.6534 32.1719 19.8019 32.1563 19.9503 32.1328C20.0363 32.125 20.1144 32.1094 20.1925 32.1016C20.3097 32.0859 20.4269 32.0703 20.5519 32.0469C20.6534 32.0313 20.755 32.0156 20.8488 32C20.8722 32 20.8956 31.9922 20.9191 31.9922H20.9347C20.9425 31.3359 20.9659 30.6875 21.005 30.0391C21.2394 29.9609 21.4659 29.8828 21.7003 29.8125C22.2628 29.6328 22.8331 29.4688 23.3956 29.3203C23.4972 30.0234 23.5831 30.7266 23.6456 31.4453C23.8644 31.3906 24.0831 31.3359 24.3097 31.2734C24.4737 31.2266 24.6378 31.1875 24.7941 31.1406C24.9737 31.0938 25.1456 31.0391 25.3253 30.9844C25.3722 30.9688 25.4112 30.9609 25.4581 30.9453C25.6144 30.8984 25.7706 30.8437 25.9269 30.7969C25.8488 30.125 25.755 29.4688 25.6378 28.8203ZM22.6378 27.2031C22.5441 27.2266 22.4425 27.2422 22.3487 27.2656C22.2941 27.2734 22.2472 27.2891 22.2003 27.2969C22.1691 27.3047 22.1378 27.3125 22.1066 27.3203C22.0909 27.3203 22.0675 27.3281 22.0519 27.3359C22.0441 27.3359 22.0363 27.3359 22.0284 27.3438C21.9113 27.3672 21.7941 27.3985 21.6769 27.4219C21.6144 27.4375 21.5519 27.4531 21.4894 27.4688C21.4269 27.4844 21.3644 27.5 21.3019 27.5156C21.2862 27.5156 21.2784 27.5235 21.2628 27.5235C21.3097 27.2188 21.3566 26.9141 21.4034 26.6094C21.5753 25.6094 21.7863 24.625 22.0441 23.6563C22.3331 24.5313 22.5909 25.4141 22.8097 26.3203C22.8722 26.586 22.9347 26.8594 22.9972 27.1328C22.88 27.1563 22.755 27.1797 22.6378 27.2031Z" fill="#282210"/>
<path d="M21.6144 15.3203C20.3019 17.3594 19.1925 19.5469 18.341 21.8594C17.4113 21.7813 16.4659 21.7422 15.5128 21.7422C9.95812 21.7422 4.72375 23.0938 0.11438 25.4922C5.63782 19.7422 13.1925 15.9688 21.6144 15.3203Z" fill="#282210"/>
<path d="M31.3644 7.66406C31.2862 7.73437 31.2003 7.79688 31.1222 7.86719L31.1144 7.87499C30.7706 8.17186 30.4347 8.46876 30.1066 8.77345C30.0519 8.82032 30.005 8.86719 29.9503 8.91407C29.9503 8.91407 29.9503 8.91405 29.9425 8.92186C29.8722 8.98436 29.8019 9.04686 29.7394 9.11717C29.6456 9.20311 29.5597 9.28906 29.4659 9.375C29.4113 9.42969 29.3566 9.47655 29.3097 9.53124C28.9659 9.87499 28.6222 10.2188 28.2941 10.5781C28.1378 10.7422 27.9894 10.9141 27.8331 11.0859C27.7628 11.1641 27.7003 11.2344 27.6378 11.3125C27.5597 11.3984 27.4816 11.4844 27.4112 11.5781C27.3331 11.6641 27.2628 11.7578 27.1847 11.8438C26.9425 12.1328 26.7081 12.4219 26.4738 12.7187C26.4191 12.7891 26.3644 12.8594 26.3097 12.9297C26.2706 12.9766 26.2316 13.0312 26.2003 13.0781C26.1456 13.1484 26.0987 13.2109 26.0441 13.2812C25.7784 13.6328 25.5284 13.9844 25.2784 14.3359C25.2081 14.4297 25.1456 14.5313 25.0831 14.625C24.8253 15.0078 24.5675 15.3984 24.3253 15.7969C24.2628 15.8984 24.2003 15.9922 24.1456 16.0938C26.6066 20.2109 28.2238 24.9062 28.7316 29.9219C28.8488 31.0625 28.9034 32.2109 28.9034 33.375C28.9034 37.9219 28.005 42.2578 26.3722 46.2109C26.3331 46.3047 26.2941 46.3906 26.255 46.4844C26.2394 46.5312 26.2159 46.5703 26.2003 46.6172C26.1691 46.6953 26.1378 46.7656 26.1066 46.8359C25.9738 47.1406 25.8409 47.4453 25.7003 47.7422C25.6612 47.8359 25.6144 47.9219 25.5753 48.0156C25.5441 48.0781 25.5206 48.1406 25.4894 48.1953C25.4191 48.3516 25.3409 48.5 25.2628 48.6484C25.2081 48.7656 25.1456 48.875 25.0909 48.9922C24.9191 49.3281 24.7316 49.6641 24.5441 50C31.255 44.1016 35.5988 35.5547 35.9581 25.9844C44.1222 20.1406 49.5597 10.7188 49.9972 0C42.9347 0.585938 36.505 3.36719 31.3644 7.66406ZM39.6769 13.9141C37.8878 13.9141 36.4347 12.4531 36.4347 10.6562C36.4347 8.85936 37.8878 7.39844 39.6769 7.39844C41.4659 7.39844 42.9191 8.85936 42.9191 10.6562C42.9191 12.4531 41.4659 13.9141 39.6769 13.9141Z" fill="#282210"/>
<g opacity="0.25">
<path d="M22.0128 18.4844C21.9503 18.6094 21.8957 18.7266 21.8332 18.8437C21.8175 18.875 21.8019 18.9062 21.7863 18.9375C21.7316 19.0469 21.6769 19.164 21.63 19.2734L21.4425 19.6719C21.38 19.8125 21.3175 19.9453 21.2628 20.0781C21.2394 20.125 21.216 20.1797 21.1925 20.2265C21.1769 20.2656 21.1613 20.2969 21.1456 20.3359C21.13 20.3828 21.1066 20.4297 21.0831 20.4844C21.0284 20.6172 20.9659 20.75 20.9113 20.8906C20.8722 20.9844 20.8331 21.0781 20.7941 21.1719C20.7784 21.2188 20.7628 21.2578 20.7472 21.2969C20.7394 21.3203 20.7316 21.3359 20.7238 21.3594C20.7238 21.3672 20.716 21.375 20.7081 21.3906C20.7003 21.4297 20.6847 21.4687 20.6691 21.5078C20.6534 21.5312 20.6457 21.5547 20.6378 21.5781C20.6144 21.6484 20.5831 21.7187 20.5597 21.789C20.5441 21.8203 20.5363 21.8437 20.5285 21.875C20.505 21.9375 20.4816 21.9922 20.4581 22.0547V22.0625C20.4347 22.125 20.4113 22.1797 20.3956 22.2344C20.3566 22.3359 20.3175 22.4375 20.2863 22.5391C20.2081 22.7578 20.1378 22.9687 20.0675 23.1875C19.9972 23.3906 19.9269 23.6016 19.8644 23.8125C19.8409 23.8906 19.8175 23.9688 19.7941 24.0547C19.7785 24.0938 19.7706 24.1328 19.7628 24.1719C19.7472 24.1953 19.7394 24.2265 19.7316 24.2578C19.7238 24.2812 19.716 24.3125 19.7081 24.3359C19.6925 24.3984 19.6769 24.4609 19.6535 24.5312C19.6222 24.6406 19.5909 24.75 19.5675 24.8672C19.5519 24.9062 19.5363 24.9531 19.5285 25.0078C19.4894 25.1484 19.4503 25.2891 19.4113 25.4375C19.38 25.5625 19.3488 25.6875 19.3253 25.8047C19.3097 25.8594 19.2941 25.9141 19.2863 25.9687C19.2472 26.1328 19.2081 26.2969 19.1691 26.4609C19.1535 26.5625 19.13 26.6562 19.1066 26.7578C19.0988 26.8047 19.091 26.8594 19.0753 26.9062C19.0753 26.9375 19.0675 26.9687 19.0597 27C19.0597 27.0156 19.0519 27.0312 19.0519 27.0547C19.0363 27.1172 19.0206 27.1875 19.0128 27.2578C18.9972 27.3125 18.9894 27.3672 18.9738 27.4297C18.966 27.4844 18.9503 27.5547 18.9425 27.6172C18.9269 27.6797 18.9191 27.7422 18.9113 27.8047C18.8956 27.875 18.88 27.9531 18.8722 28.0234C18.8488 28.1719 18.8253 28.3125 18.8019 28.4531C18.7941 28.4922 18.7863 28.5312 18.7785 28.5781C18.7628 28.6719 18.755 28.7734 18.7394 28.8672C18.7316 28.8906 18.7316 28.9062 18.7316 28.9219C18.716 29.0156 18.7081 29.1016 18.6925 29.1953C18.6847 29.2578 18.6769 29.3281 18.6691 29.3984C18.6534 29.4688 18.6456 29.5391 18.6378 29.6094C18.6378 29.6562 18.63 29.7109 18.6222 29.7578C18.6144 29.7969 18.6144 29.8438 18.6066 29.8906C18.6066 29.9141 18.5988 29.9453 18.5988 29.9766C18.591 30.0156 18.591 30.0547 18.5831 30.0937C18.5753 30.1562 18.5675 30.2188 18.5675 30.2813C18.5597 30.3594 18.5519 30.4453 18.5441 30.5234C18.5363 30.6094 18.5284 30.6875 18.5206 30.7656C18.5128 30.8047 18.5128 30.8359 18.5128 30.875C18.5128 30.8828 18.5128 30.8984 18.505 30.9141V30.9844C18.4972 31.0156 18.4972 31.0391 18.4972 31.0703C18.4894 31.1328 18.4816 31.2031 18.4816 31.2734C18.4738 31.375 18.466 31.4765 18.4581 31.5781C18.4581 31.664 18.4503 31.75 18.4425 31.8359C18.4347 31.9609 18.4269 32.1016 18.4191 32.2344L24.9113 25.6094C24.216 23.1016 23.2394 20.7187 22.0128 18.4844ZM22.3488 27.2656C22.2941 27.2812 22.2472 27.289 22.1925 27.3047C22.1613 27.3047 22.1378 27.3125 22.1066 27.3203C22.0831 27.3281 22.0675 27.3281 22.0519 27.3359H22.0285C21.9113 27.3672 21.7941 27.3906 21.6769 27.4219C21.6144 27.4375 21.5597 27.4531 21.4972 27.4687C21.4347 27.4844 21.3722 27.5 21.3097 27.5078C21.2941 27.5156 21.2785 27.5156 21.2706 27.5234C21.3097 27.2188 21.3566 26.9141 21.4113 26.6094C21.5831 25.6094 21.7941 24.625 22.0519 23.6562C22.341 24.5312 22.5988 25.4141 22.8175 26.3203C22.88 26.5859 22.9425 26.8594 23.005 27.1328C22.88 27.1563 22.755 27.1797 22.6378 27.2031C22.5363 27.2266 22.4425 27.2422 22.3488 27.2656Z" fill="white" fill-opacity="0.25"/>
<path d="M0.106567 25.4922C4.71594 23.0938 9.95812 21.7422 15.505 21.7422C16.4581 21.7422 17.4034 21.7813 18.3331 21.8594C19.1925 19.5469 20.2941 17.3594 21.6066 15.3203C13.1925 15.9688 5.63782 19.7422 0.106567 25.4922Z" fill="white" fill-opacity="0.25"/>
<path d="M31.3644 7.67188C31.2862 7.73438 31.2081 7.80468 31.1222 7.87499C31.1222 7.87499 31.1144 7.875 31.1144 7.88281C30.7706 8.17187 30.4347 8.46874 30.1066 8.78124C30.0519 8.82812 30.005 8.87499 29.9503 8.92186C29.9503 8.92186 29.9503 8.92187 29.9425 8.92968C29.8722 8.99218 29.8097 9.05467 29.7394 9.11717C29.6456 9.21092 29.5597 9.29688 29.4659 9.38282C29.4113 9.4297 29.3644 9.48437 29.3097 9.53906C28.9659 9.87499 28.6222 10.2266 28.2941 10.5781C28.1378 10.75 27.9894 10.9141 27.8331 11.0859C27.7706 11.1563 27.7003 11.2344 27.6378 11.3125C27.5597 11.3984 27.4894 11.4844 27.4112 11.5703C27.3331 11.6562 27.2628 11.75 27.1847 11.8359C26.9425 12.125 26.7081 12.4141 26.4738 12.7109C26.4191 12.7812 26.3644 12.8516 26.3097 12.9219C26.2706 12.9688 26.2394 13.0156 26.2003 13.0703C26.1456 13.1328 26.0987 13.2031 26.0441 13.2734C25.7862 13.6172 25.5284 13.9687 25.2862 14.3281C25.2159 14.4219 25.1534 14.5156 25.0831 14.6172C24.8253 15 24.5675 15.3906 24.3253 15.7891C24.2628 15.8828 24.2003 15.9844 24.1456 16.0859C25.4581 18.2891 26.5363 20.6563 27.3253 23.1484L37.3409 12.9219C36.7784 12.3359 36.4269 11.5391 36.4269 10.6562C36.4269 8.85936 37.88 7.39844 39.6769 7.39844C40.5363 7.39844 41.3097 7.73438 41.8878 8.28125L49.9972 0C42.9347 0.585938 36.505 3.37501 31.3644 7.67188Z" fill="white" fill-opacity="0.25"/>
</g>
<path d="M0.0128036 49.9765C-0.291884 45.7812 4.94249 39.2109 4.94249 39.2109C3.87999 39.625 3.13001 40.6797 3.13001 40.6797C3.13001 40.6797 10.005 30.1875 14.88 35.0781" fill="#EF484A"/>
<path d="M0.0128174 49.9765C4.20032 50.2812 10.7472 45.0312 10.7472 45.0312C10.3331 46.0937 9.28627 46.8515 9.28627 46.8515C9.28627 46.8515 19.7472 39.9531 14.8722 35.0703" fill="#EC2024"/>
<path d="M7.17686 42.789C7.02061 40.664 9.67687 37.3359 9.67687 37.3359C9.13781 37.5469 8.75498 38.0781 8.75498 38.0781C8.75498 38.0781 12.2393 32.7656 14.7081 35.2344" fill="#FFCB04"/>
<path d="M7.17688 42.7891C9.29407 42.9453 12.6144 40.2812 12.6144 40.2812C12.4034 40.8203 11.8722 41.2031 11.8722 41.2031C11.8722 41.2031 17.1691 37.7109 14.7003 35.2344" fill="#FDBB11"/>
<path d="M73.7863 31.043H67.2394L66.1925 34.1445H61.7159L68.0675 16.5977H73.0206L79.3722 34.1445H74.8488L73.7863 31.043ZM72.6925 27.7461L70.5206 21.3242L68.3722 27.7461H72.6925Z" fill="#282210"/>
<path d="M103.224 21.6211C104.247 22.668 104.763 24.1289 104.763 25.9961V34.1445H100.513V26.5664C100.513 25.668 100.278 24.9727 99.8019 24.4805C99.3253 23.9883 98.6691 23.7461 97.841 23.7461C97.005 23.7461 96.3566 23.9883 95.88 24.4805C95.4034 24.9727 95.1691 25.668 95.1691 26.5664V34.1445H90.9191V26.5664C90.9191 25.668 90.6847 24.9727 90.2081 24.4805C89.7316 23.9883 89.0753 23.7461 88.2472 23.7461C87.4191 23.7461 86.7628 23.9883 86.2863 24.4805C85.8097 24.9727 85.5753 25.668 85.5753 26.5664V34.1445H81.3019V20.1914H85.5753V21.9414C86.005 21.3555 86.5753 20.8945 87.2784 20.5508C87.9816 20.207 88.7706 20.0352 89.6534 20.0352C90.7003 20.0352 91.6378 20.2617 92.466 20.7071C93.2941 21.1602 93.9347 21.8008 94.4034 22.6289C94.8878 21.8633 95.5441 21.2383 96.38 20.7539C97.2159 20.2695 98.1222 20.0273 99.1066 20.0273C100.825 20.043 102.2 20.5664 103.224 21.6211Z" fill="#282210"/>
<path d="M107.724 23.3711C108.263 22.2851 109.005 21.457 109.935 20.8711C110.872 20.2852 111.911 19.9961 113.06 19.9961C114.044 19.9961 114.903 20.1992 115.646 20.5976C116.388 20.9961 116.958 21.5195 117.357 22.1758V20.1992H121.63V34.1523H117.357V32.1758C116.942 32.8242 116.357 33.3476 115.622 33.7539C114.88 34.1523 114.021 34.3554 113.036 34.3554C111.903 34.3554 110.872 34.0586 109.935 33.4648C109.005 32.8711 108.263 32.0351 107.724 30.9414C107.185 29.8476 106.911 28.5898 106.911 27.1523C106.911 25.707 107.185 24.4492 107.724 23.3711ZM116.474 24.6445C115.88 24.0273 115.161 23.7226 114.31 23.7226C113.458 23.7226 112.739 24.0273 112.146 24.6367C111.552 25.2461 111.255 26.082 111.255 27.1523C111.255 28.2227 111.552 29.0664 112.146 29.6914C112.739 30.3164 113.458 30.6289 114.31 30.6289C115.161 30.6289 115.88 30.3242 116.474 29.707C117.067 29.0898 117.364 28.2461 117.364 27.1836C117.364 26.1055 117.067 25.2617 116.474 24.6445Z" fill="#282210"/>
<path d="M130.888 20.707C131.638 20.2695 132.474 20.043 133.388 20.043V24.5664H132.216C131.146 24.5664 130.349 24.793 129.818 25.2539C129.286 25.7148 129.021 26.5195 129.021 27.668V34.1445H124.747V20.1914H129.021V22.5195C129.513 21.7539 130.138 21.1445 130.888 20.707Z" fill="#282210"/>
<path d="M153.411 25.0351C152.943 25.8789 152.232 26.5586 151.263 27.0742C150.294 27.5898 149.099 27.8477 147.661 27.8477H145.013V34.1445H140.739V16.5977H147.661C149.06 16.5977 150.247 16.8398 151.208 17.3242C152.177 17.8086 152.903 18.4726 153.38 19.3242C153.857 20.1758 154.107 21.1523 154.107 22.2461C154.114 23.2617 153.88 24.1914 153.411 25.0351ZM149.161 23.8711C149.56 23.4883 149.763 22.9492 149.763 22.2461C149.763 21.543 149.56 21.0039 149.161 20.6211C148.763 20.2383 148.153 20.043 147.333 20.043H145.005V24.4414H147.333C148.153 24.4414 148.763 24.2539 149.161 23.8711Z" fill="#FFCC2F"/>
<path d="M156.302 23.3711C156.841 22.2851 157.583 21.457 158.513 20.8711C159.45 20.2852 160.489 19.9961 161.638 19.9961C162.622 19.9961 163.482 20.1992 164.224 20.5976C164.966 20.9961 165.536 21.5195 165.935 22.1758V20.1992H170.208V34.1523H165.935V32.1758C165.521 32.8242 164.935 33.3476 164.2 33.7539C163.458 34.1523 162.599 34.3554 161.614 34.3554C160.482 34.3554 159.45 34.0586 158.513 33.4648C157.583 32.8711 156.841 32.0351 156.302 30.9414C155.763 29.8476 155.489 28.5898 155.489 27.1523C155.489 25.707 155.755 24.4492 156.302 23.3711ZM165.052 24.6445C164.458 24.0273 163.739 23.7226 162.888 23.7226C162.036 23.7226 161.318 24.0273 160.724 24.6367C160.13 25.2461 159.833 26.082 159.833 27.1523C159.833 28.2227 160.13 29.0664 160.724 29.6914C161.318 30.3164 162.036 30.6289 162.888 30.6289C163.739 30.6289 164.458 30.3242 165.052 29.707C165.646 29.0898 165.943 28.2461 165.943 27.1836C165.935 26.1055 165.638 25.2617 165.052 24.6445Z" fill="#FFCC2F"/>
<path d="M173.349 23.3711C173.943 22.2851 174.763 21.457 175.825 20.8711C176.88 20.2852 178.099 19.9961 179.466 19.9961C181.216 19.9961 182.677 20.457 183.857 21.3711C185.028 22.2851 185.802 23.582 186.169 25.2461H181.622C181.239 24.1836 180.497 23.6445 179.396 23.6445C178.614 23.6445 177.989 23.9492 177.521 24.5586C177.052 25.168 176.818 26.0351 176.818 27.168C176.818 28.3008 177.052 29.1758 177.521 29.7773C177.989 30.3867 178.614 30.6914 179.396 30.6914C180.497 30.6914 181.239 30.1601 181.622 29.0898H186.169C185.802 30.7226 185.028 32.0039 183.841 32.9414C182.661 33.8789 181.2 34.3398 179.466 34.3398C178.099 34.3398 176.888 34.0508 175.825 33.4648C174.763 32.8789 173.943 32.0508 173.349 30.9648C172.755 29.8789 172.458 28.6133 172.458 27.168C172.466 25.7226 172.755 24.4492 173.349 23.3711Z" fill="#FFCC2F"/>
<path d="M196.966 34.1445L192.716 28.293V34.1445H188.443V15.6445H192.716V25.8711L196.942 20.1992H202.216L196.419 27.1992L202.271 34.1523H196.966V34.1445Z" fill="#FFCC2F"/>
<path d="M216.966 28.1914H207.294C207.357 29.0586 207.638 29.7227 208.13 30.1758C208.622 30.6367 209.224 30.8633 209.943 30.8633C211.013 30.8633 211.755 30.4101 212.169 29.5117H216.716C216.482 30.4258 216.06 31.2539 215.45 31.9883C214.841 32.7226 214.083 33.293 213.161 33.7148C212.247 34.1289 211.216 34.3398 210.083 34.3398C208.716 34.3398 207.497 34.0508 206.435 33.4648C205.372 32.8789 204.536 32.0508 203.935 30.9648C203.333 29.8789 203.036 28.6133 203.036 27.168C203.036 25.7148 203.333 24.4492 203.927 23.3711C204.521 22.2851 205.349 21.457 206.411 20.8711C207.482 20.2852 208.7 19.9961 210.083 19.9961C211.435 19.9961 212.63 20.2773 213.685 20.8477C214.732 21.418 215.552 22.2227 216.146 23.2695C216.739 24.3164 217.036 25.543 217.036 26.9414C217.036 27.3476 217.013 27.7617 216.966 28.1914ZM212.661 25.8164C212.661 25.082 212.411 24.4961 211.911 24.0664C211.411 23.6367 210.786 23.4179 210.036 23.4179C209.317 23.4179 208.716 23.6289 208.224 24.043C207.732 24.457 207.427 25.0508 207.31 25.8164H212.661Z" fill="#FFCC2F"/>
<path d="M227.06 30.5195V34.1445H224.888C223.341 34.1445 222.13 33.7695 221.263 33.0039C220.396 32.2461 219.966 31.0117 219.966 29.293V23.7461H218.263V20.1992H219.966V16.8008H224.239V20.1992H227.036V23.7461H224.239V29.3477C224.239 29.7617 224.341 30.0664 224.536 30.2461C224.739 30.4336 225.067 30.5195 225.536 30.5195H227.06Z" fill="#FFCC2F"/>
</svg>
