<svg width="24" height="24" viewBox="0 0 24 24" fill="none" xmlns="http://www.w3.org/2000/svg">
<path d="M16.6666 18.8333H14.9999V17.1667C14.9999 16.5036 14.7365 15.8678 14.2677 15.3989C13.7988 14.9301 13.163 14.6667 12.4999 14.6667H7.49992C6.83688 14.6667 6.20099 14.9301 5.73215 15.3989C5.26331 15.8678 4.99992 16.5036 4.99992 17.1667V18.8333H3.33325V17.1667C3.33325 16.0616 3.77224 15.0018 4.55364 14.2204C5.33504 13.439 6.39485 13 7.49992 13H12.4999C13.605 13 14.6648 13.439 15.4462 14.2204C16.2276 15.0018 16.6666 16.0616 16.6666 17.1667V18.8333ZM9.99992 11.3333C9.34331 11.3333 8.69313 11.204 8.0865 10.9527C7.47987 10.7015 6.92868 10.3332 6.46438 9.86888C6.00009 9.40458 5.63179 8.85339 5.38052 8.24676C5.12925 7.64013 4.99992 6.98995 4.99992 6.33334C4.99992 5.67673 5.12925 5.02655 5.38052 4.41993C5.63179 3.8133 6.00009 3.2621 6.46438 2.79781C6.92868 2.33352 7.47987 1.96522 8.0865 1.71395C8.69313 1.46267 9.34331 1.33334 9.99992 1.33334C11.326 1.33334 12.5978 1.86013 13.5355 2.79781C14.4731 3.73549 14.9999 5.00726 14.9999 6.33334C14.9999 7.65943 14.4731 8.9312 13.5355 9.86888C12.5978 10.8066 11.326 11.3333 9.99992 11.3333V11.3333ZM9.99992 9.66668C10.884 9.66668 11.7318 9.31549 12.3569 8.69037C12.9821 8.06524 13.3333 7.2174 13.3333 6.33334C13.3333 5.44929 12.9821 4.60144 12.3569 3.97632C11.7318 3.3512 10.884 3.00001 9.99992 3.00001C9.11586 3.00001 8.26802 3.3512 7.6429 3.97632C7.01777 4.60144 6.66659 5.44929 6.66659 6.33334C6.66659 7.2174 7.01777 8.06524 7.6429 8.69037C8.26802 9.31549 9.11586 9.66668 9.99992 9.66668V9.66668Z" fill="#282210"/>
</svg>
