<svg width="24" height="24" viewBox="0 0 24 24">
<path d="M2.99998 2.99998H21C21.1336 2.99114 21.2675 3.01094 21.3929 3.05807C21.5182 3.1052 21.632 3.17856 21.7267 3.27324C21.8214 3.36793 21.8947 3.48174 21.9419 3.60708C21.989 3.73241 22.0088 3.86637 22 3.99998V20C22.0088 20.1336 21.989 20.2675 21.9419 20.3929C21.8947 20.5182 21.8214 20.632 21.7267 20.7267C21.632 20.8214 21.5182 20.8947 21.3929 20.9419C21.2675 20.989 21.1336 21.0088 21 21H2.99998C2.86637 21.0088 2.73241 20.989 2.60708 20.9419C2.48174 20.8947 2.36793 20.8214 2.27324 20.7267C2.17856 20.632 2.1052 20.5182 2.05807 20.3929C2.01094 20.2675 1.99114 20.1336 1.99998 20V3.99998C1.99114 3.86637 2.01094 3.73241 2.05807 3.60708C2.1052 3.48174 2.17856 3.36793 2.27324 3.27324C2.36793 3.17856 2.48174 3.1052 2.60708 3.05807C2.73241 3.01094 2.86637 2.99114 2.99998 2.99998V2.99998ZM3.99998 4.99998V19H20V4.99998H3.99998ZM13.8 11.9C13.5875 11.9207 13.3824 11.9891 13.2 12.1L12.3 10.5C12.7614 10.157 13.3254 9.98078 13.9 9.99998C14.2545 9.98299 14.6086 10.042 14.9385 10.1731C15.2684 10.3042 15.5665 10.5043 15.8127 10.76C16.0589 11.0157 16.2476 11.321 16.3662 11.6556C16.4847 11.9902 16.5303 12.3463 16.5 12.7C16.5 15.1 15.2 17.2 12.2 17.2C10.3 17.2 8.79998 16.3 8.79998 14.3V12H7.49998V10.4H8.79998V9.79998C8.79998 8.99998 8.59998 8.69998 7.99998 8.69998H7.49998V6.89998H8.19998C10.1 6.89998 10.9 7.89998 10.9 9.79998V10.5H11.7V12H10.9V14.3C10.9 15.1 11.5 15.4 12.2 15.4C13.7 15.4 14.5 14.3 14.5 12.8C14.5 12.2 14.2 11.9 13.8 11.9Z" />
</svg>
