<svg width="115" height="105" viewBox="0 0 115 105" fill="none" xmlns="http://www.w3.org/2000/svg">
<path d="M105.087 44.8478C102.195 26.1171 90.3439 3.10315 66.9283 0.693354C66.9283 0.693354 49.1481 -1.44827 31.6236 1.79627C21.2226 3.7226 12.0998 9.45249 6.33076 17.6942C0.561744 25.932 -1.36889 35.9792 0.970002 45.5579C2.48857 51.7788 3.51493 58.2151 3.2364 64.6097C2.7442 75.7333 3.02655 86.1204 13.935 92.753C23.6721 98.6755 35.9275 103.903 47.6181 104.817C55.562 105.44 64.475 104.432 72.1326 102.385C111.157 91.9447 107.979 63.5786 105.087 44.8478Z" fill="#F8F6EF"/>
<path d="M83.4936 64.7416C81.9296 64.549 79.2938 64.228 77.0737 62.2603C73.0418 58.6839 72.9999 51.9879 74.5829 47.4522C75.9447 43.5548 79.2137 40.6128 85.7479 34.725C91.9045 29.181 94.178 28.2746 94.3039 25.5139C94.4793 21.5824 90.0316 19.4524 90.9318 14.894C91.0386 14.3464 91.4086 12.4694 92.9192 11.5253C95.4978 9.91266 99.5984 12.1673 101.654 13.999C103.638 15.7664 106.045 19.2145 105.267 22.4699C104.702 24.8303 102.948 25.0871 102.932 27.168C102.917 29.264 104.691 29.6379 106.049 32.8481C106.59 34.1321 107.681 36.704 106.896 39.2192C105.877 42.4709 102.646 42.6748 102.509 45.2542C102.41 47.1199 104.061 47.6222 104.393 49.7031C104.832 52.4411 102.497 54.911 100.529 56.9391C98.2175 59.3335 91.9618 65.7764 83.4936 64.7416Z" fill="url(#paint0_linear_95_411)"/>
<path opacity="0.16" d="M94.1895 12.5034C92.9002 13.8441 98.1986 17.5679 98.2329 23.8975C98.2711 30.7067 92.1945 36.3792 89.3833 39.0002C84.5922 43.4717 82.109 43.2338 79.3587 47.7355C78.2716 49.518 76.0058 53.2267 77.2264 57.4867C77.3409 57.8832 78.6721 62.2754 82.5973 63.6879C87.0488 65.2854 91.4545 61.8298 95.2461 58.8501C97.5387 57.0486 102.12 53.4571 101.166 50.7228C100.583 49.0497 98.0689 48.0867 96.1578 48.0489C93.4304 47.9961 91.5575 49.8202 91.2257 49.4199C90.9281 49.0573 92.164 47.2294 94.056 45.6772C97.84 42.5691 100.384 43.7398 103.104 41.0131C103.436 40.6808 106.011 38.0258 105.423 34.8912C105.084 33.0822 103.684 31.0693 102.135 31.0013C100.388 30.922 99.2094 33.3655 98.7479 33.0935C98.3092 32.8292 99.1179 30.4386 100.27 28.1877C101.96 24.8832 102.974 24.6415 103.447 22.6701C104.164 19.6639 102.574 16.9976 102.341 16.6162C100.159 13.0473 95.2919 11.3591 94.1895 12.5034Z" fill="white"/>
<path d="M85.3474 80.407C83.8445 79.9387 81.3117 79.1456 79.4922 76.8116C76.1812 72.5667 77.3675 65.9765 79.7592 61.7996C81.8114 58.2118 85.5648 55.9043 93.0718 51.293C100.144 46.9461 102.547 46.4627 103.173 43.7738C104.065 39.9405 100.083 37.0439 101.803 32.7272C102.009 32.2098 102.719 30.431 104.374 29.7739C107.208 28.6484 110.824 31.6055 112.51 33.7771C114.135 35.8731 115.871 39.695 114.509 42.7579C113.521 44.9785 111.748 44.9143 111.351 46.9575C110.954 49.0157 112.629 49.7031 113.376 53.102C113.674 54.4616 114.273 57.1883 113.041 59.5185C111.446 62.5322 108.231 62.1546 107.62 64.666C107.178 66.4826 108.715 67.2719 108.658 69.3792C108.585 72.1513 105.839 74.1604 103.531 75.7995C100.815 77.7369 93.4799 82.9486 85.3474 80.407Z" fill="url(#paint1_linear_95_411)"/>
<path opacity="0.16" d="M105.438 30.9635C103.928 32.0511 108.452 36.6624 107.327 42.8938C106.114 49.5973 99.0988 54.0801 95.8564 56.1535C90.3254 59.6884 87.9261 59.0124 84.3977 62.9401C83.0016 64.496 80.0949 67.7364 80.5145 72.1475C80.5527 72.5553 81.06 77.1175 84.6609 79.2097C88.7462 81.5815 93.7089 78.9756 97.9887 76.7285C100.575 75.3689 105.736 72.6573 105.301 69.7984C105.034 68.0498 102.738 66.6487 100.865 66.2673C98.1909 65.7234 96.0128 67.1812 95.7649 66.728C95.5398 66.3201 97.0885 64.7453 99.2361 63.5557C103.527 61.1802 105.812 62.789 108.99 60.5948C109.375 60.3304 112.396 58.1778 112.392 54.9903C112.388 53.1511 111.381 50.9191 109.875 50.5754C108.17 50.1864 106.564 52.3769 106.163 52.0219C105.778 51.6858 107.014 49.4764 108.559 47.471C110.828 44.5253 111.87 44.4686 112.694 42.6143C113.952 39.7856 112.877 36.8776 112.713 36.4622C111.206 32.5685 106.732 30.0344 105.438 30.9635Z" fill="white"/>
<path d="M38.5687 85.0467L15.7652 83.3305V19.8032L38.5687 18.1304V85.0467Z" fill="url(#paint2_linear_95_411)"/>
<path d="M17.9743 42.9658V69.9634H17.53V76.8747H38.5688V42.9658H17.9743Z" fill="#D8DEE8"/>
<path d="M45.3929 13.4991C45.3929 13.4991 45.4148 28.1147 48.7252 34.8215C52.0355 41.5315 53.2809 48.0617 50.7902 51.8844C48.2996 55.7072 38.5687 49.8739 38.5687 49.8739C38.5687 49.8739 33.9755 53.0833 31.901 59.945C29.8265 66.8067 16.3347 72.5253 13.4279 70.5923C10.5211 68.6592 11.7665 16.8665 11.7665 16.8665L45.3929 13.4991Z" fill="white"/>
<path d="M12.8045 74.5296C12.8045 74.5296 20.9804 78.3028 27.1662 74.8177C33.3521 71.3296 38.568 65.0627 38.568 65.0627C38.568 65.0627 44.8602 68.8792 48.2394 68.6654C51.6187 68.4517 54.1186 57.7146 54.1186 57.7146C54.1186 57.7146 59.7131 54.9606 62.2038 49.3752C64.6944 43.7898 72.3414 37.7057 76.5248 36.4325C80.7113 35.1593 83.1675 37.5384 83.1675 37.5384L82.1287 86.224L17.5292 89.5727L12.8045 74.5296Z" fill="white"/>
<path d="M49.6233 15.3176C49.6233 15.3176 47.4205 25.3298 49.6233 27.9847C51.826 30.6395 53.5063 38.2354 54.1195 40.2955C54.7328 42.3555 59.5075 46.8598 61.9981 42.7582C64.4887 38.6567 68.2247 35.6642 70.0926 34.2826C71.9606 32.9009 83.791 31.4821 84.4137 30.4444C85.0363 29.4066 85.4525 17.6317 85.4525 17.6317L49.6233 15.3176Z" fill="url(#paint3_linear_95_411)"/>
<path d="M54.1196 81.3975H80.7153V21.8695H54.1196V81.3975Z" fill="url(#paint4_linear_95_411)"/>
<path d="M78.5594 78.6775V24.546H54.1194L46.7884 44.9855L54.1194 78.6775H78.5594Z" fill="#D8DEE8"/>
<path d="M45.3929 13.4991C45.3929 13.4991 45.4148 28.1147 48.7252 34.8215C52.0355 41.5315 53.2809 48.0617 50.7902 51.8844C48.2996 55.7072 38.5687 49.8739 38.5687 49.8739C38.5687 49.8739 33.9755 53.0833 31.901 59.945C29.8265 66.8067 16.3347 72.5253 13.4279 70.5923C10.5211 68.6592 11.7665 16.8665 11.7665 16.8665L45.3929 13.4991Z" fill="white"/>
<path d="M12.8045 74.5296C12.8045 74.5296 20.9804 78.3028 27.1662 74.8177C33.3521 71.3296 38.568 65.0627 38.568 65.0627C38.568 65.0627 44.8602 68.8792 48.2394 68.6654C51.6187 68.4517 54.1186 57.7146 54.1186 57.7146C54.1186 57.7146 59.7131 54.9606 62.2038 49.3752C64.6944 43.7898 72.3414 37.7057 76.5248 36.4325C80.7113 35.1593 83.1675 37.5384 83.1675 37.5384L82.1287 86.224L17.5292 89.5727L12.8045 74.5296Z" fill="white"/>
<path d="M49.6233 15.3176C49.6233 15.3176 47.4205 25.3298 49.6233 27.9847C51.826 30.6395 53.5063 38.2354 54.1195 40.2955C54.7328 42.3555 59.5075 46.8598 61.9981 42.7582C64.4887 38.6567 68.2247 35.6642 70.0926 34.2826C71.9606 32.9009 83.791 31.4821 84.4137 30.4444C85.0363 29.4066 85.4525 17.6317 85.4525 17.6317L49.6233 15.3176Z" fill="white"/>
<path d="M54.1194 81.3975L38.5687 85.0467V18.1304L54.1194 21.8695V24.546L51.2095 30.2677L50.3209 77.5438L54.1194 78.6776V81.3975Z" fill="url(#paint5_linear_95_411)"/>
<path d="M54.1194 69.6071V25.243L48.6438 23.3843L45.9279 22.7926L45.4586 22.7369V49.8058H38.5687V69.6071H54.1194Z" fill="#97A6B7"/>
<path d="M45.3929 13.4991C45.3929 13.4991 45.4148 28.1147 48.7252 34.8215C52.0355 41.5315 53.2809 48.0617 50.7902 51.8844C48.2996 55.7072 38.5687 49.8739 38.5687 49.8739C38.5687 49.8739 33.9755 53.0833 31.901 59.945C29.8265 66.8067 16.3347 72.5253 13.4279 70.5923C10.5211 68.6592 11.7665 16.8665 11.7665 16.8665L45.3929 13.4991Z" fill="#D8DEE8"/>
<path d="M12.8045 74.5296C12.8045 74.5296 20.9804 78.3028 27.1662 74.8177C33.3521 71.3296 38.568 65.0627 38.568 65.0627C38.568 65.0627 44.8602 68.8792 48.2394 68.6654C51.6187 68.4517 54.1186 57.7146 54.1186 57.7146C54.1186 57.7146 59.7131 54.9606 62.2038 49.3752C64.6944 43.7898 72.3414 37.7057 76.5248 36.4325C80.7113 35.1593 83.1675 37.5384 83.1675 37.5384L82.1287 86.224L17.5292 89.5727L12.8045 74.5296Z" fill="#D8DEE8"/>
<path d="M49.6233 15.3176C49.6233 15.3176 47.4205 25.3298 49.6233 27.9847C51.826 30.6395 53.5063 38.2354 54.1195 40.2955C54.7328 42.3555 59.5075 46.8598 61.9981 42.7582C64.4887 38.6567 68.2247 35.6642 70.0926 34.2826C71.9606 32.9009 83.791 31.4821 84.4137 30.4444C85.0363 29.4066 85.4525 17.6317 85.4525 17.6317L49.6233 15.3176Z" fill="#D8DEE8"/>
<path opacity="0.53" d="M66.5472 24.546H66.1313V81.3943H66.5472V24.546Z" fill="url(#paint6_linear_95_411)"/>
<path opacity="0.53" d="M28.2557 21.8819H27.8398V81.3975H28.2557V21.8819Z" fill="url(#paint7_linear_95_411)"/>
<path opacity="0.53" d="M78.5594 43.573H54.0976L54.0726 43.5668L38.5532 39.9144L17.5456 41.6709L17.5112 41.262L38.5844 39.4993L38.6157 39.5055L54.1445 43.161H78.5594V43.573Z" fill="url(#paint8_linear_95_411)"/>
<path d="M16.3716 54.5402C16.1923 54.5402 16.0131 54.4571 15.8986 54.306C15.7041 54.0492 15.7613 53.6829 16.0207 53.4903C16.0207 53.4903 16.2496 53.3241 16.6424 53.0295C16.9018 52.8369 17.2718 52.886 17.4664 53.1428C17.6609 53.3996 17.6113 53.766 17.3519 53.9586C16.9514 54.2607 16.7225 54.4269 16.7225 54.4269C16.6157 54.5024 16.4899 54.5402 16.3716 54.5402Z" fill="url(#paint9_linear_95_411)"/>
<path d="M66.7382 56.8098C66.3911 56.8098 65.9906 56.7607 65.5138 56.6588C65.1972 56.5908 64.995 56.2811 65.0637 55.9677C65.1323 55.6542 65.4451 55.454 65.7617 55.522C66.3301 55.6429 66.7802 55.6769 67.051 55.6202C67.3638 55.5485 67.6766 55.7373 67.7529 56.047C67.833 56.3604 67.6385 56.6739 67.3257 56.7532C67.3219 56.7532 67.3104 56.757 67.3066 56.757C67.1426 56.791 66.948 56.8098 66.7382 56.8098ZM68.6608 56.2698C68.4395 56.2698 68.2297 56.1489 68.1305 55.9374C67.9894 55.6466 68.1153 55.2992 68.409 55.1632C68.8324 54.9631 69.2406 54.7138 69.622 54.4192C69.8776 54.2229 70.2476 54.2682 70.4459 54.5212C70.6443 54.7742 70.5985 55.1406 70.343 55.337C69.8928 55.6844 69.4122 55.979 68.9125 56.2169C68.8324 56.2509 68.7447 56.2698 68.6608 56.2698ZM64.1406 56.2509C64.0795 56.2509 64.0147 56.2396 63.9537 56.2207C63.4959 56.0696 62.9924 55.8808 62.4584 55.6693C62.157 55.5485 62.0121 55.2123 62.1303 54.9102C62.2524 54.6119 62.5919 54.4683 62.897 54.5854C63.412 54.7894 63.8964 54.9669 64.3313 55.1141C64.6403 55.2161 64.8043 55.5485 64.7013 55.8506C64.6136 56.0961 64.3847 56.2509 64.1406 56.2509ZM61.2339 55.1066C61.1538 55.1066 61.0737 55.0915 60.9974 55.0575C60.5435 54.8573 60.0591 54.6383 59.5632 54.4079C59.2695 54.272 59.1436 53.9245 59.2809 53.6337C59.4182 53.3429 59.7692 53.2183 60.0629 53.3542C60.5511 53.5808 61.0241 53.7961 61.4704 53.9925C61.768 54.1209 61.9015 54.4646 61.7718 54.7591C61.6764 54.9782 61.459 55.1066 61.2339 55.1066ZM71.1135 54.3966C70.9762 54.3966 70.8388 54.3475 70.7244 54.2531C70.4803 54.0416 70.4536 53.6715 70.671 53.4298C70.9838 53.0748 71.2775 52.6858 71.5407 52.2628C71.7124 51.9909 72.0747 51.9078 72.3532 52.0777C72.6278 52.2477 72.7118 52.6065 72.5401 52.8822C72.2426 53.3542 71.9107 53.7961 71.556 54.1964C71.4415 54.3286 71.2775 54.3966 71.1135 54.3966ZM58.4036 53.7923C58.3158 53.7923 58.2281 53.7734 58.1442 53.7319C57.6903 53.5091 57.2173 53.2749 56.7404 53.0332C56.4505 52.8859 56.3361 52.5347 56.4849 52.2477C56.6336 51.9607 56.9884 51.8474 57.2783 51.9947C57.7513 52.2364 58.2205 52.4667 58.6668 52.6858C58.9567 52.8293 59.0787 53.1767 58.9338 53.4675C58.8308 53.6715 58.621 53.7923 58.4036 53.7923ZM18.2369 53.139C18.0614 53.139 17.8859 53.0597 17.7715 52.9124C17.5731 52.6556 17.6227 52.293 17.8783 52.0966C18.2483 51.8134 18.6641 51.4961 19.1104 51.1525C19.366 50.9561 19.736 50.9976 19.9343 51.2507C20.1327 51.5037 20.0907 51.87 19.8351 52.0664C19.385 52.4139 18.9693 52.7349 18.5954 53.0181C18.4886 53.0974 18.3628 53.139 18.2369 53.139ZM55.619 52.3837C55.5274 52.3837 55.4321 52.361 55.3443 52.3157C54.8828 52.074 54.4212 51.8323 53.9597 51.583C53.6736 51.4282 53.5668 51.0769 53.7232 50.7937C53.8758 50.5105 54.2343 50.4047 54.5204 50.5595C54.9781 50.805 55.4359 51.0467 55.8936 51.2847C56.1797 51.4357 56.2903 51.7869 56.1378 52.0702C56.0348 52.2704 55.8326 52.3837 55.619 52.3837ZM20.6972 51.2318C20.5256 51.2318 20.3539 51.1562 20.2357 51.0127C20.0335 50.7597 20.0755 50.3934 20.331 50.1932C20.7239 49.8835 21.1283 49.5625 21.544 49.2302C21.7958 49.0262 22.1658 49.0678 22.3718 49.317C22.5778 49.5663 22.5358 49.9326 22.2841 50.1366C21.8645 50.4727 21.4563 50.7975 21.0634 51.1072C20.9566 51.1902 20.8269 51.2318 20.6972 51.2318ZM52.8725 50.9108C52.7772 50.9108 52.678 50.8881 52.5903 50.839C52.1287 50.586 51.671 50.3329 51.2209 50.0837C50.9386 49.9251 50.8394 49.5701 50.9958 49.2906C51.156 49.0111 51.5146 48.9129 51.7969 49.0678C52.247 49.317 52.7009 49.5701 53.1586 49.8193C53.4447 49.9742 53.5477 50.3292 53.3875 50.6124C53.2807 50.8012 53.0785 50.9108 52.8725 50.9108ZM50.1452 49.3926C50.046 49.3926 49.9468 49.3661 49.8515 49.317C49.3899 49.0527 48.936 48.7959 48.4935 48.5391C48.2112 48.3767 48.1197 48.0217 48.2799 47.7422C48.4439 47.4627 48.8025 47.3721 49.0847 47.5307C49.5234 47.7837 49.9735 48.0405 50.4351 48.3049C50.7173 48.4635 50.8127 48.8223 50.6525 49.098C50.5495 49.2868 50.3512 49.3926 50.1452 49.3926ZM23.1232 49.2868C22.9554 49.2868 22.7876 49.2151 22.6693 49.0753C22.4633 48.8261 22.4977 48.4597 22.7494 48.2558C23.1576 47.9197 23.5581 47.5873 23.9395 47.2663C24.1875 47.0586 24.5575 47.0888 24.7673 47.3343C24.9771 47.5798 24.9466 47.9461 24.6986 48.1538C24.3134 48.4786 23.909 48.8148 23.4971 49.1509C23.3903 49.2415 23.2568 49.2868 23.1232 49.2868ZM47.4445 47.8328C47.3415 47.8328 47.2385 47.8064 47.1432 47.7497C46.674 47.4741 46.2239 47.2059 45.7966 46.9529C45.5182 46.7867 45.4305 46.4279 45.5983 46.1522C45.7661 45.8765 46.1285 45.7897 46.407 45.9559C46.8304 46.2089 47.2767 46.4732 47.7458 46.7489C48.0243 46.9113 48.1159 47.2701 47.9518 47.5458C47.8412 47.7309 47.6467 47.8328 47.4445 47.8328ZM25.5073 47.2852C25.3433 47.2852 25.1793 47.2172 25.0648 47.0851C24.8512 46.8434 24.8779 46.4732 25.122 46.2618C25.5264 45.9105 25.9193 45.5669 26.2817 45.2421C26.522 45.0268 26.8958 45.0457 27.1132 45.2836C27.3306 45.5215 27.3116 45.8917 27.0713 46.1069C26.7012 46.4393 26.3084 46.7867 25.8964 47.1417C25.782 47.2361 25.6408 47.2852 25.5073 47.2852ZM44.7667 46.2315C44.6599 46.2315 44.5569 46.2051 44.4578 46.1447C43.9695 45.8463 43.5194 45.5706 43.1227 45.3214C42.848 45.1477 42.7679 44.7889 42.9396 44.517C43.115 44.245 43.4774 44.1657 43.7521 44.3357C44.145 44.5812 44.5874 44.8569 45.0719 45.1514C45.3503 45.3214 45.4343 45.6802 45.2664 45.9521C45.1596 46.1334 44.9651 46.2315 44.7667 46.2315ZM27.8189 45.2043C27.6625 45.2043 27.5099 45.1439 27.3917 45.023C27.1666 44.7889 27.1781 44.4225 27.4107 44.1997C27.8075 43.8258 28.1775 43.4633 28.5093 43.1309C28.7382 42.9006 29.1082 42.8968 29.3409 43.1196C29.5736 43.3462 29.5774 43.7125 29.3523 43.9429C29.0128 44.2866 28.6314 44.6567 28.2232 45.0419C28.1088 45.1514 27.9638 45.2043 27.8189 45.2043ZM42.1309 44.5661C42.0165 44.5661 41.902 44.5321 41.8029 44.4641C41.5511 44.2979 41.2955 44.1242 41.0361 43.9467C40.8645 43.8296 40.689 43.7088 40.5097 43.5917C40.2427 43.4104 40.1741 43.0479 40.3572 42.7835C40.5403 42.5191 40.9065 42.4512 41.1735 42.6324C41.3527 42.7533 41.5282 42.8704 41.6999 42.9912C41.9593 43.1649 42.211 43.3387 42.459 43.5048C42.7298 43.6861 42.7984 44.0487 42.6153 44.313C42.5047 44.4754 42.3216 44.5661 42.1309 44.5661ZM29.9894 42.9874C29.852 42.9874 29.7147 42.9421 29.6041 42.8439C29.36 42.6324 29.3333 42.2661 29.5431 42.0206C29.7109 41.828 29.8673 41.6392 30.0046 41.4655C30.1915 41.2275 30.3899 41.0085 30.5959 40.8121C30.8285 40.5893 31.2024 40.5968 31.4274 40.8272C31.6525 41.0576 31.6448 41.4277 31.4122 41.6505C31.2481 41.8091 31.0841 41.9866 30.9315 42.183C30.7828 42.3718 30.6149 42.5758 30.4318 42.7835C30.3174 42.9195 30.1534 42.9874 29.9894 42.9874ZM39.5447 42.8364C39.4341 42.8364 39.3272 42.8062 39.2281 42.7419C38.7513 42.4398 38.324 42.183 37.9235 41.9564C37.6412 41.7978 37.5421 41.4428 37.7023 41.1633C37.8625 40.8839 38.221 40.7857 38.5033 40.9443C38.9267 41.1822 39.373 41.4503 39.8651 41.7638C40.1397 41.9375 40.216 42.3001 40.0406 42.5682C39.9261 42.742 39.7392 42.8364 39.5447 42.8364ZM36.8211 41.3333C36.741 41.3333 36.6609 41.3182 36.5846 41.2842C36.1002 41.0727 35.6348 40.9103 35.2076 40.8008C34.891 40.7215 34.7041 40.4042 34.7842 40.0908C34.8643 39.7773 35.1847 39.5923 35.5013 39.6716C35.9934 39.7962 36.516 39.9775 37.0614 40.2154C37.359 40.3438 37.4925 40.6875 37.3628 40.982C37.2598 41.2049 37.0462 41.3333 36.8211 41.3333ZM32.2933 40.9518C32.0644 40.9518 31.8508 40.8197 31.7516 40.6006C31.622 40.306 31.7593 39.9624 32.0568 39.834C32.5947 39.6036 33.1783 39.479 33.7924 39.4638C34.1166 39.4563 34.3875 39.7093 34.3951 40.0303C34.4027 40.3514 34.1472 40.6195 33.8229 40.627C33.3537 40.6384 32.9303 40.729 32.526 40.9027C32.4497 40.9367 32.3696 40.9518 32.2933 40.9518Z" fill="url(#paint10_linear_95_411)"/>
<path d="M72.7419 51.8475C72.6618 51.8475 72.5818 51.8323 72.5055 51.7984C72.2082 51.6662 72.0748 51.3225 72.2082 51.0317C72.3874 50.6352 72.4674 50.3746 72.4674 50.3746C72.5627 50.0687 72.8944 49.8949 73.2032 49.9894C73.5119 50.0838 73.6873 50.4086 73.592 50.7182C73.5882 50.7296 73.4929 51.0393 73.2832 51.5038C73.1841 51.719 72.9706 51.8475 72.7419 51.8475Z" fill="url(#paint11_linear_95_411)"/>
<path d="M34.658 19.3761C34.658 26.4913 24.5877 39.4791 20.0332 44.9891C18.9003 46.36 16.7794 46.36 15.6465 44.9891C11.0882 39.4791 1.01791 26.4913 1.01791 19.3761C1.01791 10.1801 8.54774 2.72125 17.8399 2.72125C27.1282 2.72125 34.658 10.1801 34.658 19.3761Z" fill="url(#paint12_linear_95_411)"/>
<path d="M17.8402 28.6629C23.0206 28.6629 27.2201 24.5051 27.2201 19.3762C27.2201 14.2473 23.0206 10.0895 17.8402 10.0895C12.6599 10.0895 8.46039 14.2473 8.46039 19.3762C8.46039 24.5051 12.6599 28.6629 17.8402 28.6629Z" fill="white"/>
<g opacity="0.3">
<path opacity="0.3" d="M17.7632 38.1536C18.8313 31.1933 23.4735 28.9688 22.6763 22.3975C21.757 14.8216 14.9824 12.8011 14.8184 6.05988C14.7917 4.976 14.9405 3.9261 15.2228 2.92529C7.17415 4.17158 1.01755 11.0601 1.01755 19.3762C1.01755 26.4914 11.0878 39.4792 15.6423 44.9892C16.3099 45.7974 17.3169 46.1298 18.2667 45.9863C17.4542 42.9385 17.4275 40.3364 17.7632 38.1536Z" fill="url(#paint13_linear_95_411)"/>
</g>
<path d="M17.8401 56.4965C19.7383 56.4965 21.277 54.973 21.277 53.0938C21.277 51.2145 19.7383 49.691 17.8401 49.691C15.942 49.691 14.4033 51.2145 14.4033 53.0938C14.4033 54.973 15.942 56.4965 17.8401 56.4965Z" fill="url(#paint14_linear_95_411)"/>
<path d="M80.6849 34.7431C80.6849 37.9797 76.1037 43.8901 74.0286 46.3978C73.5136 47.0209 72.5486 47.0209 72.0336 46.3978C69.9585 43.8901 65.3773 37.9797 65.3773 34.7431C65.3773 30.5586 68.8027 27.1635 73.033 27.1635C77.2557 27.1672 80.6849 30.5586 80.6849 34.7431Z" fill="url(#paint15_linear_95_411)"/>
<path d="M73.0284 38.9691C75.3858 38.9691 77.2968 37.077 77.2968 34.7431C77.2968 32.4091 75.3858 30.517 73.0284 30.517C70.671 30.517 68.7599 32.4091 68.7599 34.7431C68.7599 37.077 70.671 38.9691 73.0284 38.9691Z" fill="white"/>
<g opacity="0.3">
<path opacity="0.3" d="M72.994 43.2897C73.4784 40.1249 75.5916 39.109 75.2293 36.1217C74.8097 32.6737 71.7275 31.7559 71.6551 28.6856C71.6436 28.1908 71.7123 27.715 71.8382 27.258C68.1762 27.8245 65.3764 30.9591 65.3764 34.7432C65.3764 37.9798 69.9576 43.8902 72.0327 46.3979C72.3379 46.7642 72.7956 46.9153 73.2266 46.8511C72.8528 45.4688 72.8414 44.283 72.994 43.2897Z" fill="url(#paint16_linear_95_411)"/>
</g>
<path d="M73.0284 51.6359C73.8921 51.6359 74.5923 50.9427 74.5923 50.0875C74.5923 49.2324 73.8921 48.5391 73.0284 48.5391C72.1646 48.5391 71.4644 49.2324 71.4644 50.0875C71.4644 50.9427 72.1646 51.6359 73.0284 51.6359Z" fill="url(#paint17_linear_95_411)"/>
<defs>
<linearGradient id="paint0_linear_95_411" x1="108.371" y1="34.1799" x2="70.8645" y2="42.2686" gradientUnits="userSpaceOnUse">
<stop offset="0.00359712" stop-color="#FF9F2F"/>
<stop offset="1" stop-color="#FBC92E"/>
</linearGradient>
<linearGradient id="paint1_linear_95_411" x1="115.411" y1="54.8244" x2="77.0399" y2="55.9062" gradientUnits="userSpaceOnUse">
<stop stop-color="#FF9085"/>
<stop offset="1" stop-color="#FB6FBB"/>
</linearGradient>
<linearGradient id="paint2_linear_95_411" x1="15.7665" y1="51.5881" x2="38.5684" y2="51.5881" gradientUnits="userSpaceOnUse">
<stop stop-color="#FF9085"/>
<stop offset="1" stop-color="#FB6FBB"/>
</linearGradient>
<linearGradient id="paint3_linear_95_411" x1="63.1978" y1="14.3789" x2="81.0321" y2="54.72" gradientUnits="userSpaceOnUse">
<stop stop-color="#FCB148"/>
<stop offset="0.0520724" stop-color="#FDBA46"/>
<stop offset="0.1424" stop-color="#FFC244"/>
<stop offset="0.3183" stop-color="#FFC444"/>
<stop offset="0.4849" stop-color="#FDB946"/>
<stop offset="0.7754" stop-color="#F99C4D"/>
<stop offset="0.8658" stop-color="#F8924F"/>
<stop offset="1" stop-color="#F8924F"/>
</linearGradient>
<linearGradient id="paint4_linear_95_411" x1="61.3744" y1="36.2209" x2="87.3411" y2="103.776" gradientUnits="userSpaceOnUse">
<stop stop-color="#FF9085"/>
<stop offset="1" stop-color="#FB6FBB"/>
</linearGradient>
<linearGradient id="paint5_linear_95_411" x1="32.1952" y1="51.5499" x2="61.0673" y2="51.7266" gradientUnits="userSpaceOnUse">
<stop stop-color="#FF9085"/>
<stop offset="1" stop-color="#FB6FBB"/>
</linearGradient>
<linearGradient id="paint6_linear_95_411" x1="66.1319" y1="52.9713" x2="66.5468" y2="52.9713" gradientUnits="userSpaceOnUse">
<stop stop-color="#311944"/>
<stop offset="1" stop-color="#A03976"/>
</linearGradient>
<linearGradient id="paint7_linear_95_411" x1="27.8412" y1="51.6391" x2="28.256" y2="51.6391" gradientUnits="userSpaceOnUse">
<stop stop-color="#311944"/>
<stop offset="1" stop-color="#A03976"/>
</linearGradient>
<linearGradient id="paint8_linear_95_411" x1="17.5115" y1="41.5355" x2="78.5582" y2="41.5355" gradientUnits="userSpaceOnUse">
<stop stop-color="#311944"/>
<stop offset="1" stop-color="#A03976"/>
</linearGradient>
<linearGradient id="paint9_linear_95_411" x1="15.781" y1="53.7251" x2="73.62" y2="53.7251" gradientUnits="userSpaceOnUse">
<stop stop-color="#AA80F9"/>
<stop offset="0.9964" stop-color="#6165D7"/>
</linearGradient>
<linearGradient id="paint10_linear_95_411" x1="15.7931" y1="48.1387" x2="73.2544" y2="48.1387" gradientUnits="userSpaceOnUse">
<stop stop-color="#FFCC2F"/>
<stop offset="0.9964" stop-color="#FBC92E"/>
</linearGradient>
<linearGradient id="paint11_linear_95_411" x1="15.8058" y1="50.9032" x2="73.6168" y2="50.9032" gradientUnits="userSpaceOnUse">
<stop stop-color="#AA80F9"/>
<stop offset="0.9964" stop-color="#6165D7"/>
</linearGradient>
<linearGradient id="paint12_linear_95_411" x1="15.6684" y1="13.3302" x2="32.3162" y2="56.641" gradientUnits="userSpaceOnUse">
<stop stop-color="#FFCC2F"/>
<stop offset="0.9964" stop-color="#FBC92E"/>
</linearGradient>
<linearGradient id="paint13_linear_95_411" x1="9.60258" y1="15.6617" x2="26.2504" y2="58.9726" gradientUnits="userSpaceOnUse">
<stop stop-color="#FFCC2F"/>
<stop offset="0.9964" stop-color="#FBC92E"/>
</linearGradient>
<linearGradient id="paint14_linear_95_411" x1="22.2474" y1="46.4672" x2="11.3982" y2="63.1" gradientUnits="userSpaceOnUse">
<stop stop-color="#FFCC2F"/>
<stop offset="0.9964" stop-color="#FBC92E"/>
</linearGradient>
<linearGradient id="paint15_linear_95_411" x1="72.0427" y1="31.9934" x2="79.6184" y2="51.7023" gradientUnits="userSpaceOnUse">
<stop stop-color="#FF9085"/>
<stop offset="1" stop-color="#FB6FBB"/>
</linearGradient>
<linearGradient id="paint16_linear_95_411" x1="69.2817" y1="33.0545" x2="76.8574" y2="52.7634" gradientUnits="userSpaceOnUse">
<stop stop-color="#FF9085"/>
<stop offset="1" stop-color="#FB6FBB"/>
</linearGradient>
<linearGradient id="paint17_linear_95_411" x1="75.0356" y1="47.0727" x2="70.0986" y2="54.6415" gradientUnits="userSpaceOnUse">
<stop stop-color="#FF9085"/>
<stop offset="1" stop-color="#FB6FBB"/>
</linearGradient>
</defs>
</svg>
