<svg width="158" height="35" viewBox="0 0 158 35" fill="none" xmlns="http://www.w3.org/2000/svg">
<path d="M17.7836 20.1742C17.751 19.9828 17.7185 19.7969 17.6806 19.6055C17.621 19.3156 17.5614 19.0258 17.4909 18.7414C17.4476 18.5609 17.4042 18.375 17.3554 18.1945C16.8677 16.3461 16.1632 14.5851 15.2691 12.9445C15.2257 13.0266 15.1878 13.1086 15.1444 13.1906C15.1336 13.2125 15.1228 13.2344 15.1119 13.2562C15.074 13.3328 15.036 13.4148 14.9981 13.4969C14.9548 13.5898 14.9114 13.6828 14.8681 13.7758C14.8247 13.8687 14.7868 13.9617 14.7434 14.0547C14.7272 14.093 14.7109 14.1258 14.6946 14.1586C14.6838 14.1805 14.673 14.2078 14.6621 14.2297C14.6459 14.2625 14.6296 14.3008 14.6188 14.3336C14.5808 14.4266 14.5375 14.525 14.4996 14.618C14.4725 14.6836 14.4454 14.7547 14.4183 14.8203C14.4074 14.8477 14.3966 14.875 14.3857 14.9078C14.3803 14.9242 14.3749 14.9352 14.3695 14.9516C14.3695 14.957 14.3641 14.968 14.3587 14.9734C14.3478 15.0008 14.337 15.0281 14.3261 15.0555C14.3207 15.0719 14.3099 15.0883 14.3045 15.1047C14.2882 15.1539 14.2665 15.2031 14.2503 15.2469C14.2394 15.2687 14.234 15.2906 14.2286 15.3125C14.2123 15.3508 14.1961 15.3945 14.1852 15.4328C14.1852 15.4383 14.1853 15.4383 14.1798 15.4437C14.1636 15.482 14.1527 15.5258 14.1365 15.5641C14.1094 15.6351 14.0823 15.7063 14.0606 15.7773C14.0064 15.925 13.9576 16.0781 13.9089 16.2312C13.8601 16.3734 13.8168 16.5211 13.7734 16.6688C13.7571 16.7234 13.7409 16.7836 13.7246 16.8383C13.7138 16.8656 13.7084 16.893 13.7029 16.9203C13.6975 16.9422 13.6921 16.9586 13.6867 16.9805C13.6813 16.9969 13.6759 17.0187 13.6704 17.0352C13.6542 17.0789 13.6433 17.1227 13.6325 17.1719C13.6108 17.2484 13.5891 17.325 13.5675 17.407C13.5566 17.4398 13.5512 17.4727 13.5404 17.5055C13.5133 17.6039 13.4862 17.7078 13.4645 17.8117C13.4428 17.8992 13.4212 17.9813 13.3995 18.0688C13.3886 18.107 13.3832 18.1453 13.3724 18.1836C13.3453 18.2984 13.3182 18.4133 13.2965 18.5281C13.2803 18.5937 13.2694 18.6648 13.2531 18.7305C13.2423 18.7633 13.2369 18.8016 13.2315 18.8344C13.2261 18.8562 13.2206 18.8781 13.2206 18.9C13.2206 18.9109 13.2152 18.9273 13.2152 18.9383C13.2044 18.9875 13.199 19.0312 13.1881 19.0805C13.1827 19.1187 13.1719 19.1625 13.1664 19.2008C13.1556 19.2445 13.1502 19.2883 13.1448 19.332C13.1339 19.3758 13.1285 19.4195 13.1231 19.4633C13.1123 19.518 13.1068 19.5672 13.096 19.6219C13.0797 19.7203 13.0635 19.8187 13.0472 19.9226C13.0418 19.95 13.0364 19.9773 13.0364 20.0102C13.0255 20.0812 13.0147 20.1469 13.0039 20.218C13.0039 20.2289 12.9984 20.2453 12.9984 20.2563C12.9876 20.3164 12.9822 20.382 12.9714 20.4422C12.9659 20.4914 12.9605 20.5406 12.9551 20.5844C12.9497 20.6336 12.9443 20.6828 12.9388 20.7266C12.9334 20.7594 12.928 20.7977 12.928 20.8305C12.9226 20.8633 12.9226 20.8906 12.9172 20.9234C12.9172 20.9453 12.9117 20.9672 12.9117 20.9836C12.9117 21.0109 12.9063 21.0383 12.9009 21.0656C12.8955 21.1094 12.8901 21.1531 12.8901 21.1969C12.8847 21.2516 12.8792 21.3117 12.8738 21.3719C12.8684 21.4266 12.863 21.4867 12.8576 21.5414C12.8576 21.5633 12.8521 21.5906 12.8521 21.6125C12.8521 21.6234 12.8521 21.6289 12.8521 21.6398C12.8521 21.6563 12.8467 21.6727 12.8467 21.6891C12.8467 21.7055 12.8413 21.7273 12.8413 21.7438C12.8359 21.793 12.8305 21.8422 12.8305 21.8859C12.825 21.957 12.8196 22.0281 12.8142 22.0992C12.8088 22.1594 12.8088 22.2195 12.8034 22.2797C12.7979 22.3891 12.7925 22.493 12.7871 22.6023C12.9117 22.5914 13.0418 22.5805 13.1664 22.5695C13.2911 22.5586 13.4103 22.5422 13.5295 22.5312C13.6325 22.5203 13.7355 22.5094 13.8384 22.493C13.898 22.4875 13.9522 22.4766 14.0064 22.4711C14.0877 22.4602 14.169 22.4492 14.2557 22.4328C14.3261 22.4219 14.3966 22.4109 14.4616 22.4C14.4779 22.4 14.4941 22.3945 14.5104 22.3945H14.5212C14.5266 21.9351 14.5429 21.4812 14.57 21.0273C14.7326 20.9726 14.8897 20.918 15.0523 20.8687C15.4425 20.743 15.8381 20.6281 16.2283 20.5242C16.2987 21.0164 16.3583 21.5086 16.4017 22.0117C16.5534 21.9734 16.7051 21.9352 16.8623 21.8914C16.9761 21.8586 17.0899 21.8312 17.1983 21.7984C17.3229 21.7656 17.4422 21.7273 17.5668 21.6891C17.5993 21.6781 17.6264 21.6726 17.6589 21.6617C17.7673 21.6289 17.8757 21.5906 17.9841 21.5578C17.9299 21.0875 17.8648 20.6281 17.7836 20.1742ZM15.7026 19.0422C15.6376 19.0586 15.5671 19.0695 15.5021 19.0859C15.4642 19.0914 15.4317 19.1023 15.3991 19.1078C15.3775 19.1133 15.3558 19.1187 15.3341 19.1242C15.3233 19.1242 15.307 19.1297 15.2962 19.1351C15.2908 19.1351 15.2853 19.1352 15.2799 19.1406C15.1986 19.157 15.1173 19.1789 15.0361 19.1953C14.9927 19.2063 14.9493 19.2172 14.906 19.2281C14.8626 19.2391 14.8193 19.25 14.7759 19.2609C14.7651 19.2609 14.7597 19.2664 14.7488 19.2664C14.7814 19.0531 14.8139 18.8398 14.8464 18.6266C14.9656 17.9266 15.1119 17.2375 15.2908 16.5594C15.4913 17.1719 15.6701 17.7898 15.8218 18.4242C15.8652 18.6102 15.9085 18.8016 15.9519 18.993C15.8706 19.0094 15.7839 19.0258 15.7026 19.0422Z" fill="white"/>
<path d="M14.9926 10.7242C14.0822 12.1515 13.3127 13.6828 12.722 15.3015C12.0771 15.2469 11.4214 15.2195 10.7602 15.2195C6.90722 15.2195 3.2764 16.1656 0.0791016 17.8445C3.91044 13.8195 9.15076 11.1781 14.9926 10.7242Z" fill="white"/>
<path d="M21.7553 5.36484C21.7011 5.41406 21.6415 5.45782 21.5873 5.50704L21.5819 5.51249C21.3435 5.72031 21.1105 5.92813 20.8829 6.14141C20.8449 6.17422 20.8124 6.20703 20.7745 6.23985C20.7745 6.23985 20.7745 6.23983 20.769 6.2453C20.7203 6.28905 20.6715 6.3328 20.6282 6.38202C20.5631 6.44218 20.5035 6.50234 20.4385 6.5625C20.4005 6.60078 20.3626 6.63358 20.3301 6.67186C20.0916 6.91249 19.8532 7.15313 19.6256 7.40469C19.5172 7.51954 19.4143 7.63985 19.3059 7.76016C19.2571 7.81485 19.2138 7.86407 19.1704 7.91876C19.1162 7.97891 19.062 8.03907 19.0132 8.10469C18.9591 8.16485 18.9103 8.23047 18.8561 8.29063C18.6881 8.49297 18.5255 8.69531 18.363 8.90312C18.325 8.95234 18.2871 9.00156 18.2491 9.05077C18.222 9.08359 18.195 9.12187 18.1733 9.15468C18.1353 9.2039 18.1028 9.24766 18.0649 9.29688C17.8806 9.54297 17.7072 9.78907 17.5338 10.0352C17.485 10.1008 17.4417 10.1719 17.3983 10.2375C17.2195 10.5055 17.0407 10.7789 16.8727 11.0578C16.8293 11.1289 16.786 11.1945 16.748 11.2656C18.4551 14.1477 19.5768 17.4344 19.9291 20.9453C20.0104 21.7437 20.0483 22.5477 20.0483 23.3625C20.0483 26.5453 19.4251 29.5805 18.2925 32.3477C18.2654 32.4133 18.2383 32.4734 18.2112 32.5391C18.2004 32.5719 18.1841 32.5992 18.1733 32.632C18.1516 32.6867 18.1299 32.7359 18.1083 32.7851C18.0161 32.9984 17.924 33.2117 17.8265 33.4195C17.7994 33.4851 17.7668 33.5453 17.7397 33.6109C17.7181 33.6547 17.7018 33.6984 17.6801 33.7367C17.6314 33.8461 17.5772 33.95 17.523 34.0539C17.485 34.1359 17.4417 34.2125 17.4038 34.2945C17.2845 34.5297 17.1545 34.7648 17.0244 35C21.6795 30.8711 24.6925 24.8883 24.9418 18.1891C30.6048 14.0984 34.3765 7.50313 34.68 0C29.7811 0.410156 25.3211 2.35703 21.7553 5.36484ZM27.5213 9.73984C26.2803 9.73984 25.2724 8.71718 25.2724 7.45937C25.2724 6.20155 26.2803 5.17891 27.5213 5.17891C28.7623 5.17891 29.7702 6.20155 29.7702 7.45937C29.7702 8.71718 28.7623 9.73984 27.5213 9.73984Z" fill="white"/>
<g opacity="0.25">
<path d="M15.2692 12.9391C15.2258 13.0266 15.1879 13.1086 15.1445 13.1906C15.1337 13.2125 15.1229 13.2344 15.112 13.2563C15.0741 13.3328 15.0362 13.4149 15.0036 13.4914L14.8736 13.7703C14.8302 13.8688 14.7869 13.9617 14.7489 14.0547C14.7327 14.0875 14.7164 14.1258 14.7002 14.1586C14.6893 14.186 14.6785 14.2078 14.6677 14.2352C14.6568 14.268 14.6406 14.3008 14.6243 14.3391C14.5864 14.4321 14.543 14.525 14.5051 14.6235C14.478 14.6891 14.4509 14.7547 14.4238 14.8203C14.413 14.8532 14.4021 14.8805 14.3913 14.9078C14.3859 14.9242 14.3804 14.9352 14.375 14.9516C14.375 14.9571 14.3696 14.9625 14.3642 14.9735C14.3588 15.0008 14.3479 15.0281 14.3371 15.0555C14.3262 15.0719 14.3208 15.0883 14.3154 15.1047C14.2992 15.1539 14.2775 15.2031 14.2612 15.2524C14.2504 15.2742 14.245 15.2906 14.2395 15.3125C14.2233 15.3563 14.207 15.3946 14.1908 15.4383V15.4438C14.1745 15.4875 14.1582 15.5258 14.1474 15.5641C14.1203 15.6352 14.0932 15.7063 14.0716 15.7774C14.0174 15.9305 13.9686 16.0781 13.9198 16.2313C13.871 16.3735 13.8223 16.5211 13.7789 16.6688C13.7627 16.7235 13.7464 16.7782 13.7301 16.8383C13.7193 16.8657 13.7139 16.893 13.7085 16.9203C13.6976 16.9367 13.6922 16.9586 13.6868 16.9805C13.6814 16.9969 13.676 17.0188 13.6705 17.0352C13.6597 17.0789 13.6489 17.1227 13.6326 17.1719C13.6109 17.2485 13.5892 17.325 13.573 17.407C13.5621 17.4344 13.5513 17.4672 13.5459 17.5055C13.5188 17.6039 13.4917 17.7024 13.4646 17.8063C13.4429 17.8938 13.4212 17.9813 13.405 18.0633C13.3942 18.1016 13.3833 18.1399 13.3779 18.1781C13.3508 18.293 13.3237 18.4078 13.2966 18.5227C13.2858 18.5938 13.2695 18.6594 13.2533 18.7305C13.2478 18.7633 13.2424 18.8016 13.2316 18.8344C13.2316 18.8563 13.2262 18.8781 13.2207 18.9C13.2207 18.911 13.2153 18.9219 13.2153 18.9383C13.2045 18.9821 13.1936 19.0313 13.1882 19.0805C13.1774 19.1188 13.172 19.157 13.1611 19.2008C13.1557 19.2391 13.1449 19.2883 13.1395 19.3321C13.1286 19.3758 13.1232 19.4196 13.1178 19.4633C13.1069 19.5125 13.0961 19.5672 13.0907 19.6164C13.0744 19.7203 13.0582 19.8188 13.0419 19.9172C13.0365 19.9445 13.0311 19.9719 13.0257 20.0047C13.0148 20.0703 13.0094 20.1414 12.9986 20.207C12.9931 20.2234 12.9931 20.2344 12.9931 20.2453C12.9823 20.311 12.9769 20.3711 12.966 20.4367C12.9606 20.4805 12.9552 20.5297 12.9498 20.5789C12.9389 20.6282 12.9335 20.6774 12.9281 20.7266C12.9281 20.7594 12.9227 20.7977 12.9173 20.8305C12.9119 20.8578 12.9119 20.8907 12.9064 20.9235C12.9064 20.9399 12.901 20.9617 12.901 20.9836C12.8956 21.011 12.8956 21.0383 12.8902 21.0656C12.8848 21.1094 12.8793 21.1532 12.8793 21.1969C12.8739 21.2516 12.8685 21.3117 12.8631 21.3664C12.8577 21.4266 12.8522 21.4813 12.8468 21.536C12.8414 21.5633 12.8414 21.5852 12.8414 21.6125C12.8414 21.618 12.8414 21.6289 12.836 21.6399V21.6891C12.8306 21.711 12.8306 21.7274 12.8306 21.7492C12.8251 21.793 12.8197 21.8422 12.8197 21.8914C12.8143 21.9625 12.8089 22.0336 12.8035 22.1047C12.8035 22.1649 12.798 22.225 12.7926 22.2852C12.7872 22.3727 12.7818 22.4711 12.7764 22.5641L17.2797 17.9266C16.7974 16.1711 16.12 14.5031 15.2692 12.9391ZM15.5022 19.086C15.4643 19.0969 15.4318 19.1024 15.3938 19.1133C15.3721 19.1133 15.3559 19.1188 15.3342 19.1242C15.3179 19.1297 15.3071 19.1297 15.2963 19.1352H15.28C15.1987 19.157 15.1174 19.1735 15.0362 19.1953C14.9928 19.2063 14.9549 19.2172 14.9115 19.2281C14.8682 19.2391 14.8248 19.25 14.7815 19.2555C14.7706 19.261 14.7598 19.261 14.7544 19.2664C14.7815 19.0532 14.814 18.8399 14.8519 18.6266C14.9711 17.9266 15.1175 17.2375 15.2963 16.5594C15.4968 17.1719 15.6756 17.7899 15.8273 18.4242C15.8707 18.6102 15.9141 18.8016 15.9574 18.993C15.8707 19.0094 15.784 19.0258 15.7027 19.0422C15.6323 19.0586 15.5672 19.0696 15.5022 19.086Z" fill="white"/>
<path d="M0.0742188 17.8445C3.27151 16.1656 6.90775 15.2195 10.7553 15.2195C11.4165 15.2195 12.0722 15.2469 12.7171 15.3015C13.3132 13.6828 14.0773 12.1515 14.9877 10.7242C9.15128 11.1781 3.91097 13.8195 0.0742188 17.8445Z" fill="white"/>
<path d="M21.7563 5.37032C21.7021 5.41407 21.6479 5.46327 21.5883 5.51249C21.5883 5.51249 21.5829 5.5125 21.5829 5.51797C21.3444 5.72031 21.1114 5.92812 20.8838 6.14687C20.8459 6.17968 20.8134 6.21249 20.7754 6.2453C20.7754 6.2453 20.7754 6.24531 20.77 6.25078C20.7212 6.29453 20.6779 6.33827 20.6291 6.38202C20.5641 6.44765 20.5045 6.50782 20.4395 6.56797C20.4015 6.60079 20.369 6.63906 20.3311 6.67734C20.0926 6.9125 19.8542 7.1586 19.6266 7.40469C19.5182 7.525 19.4152 7.63985 19.3069 7.76016C19.2635 7.80938 19.2147 7.86407 19.1714 7.91876C19.1172 7.97891 19.0684 8.03906 19.0142 8.09922C18.96 8.15937 18.9113 8.225 18.8571 8.28515C18.6891 8.4875 18.5265 8.68984 18.3639 8.89765C18.326 8.94687 18.2881 8.9961 18.2501 9.04532C18.223 9.07813 18.2014 9.11094 18.1743 9.14922C18.1363 9.19297 18.1038 9.24218 18.0659 9.2914C17.887 9.53203 17.7082 9.77812 17.5402 10.0297C17.4914 10.0953 17.4481 10.1609 17.3993 10.232C17.2205 10.5 17.0417 10.7734 16.8737 11.0523C16.8303 11.118 16.787 11.1891 16.749 11.2602C17.6594 12.8023 18.4073 14.4594 18.9546 16.2039L25.9019 9.04532C25.5118 8.63516 25.2679 8.07734 25.2679 7.45937C25.2679 6.20155 26.2759 5.17891 27.5223 5.17891C28.1184 5.17891 28.6549 5.41407 29.0559 5.79688L34.681 0C29.7821 0.410156 25.3221 2.3625 21.7563 5.37032Z" fill="white"/>
</g>
<path d="M0.00888123 34.9836C-0.202465 32.0469 3.42836 27.4477 3.42836 27.4477C2.69136 27.7375 2.17113 28.4758 2.17113 28.4758C2.17113 28.4758 6.93996 21.1313 10.3215 24.5547" fill="#EF484A"/>
<path d="M0.00878906 34.9836C2.91345 35.1969 7.4547 31.5219 7.4547 31.5219C7.16749 32.2657 6.44132 32.7961 6.44132 32.7961C6.44132 32.7961 13.6976 27.9672 10.316 24.5493" fill="#EC2024"/>
<path d="M4.97823 29.9524C4.86985 28.4649 6.71237 26.1352 6.71237 26.1352C6.33844 26.2828 6.07289 26.6547 6.07289 26.6547C6.07289 26.6547 8.48983 22.936 10.2023 24.6641" fill="#FFCB04"/>
<path d="M4.97852 29.9524C6.4471 30.0618 8.75023 28.1969 8.75023 28.1969C8.60392 28.5743 8.23543 28.8422 8.23543 28.8422C8.23543 28.8422 11.9096 26.3977 10.1972 24.6641" fill="#FDBB11"/>
<path d="M51.1822 21.7301H46.6409L45.9147 23.9012H42.8096L47.2153 11.6183H50.6511L55.0568 23.9012H51.9191L51.1822 21.7301ZM50.4235 19.4222L48.917 14.9269L47.4267 19.4222H50.4235Z" fill="white"/>
<path d="M71.6016 15.1347C72.3115 15.8675 72.6692 16.8902 72.6692 18.1972V23.9011H69.7212V18.5965C69.7212 17.9676 69.5586 17.4808 69.228 17.1363C68.8975 16.7918 68.4423 16.6222 67.8678 16.6222C67.288 16.6222 66.8382 16.7918 66.5076 17.1363C66.1771 17.4808 66.0145 17.9676 66.0145 18.5965V23.9011H63.0665V18.5965C63.0665 17.9676 62.9039 17.4808 62.5733 17.1363C62.2428 16.7918 61.7876 16.6222 61.2131 16.6222C60.6387 16.6222 60.1835 16.7918 59.8529 17.1363C59.5224 17.4808 59.3598 17.9676 59.3598 18.5965V23.9011H56.3955V14.134H59.3598V15.359C59.6578 14.9488 60.0534 14.6261 60.5411 14.3855C61.0289 14.1449 61.5762 14.0246 62.1886 14.0246C62.9147 14.0246 63.565 14.1832 64.1395 14.4949C64.7139 14.8121 65.1583 15.2605 65.4834 15.8402C65.8194 15.3043 66.2746 14.8668 66.8544 14.5277C67.4343 14.1886 68.0629 14.0191 68.7457 14.0191C69.9379 14.03 70.8917 14.3965 71.6016 15.1347Z" fill="white"/>
<path d="M74.7228 16.3597C75.0967 15.5996 75.6115 15.0199 76.2564 14.6098C76.9067 14.1996 77.6274 13.9973 78.424 13.9973C79.1069 13.9973 79.703 14.1394 80.2178 14.4183C80.7326 14.6972 81.1282 15.0636 81.4046 15.523V14.1394H84.3688V23.9066H81.4046V22.523C81.1174 22.9769 80.7109 23.3433 80.2015 23.6277C79.6867 23.9066 79.0906 24.0488 78.4078 24.0488C77.622 24.0488 76.9067 23.841 76.2564 23.4254C75.6115 23.0097 75.0967 22.4246 74.7228 21.659C74.3489 20.8933 74.1592 20.0129 74.1592 19.0066C74.1592 17.9949 74.3489 17.1144 74.7228 16.3597ZM80.7922 17.2511C80.3804 16.8191 79.8818 16.6058 79.2911 16.6058C78.7004 16.6058 78.2019 16.8191 77.79 17.2457C77.3782 17.6723 77.1722 18.2574 77.1722 19.0066C77.1722 19.7558 77.3782 20.3465 77.79 20.784C78.2019 21.2215 78.7004 21.4402 79.2911 21.4402C79.8818 21.4402 80.3804 21.2269 80.7922 20.7949C81.2041 20.3629 81.41 19.7722 81.41 19.0285C81.41 18.2738 81.2041 17.6832 80.7922 17.2511Z" fill="white"/>
<path d="M90.7907 14.4949C91.3109 14.1887 91.8908 14.0301 92.5248 14.0301V17.1965H91.712C90.9695 17.1965 90.4168 17.3551 90.0483 17.6777C89.6798 18.0004 89.4955 18.5637 89.4955 19.3676V23.9012H86.5312V14.134H89.4955V15.7637C89.8369 15.2277 90.2705 14.8012 90.7907 14.4949Z" fill="white"/>
<path d="M106.414 17.5246C106.089 18.1152 105.596 18.591 104.924 18.9519C104.252 19.3129 103.423 19.4933 102.425 19.4933H100.588V23.9012H97.624V11.6183H102.425C103.395 11.6183 104.219 11.7879 104.886 12.1269C105.558 12.466 106.062 12.9308 106.392 13.5269C106.723 14.123 106.896 14.8066 106.896 15.5722C106.902 16.2832 106.739 16.934 106.414 17.5246ZM103.466 16.7098C103.742 16.4418 103.883 16.0644 103.883 15.5722C103.883 15.0801 103.742 14.7027 103.466 14.4348C103.189 14.1668 102.767 14.0301 102.198 14.0301H100.583V17.109H102.198C102.767 17.109 103.189 16.9777 103.466 16.7098Z" fill="#FFCC2F"/>
<path d="M108.419 16.3597C108.793 15.5996 109.308 15.0199 109.953 14.6098C110.603 14.1996 111.324 13.9973 112.12 13.9973C112.803 13.9973 113.399 14.1394 113.914 14.4183C114.429 14.6972 114.824 15.0636 115.101 15.523V14.1394H118.065V23.9066H115.101V22.523C114.814 22.9769 114.407 23.3433 113.898 23.6277C113.383 23.9066 112.787 24.0488 112.104 24.0488C111.318 24.0488 110.603 23.841 109.953 23.4254C109.308 23.0097 108.793 22.4246 108.419 21.659C108.045 20.8933 107.855 20.0129 107.855 19.0066C107.855 17.9949 108.04 17.1144 108.419 16.3597ZM114.489 17.2511C114.077 16.8191 113.578 16.6058 112.987 16.6058C112.397 16.6058 111.898 16.8191 111.486 17.2457C111.074 17.6723 110.869 18.2574 110.869 19.0066C110.869 19.7558 111.074 20.3465 111.486 20.784C111.898 21.2215 112.397 21.4402 112.987 21.4402C113.578 21.4402 114.077 21.2269 114.489 20.7949C114.9 20.3629 115.106 19.7722 115.106 19.0285C115.101 18.2738 114.895 17.6832 114.489 17.2511Z" fill="#FFCC2F"/>
<path d="M120.244 16.3597C120.656 15.5996 121.225 15.0199 121.962 14.6098C122.693 14.1996 123.539 13.9973 124.487 13.9973C125.701 13.9973 126.714 14.3199 127.533 14.9597C128.345 15.5996 128.882 16.5074 129.137 17.6723H125.983C125.717 16.9285 125.202 16.5512 124.438 16.5512C123.896 16.5512 123.463 16.7644 123.138 17.191C122.812 17.6176 122.65 18.2246 122.65 19.0176C122.65 19.8105 122.812 20.423 123.138 20.8441C123.463 21.2707 123.896 21.484 124.438 21.484C125.202 21.484 125.717 21.1121 125.983 20.3629H129.137C128.882 21.5058 128.345 22.4027 127.522 23.059C126.703 23.7152 125.69 24.0379 124.487 24.0379C123.539 24.0379 122.699 23.8355 121.962 23.4254C121.225 23.0152 120.656 22.4355 120.244 21.6754C119.832 20.9152 119.626 20.0293 119.626 19.0176C119.631 18.0058 119.832 17.1144 120.244 16.3597Z" fill="#FFCC2F"/>
<path d="M136.626 23.9012L133.678 19.8051V23.9012H130.714V10.9512H133.678V18.1098L136.61 14.1394H140.268L136.247 19.0395L140.306 23.9066H136.626V23.9012Z" fill="#FFCC2F"/>
<path d="M150.499 19.734H143.79C143.834 20.341 144.029 20.8058 144.37 21.123C144.712 21.4457 145.129 21.6043 145.627 21.6043C146.37 21.6043 146.885 21.2871 147.172 20.6582H150.326C150.163 21.298 149.871 21.8777 149.448 22.3918C149.025 22.9058 148.5 23.3051 147.86 23.6004C147.226 23.8902 146.511 24.0379 145.725 24.0379C144.777 24.0379 143.931 23.8355 143.194 23.4254C142.457 23.0152 141.877 22.4355 141.46 21.6754C141.043 20.9152 140.837 20.0293 140.837 19.0176C140.837 18.0004 141.043 17.1144 141.455 16.3597C141.867 15.5996 142.441 15.0199 143.178 14.6098C143.92 14.1996 144.766 13.9973 145.725 13.9973C146.662 13.9973 147.492 14.1941 148.223 14.5933C148.949 14.9926 149.518 15.5558 149.93 16.2887C150.342 17.0215 150.548 17.8801 150.548 18.859C150.548 19.1433 150.532 19.4332 150.499 19.734ZM147.513 18.0715C147.513 17.5574 147.34 17.1472 146.993 16.8465C146.646 16.5457 146.213 16.3926 145.692 16.3926C145.194 16.3926 144.777 16.5402 144.435 16.8301C144.094 17.1199 143.882 17.5355 143.801 18.0715H147.513Z" fill="#FFCC2F"/>
<path d="M157.5 21.3637V23.9012H155.994C154.921 23.9012 154.081 23.6387 153.479 23.1027C152.878 22.5723 152.58 21.7082 152.58 20.5051V16.6223H151.398V14.1395H152.58V11.7606H155.544V14.1395H157.484V16.6223H155.544V20.5434C155.544 20.8332 155.615 21.0465 155.75 21.1723C155.891 21.3035 156.119 21.3637 156.444 21.3637H157.5Z" fill="#FFCC2F"/>
</svg>
